<svg width="800" height="600" viewBox="0 0 800 600" fill="none" xmlns="http://www.w3.org/2000/svg">
<g clip-path="url(#clip0_20_1285)">
<path d="M269.82 166.35L272.4 155.03L274.72 166.01L269.82 166.35Z" fill="#4B0062"/>
<path d="M273.92 173.72L273.5 174.18C271.388 174.757 269.424 175.78 267.74 177.18C265.09 179.37 263.49 182.03 263.3 184.18C261.35 182.46 257.42 181.79 253.3 182.71C249.9 183.47 247.3 185.14 246.12 187.01C244.84 184.74 241.29 182.84 237.12 182.43C233.5 182.07 230.36 182.92 228.74 184.43L243.88 167C244.605 166.159 245.553 165.54 246.615 165.214C247.676 164.889 248.808 164.87 249.88 165.16L272.67 171.27L273.92 173.72Z" fill="#4B0062"/>
<path d="M288.73 171.75L288.67 171.57L287.05 166.57L286.85 165.96C286.451 164.692 285.626 163.6 284.514 162.871C283.402 162.142 282.072 161.82 280.75 161.96L279.69 162.07L273.14 163.57C271.873 163.971 270.783 164.796 270.054 165.908C269.325 167.019 269.002 168.348 269.14 169.67L269.82 176.06C270.603 177.448 271.783 178.57 273.209 179.282C274.634 179.995 276.24 180.266 277.82 180.06L283.02 178.96C284.557 178.518 285.927 177.625 286.952 176.397C287.977 175.169 288.61 173.662 288.77 172.07L288.73 171.75Z" fill="#4B0062"/>
<path d="M284.89 163.16L277.94 153.86L280.27 164.84L284.89 163.16Z" fill="#4B0062"/>
<path d="M329.81 163.11C327.71 162.35 324.48 162.85 321.31 164.65C317.66 166.72 315.17 169.89 314.92 172.49C313.11 171.25 310.03 170.8 306.62 171.49C302.52 172.3 299.19 174.49 298.11 176.87C297.05 174.97 294.52 173.19 291.19 172.26C290.381 172.032 289.555 171.868 288.72 171.77C288.66 171.761 288.6 171.761 288.54 171.77C287.26 171.613 285.964 171.636 284.69 171.84L284.12 171.59V170.94L284.24 168.83L285.54 167.78L287 166.6L288.54 165.36L302.65 154C303.509 153.306 304.547 152.868 305.643 152.737C306.74 152.606 307.852 152.788 308.85 153.26L329.81 163.11Z" fill="#4B0062"/>
<path d="M332.46 118.57L338.05 112.85L335.47 120.14L332.46 118.57Z" fill="#4B0062"/>
<path d="M332.22 124.37L331.81 124.49C330.355 124.073 328.827 123.974 327.33 124.2C325.363 124.363 323.531 125.263 322.2 126.72C321.67 125.01 319.6 123.2 316.88 122.27C315.035 121.514 312.97 121.493 311.11 122.21C311.18 120.41 309.77 118.02 307.46 116.28C305.46 114.77 303.31 114.14 301.81 114.46L317.01 109.61C317.735 109.379 318.511 109.358 319.249 109.547C319.986 109.736 320.655 110.129 321.18 110.68L332.37 122.47L332.22 124.37Z" fill="#4B0062"/>
<path d="M341.63 128.55V128.42L342.48 124.89L342.58 124.46C342.788 123.573 342.688 122.642 342.295 121.82C341.902 120.998 341.241 120.335 340.42 119.94L339.76 119.62L335.37 118.14C334.483 117.928 333.55 118.026 332.726 118.417C331.902 118.808 331.237 119.469 330.84 120.29L328.94 124.29C328.902 125.392 329.197 126.48 329.785 127.413C330.374 128.345 331.229 129.08 332.24 129.52L335.69 130.74C336.755 131.031 337.882 130.996 338.927 130.639C339.971 130.283 340.885 129.621 341.55 128.74L341.63 128.55Z" fill="#4B0062"/>
<path d="M342.47 122.11L341.73 114.15L339.15 121.44L342.47 122.11Z" fill="#4B0062"/>
<path d="M368.88 138.25C367.88 137.05 365.88 136.18 363.34 136.09C360.45 135.99 357.85 136.96 356.76 138.39C355.769 136.664 354.155 135.384 352.25 134.81C349.55 133.81 346.8 133.91 345.31 134.91C345.192 132.937 344.331 131.083 342.9 129.72C342.508 129.297 342.083 128.906 341.63 128.55L341.53 128.47C340.833 127.918 340.062 127.467 339.24 127.13L338.99 126.78L339.25 126.41L340.08 125.21L341.22 125.06L342.5 124.89L343.85 124.72L356.2 123.1C356.956 122.996 357.725 123.11 358.418 123.429C359.111 123.748 359.698 124.258 360.11 124.9L368.88 138.25Z" fill="#4B0062"/>
<path d="M544.52 310.93L551.17 302.92L548.58 312.65L544.52 310.93Z" fill="#4B0062"/>
<path d="M544.82 318.48L544.3 318.67C542.369 318.284 540.377 318.319 538.46 318.77C535.46 319.44 533.1 320.92 532.07 322.58C531.21 320.41 528.33 318.28 524.7 317.37C521.7 316.6 518.89 316.87 517.21 317.9C517.11 315.56 515.04 312.61 511.86 310.59C509.11 308.84 506.25 308.24 504.34 308.82L523.54 300.94C524.462 300.569 525.471 300.466 526.449 300.643C527.427 300.82 528.336 301.27 529.07 301.94L544.8 316L544.82 318.48Z" fill="#4B0062"/>
<path d="M557.46 322.91V322.74L558.19 318.07L558.28 317.5C558.467 316.326 558.242 315.123 557.645 314.096C557.047 313.068 556.113 312.278 555 311.86L554.11 311.52L548.26 310.07C547.087 309.882 545.885 310.103 544.856 310.696C543.827 311.29 543.034 312.22 542.61 313.33L540.61 318.71C540.677 320.143 541.174 321.522 542.035 322.668C542.897 323.815 544.083 324.676 545.44 325.14L550.05 326.37C551.458 326.638 552.915 326.479 554.232 325.912C555.549 325.345 556.667 324.397 557.44 323.19L557.46 322.91Z" fill="#4B0062"/>
<path d="M557.87 314.48L556.08 304.23L553.49 313.95L557.87 314.48Z" fill="#4B0062"/>
<path d="M562.63 331C562.715 330.914 562.805 330.834 562.9 330.76C562.909 330.893 562.909 331.027 562.9 331.16C562.84 331.16 562.81 331.16 562.81 331.16C562.743 331.115 562.682 331.062 562.63 331Z" fill="#4B0062"/>
<path d="M593.8 332.64C592.43 331.18 589.64 330.27 586.39 330.43C582.63 330.61 579.39 332.13 578.1 334.1C577.16 332.37 574.88 330.77 571.87 329.93C568.26 328.93 564.71 329.33 562.87 330.79C562.8 328.84 561.49 326.39 559.21 324.31C558.658 323.801 558.066 323.336 557.44 322.92C557.402 322.884 557.358 322.853 557.31 322.83C556.349 322.187 555.302 321.682 554.2 321.33L553.84 320.9L554.13 320.39L555.13 318.75L556.6 318.44L558.24 318.09L559.97 317.72L575.81 314.33C576.779 314.122 577.786 314.192 578.717 314.532C579.647 314.872 580.463 315.467 581.07 316.25L593.8 332.64Z" fill="#4B0062"/>
<path d="M562.89 331.18C562.83 331.18 562.8 331.18 562.8 331.18C562.736 331.135 562.679 331.081 562.63 331.02C562.715 330.934 562.805 330.854 562.9 330.78C562.906 330.913 562.902 331.047 562.89 331.18Z" fill="#4B0062"/>
<path d="M562.89 331.18C562.83 331.18 562.8 331.18 562.8 331.18C562.736 331.135 562.679 331.081 562.63 331.02C562.715 330.934 562.805 330.854 562.9 330.78C562.906 330.913 562.902 331.047 562.89 331.18Z" fill="#4B0062"/>
<path d="M469.4 185.86L453.25 225.84L435.84 268.93L434.67 271.82L420.57 282.13H359.2L345.1 271.82L343.93 268.93L326.52 225.84L310.37 185.86H469.4Z" fill="#F44B1B"/>
<path d="M420.73 282.63H359L344.65 272.14L343.43 269.14L309.59 185.38H470.14L435.08 272.16L420.73 282.63ZM359.36 281.63H420.36L434.21 271.5L468.61 186.36H311.11L345.51 271.5L359.36 281.63Z" fill="#4B0062"/>
<path d="M505.14 451.29H274.63L344.71 269.72H435.07L505.14 451.29Z" fill="#4B0062"/>
<path d="M305.56 240.5H280C276.402 245.748 274.476 251.962 274.476 258.325C274.476 264.688 276.402 270.902 280 276.15H366.43V240.5H305.56Z" fill="#4B0062"/>
<path d="M499.8 240.5H413.36V276.15H499.79C503.388 270.902 505.314 264.688 505.314 258.325C505.314 251.962 503.388 245.748 499.79 240.5H499.8Z" fill="#4B0062"/>
<path d="M361.12 250.13L343.93 268.93L326.52 225.84L361.12 250.13Z" fill="#FFF0DC"/>
<path d="M343.77 269.86L325.43 224.47L361.88 250.06L343.77 269.86ZM327.62 227.23L344.1 268L360.37 250.21L327.62 227.23Z" fill="#4B0062"/>
<path d="M453.25 225.84L435.84 268.93L418.65 250.13L453.25 225.84Z" fill="#FFF0DC"/>
<path d="M436 269.86L417.89 250.06L454.34 224.47L436 269.86ZM419.4 250.22L435.67 268L452.15 227.21L419.4 250.22Z" fill="#4B0062"/>
<path d="M389.89 282.13H353.27V469.9H389.89V282.13Z" fill="#F44B1B"/>
<path d="M390.39 470.4H352.77V281.63H390.39V470.4ZM353.77 469.4H389.39V282.63H353.77V469.4Z" fill="#4B0062"/>
<path d="M426.5 282.13H389.89V469.9H426.5V282.13Z" fill="#F44B1B"/>
<path d="M427 470.4H389.39V281.63H427V470.4ZM390.39 469.4H426V282.63H390.39V469.4Z" fill="#4B0062"/>
<path d="M353.27 469.91V477.64L329.82 490.58H373.56L381.1 482.72V490.58H389.89V469.91H353.27Z" fill="#4B0062"/>
<path d="M390.39 491.08H380.6V484L373.78 491.12H327.88L352.77 477.38V469.44H390.38L390.39 491.08ZM381.6 490.08H389.39V470.41H353.77V477.94L331.77 490.09H373.35L381.6 481.48V490.08Z" fill="#4B0062"/>
<path d="M389.89 282.13V379.21L371.58 392.93L353.27 372.4V282.13H389.89Z" fill="#A26BB4"/>
<path d="M371.51 393.61L352.77 372.61V281.61H390.39V379.44L371.51 393.61ZM353.77 372.21L371.65 392.21L389.39 379V282.63H353.77V372.21Z" fill="#4B0062"/>
<path d="M426.5 469.91V477.64L449.95 490.58H406.21L398.68 482.72V490.58H389.89V469.91H426.5Z" fill="#4B0062"/>
<path d="M451.89 491.08H406L399.17 484V491.12H389.38V469.41H427V477.35L451.89 491.08ZM406.42 490.08H448L426 477.93V470.4H390.39V490.07H398.18V481.46L406.42 490.08Z" fill="#4B0062"/>
<path d="M426.5 282.13V372.4L408.19 392.93L389.89 379.21V282.13H426.5Z" fill="#A26BB4"/>
<path d="M408.26 393.61L389.39 379.46V281.63H427V372.63L408.26 393.61ZM390.39 379L408.12 392.29L426 372.29V282.63H390.39V379Z" fill="#4B0062"/>
<path d="M396.42 335.38C398.347 335.38 399.91 333.817 399.91 331.89C399.91 329.963 398.347 328.4 396.42 328.4C394.493 328.4 392.93 329.963 392.93 331.89C392.93 333.817 394.493 335.38 396.42 335.38Z" fill="#4B0062"/>
<path d="M396.42 351.21C398.347 351.21 399.91 349.647 399.91 347.72C399.91 345.793 398.347 344.23 396.42 344.23C394.493 344.23 392.93 345.793 392.93 347.72C392.93 349.647 394.493 351.21 396.42 351.21Z" fill="#4B0062"/>
<path d="M390.39 469.91H389.39V490.58H390.39V469.91Z" fill="#A26BB4"/>
<path d="M389.93 278.86H389.84H348.58L379.35 310.93L384.97 316.79L389.84 321.86V321.95L389.89 321.91L389.93 321.95V321.86L394.8 316.79L400.42 310.93L431.19 278.86H389.93Z" fill="#F44B1B"/>
<path d="M390.43 323.07L389.87 322.57L389.39 322.95V322.08L347.45 278.37H432.45L390.52 322.07L390.43 323.07ZM349.75 279.36L389.88 321.19L430 279.36H349.75Z" fill="#4B0062"/>
<path d="M398.34 304.62L389.93 293.79L389.89 293.74L389.84 293.8L381.43 304.62L387.28 312.01L384.97 316.79L389.84 321.86V321.95L389.89 321.91L389.93 321.95V321.86L394.8 316.79L392.49 312.01L398.34 304.62Z" fill="#4B0062"/>
<path d="M431.19 278.86L400.42 310.93L389.93 301.59L389.89 301.55L389.84 301.59L379.35 310.93L348.58 278.86H431.19Z" fill="#FFF0DC"/>
<path d="M400.45 311.63L389.89 302.23L379.33 311.63L347.41 278.37H432.41L400.45 311.63ZM349.76 279.37L379.39 310.25L389.87 300.92L390.25 301.21L400.4 310.21L430 279.36L349.76 279.37Z" fill="#4B0062"/>
<path d="M389.89 301.83C417.703 301.83 440.25 277.049 440.25 246.48C440.25 215.911 417.703 191.13 389.89 191.13C362.077 191.13 339.53 215.911 339.53 246.48C339.53 277.049 362.077 301.83 389.89 301.83Z" fill="#FFF0DC"/>
<path d="M389.89 302.33C361.89 302.33 339.03 277.28 339.03 246.48C339.03 215.68 361.84 190.63 389.89 190.63C417.94 190.63 440.74 215.68 440.74 246.48C440.74 277.28 417.93 302.33 389.89 302.33ZM389.89 191.63C362.4 191.63 340.03 216.24 340.03 246.48C340.03 276.72 362.4 301.33 389.89 301.33C417.38 301.33 439.74 276.72 439.74 246.48C439.74 216.24 417.38 191.63 389.89 191.63Z" fill="#4B0062"/>
<path d="M440.24 246.48C440.229 250.076 439.894 253.664 439.24 257.2C436.83 234.2 424.03 216.69 408.59 216.69C401.59 216.69 395.04 220.35 389.84 226.5C384.63 220.35 378.13 216.69 371.08 216.69C355.64 216.69 342.84 234.22 340.43 257.2C339.776 253.664 339.441 250.076 339.43 246.48C339.43 215.91 361.97 191.13 389.79 191.13C417.61 191.13 440.24 215.91 440.24 246.48Z" fill="#4B0062"/>
<path d="M434.512 221.066L427.258 226.309L427.844 227.119L435.098 221.876L434.512 221.066Z" fill="#A26BB4"/>
<path d="M431.23 232.17H431.11V231.66L430.89 231.22L437.3 228.07L437.74 228.97L431.23 232.17Z" fill="#A26BB4"/>
<path d="M351.93 227.1L344.68 221.85L344.97 221.45L344.96 220.94H345.12L345.26 221.04L352.51 226.29L351.93 227.1Z" fill="#A26BB4"/>
<path d="M348.67 232.17H348.55L342.02 228.96L342.46 228.07L348.88 231.23L348.67 231.66V232.17Z" fill="#A26BB4"/>
<path d="M296.36 236.04L297 283.95L301.74 286.51L307.25 268.58V286.51H314.55V269.86L320.43 286H327.61L323.38 270.37L332.73 281.39L337.22 277.93L313.26 232.59L296.36 236.04Z" fill="#FFF0DC"/>
<path d="M302 287.24L296.47 284.24L295.82 235.63L313.53 232L337.85 278L332.66 282L324.45 272.33L328.26 286.43H320.08L315.08 272.62V287H306.78V271.9L302 287.24ZM307.71 286.01H314V267L320.73 285.47H327L322.36 268.31L332.85 280.67L336.62 277.76L313 233.15L296.87 236.45L297.5 283.65L301.44 285.78L307.75 265.25L307.71 286.01Z" fill="#4B0062"/>
<path d="M483.42 236.04L482.77 283.95L478.04 286.51L472.53 268.58V286.51H465.23V269.86L459.34 286H452.16L456.39 270.37L447.04 281.39L442.56 277.93L466.51 232.59L483.42 236.04Z" fill="#FFF0DC"/>
<path d="M477.74 287.24L473 271.91V287H464.7V272.69L459.7 286.5H451.52L455.33 272.4L447.12 282.07L441.93 278.07L466.25 232.07L483.93 235.69L483.28 284.3L477.74 287.24ZM465.74 286.01H472V265.25L478.31 285.78L482.25 283.65L482.88 236.45L466.75 233.15L443.17 277.79L447 280.7L457.49 268.34L452.85 285.5H459L465.73 267L465.74 286.01Z" fill="#4B0062"/>
<path d="M367.11 257.2C364.556 257.125 362.115 256.125 360.241 254.388C358.368 252.65 357.188 250.292 356.92 247.75L356.85 247.19H377.37L377.3 247.75C377.032 250.292 375.852 252.65 373.979 254.388C372.105 256.125 369.664 257.125 367.11 257.2ZM358 248.2C358.285 250.414 359.366 252.448 361.042 253.922C362.718 255.396 364.873 256.209 367.105 256.209C369.337 256.209 371.492 255.396 373.168 253.922C374.844 252.448 375.925 250.414 376.21 248.2H358Z" fill="#4B0062"/>
<path d="M372.51 248C372.51 249.432 371.941 250.806 370.928 251.818C369.916 252.831 368.542 253.4 367.11 253.4C365.678 253.4 364.304 252.831 363.292 251.818C362.279 250.806 361.71 249.432 361.71 248C361.7 247.89 361.7 247.78 361.71 247.67H372.47C372.493 247.779 372.507 247.889 372.51 248Z" fill="#F44B1B"/>
<path d="M367.11 253.92C365.546 253.917 364.047 253.295 362.941 252.189C361.835 251.083 361.213 249.584 361.21 248.02C361.197 247.88 361.197 247.74 361.21 247.6L361.29 247.19H372.88L372.95 247.6C372.962 247.74 372.962 247.88 372.95 248.02C372.947 249.574 372.333 251.064 371.24 252.168C370.147 253.272 368.664 253.902 367.11 253.92ZM362.21 248.19C362.267 249.45 362.808 250.639 363.719 251.511C364.631 252.382 365.844 252.869 367.105 252.869C368.366 252.869 369.579 252.382 370.491 251.511C371.402 250.639 371.943 249.45 372 248.19H362.21Z" fill="#4B0062"/>
<path d="M412.66 257.2C410.106 257.125 407.665 256.125 405.791 254.388C403.918 252.65 402.738 250.292 402.47 247.75L402.4 247.19H422.92L422.85 247.75C422.582 250.292 421.402 252.65 419.529 254.388C417.655 256.125 415.214 257.125 412.66 257.2ZM403.55 248.2C403.835 250.414 404.916 252.448 406.592 253.922C408.268 255.396 410.423 256.209 412.655 256.209C414.887 256.209 417.042 255.396 418.718 253.922C420.394 252.448 421.475 250.414 421.76 248.2H403.55Z" fill="#4B0062"/>
<path d="M418.06 248C418.06 249.432 417.491 250.806 416.478 251.818C415.466 252.831 414.092 253.4 412.66 253.4C411.228 253.4 409.854 252.831 408.842 251.818C407.829 250.806 407.26 249.432 407.26 248C407.25 247.89 407.25 247.78 407.26 247.67H418C418.03 247.778 418.05 247.888 418.06 248Z" fill="#F44B1B"/>
<path d="M412.66 253.92C411.096 253.917 409.597 253.295 408.491 252.189C407.385 251.083 406.763 249.584 406.76 248.02C406.747 247.88 406.747 247.74 406.76 247.6L406.84 247.19H418.43L418.51 247.6C418.523 247.74 418.523 247.88 418.51 248.02C418.507 249.575 417.892 251.067 416.797 252.171C415.702 253.276 414.215 253.904 412.66 253.92ZM407.76 248.19C407.817 249.45 408.358 250.639 409.269 251.511C410.181 252.382 411.394 252.869 412.655 252.869C413.916 252.869 415.129 252.382 416.041 251.511C416.952 250.639 417.493 249.45 417.55 248.19H407.76Z" fill="#4B0062"/>
<path d="M389.89 242.63L382.91 269.73H396.87L389.89 242.63Z" fill="#F48001"/>
<path d="M405.26 267.28C405.316 272.453 404.23 277.575 402.08 282.28C399.27 288.14 394.85 291.92 389.89 291.92C384.93 291.92 380.5 288.14 377.7 282.28C375.541 277.577 374.451 272.454 374.51 267.28C375.84 270.266 377.797 272.93 380.25 275.09C382.875 277.514 386.317 278.86 389.89 278.86C393.463 278.86 396.905 277.514 399.53 275.09C401.978 272.928 403.932 270.264 405.26 267.28Z" fill="#4B0062"/>
<path d="M389.89 292.44C384.89 292.44 380.26 288.82 377.25 282.52C375.048 277.745 373.937 272.538 374 267.28V265L375 267.06C376.304 269.978 378.216 272.583 380.61 274.7C383.144 277.047 386.471 278.35 389.925 278.35C393.379 278.35 396.706 277.047 399.24 274.7C401.63 272.582 403.539 269.977 404.84 267.06L405.84 264.99V267.27C405.904 272.526 404.801 277.732 402.61 282.51C399.51 288.83 394.9 292.44 389.89 292.44ZM375.07 269.44C375.263 273.807 376.31 278.095 378.15 282.06C380.99 288.01 385.27 291.42 389.89 291.42C394.51 291.42 398.78 288.01 401.63 282.06C403.462 278.096 404.505 273.813 404.7 269.45C403.444 271.713 401.806 273.743 399.86 275.45C397.144 277.951 393.587 279.34 389.895 279.34C386.203 279.34 382.646 277.951 379.93 275.45C377.977 273.752 376.333 271.729 375.07 269.47V269.44Z" fill="#4B0062"/>
<path d="M405.26 267.28C405.316 272.453 404.23 277.575 402.08 282.28L399.53 275.07C401.976 272.914 403.93 270.257 405.26 267.28Z" fill="#FFF0DC"/>
<path d="M402 283.61L398.93 274.94L399.19 274.72C401.58 272.602 403.489 269.997 404.79 267.08L405.79 265.01V267.29C405.854 272.546 404.751 277.752 402.56 282.53L402 283.61ZM400.1 275.25L402.1 280.97C403.609 277.316 404.475 273.429 404.66 269.48C403.47 271.637 401.936 273.586 400.12 275.25H400.1Z" fill="#4B0062"/>
<path d="M380.25 275.09L377.7 282.3C375.541 277.597 374.451 272.474 374.51 267.3C375.842 270.279 377.8 272.935 380.25 275.09Z" fill="#FFF0DC"/>
<path d="M377.77 283.61L377.25 282.53C375.046 277.752 373.935 272.542 374 267.28V265L375 267.06C376.304 269.978 378.216 272.583 380.61 274.7L380.87 274.92L377.77 283.61ZM375.07 269.47C375.253 273.423 376.123 277.315 377.64 280.97L379.64 275.25C377.812 273.586 376.268 271.633 375.07 269.47Z" fill="#4B0062"/>
<path d="M539.22 144.41C539.202 151.894 536.438 159.112 531.454 164.695C526.469 170.278 519.609 173.838 512.175 174.701C504.74 175.564 497.247 173.67 491.116 169.377C484.985 165.084 480.642 158.691 478.91 151.41C481.051 154.301 483.846 156.645 487.067 158.249C490.288 159.853 493.842 160.673 497.44 160.64C509.83 160.64 519.87 151.18 519.87 139.51C519.87 127.84 509.87 118.39 497.44 118.39C495.366 118.387 493.302 118.659 491.3 119.2C495.888 116.037 501.254 114.189 506.816 113.855C512.379 113.52 517.927 114.713 522.861 117.303C527.795 119.894 531.927 123.784 534.81 128.552C537.693 133.321 539.218 138.787 539.22 144.36V144.41Z" fill="#F48001"/>
<path d="M273.724 176.268C276.641 175.649 278.505 172.783 277.886 169.865C277.268 166.948 274.401 165.084 271.484 165.703C268.566 166.321 266.703 169.188 267.321 172.105C267.94 175.023 270.806 176.886 273.724 176.268Z" fill="#FFF0DC"/>
<path d="M272.6 176.88C271.485 176.88 270.393 176.565 269.45 175.971C268.507 175.376 267.752 174.526 267.272 173.52C266.792 172.514 266.607 171.393 266.739 170.286C266.87 169.179 267.312 168.131 268.014 167.265C268.716 166.399 269.648 165.75 270.704 165.392C271.76 165.034 272.895 164.983 273.979 165.244C275.063 165.505 276.051 166.068 276.828 166.867C277.605 167.666 278.139 168.669 278.37 169.76C278.552 170.619 278.539 171.508 278.333 172.362C278.128 173.215 277.734 174.012 277.181 174.695C276.628 175.377 275.93 175.927 275.138 176.305C274.345 176.683 273.478 176.88 272.6 176.88ZM272.6 166.08C272.264 166.083 271.929 166.12 271.6 166.19C270.652 166.391 269.785 166.868 269.108 167.562C268.432 168.256 267.976 169.134 267.799 170.087C267.621 171.04 267.731 172.024 268.112 172.914C268.494 173.805 269.132 174.562 269.944 175.091C270.756 175.619 271.707 175.895 272.676 175.883C273.645 175.871 274.588 175.573 275.387 175.024C276.187 174.476 276.805 173.704 277.165 172.804C277.525 171.904 277.61 170.918 277.41 169.97C277.177 168.874 276.575 167.892 275.705 167.186C274.836 166.48 273.75 166.093 272.63 166.09L272.6 166.08Z" fill="#4B0062"/>
<path d="M274.13 173.091C275.524 172.795 276.414 171.426 276.119 170.032C275.823 168.638 274.454 167.747 273.06 168.043C271.666 168.338 270.776 169.708 271.071 171.102C271.367 172.496 272.736 173.386 274.13 173.091Z" fill="#F44B1B"/>
<path d="M273.6 173.64C273.018 173.642 272.447 173.48 271.953 173.171C271.46 172.862 271.064 172.419 270.811 171.895C270.559 171.37 270.461 170.784 270.528 170.206C270.595 169.627 270.824 169.08 271.19 168.627C271.555 168.173 272.042 167.833 272.593 167.645C273.144 167.457 273.737 167.429 274.303 167.564C274.87 167.7 275.386 167.993 275.793 168.41C276.199 168.827 276.479 169.35 276.6 169.92C276.693 170.368 276.686 170.83 276.579 171.275C276.472 171.719 276.267 172.134 275.98 172.49C275.693 172.846 275.331 173.133 274.919 173.332C274.508 173.531 274.057 173.636 273.6 173.64ZM273.6 168.48C273.293 168.485 272.992 168.558 272.716 168.694C272.441 168.829 272.199 169.024 272.008 169.264C271.817 169.503 271.681 169.783 271.611 170.081C271.54 170.38 271.537 170.69 271.6 170.99C271.682 171.376 271.871 171.731 272.147 172.013C272.422 172.295 272.772 172.493 273.156 172.584C273.54 172.675 273.942 172.654 274.315 172.526C274.687 172.397 275.016 172.164 275.262 171.856C275.508 171.547 275.661 171.175 275.703 170.783C275.745 170.391 275.675 169.995 275.501 169.641C275.327 169.287 275.056 168.99 274.719 168.785C274.383 168.579 273.994 168.473 273.6 168.48Z" fill="#4B0062"/>
<path d="M285.349 173.799C288.266 173.181 290.13 170.314 289.511 167.397C288.893 164.479 286.026 162.616 283.109 163.234C280.191 163.853 278.328 166.719 278.946 169.637C279.565 172.554 282.431 174.418 285.349 173.799Z" fill="#FFF0DC"/>
<path d="M284.21 174.41C282.859 174.407 281.55 173.941 280.502 173.089C279.454 172.237 278.729 171.052 278.45 169.73C278.2 168.539 278.325 167.3 278.808 166.182C279.291 165.065 280.108 164.125 281.147 163.492C282.186 162.858 283.396 162.561 284.611 162.643C285.825 162.725 286.984 163.181 287.929 163.949C288.873 164.716 289.557 165.757 289.885 166.929C290.214 168.101 290.172 169.346 289.764 170.493C289.357 171.64 288.604 172.632 287.609 173.333C286.615 174.035 285.427 174.411 284.21 174.41ZM279.43 169.53C279.631 170.478 280.108 171.345 280.802 172.022C281.496 172.698 282.374 173.154 283.327 173.331C284.28 173.509 285.264 173.399 286.154 173.018C287.045 172.636 287.802 171.998 288.331 171.186C288.859 170.374 289.135 169.423 289.123 168.454C289.111 167.485 288.813 166.542 288.264 165.743C287.716 164.943 286.944 164.325 286.044 163.965C285.144 163.605 284.158 163.52 283.21 163.72C282.578 163.849 281.979 164.103 281.446 164.466C280.913 164.829 280.457 165.295 280.106 165.835C279.754 166.376 279.513 166.98 279.397 167.615C279.281 168.249 279.292 168.9 279.43 169.53Z" fill="#4B0062"/>
<path d="M283.674 171.066C285.068 170.771 285.958 169.401 285.663 168.007C285.367 166.613 283.997 165.723 282.604 166.018C281.21 166.314 280.319 167.683 280.615 169.077C280.91 170.471 282.28 171.362 283.674 171.066Z" fill="#F44B1B"/>
<path d="M283.14 171.62C282.351 171.623 281.591 171.324 281.016 170.783C280.442 170.242 280.096 169.502 280.052 168.714C280.007 167.927 280.267 167.152 280.776 166.55C281.286 165.948 282.008 165.564 282.792 165.478C283.576 165.393 284.364 165.611 284.992 166.089C285.62 166.566 286.04 167.267 286.167 168.045C286.294 168.824 286.117 169.622 285.673 170.274C285.228 170.926 284.551 171.383 283.78 171.55C283.57 171.596 283.355 171.619 283.14 171.62ZM283.14 166.46C282.833 166.465 282.532 166.538 282.256 166.674C281.981 166.809 281.739 167.004 281.548 167.244C281.357 167.483 281.221 167.763 281.151 168.061C281.08 168.36 281.077 168.67 281.14 168.97C281.222 169.356 281.411 169.711 281.687 169.993C281.962 170.275 282.312 170.473 282.696 170.564C283.08 170.655 283.482 170.634 283.855 170.506C284.227 170.377 284.556 170.144 284.802 169.836C285.048 169.527 285.201 169.155 285.243 168.763C285.285 168.371 285.215 167.975 285.041 167.621C284.867 167.267 284.596 166.97 284.259 166.765C283.922 166.559 283.534 166.453 283.14 166.46Z" fill="#4B0062"/>
<path d="M335.955 123.548C336.641 121.611 335.628 119.485 333.692 118.798C331.755 118.112 329.629 119.125 328.943 121.062C328.256 122.998 329.269 125.124 331.206 125.811C333.142 126.497 335.268 125.484 335.955 123.548Z" fill="#FFF0DC"/>
<path d="M332.43 126.51C331.535 126.505 330.665 126.216 329.945 125.684C329.225 125.152 328.693 124.405 328.425 123.551C328.158 122.697 328.169 121.78 328.457 120.933C328.745 120.085 329.294 119.351 330.027 118.837C330.759 118.322 331.636 118.054 332.531 118.071C333.426 118.087 334.292 118.388 335.005 118.929C335.718 119.471 336.24 120.225 336.496 121.082C336.752 121.94 336.729 122.856 336.43 123.7C336.136 124.525 335.593 125.238 334.877 125.741C334.161 126.245 333.306 126.513 332.43 126.51ZM332.43 119.07C331.839 119.064 331.257 119.221 330.749 119.523C330.241 119.826 329.826 120.263 329.549 120.786C329.273 121.309 329.146 121.898 329.183 122.488C329.219 123.078 329.417 123.647 329.756 124.132C330.094 124.617 330.56 125 331.101 125.238C331.643 125.476 332.239 125.56 332.825 125.481C333.411 125.402 333.965 125.164 334.424 124.791C334.884 124.419 335.232 123.927 335.43 123.37C335.602 122.887 335.656 122.369 335.588 121.861C335.52 121.353 335.331 120.868 335.037 120.447C334.744 120.027 334.354 119.682 333.901 119.443C333.447 119.203 332.943 119.075 332.43 119.07Z" fill="#4B0062"/>
<path d="M333.175 123.34C333.5 122.416 333.014 121.403 332.09 121.079C331.165 120.755 330.153 121.241 329.829 122.165C329.505 123.089 329.991 124.101 330.915 124.425C331.839 124.75 332.851 124.264 333.175 123.34Z" fill="#F44B1B"/>
<path d="M333.17 124.68C332.686 124.68 332.215 124.526 331.824 124.24C331.433 123.954 331.144 123.552 330.997 123.09C330.851 122.629 330.855 122.133 331.009 121.674C331.163 121.216 331.459 120.818 331.854 120.538C332.249 120.259 332.723 120.112 333.207 120.12C333.691 120.128 334.16 120.29 334.546 120.582C334.932 120.874 335.215 121.281 335.354 121.744C335.493 122.208 335.481 122.704 335.32 123.16C335.164 123.605 334.873 123.991 334.488 124.264C334.103 124.536 333.642 124.682 333.17 124.68ZM333.17 121.13C332.91 121.139 332.658 121.227 332.449 121.382C332.24 121.538 332.083 121.753 332 122C331.909 122.256 331.901 122.534 331.979 122.795C332.056 123.055 332.214 123.284 332.43 123.449C332.647 123.613 332.91 123.705 333.181 123.71C333.453 123.715 333.719 123.634 333.941 123.477C334.164 123.321 334.331 123.098 334.418 122.841C334.505 122.584 334.508 122.305 334.427 122.046C334.345 121.787 334.183 121.561 333.965 121.399C333.746 121.238 333.482 121.151 333.21 121.15L333.17 121.13Z" fill="#4B0062"/>
<path d="M343.677 126.277C344.363 124.34 343.35 122.214 341.414 121.528C339.477 120.841 337.351 121.854 336.665 123.791C335.978 125.727 336.991 127.854 338.928 128.54C340.864 129.227 342.99 128.213 343.677 126.277Z" fill="#FFF0DC"/>
<path d="M340.15 129.24C339.112 129.241 338.109 128.859 337.335 128.168C336.56 127.476 336.068 126.523 335.952 125.491C335.836 124.459 336.105 123.421 336.706 122.575C337.308 121.728 338.201 121.134 339.213 120.904C340.226 120.675 341.288 120.827 342.195 121.331C343.103 121.836 343.793 122.657 344.133 123.638C344.473 124.619 344.439 125.691 344.038 126.649C343.637 127.607 342.897 128.384 341.96 128.83C341.394 129.099 340.776 129.239 340.15 129.24ZM340.15 121.8C339.49 121.809 338.849 122.02 338.313 122.404C337.776 122.789 337.371 123.328 337.15 123.95C336.925 124.594 336.911 125.293 337.109 125.946C337.308 126.598 337.71 127.17 338.256 127.579C338.802 127.988 339.464 128.213 340.146 128.22C340.829 128.227 341.495 128.016 342.05 127.619C342.604 127.222 343.018 126.658 343.23 126.01C343.443 125.361 343.443 124.662 343.231 124.014C343.02 123.365 342.607 122.801 342.053 122.403C341.499 122.005 340.832 121.794 340.15 121.8Z" fill="#4B0062"/>
<path d="M341.203 125.258C341.531 124.331 341.046 123.314 340.12 122.985C339.193 122.657 338.176 123.142 337.847 124.068C337.519 124.995 338.004 126.012 338.93 126.341C339.857 126.669 340.874 126.184 341.203 125.258Z" fill="#F44B1B"/>
<path d="M339.5 126.92C339.141 126.916 338.788 126.828 338.469 126.662C338.151 126.496 337.876 126.257 337.667 125.964C337.459 125.672 337.322 125.334 337.269 124.979C337.215 124.624 337.247 124.261 337.36 123.92C337.493 123.521 337.734 123.166 338.056 122.895C338.378 122.624 338.768 122.448 339.185 122.385C339.601 122.323 340.026 122.377 340.413 122.541C340.801 122.705 341.135 122.973 341.379 123.316C341.624 123.659 341.769 124.062 341.798 124.482C341.827 124.902 341.739 125.321 341.545 125.694C341.35 126.067 341.056 126.379 340.695 126.596C340.334 126.812 339.921 126.924 339.5 126.92ZM339.5 123.36C339.237 123.361 338.98 123.443 338.766 123.595C338.551 123.748 338.388 123.962 338.3 124.21C338.188 124.53 338.207 124.881 338.353 125.186C338.499 125.492 338.761 125.727 339.08 125.84C339.318 125.922 339.574 125.933 339.818 125.871C340.062 125.808 340.281 125.675 340.45 125.489C340.618 125.302 340.728 125.07 340.766 124.821C340.803 124.572 340.766 124.318 340.66 124.09C340.556 123.872 340.394 123.688 340.19 123.559C339.987 123.43 339.751 123.361 339.51 123.36H339.5Z" fill="#4B0062"/>
<path d="M549.534 316.975C550.222 314.392 548.685 311.74 546.102 311.053C543.519 310.366 540.867 311.903 540.18 314.486C539.493 317.069 541.03 319.72 543.613 320.408C546.196 321.095 548.847 319.558 549.534 316.975Z" fill="#FFF0DC"/>
<path d="M544.88 321.09C544.062 321.089 543.255 320.901 542.521 320.54C541.787 320.178 541.146 319.653 540.646 319.005C540.147 318.357 539.803 317.603 539.641 316.801C539.478 316 539.502 315.171 539.71 314.38C540.155 313.11 541.063 312.055 542.252 311.426C543.441 310.797 544.824 310.639 546.124 310.986C547.424 311.332 548.545 312.156 549.264 313.293C549.983 314.431 550.245 315.797 550 317.12C549.702 318.261 549.036 319.272 548.105 319.995C547.173 320.719 546.029 321.114 544.85 321.12L544.88 321.09ZM544.88 311.41C544.07 311.411 543.277 311.639 542.59 312.068C541.902 312.497 541.349 313.109 540.992 313.836C540.635 314.563 540.488 315.375 540.568 316.181C540.649 316.987 540.953 317.754 541.447 318.396C541.941 319.038 542.604 319.529 543.363 319.814C544.121 320.098 544.944 320.165 545.738 320.006C546.532 319.847 547.266 319.469 547.857 318.915C548.447 318.361 548.871 317.652 549.08 316.87C549.25 316.227 549.27 315.553 549.138 314.901C549.007 314.249 548.728 313.635 548.322 313.108C547.916 312.58 547.395 312.153 546.798 311.859C546.202 311.564 545.545 311.411 544.88 311.41Z" fill="#4B0062"/>
<path d="M548.066 316.407C548.394 315.175 547.661 313.909 546.428 313.581C545.195 313.253 543.93 313.987 543.602 315.22C543.274 316.452 544.007 317.718 545.24 318.046C546.473 318.374 547.738 317.64 548.066 316.407Z" fill="#F44B1B"/>
<path d="M545.85 318.64C545.419 318.639 544.994 318.539 544.607 318.348C544.221 318.157 543.883 317.88 543.62 317.538C543.358 317.196 543.177 316.799 543.092 316.376C543.007 315.953 543.02 315.517 543.13 315.1C543.322 314.379 543.793 313.763 544.439 313.389C544.759 313.204 545.113 313.083 545.479 313.035C545.845 312.986 546.218 313.01 546.575 313.105C546.932 313.2 547.267 313.365 547.561 313.59C547.854 313.814 548.101 314.094 548.286 314.414C548.471 314.734 548.592 315.087 548.64 315.454C548.689 315.82 548.665 316.193 548.57 316.55C548.411 317.148 548.06 317.677 547.57 318.055C547.08 318.433 546.479 318.639 545.86 318.64H545.85ZM545.85 314.01C545.512 314.01 545.182 314.105 544.895 314.284C544.608 314.462 544.377 314.718 544.228 315.021C544.079 315.323 544.018 315.662 544.051 315.998C544.084 316.334 544.211 316.654 544.416 316.922C544.622 317.19 544.898 317.395 545.214 317.514C545.53 317.633 545.873 317.661 546.205 317.595C546.536 317.53 546.842 317.372 547.089 317.142C547.335 316.911 547.512 316.616 547.6 316.29C547.662 316.06 547.677 315.819 547.646 315.583C547.615 315.346 547.537 315.118 547.417 314.912C547.297 314.705 547.137 314.525 546.947 314.38C546.758 314.236 546.541 314.13 546.31 314.07C546.16 314.027 546.006 314.003 545.85 314V314.01Z" fill="#4B0062"/>
<path d="M559.831 319.716C560.518 317.133 558.981 314.481 556.398 313.794C553.815 313.107 551.164 314.644 550.476 317.227C549.789 319.81 551.326 322.461 553.909 323.148C556.492 323.836 559.143 322.299 559.831 319.716Z" fill="#FFF0DC"/>
<path d="M555.18 323.83C554.362 323.829 553.555 323.641 552.821 323.28C552.087 322.918 551.446 322.393 550.946 321.745C550.447 321.097 550.103 320.343 549.941 319.541C549.778 318.74 549.802 317.911 550.01 317.12C550.266 316.156 550.786 315.284 551.512 314.601C552.238 313.918 553.141 313.451 554.118 313.255C555.095 313.058 556.108 313.139 557.042 313.488C557.976 313.838 558.793 314.441 559.401 315.231C560.01 316.02 560.385 316.965 560.485 317.956C560.584 318.948 560.404 319.948 559.965 320.843C559.526 321.738 558.845 322.492 557.999 323.02C557.153 323.548 556.177 323.828 555.18 323.83ZM550.98 317.37C550.725 318.342 550.815 319.372 551.234 320.284C551.653 321.197 552.376 321.936 553.28 322.376C554.183 322.815 555.211 322.927 556.188 322.693C557.165 322.459 558.03 321.894 558.637 321.093C559.244 320.292 559.554 319.306 559.514 318.302C559.475 317.299 559.089 316.34 558.421 315.589C557.754 314.838 556.847 314.342 555.854 314.186C554.862 314.029 553.846 314.221 552.98 314.73C551.991 315.311 551.271 316.26 550.98 317.37Z" fill="#4B0062"/>
<path d="M556.504 318.648C556.832 317.415 556.098 316.149 554.865 315.821C553.632 315.493 552.367 316.227 552.039 317.46C551.711 318.693 552.445 319.958 553.677 320.286C554.91 320.614 556.176 319.881 556.504 318.648Z" fill="#F44B1B"/>
<path d="M554.29 320.89C554.043 320.889 553.798 320.855 553.56 320.79C552.875 320.602 552.287 320.16 551.915 319.554C551.543 318.948 551.416 318.224 551.559 317.528C551.701 316.832 552.103 316.216 552.683 315.805C553.263 315.394 553.978 315.219 554.682 315.316C555.386 315.412 556.027 315.773 556.475 316.325C556.923 316.876 557.145 317.577 557.095 318.286C557.045 318.995 556.728 319.659 556.207 320.142C555.686 320.626 555.001 320.893 554.29 320.89ZM554.29 316.26C553.827 316.259 553.382 316.434 553.044 316.75C552.706 317.066 552.501 317.499 552.47 317.96C552.44 318.422 552.587 318.878 552.88 319.235C553.174 319.593 553.592 319.825 554.051 319.885C554.51 319.945 554.974 319.827 555.35 319.557C555.725 319.287 555.984 318.884 556.073 318.43C556.162 317.976 556.074 317.505 555.829 317.113C555.583 316.722 555.197 316.438 554.75 316.32C554.6 316.28 554.445 316.26 554.29 316.26Z" fill="#4B0062"/>
<path d="M389.89 292.44C381.13 292.44 374.01 281.15 374.01 267.28C374.01 266.28 374.01 265.33 374.12 264.28L375.12 264.35C375.05 265.35 375.01 266.35 375.01 267.26C375.01 280.58 381.69 291.42 389.89 291.42C398.09 291.42 404.76 280.58 404.76 267.26C404.76 266.32 404.76 265.36 404.65 264.34L405.65 264.27C405.72 265.27 405.76 266.27 405.76 267.27C405.76 281.16 398.64 292.44 389.89 292.44Z" fill="#4B0062"/>
<path d="M379.08 247.19H353.52V248.19H379.08V247.19Z" fill="#4B0062"/>
<path d="M426.25 247.19H400.69V248.19H426.25V247.19Z" fill="#4B0062"/>
<path d="M417.569 233.583L400.666 241.722L401.1 242.623L418.003 234.484L417.569 233.583Z" fill="#4B0062"/>
<path d="M362.204 233.557L361.771 234.458L378.675 242.594L379.109 241.692L362.204 233.557Z" fill="#4B0062"/>
<path d="M232.72 221H231.72V239.19H232.72V221Z" fill="#4B0062"/>
<path d="M241.31 229.6H223.12V230.6H241.31V229.6Z" fill="#4B0062"/>
<path d="M227.885 225.059L227.178 225.766L236.561 235.15L237.268 234.443L227.885 225.059Z" fill="#4B0062"/>
<path d="M236.554 225.059L227.171 234.443L227.878 235.15L237.261 225.766L236.554 225.059Z" fill="#4B0062"/>
<path d="M232.22 219.46C232.805 219.46 233.28 218.797 233.28 217.98C233.28 217.163 232.805 216.5 232.22 216.5C231.635 216.5 231.16 217.163 231.16 217.98C231.16 218.797 231.635 219.46 232.22 219.46Z" fill="#4B0062"/>
<path d="M232.22 243.69C232.805 243.69 233.28 243.027 233.28 242.21C233.28 241.393 232.805 240.73 232.22 240.73C231.635 240.73 231.16 241.393 231.16 242.21C231.16 243.027 231.635 243.69 232.22 243.69Z" fill="#4B0062"/>
<path d="M244.33 231.16C245.147 231.16 245.81 230.685 245.81 230.1C245.81 229.515 245.147 229.04 244.33 229.04C243.513 229.04 242.85 229.515 242.85 230.1C242.85 230.685 243.513 231.16 244.33 231.16Z" fill="#4B0062"/>
<path d="M220.1 231.16C220.917 231.16 221.58 230.685 221.58 230.1C221.58 229.515 220.917 229.04 220.1 229.04C219.283 229.04 218.62 229.515 218.62 230.1C218.62 230.685 219.283 231.16 220.1 231.16Z" fill="#4B0062"/>
<path d="M574.33 175.46H573.33V193.65H574.33V175.46Z" fill="#4B0062"/>
<path d="M582.92 184.06H564.73V185.06H582.92V184.06Z" fill="#4B0062"/>
<path d="M569.491 179.516L568.784 180.223L578.167 189.606L578.874 188.899L569.491 179.516Z" fill="#4B0062"/>
<path d="M578.174 179.516L568.791 188.899L569.498 189.606L578.881 180.223L578.174 179.516Z" fill="#4B0062"/>
<path d="M585.95 185.62C586.767 185.62 587.43 185.145 587.43 184.56C587.43 183.975 586.767 183.5 585.95 183.5C585.133 183.5 584.47 183.975 584.47 184.56C584.47 185.145 585.133 185.62 585.95 185.62Z" fill="#4B0062"/>
<path d="M561.72 185.62C562.537 185.62 563.2 185.145 563.2 184.56C563.2 183.975 562.537 183.5 561.72 183.5C560.903 183.5 560.24 183.975 560.24 184.56C560.24 185.145 560.903 185.62 561.72 185.62Z" fill="#4B0062"/>
<path d="M286.08 332.02H285.08V347.11H286.08V332.02Z" fill="#4B0062"/>
<path d="M290.26 339.06H280.91V340.06H290.26V339.06Z" fill="#4B0062"/>
<path d="M533.19 261.52H532.19V273.06H533.19V261.52Z" fill="#4B0062"/>
<path d="M536.26 266.78H529.12V267.78H536.26V266.78Z" fill="#4B0062"/>
<path d="M227.53 348.6C229.943 348.6 231.9 346.643 231.9 344.23C231.9 341.817 229.943 339.86 227.53 339.86C225.117 339.86 223.16 341.817 223.16 344.23C223.16 346.643 225.117 348.6 227.53 348.6Z" fill="#A26BB4"/>
<path d="M208.26 383.43C209.403 383.43 210.33 382.503 210.33 381.36C210.33 380.217 209.403 379.29 208.26 379.29C207.117 379.29 206.19 380.217 206.19 381.36C206.19 382.503 207.117 383.43 208.26 383.43Z" fill="#A26BB4"/>
<path d="M426.15 145.99C428.249 145.99 429.95 144.289 429.95 142.19C429.95 140.091 428.249 138.39 426.15 138.39C424.051 138.39 422.35 140.091 422.35 142.19C422.35 144.289 424.051 145.99 426.15 145.99Z" fill="#A26BB4"/>
<path d="M515.08 391.31C518.399 391.31 521.09 388.619 521.09 385.3C521.09 381.981 518.399 379.29 515.08 379.29C511.761 379.29 509.07 381.981 509.07 385.3C509.07 388.619 511.761 391.31 515.08 391.31Z" fill="#A26BB4"/>
<path d="M459.34 473.24C461.185 473.24 462.68 471.745 462.68 469.9C462.68 468.055 461.185 466.56 459.34 466.56C457.495 466.56 456 468.055 456 469.9C456 471.745 457.495 473.24 459.34 473.24Z" fill="#A26BB4"/>
</g>
<defs>
<clipPath id="clip0_20_1285">
<rect width="800" height="600" fill="white"/>
</clipPath>
</defs>
</svg>
