<svg width="800" height="600" viewBox="0 0 800 600" fill="none" xmlns="http://www.w3.org/2000/svg">
<g clip-path="url(#clip0_20_1568)">
<path d="M251 178.55C250.58 178.551 250.167 178.446 249.798 178.245C249.429 178.044 249.117 177.753 248.89 177.4C247.65 175.46 245.48 173.46 239.72 175.21C238.373 175.675 236.938 175.826 235.524 175.653C234.11 175.479 232.755 174.986 231.56 174.21C230.342 173.332 229.338 172.191 228.621 170.872C227.904 169.553 227.494 168.089 227.42 166.59C227.367 165.927 227.579 165.27 228.011 164.764C228.442 164.257 229.057 163.943 229.72 163.89C230.048 163.864 230.379 163.902 230.692 164.004C231.005 164.105 231.296 164.267 231.546 164.481C232.053 164.912 232.367 165.527 232.42 166.19C232.443 166.945 232.635 167.685 232.981 168.356C233.327 169.028 233.819 169.613 234.42 170.07C234.995 170.429 235.645 170.651 236.32 170.718C236.994 170.786 237.675 170.698 238.31 170.46C245.02 168.46 250.02 169.85 253.15 174.73C253.392 175.107 253.528 175.543 253.544 175.991C253.56 176.439 253.455 176.883 253.241 177.277C253.026 177.671 252.709 177.999 252.324 178.229C251.938 178.458 251.498 178.579 251.05 178.58L251 178.55Z" fill="#F44B1B"/>
<path d="M251 179.05C250.496 179.051 250.001 178.925 249.558 178.684C249.116 178.443 248.742 178.094 248.47 177.67C247.25 175.77 245.27 174.04 239.87 175.67C238.449 176.149 236.939 176.298 235.452 176.105C233.965 175.913 232.542 175.384 231.29 174.56C230.01 173.639 228.953 172.442 228.198 171.057C227.443 169.672 227.01 168.135 226.93 166.56C226.866 165.767 227.12 164.981 227.636 164.376C228.152 163.77 228.887 163.394 229.68 163.33C230.473 163.266 231.259 163.52 231.864 164.036C232.47 164.552 232.846 165.287 232.91 166.08C232.925 166.759 233.09 167.426 233.395 168.033C233.699 168.64 234.135 169.172 234.67 169.59C235.184 169.904 235.763 170.097 236.363 170.152C236.963 170.208 237.567 170.125 238.13 169.91C245.13 167.79 250.27 169.3 253.53 174.39C253.821 174.843 253.984 175.366 254.003 175.903C254.022 176.441 253.896 176.974 253.639 177.447C253.381 177.919 253.001 178.313 252.539 178.588C252.076 178.864 251.548 179.009 251.01 179.01L251 179.05ZM243.63 174.05C244.768 173.994 245.9 174.251 246.901 174.795C247.903 175.338 248.736 176.146 249.31 177.13C249.597 177.575 250.049 177.888 250.566 178.001C251.083 178.113 251.624 178.016 252.07 177.73C252.515 177.443 252.828 176.991 252.941 176.474C253.053 175.957 252.956 175.416 252.67 174.97C249.67 170.3 244.87 168.97 238.4 170.9C237.695 171.161 236.94 171.255 236.193 171.177C235.445 171.099 234.726 170.85 234.09 170.45C233.432 169.949 232.894 169.308 232.515 168.572C232.136 167.837 231.926 167.027 231.9 166.2C231.858 165.67 231.606 165.178 231.201 164.833C230.796 164.488 230.27 164.318 229.74 164.36C229.21 164.402 228.718 164.654 228.373 165.059C228.028 165.464 227.858 165.99 227.9 166.52C227.971 167.944 228.361 169.334 229.041 170.587C229.722 171.84 230.675 172.925 231.83 173.76C232.958 174.504 234.24 174.98 235.579 175.153C236.919 175.327 238.28 175.192 239.56 174.76C240.881 174.303 242.263 174.047 243.66 174L243.63 174.05Z" fill="#4B0062"/>
<path d="M291.52 440.54C291.345 439.704 290.985 438.918 290.465 438.239C289.946 437.561 289.281 437.007 288.52 436.62L287.01 435.86L305.43 399.33L298.28 395.72L279.86 432.25L278.35 431.49C277.392 431.007 276.318 430.804 275.25 430.905C274.182 431.005 273.164 431.405 272.313 432.058C271.462 432.711 270.813 433.591 270.44 434.597C270.067 435.602 269.985 436.693 270.204 437.743C270.423 438.793 270.933 439.76 271.677 440.533C272.421 441.305 273.368 441.853 274.409 442.111C275.45 442.37 276.543 442.33 277.562 441.995C278.581 441.661 279.485 441.045 280.17 440.22L280.43 440.35C280.224 441.182 280.209 442.049 280.384 442.888C280.56 443.726 280.923 444.514 281.445 445.194C281.967 445.873 282.636 446.426 283.401 446.811C284.167 447.196 285.009 447.403 285.866 447.418C286.722 447.433 287.571 447.254 288.349 446.895C289.128 446.537 289.815 446.007 290.36 445.346C290.905 444.685 291.295 443.91 291.499 443.078C291.703 442.246 291.717 441.378 291.54 440.54H291.52Z" fill="#FFF0DC"/>
<path d="M285.94 447.91C285.095 447.907 284.259 447.732 283.484 447.396C282.709 447.059 282.011 446.567 281.432 445.951C280.854 445.335 280.407 444.608 280.12 443.813C279.832 443.019 279.71 442.174 279.76 441.33C278.901 442.042 277.865 442.508 276.762 442.68C275.66 442.853 274.531 442.724 273.496 442.308C272.46 441.893 271.556 441.205 270.879 440.318C270.201 439.432 269.776 438.378 269.647 437.27C269.518 436.162 269.691 435.039 270.147 434.021C270.603 433.002 271.326 432.126 272.238 431.484C273.151 430.842 274.22 430.458 275.333 430.373C276.445 430.288 277.56 430.504 278.56 431L279.62 431.54L298 395L306 399.06L287.58 435.59L288.64 436.13C289.472 436.548 290.199 437.148 290.767 437.885C291.335 438.623 291.729 439.479 291.92 440.39C292.107 441.292 292.091 442.225 291.873 443.12C291.654 444.016 291.24 444.851 290.659 445.566C290.078 446.281 289.345 446.858 288.513 447.255C287.681 447.652 286.772 447.858 285.85 447.86L285.94 447.91ZM280 439.59L281 440.08L280.9 440.47C280.666 441.42 280.705 442.417 281.012 443.346C281.32 444.275 281.883 445.099 282.637 445.722C283.392 446.345 284.306 446.743 285.277 446.87C286.247 446.996 287.234 446.846 288.123 446.437C289.012 446.028 289.767 445.377 290.302 444.558C290.838 443.738 291.131 442.785 291.148 441.806C291.166 440.828 290.907 439.864 290.401 439.026C289.896 438.189 289.164 437.511 288.29 437.07L286.29 436.07L304.71 399.54L298.45 396.38L280.03 432.91L278.03 431.91C277.156 431.474 276.178 431.294 275.206 431.388C274.235 431.483 273.309 431.849 272.536 432.444C271.763 433.04 271.173 433.841 270.834 434.757C270.495 435.672 270.42 436.664 270.618 437.62C270.817 438.576 271.28 439.457 271.955 440.161C272.631 440.866 273.491 441.367 274.437 441.606C275.384 441.844 276.378 441.812 277.307 441.512C278.236 441.212 279.062 440.657 279.69 439.91L280 439.59Z" fill="#4B0062"/>
<path d="M277.38 189V213.22H181.24V197.12C181.24 194.964 182.097 192.896 183.621 191.371C185.146 189.847 187.214 188.99 189.37 188.99L277.38 189Z" fill="#F48001"/>
<path d="M277.88 213.71H180.73V197.13C180.733 194.842 181.643 192.648 183.261 191.031C184.878 189.413 187.072 188.503 189.36 188.5H277.88V213.71ZM181.73 212.71H276.88V189.5H189.37C187.347 189.503 185.408 190.307 183.978 191.738C182.547 193.168 181.743 195.107 181.74 197.13L181.73 212.71Z" fill="#4B0062"/>
<path d="M219.88 205L213.88 209L219.88 213L219.69 213.15H181.24V197.12C181.24 194.964 182.097 192.896 183.621 191.371C185.146 189.847 187.214 188.99 189.37 188.99H219.85L213.85 192.99L219.85 196.99L213.85 200.99L219.88 205Z" fill="#A26BB4"/>
<path d="M219.87 213.71H180.73V197.13C180.733 194.842 181.643 192.648 183.261 191.031C184.878 189.413 187.072 188.503 189.36 188.5H221.49L214.78 193L220.78 197L214.78 201L220.78 205L214.78 209L220.78 213L219.87 213.71ZM181.74 212.71H218.47L213 209L219 205L213 201L219 197L213 193L218.21 189.51H189.37C187.347 189.513 185.408 190.317 183.978 191.748C182.547 193.178 181.743 195.117 181.74 197.14V212.71Z" fill="#4B0062"/>
<path d="M386.16 433.22L380.35 405.44L373.82 374.16L366.5 339.1H347.9V339.22L308.4 422.87L306.1 415.3L298.45 418.3L296.07 410.45L288.42 413.39L286 405.5L278.36 408.44V408.29L310.21 340L310.75 338.84L310.85 338.64L316.85 325.64L322.71 313.08L322.79 312.91L322.63 187.65L353.63 189.89C363.282 190.575 372.384 194.642 379.334 201.375C386.284 208.107 390.638 217.075 391.63 226.7L400.56 312.62L401.91 325.62L403.41 340.11L413.08 433.11L414.89 450.51H371.69L372.43 445.1C372.906 441.799 374.557 438.781 377.079 436.599C379.601 434.417 382.825 433.217 386.16 433.22Z" fill="#F48001"/>
<path d="M415.49 451.13H371.11L371.93 445.13C372.397 441.798 374.014 438.734 376.501 436.468C378.988 434.202 382.189 432.876 385.55 432.72L366.09 339.6H348.23L308.3 424.26L305.78 415.96L298.13 418.96L295.75 411.11L288.1 414L285.71 406.16L278.08 409.1L277.8 408.26L277.88 408.08L322.32 312.84L322.16 187.15L353.72 189.43C363.486 190.129 372.693 194.247 379.723 201.062C386.754 207.876 391.157 216.951 392.16 226.69L415.49 451.13ZM372.26 450.13H414.38L391.18 226.8C390.194 217.297 385.894 208.445 379.033 201.796C372.172 195.147 363.189 191.127 353.66 190.44L323.18 188.24L323.34 313.07L323.21 313.34L279.21 407.59L286.34 404.85L288.73 412.69L296.38 409.75L298.76 417.6L306.41 414.6L308.49 421.44L347.43 338.86L347.56 338.55H366.9L386.78 433.67H386.16C382.932 433.682 379.816 434.858 377.384 436.981C374.952 439.104 373.367 442.033 372.92 445.23L372.26 450.13Z" fill="#4B0062"/>
<path d="M386.16 433.22L380.35 405.44L373.82 374.16L366.5 339.1H347.9V339.22L308.4 422.87L306.1 415.3L298.45 418.3L296.07 410.45L288.42 413.39L286 405.5L278.36 408.44V408.29L310.21 340L310.75 338.84L310.85 338.64L316.85 325.64L322.71 313.08L327.59 307.08L332.42 313.08L337.26 307.08L342.1 313.08L346.93 307.08L351.77 313.08L356.61 307.08L361.44 313.08L366.28 307.08L371.12 313.08L375.95 307.08L380.79 313.08L385.62 307.08L390.46 313.08L395.3 307.08L400.56 312.57L401.91 325.57L403.41 340.06L413.08 433.06L414.89 450.46H371.69L372.43 445.05C372.917 441.758 374.573 438.752 377.094 436.58C379.614 434.408 382.832 433.215 386.16 433.22Z" fill="#4B0062"/>
<path d="M387.74 212.94L381.44 219.42L378.5 208.25L372.08 206.14L376.47 204.27L366.63 198.49L374.52 197.39C380.16 201.383 384.706 206.731 387.74 212.94Z" fill="#A26BB4"/>
<path d="M381.18 220.41L378.08 208.65L370.66 206.21L375.36 204.21L365.14 198.21L374.65 196.88L374.81 196.99C380.516 201.036 385.116 206.447 388.19 212.73L388.34 213.05L381.18 220.41ZM373.5 206.09L378.92 207.87L381.7 218.45L387.14 212.86C384.17 206.922 379.797 201.797 374.4 197.93L368.13 198.8L377.59 204.35L373.5 206.09Z" fill="#4B0062"/>
<path d="M344.36 206.74C344.36 218.66 332.36 226.52 332.36 226.52V240.35C332.36 244.67 330.644 248.814 327.589 251.869C324.534 254.924 320.39 256.64 316.07 256.64H271C268.861 256.64 266.743 256.219 264.768 255.4C262.792 254.581 260.997 253.381 259.485 251.868C257.973 250.355 256.774 248.559 255.956 246.583C255.139 244.607 254.719 242.489 254.72 240.35V221.41C251.343 221.405 248.106 220.059 245.721 217.668C243.336 215.277 241.997 212.037 242 208.66V188.44C242.003 178.077 246.121 168.139 253.45 160.813C260.778 153.486 270.717 149.37 281.08 149.37H302.63C303.405 149.37 304.172 149.523 304.888 149.819C305.604 150.116 306.254 150.55 306.802 151.098C307.35 151.646 307.784 152.296 308.081 153.012C308.377 153.728 308.53 154.495 308.53 155.27H311.4C313.958 155.27 316.411 156.285 318.22 158.093C320.03 159.9 321.047 162.352 321.05 164.91C323.63 164.909 326.117 165.873 328.023 167.612C329.929 169.352 331.115 171.741 331.35 174.31L331.48 175.62L333.48 197.09C333.48 197.09 344.36 196.59 344.36 206.74Z" fill="#A26BB4"/>
<path d="M316.08 257.15H271C266.55 257.145 262.283 255.374 259.137 252.226C255.991 249.078 254.223 244.81 254.22 240.36V221.9C250.798 221.768 247.559 220.317 245.182 217.851C242.805 215.385 241.475 212.095 241.47 208.67V188.44C241.483 177.948 245.658 167.889 253.078 160.471C260.498 153.053 270.558 148.881 281.05 148.87H302.6C304.21 148.872 305.76 149.481 306.942 150.574C308.124 151.667 308.852 153.165 308.98 154.77H311.37C313.975 154.772 316.48 155.774 318.367 157.57C320.254 159.366 321.379 161.818 321.51 164.42C324.128 164.537 326.614 165.598 328.509 167.407C330.405 169.216 331.581 171.651 331.82 174.26L331.95 175.57L333.95 196.57C335.32 196.57 339.28 196.89 342.05 199.57C342.987 200.511 343.716 201.638 344.192 202.878C344.667 204.118 344.878 205.444 344.81 206.77C344.81 217.9 334.49 225.63 332.81 226.77V240.34C332.81 244.784 331.05 249.048 327.915 252.198C324.78 255.348 320.524 257.129 316.08 257.15ZM281.08 149.88C270.853 149.891 261.048 153.957 253.815 161.188C246.582 168.419 242.513 178.223 242.5 188.45V208.67C242.505 211.916 243.798 215.028 246.094 217.323C248.391 219.617 251.504 220.907 254.75 220.91H255.25V240.36C255.253 244.54 256.912 248.549 259.864 251.508C262.816 254.468 266.82 256.137 271 256.15H316C320.186 256.145 324.199 254.479 327.159 251.519C330.119 248.559 331.785 244.546 331.79 240.36V226.26L332.02 226.11C332.14 226.03 343.78 218.25 343.78 206.75C343.844 205.56 343.66 204.371 343.238 203.256C342.816 202.142 342.166 201.129 341.33 200.28C338.33 197.41 333.54 197.59 333.49 197.6H333.01L330.78 174.35C330.558 171.904 329.429 169.63 327.616 167.974C325.803 166.318 323.436 165.4 320.98 165.4H320.48V164.9C320.475 162.476 319.509 160.153 317.794 158.439C316.078 156.726 313.754 155.763 311.33 155.76H308V155.26C307.997 153.829 307.428 152.457 306.415 151.445C305.403 150.432 304.031 149.863 302.6 149.86L281.08 149.88Z" fill="#4B0062"/>
<path d="M331.5 175.62H305.71C304.244 175.62 302.793 175.331 301.439 174.77C300.085 174.21 298.855 173.388 297.819 172.351C296.782 171.315 295.96 170.085 295.4 168.731C294.839 167.377 294.55 165.926 294.55 164.46V149.37H302.64C304.205 149.37 305.705 149.992 306.812 151.098C307.918 152.205 308.54 153.705 308.54 155.27H311.41C313.968 155.27 316.421 156.285 318.23 158.093C320.039 159.9 321.057 162.352 321.06 164.91C323.64 164.909 326.127 165.873 328.033 167.612C329.939 169.352 331.125 171.741 331.36 174.31L331.5 175.62Z" fill="#FFF0DC"/>
<path d="M332 176.13H305.71C302.618 176.127 299.654 174.898 297.468 172.712C295.282 170.526 294.053 167.562 294.05 164.47V148.88H302.64C304.25 148.882 305.8 149.491 306.982 150.584C308.164 151.677 308.892 153.175 309.02 154.78H311.41C314.015 154.782 316.52 155.784 318.407 157.58C320.294 159.376 321.419 161.828 321.55 164.43C324.168 164.547 326.654 165.608 328.549 167.417C330.445 169.226 331.621 171.661 331.86 174.27L332 176.13ZM295 149.88V164.47C295.003 167.296 296.127 170.006 298.125 172.005C300.124 174.003 302.834 175.127 305.66 175.13H330.89L330.81 174.37C330.588 171.924 329.459 169.65 327.646 167.994C325.833 166.338 323.466 165.42 321.01 165.42H320.51V164.92C320.505 162.496 319.539 160.173 317.824 158.459C316.108 156.746 313.784 155.783 311.36 155.78H308V155.28C307.997 153.849 307.428 152.477 306.415 151.465C305.403 150.452 304.031 149.883 302.6 149.88H295Z" fill="#4B0062"/>
<path d="M189.92 198.62H188.92V213.21H189.92V198.62Z" fill="#4B0062"/>
<path d="M198.11 198.62H197.11V213.21H198.11V198.62Z" fill="#4B0062"/>
<path d="M378.23 229.42L367.25 263.7L365.44 269.32L359.5 287.93H332.13L332.33 287.27L339.88 263.7L353.41 221.49" fill="#F48001"/>
<path d="M359.86 288.43H331.44L331.86 287.12L352.93 221.34L353.88 221.64L332.81 287.43H359.13L377.75 229.26L378.71 229.57L359.86 288.43Z" fill="#4B0062"/>
<path d="M367.25 263.71L365.45 269.33L359.5 287.93H282.41V271.84C282.41 269.684 283.267 267.616 284.791 266.091C286.316 264.567 288.384 263.71 290.54 263.71H339.88" fill="#F48001"/>
<path d="M359.86 288.42H281.92V271.83C281.923 269.542 282.833 267.348 284.451 265.731C286.068 264.113 288.262 263.203 290.55 263.2H339.89V264.2H290.54C288.517 264.203 286.578 265.007 285.148 266.438C283.717 267.868 282.913 269.807 282.91 271.83V287.42H359.12L366.76 263.55L367.76 263.85L359.86 288.42Z" fill="#4B0062"/>
<path d="M321.07 271.62L315.07 275.62L321.07 279.62L315.07 283.57L321.07 287.57L320.41 288.07H282.41V271.84C282.41 269.684 283.267 267.616 284.791 266.091C286.316 264.567 288.384 263.71 290.54 263.71H321.06L315.06 267.66L321.07 271.62Z" fill="#A26BB4"/>
<path d="M320.57 288.42H281.92V271.83C281.923 269.542 282.833 267.348 284.451 265.731C286.068 264.113 288.262 263.203 290.55 263.2H321.17L322.06 263.64L321.35 264.13L316 267.67L322 271.67L316 275.62L322 279.57L316 283.57L322 287.49L320.57 288.42ZM282.91 287.42H320.15L314.15 283.47L320.15 279.47L314.15 275.52L320.15 271.52L314.15 267.52L319.4 264.06H290.54C288.517 264.063 286.578 264.867 285.148 266.298C283.717 267.728 282.913 269.667 282.91 271.69V287.42Z" fill="#4B0062"/>
<path d="M291.1 273.33H290.1V287.92H291.1V273.33Z" fill="#4B0062"/>
<path d="M299.29 273.33H298.29V287.92H299.29V273.33Z" fill="#4B0062"/>
<path d="M265.35 210.5C271.199 210.5 275.94 205.759 275.94 199.91C275.94 194.061 271.199 189.32 265.35 189.32C259.501 189.32 254.76 194.061 254.76 199.91C254.76 205.759 259.501 210.5 265.35 210.5Z" fill="#4B0062"/>
<path d="M310 199.91C310 202.719 308.884 205.412 306.898 207.398C304.912 209.384 302.219 210.5 299.41 210.5C296.601 210.5 293.908 209.384 291.922 207.398C289.936 205.412 288.82 202.719 288.82 199.91C288.82 199.66 288.82 199.41 288.82 199.17H310C310 199.41 310 199.66 310 199.91Z" fill="#4B0062"/>
<path d="M299.38 211C296.441 210.997 293.624 209.829 291.545 207.752C289.466 205.675 288.295 202.859 288.29 199.92C288.29 199.67 288.29 199.41 288.29 199.17V198.69H310.39V199.17C310.39 199.42 310.39 199.68 310.39 199.93C310.382 202.853 309.222 205.655 307.16 207.728C305.099 209.801 302.303 210.976 299.38 211ZM289.3 199.67C289.3 199.75 289.3 199.83 289.3 199.91C289.3 202.586 290.363 205.152 292.255 207.045C294.148 208.937 296.714 210 299.39 210C302.066 210 304.632 208.937 306.525 207.045C308.417 205.152 309.48 202.586 309.48 199.91C309.48 199.83 309.48 199.75 309.48 199.67H289.3Z" fill="#4B0062"/>
<path d="M306.87 199.91C306.87 201.899 306.08 203.807 304.673 205.213C303.267 206.62 301.359 207.41 299.37 207.41C297.381 207.41 295.473 206.62 294.067 205.213C292.66 203.807 291.87 201.899 291.87 199.91C291.855 199.664 291.855 199.416 291.87 199.17H306.76C306.812 199.414 306.848 199.661 306.87 199.91Z" fill="#FFF0DC"/>
<path d="M299.38 207.9C297.258 207.9 295.223 207.057 293.723 205.557C292.223 204.057 291.38 202.022 291.38 199.9C291.364 199.634 291.364 199.366 291.38 199.1L291.43 198.66H307.21L307.26 199.1C307.276 199.366 307.276 199.634 307.26 199.9C307.26 202.001 306.434 204.018 304.959 205.515C303.485 207.012 301.481 207.869 299.38 207.9ZM292.38 199.68C292.38 199.76 292.38 199.84 292.38 199.92C292.38 201.777 293.118 203.557 294.43 204.87C295.743 206.183 297.523 206.92 299.38 206.92C301.237 206.92 303.017 206.183 304.33 204.87C305.642 203.557 306.38 201.777 306.38 199.92C306.38 199.84 306.38 199.76 306.38 199.68H292.38Z" fill="#4B0062"/>
<path d="M312.08 198.67H286.67V199.67H312.08V198.67Z" fill="#4B0062"/>
<path d="M301.93 242.37C301.945 242.546 301.945 242.724 301.93 242.9C301.763 244.206 301.121 245.405 300.127 246.268C299.133 247.131 297.856 247.598 296.54 247.58C295.195 247.583 293.896 247.092 292.89 246.2C292.657 245.999 292.446 245.774 292.26 245.53C291.221 244.639 289.898 244.15 288.53 244.15C287.162 244.15 285.839 244.639 284.8 245.53C284.552 245.732 284.331 245.964 284.14 246.22C283.137 247.101 281.845 247.585 280.51 247.58C279.103 247.601 277.745 247.066 276.731 246.09C275.718 245.114 275.132 243.777 275.1 242.37C275.084 242.18 275.084 241.99 275.1 241.8C275.168 240.976 275.371 240.169 275.7 239.41C276.367 237.907 277.398 236.594 278.7 235.59C280.427 234.271 282.425 233.353 284.55 232.9C285.837 232.612 287.151 232.468 288.47 232.47H289.25C291.687 232.548 294.078 233.162 296.25 234.27C297.704 235.003 298.993 236.023 300.04 237.27C301.103 238.544 301.759 240.108 301.92 241.76C301.9 242 301.93 242.17 301.93 242.37Z" fill="#4B0062"/>
<path d="M296.5 248.13C295.026 248.135 293.603 247.597 292.5 246.62C292.245 246.398 292.014 246.15 291.81 245.88C290.857 245.103 289.662 244.685 288.432 244.698C287.203 244.711 286.017 245.154 285.08 245.95C284.858 246.131 284.66 246.34 284.49 246.57L284.42 246.64C283.314 247.61 281.891 248.14 280.42 248.13C278.881 248.151 277.395 247.563 276.288 246.493C275.181 245.424 274.542 243.959 274.51 242.42C274.491 242.187 274.491 241.953 274.51 241.72C274.582 240.855 274.795 240.007 275.14 239.21C275.849 237.635 276.938 236.26 278.31 235.21C280.096 233.845 282.162 232.892 284.36 232.42C285.945 232.07 287.569 231.929 289.19 232C291.684 232.091 294.127 232.726 296.35 233.86C297.902 234.617 299.28 235.686 300.4 237C301.532 238.348 302.23 240.008 302.4 241.76V241.94C302.4 242.08 302.4 242.22 302.4 242.37C302.417 242.576 302.417 242.784 302.4 242.99C302.225 244.424 301.525 245.743 300.436 246.692C299.347 247.641 297.945 248.153 296.5 248.13ZM288.5 243.7C289.992 243.69 291.437 244.227 292.56 245.21C292.749 245.453 292.959 245.677 293.19 245.88C294.105 246.692 295.286 247.14 296.51 247.14C297.704 247.157 298.862 246.734 299.763 245.952C300.665 245.17 301.248 244.084 301.4 242.9C301.413 242.744 301.413 242.586 301.4 242.43C301.4 242.31 301.4 242.18 301.4 242.07V241.89C301.246 240.344 300.629 238.88 299.63 237.69C298.628 236.491 297.393 235.508 296 234.8C293.907 233.736 291.607 233.142 289.26 233.06C287.726 232.995 286.19 233.129 284.69 233.46C282.629 233.876 280.686 234.743 279 236C277.758 236.95 276.771 238.194 276.13 239.62C275.822 240.331 275.633 241.088 275.57 241.86C275.556 242.036 275.556 242.214 275.57 242.39C275.591 243.672 276.12 244.893 277.04 245.786C277.961 246.678 279.198 247.169 280.48 247.15C281.675 247.153 282.832 246.727 283.74 245.95C283.947 245.676 284.185 245.428 284.45 245.21C285.571 244.231 287.012 243.698 288.5 243.71V243.7Z" fill="#4B0062"/>
<path d="M287.51 227.51H282.57L280.31 220.66L278.05 227.51H273.11L280.31 205.71L287.51 227.51Z" fill="#4B0062"/>
<path d="M365.44 269.32L359.5 287.93H329.86L332.33 287.27L340.51 285.12L348.32 279.35L343.76 274.63L354.18 275.36L354.9 267.06L360.36 272.6L365.44 269.32Z" fill="#A26BB4"/>
<path d="M359.86 288.42H326L340.32 284.65L347.59 279.28L342.5 274L353.72 274.79L354.5 265.91L360.42 271.91L366.34 268.11L359.86 288.42ZM333.73 287.42H359.13L364.55 270.49L360.29 273.23L355.29 268.23L354.61 275.93L345.01 275.26L349.06 279.45L340.62 285.64L333.73 287.42Z" fill="#4B0062"/>
<path d="M414.94 450.62H371.69L372.43 445.21C372.88 441.886 374.521 438.838 377.047 436.631C379.574 434.424 382.815 433.209 386.17 433.21H413.17L414.94 450.62Z" fill="#F44B1B"/>
<path d="M415.49 451.13H371.11L371.93 445.13C372.413 441.693 374.119 438.546 376.734 436.265C379.35 433.984 382.7 432.722 386.17 432.71H413.58L415.49 451.13ZM372.26 450.13H414.38L412.67 433.73H386.17C382.942 433.742 379.826 434.918 377.394 437.041C374.962 439.164 373.377 442.093 372.93 445.29L372.26 450.13Z" fill="#4B0062"/>
<path d="M390.64 400.38L391 408.06L384.31 403.58L380.36 405.44L373.82 374.17L380.29 384.48L387.35 377.64L388.42 385.45H395.56L391.37 394.13L398.69 397.96L390.64 400.38Z" fill="#A26BB4"/>
<path d="M391.55 409L384.26 404.14L379.99 406.14L372.76 371.5L380.38 383.66L387.71 376.57L388.85 384.93H396.35L392.02 393.93L400.02 398.11L391.18 400.76L391.55 409ZM384.35 403L390.46 407.08L390.13 400L397.37 397.83L390.71 394.33L394.76 385.94H388L387 378.67L380.21 385.24L374.91 376.78L380.74 404.7L384.35 403Z" fill="#4B0062"/>
<path d="M315.56 175.88L314.7 175.38C315.558 173.789 316.929 172.535 318.591 171.824C320.253 171.112 322.106 170.984 323.85 171.46L323.63 172.46C322.096 172.026 320.461 172.129 318.993 172.751C317.526 173.372 316.315 174.476 315.56 175.88Z" fill="#4B0062"/>
<path d="M306.924 167.346L301.509 171.751L302.141 172.527L307.555 168.122L306.924 167.346Z" fill="#4B0062"/>
<path d="M313.55 169.41C309.61 169.41 307.74 168.98 306.9 167.86C305.9 166.58 306.48 164.6 307.32 161.62L307.42 161.28L308.42 161.55L308.32 161.89C307.56 164.59 307.06 166.37 307.74 167.26C308.42 168.15 310.1 168.41 313.6 168.41L313.55 169.41Z" fill="#4B0062"/>
<path d="M298.66 169.25L297.92 168.58C300.65 165.58 301.76 162.92 301.22 160.77C300.61 158.35 298.06 157.12 296.59 156.6L296.92 155.66C298.57 156.25 301.46 157.66 302.18 160.52C302.82 163 301.63 166 298.66 169.25Z" fill="#4B0062"/>
<path d="M300 237.31L298 241.67L293.72 239.67L296.23 234.28C297.679 235.024 298.962 236.055 300 237.31Z" fill="#FFF0DC"/>
<path d="M298.24 242.34L293.05 239.93L295.99 233.61L296.45 233.85C297.967 234.621 299.311 235.693 300.4 237L300.6 237.24L298.24 242.34ZM294.38 239.44L297.75 241.01L299.43 237.39C298.572 236.427 297.557 235.616 296.43 234.99L294.38 239.44Z" fill="#4B0062"/>
<path d="M289.69 237.83L284.99 238.2L284.57 232.91C285.857 232.622 287.171 232.478 288.49 232.48H289.27L289.69 237.83Z" fill="#FFF0DC"/>
<path d="M284.54 238.73L284.05 232.51L284.47 232.41C286.055 232.06 287.679 231.919 289.3 231.99H289.74L290.23 238.26L284.54 238.73ZM285.11 233.3L285.46 237.65L289.16 237.36L288.81 232.97C287.568 232.942 286.327 233.053 285.11 233.3Z" fill="#4B0062"/>
<path d="M282 240L278.23 242.83L275.67 239.41C276.337 237.907 277.368 236.594 278.67 235.59L282 240Z" fill="#FFF0DC"/>
<path d="M278.17 243.54L275.17 239.49L275.28 239.23C275.989 237.655 277.078 236.28 278.45 235.23L278.85 234.91L282.77 240.13L278.17 243.54ZM276.29 239.35L278.37 242.13L281.37 239.9L278.68 236.31C277.677 237.145 276.859 238.18 276.28 239.35H276.29Z" fill="#4B0062"/>
<path d="M562.74 377.1V450.63H482.55V377.1C482.466 371.781 483.441 366.499 485.418 361.561C487.396 356.623 490.336 352.127 494.067 348.337C497.799 344.546 502.247 341.535 507.153 339.48C512.06 337.425 517.326 336.367 522.645 336.367C527.964 336.367 533.23 337.425 538.137 339.48C543.043 341.535 547.491 344.546 551.223 348.337C554.954 352.127 557.894 356.623 559.872 361.561C561.849 366.499 562.824 371.781 562.74 377.1Z" fill="#A26BB4"/>
<path d="M563.24 451.13H482V377.13C481.915 371.745 482.903 366.398 484.905 361.398C486.907 356.399 489.884 351.848 493.662 348.01C497.44 344.173 501.944 341.125 506.911 339.045C511.878 336.964 517.21 335.893 522.595 335.893C527.98 335.893 533.312 336.964 538.279 339.045C543.246 341.125 547.75 344.173 551.528 348.01C555.306 351.848 558.283 356.399 560.285 361.398C562.287 366.398 563.275 371.745 563.19 377.13L563.24 451.13ZM483.05 450.13H562.24V377.13C562.075 366.738 557.831 356.827 550.423 349.536C543.015 342.245 533.039 338.159 522.645 338.159C512.251 338.159 502.274 342.245 494.867 349.536C487.459 356.827 483.215 366.738 483.05 377.13V450.13Z" fill="#4B0062"/>
<path d="M522.64 348.43C530.425 348.43 537.891 351.522 543.397 357.026C548.903 362.53 551.997 369.995 552 377.78V444.24H493.29V377.78C493.29 369.993 496.383 362.525 501.889 357.019C507.395 351.513 514.863 348.42 522.65 348.42L522.64 348.43Z" fill="#A26BB4"/>
<path d="M552.5 444.74H492.79V377.74C492.933 369.917 496.142 362.462 501.725 356.98C507.308 351.498 514.82 348.426 522.645 348.426C530.47 348.426 537.982 351.498 543.565 356.98C549.148 362.462 552.357 369.917 552.5 377.74V444.74ZM493.79 443.74H551.5V377.74C551.359 370.18 548.257 362.978 542.861 357.681C537.465 352.385 530.206 349.417 522.645 349.417C515.084 349.417 507.825 352.385 502.429 357.681C497.033 362.978 493.931 370.18 493.79 377.74V443.74Z" fill="#4B0062"/>
<path d="M522.64 384.22C526.014 384.22 528.75 381.484 528.75 378.11C528.75 374.736 526.014 372 522.64 372C519.266 372 516.53 374.736 516.53 378.11C516.53 381.484 519.266 384.22 522.64 384.22Z" fill="#FFF0DC"/>
<path d="M522.64 384.73C521.333 384.73 520.055 384.342 518.968 383.616C517.881 382.89 517.033 381.857 516.533 380.65C516.033 379.442 515.902 378.113 516.157 376.83C516.412 375.548 517.042 374.37 517.966 373.446C518.89 372.522 520.068 371.892 521.35 371.637C522.633 371.382 523.962 371.513 525.17 372.013C526.377 372.513 527.41 373.361 528.136 374.448C528.862 375.535 529.25 376.813 529.25 378.12C529.247 379.872 528.55 381.552 527.311 382.791C526.072 384.03 524.392 384.727 522.64 384.73ZM522.64 372.5C521.53 372.5 520.446 372.829 519.523 373.445C518.601 374.062 517.882 374.938 517.457 375.963C517.032 376.988 516.921 378.116 517.138 379.204C517.354 380.293 517.889 381.292 518.673 382.077C519.458 382.861 520.457 383.396 521.546 383.612C522.634 383.829 523.762 383.718 524.787 383.293C525.812 382.868 526.688 382.149 527.305 381.227C527.921 380.304 528.25 379.22 528.25 378.11C528.247 376.623 527.655 375.198 526.604 374.146C525.552 373.095 524.127 372.503 522.64 372.5Z" fill="#4B0062"/>
<path d="M542.18 398.42H503.09V399.42H542.18V398.42Z" fill="#4B0062"/>
<path d="M542.18 406.12H503.09V407.12H542.18V406.12Z" fill="#4B0062"/>
<path d="M529.87 418.63H515.41V419.63H529.87V418.63Z" fill="#4B0062"/>
<path d="M576.45 441.16H472.8V450.63H576.45V441.16Z" fill="#A26BB4"/>
<path d="M576.95 451.13H472.3V440.66H576.95V451.13ZM473.3 450.13H575.95V441.66H473.3V450.13Z" fill="#4B0062"/>
<path d="M618.76 450.13H238.31V451.13H618.76V450.13Z" fill="#4B0062"/>
<path d="M425.9 428.56C427.833 428.56 429.4 426.993 429.4 425.06C429.4 423.127 427.833 421.56 425.9 421.56C423.967 421.56 422.4 423.127 422.4 425.06C422.4 426.993 423.967 428.56 425.9 428.56Z" fill="#4B0062"/>
<path d="M425.9 429.07C425.109 429.07 424.335 428.835 423.678 428.396C423.02 427.956 422.507 427.332 422.204 426.601C421.902 425.87 421.823 425.066 421.977 424.29C422.131 423.514 422.512 422.801 423.072 422.242C423.631 421.682 424.344 421.301 425.12 421.147C425.896 420.992 426.7 421.072 427.431 421.374C428.162 421.677 428.786 422.19 429.226 422.848C429.665 423.505 429.9 424.279 429.9 425.07C429.9 426.131 429.479 427.148 428.728 427.898C427.978 428.649 426.961 429.07 425.9 429.07ZM425.9 422.07C425.307 422.07 424.727 422.246 424.233 422.576C423.74 422.905 423.355 423.374 423.128 423.922C422.901 424.47 422.842 425.073 422.958 425.655C423.073 426.237 423.359 426.772 423.779 427.191C424.198 427.611 424.733 427.897 425.315 428.012C425.897 428.128 426.5 428.069 427.048 427.842C427.596 427.615 428.065 427.23 428.394 426.737C428.724 426.243 428.9 425.663 428.9 425.07C428.901 424.675 428.825 424.284 428.675 423.919C428.524 423.554 428.304 423.222 428.025 422.942C427.746 422.663 427.415 422.441 427.05 422.289C426.686 422.138 426.295 422.06 425.9 422.06V422.07Z" fill="#4B0062"/>
<path d="M460.37 444.53C458.566 444.532 456.821 445.169 455.44 446.33C453.954 442.79 451.541 439.715 448.455 437.43C445.37 435.145 441.726 433.733 437.906 433.343C434.086 432.953 430.232 433.6 426.749 435.215C423.265 436.83 420.281 439.353 418.11 442.52C416.45 441.352 414.516 440.631 412.496 440.429C410.476 440.226 408.438 440.548 406.579 441.364C404.72 442.179 403.103 443.461 401.884 445.084C400.665 446.707 399.885 448.617 399.62 450.63H467.86C467.502 448.908 466.562 447.361 465.198 446.251C463.834 445.14 462.129 444.532 460.37 444.53Z" fill="#4B0062"/>
<path d="M468.47 451.13H399L399.07 450.56C399.465 447.6 400.919 444.883 403.165 442.913C405.41 440.944 408.293 439.855 411.28 439.85C413.644 439.859 415.954 440.554 417.93 441.85C420.169 438.739 423.186 436.271 426.679 434.692C430.172 433.114 434.019 432.481 437.833 432.856C441.648 433.232 445.297 434.603 448.415 436.833C451.533 439.062 454.011 442.072 455.6 445.56C456.705 444.776 457.988 444.279 459.333 444.115C460.678 443.952 462.043 444.126 463.303 444.622C464.564 445.119 465.681 445.921 466.554 446.958C467.426 447.995 468.026 449.233 468.3 450.56L468.47 451.13ZM400.2 450.13H467.2C466.86 448.993 466.243 447.959 465.404 447.12C464.565 446.281 463.531 445.664 462.394 445.325C461.257 444.985 460.053 444.934 458.892 445.176C457.73 445.418 456.647 445.945 455.74 446.71L455.21 447.15L454.96 446.5C453.509 443.044 451.154 440.043 448.142 437.812C445.13 435.581 441.573 434.202 437.844 433.822C434.116 433.441 430.353 434.072 426.953 435.649C423.552 437.225 420.639 439.688 418.52 442.78L418.23 443.2L417.81 442.91C415.911 441.562 413.639 440.839 411.31 440.84C408.665 440.85 406.108 441.784 404.079 443.481C402.05 445.177 400.678 447.529 400.2 450.13Z" fill="#4B0062"/>
<path d="M573.21 433.22C569.465 433.222 565.831 434.491 562.899 436.82C559.967 439.15 557.909 442.403 557.06 446.05C555.498 444.846 553.572 444.209 551.6 444.245C549.628 444.282 547.727 444.989 546.21 446.25C544.895 443.784 542.834 441.796 540.321 440.572C537.808 439.348 534.972 438.95 532.22 439.435C529.467 439.92 526.938 441.263 524.995 443.272C523.052 445.281 521.793 447.853 521.4 450.62H589.8C589.8 450.35 589.8 450.09 589.8 449.82C589.8 445.419 588.052 441.198 584.942 438.086C581.831 434.973 577.611 433.223 573.21 433.22Z" fill="#4B0062"/>
<path d="M590.29 451.13H520.83L520.91 450.56C521.321 447.744 522.595 445.125 524.557 443.064C526.52 441.003 529.073 439.601 531.865 439.052C534.658 438.504 537.552 438.835 540.148 440.001C542.744 441.166 544.914 443.109 546.36 445.56C547.859 444.465 549.656 443.852 551.511 443.802C553.367 443.752 555.194 444.267 556.75 445.28C557.862 441.299 560.377 437.855 563.832 435.586C567.287 433.317 571.446 432.376 575.541 432.937C579.636 433.498 583.39 435.524 586.107 438.638C588.823 441.753 590.32 445.747 590.32 449.88C590.32 450.16 590.32 450.42 590.32 450.7L590.29 451.13ZM522 450.13H589.33C589.33 450.03 589.33 449.93 589.33 449.83C589.332 445.878 587.88 442.063 585.25 439.112C582.621 436.162 578.998 434.281 575.072 433.829C571.146 433.377 567.19 434.385 563.959 436.66C560.728 438.936 558.447 442.321 557.55 446.17L557.38 446.92L556.77 446.45C555.297 445.314 553.481 444.714 551.622 444.748C549.762 444.783 547.969 445.45 546.54 446.64L546.07 447.02L545.78 446.49C544.538 444.16 542.602 442.273 540.241 441.09C537.881 439.908 535.211 439.487 532.601 439.886C529.99 440.286 527.569 441.486 525.67 443.321C523.771 445.156 522.489 447.535 522 450.13Z" fill="#4B0062"/>
<path d="M310.47 237.74H309.47V222.59H309.94C310.34 222.59 319.68 221.87 320.94 213.17L321.94 213.31C320.77 221.65 312.58 223.26 310.52 223.53L310.47 237.74Z" fill="#4B0062"/>
<path d="M337 212.06C336 214.06 334 216.14 330.63 217.69V204.24C333.39 203.82 335.51 204.68 336.63 206.24C337.229 207.079 337.581 208.069 337.646 209.097C337.712 210.126 337.488 211.152 337 212.06Z" fill="#4B0062"/>
<path d="M330.15 218.48V203.82L330.57 203.76C333.34 203.34 335.72 204.12 337.07 205.91C337.73 206.829 338.116 207.915 338.185 209.044C338.254 210.173 338.003 211.298 337.46 212.29C336.69 213.93 334.91 216.29 330.85 218.16L330.15 218.48ZM331.15 204.69V216.9C333.465 215.886 335.373 214.125 336.57 211.9C337.034 211.075 337.253 210.135 337.204 209.189C337.154 208.244 336.837 207.332 336.29 206.56C335.673 205.825 334.873 205.265 333.971 204.936C333.068 204.608 332.095 204.523 331.15 204.69Z" fill="#4B0062"/>
<path d="M244.4 169.499L243.401 169.539L243.601 174.565L244.601 174.525L244.4 169.499Z" fill="#4B0062"/>
<path d="M238.728 170.414L237.728 170.449L237.909 175.536L238.908 175.501L238.728 170.414Z" fill="#4B0062"/>
<path d="M234.306 169.873L230.965 173.673L231.716 174.333L235.057 170.533L234.306 169.873Z" fill="#4B0062"/>
<path d="M232.5 167.231L228.059 169.614L228.532 170.496L232.973 168.112L232.5 167.231Z" fill="#4B0062"/>
<path d="M348.21 198.11C346.57 199.35 345.6 201.22 344.48 203.39C342.91 206.39 341.1 209.92 337.01 212.06C335.018 213.059 332.858 213.68 330.64 213.89V208.89C332.879 208.677 334.987 207.736 336.64 206.21C338.033 204.703 339.168 202.976 340 201.1C341.28 198.62 342.61 196.1 345.15 194.1C345.413 193.903 345.712 193.76 346.03 193.678C346.348 193.597 346.679 193.579 347.004 193.625C347.329 193.672 347.641 193.782 347.924 193.949C348.206 194.116 348.453 194.337 348.65 194.6C348.847 194.863 348.99 195.161 349.072 195.48C349.153 195.798 349.171 196.129 349.125 196.454C349.078 196.779 348.968 197.091 348.801 197.374C348.634 197.656 348.413 197.903 348.15 198.1L348.21 198.11Z" fill="#FFF0DC"/>
<path d="M330.15 214.46V208.46L330.58 208.4C332.723 208.204 334.742 207.312 336.33 205.86C337.686 204.385 338.788 202.696 339.59 200.86C340.9 198.32 342.25 195.71 344.89 193.71C345.525 193.23 346.325 193.022 347.114 193.132C347.902 193.241 348.615 193.66 349.095 194.295C349.575 194.93 349.783 195.73 349.673 196.519C349.564 197.307 349.145 198.02 348.51 198.5C346.95 199.68 346.01 201.5 344.92 203.61C343.39 206.61 341.48 210.27 337.24 212.49C335.194 213.512 332.977 214.149 330.7 214.37L330.15 214.46ZM331.15 209.32V213.32C333.114 213.078 335.022 212.499 336.79 211.61C340.79 209.54 342.5 206.15 344.05 203.15C345.2 200.93 346.18 199.02 347.92 197.7C348.343 197.379 348.621 196.903 348.693 196.377C348.766 195.851 348.626 195.318 348.305 194.895C347.984 194.472 347.508 194.194 346.982 194.122C346.456 194.049 345.923 194.189 345.5 194.51C343.04 196.38 341.74 198.89 340.5 201.31C339.64 203.236 338.468 205.007 337.03 206.55C335.409 208.065 333.351 209.031 331.15 209.31V209.32Z" fill="#4B0062"/>
<path d="M343.066 196.251L342.378 196.977L346.036 200.444L346.724 199.719L343.066 196.251Z" fill="#4B0062"/>
<path d="M340.399 200.611L339.746 201.368L343.634 204.716L344.286 203.958L340.399 200.611Z" fill="#4B0062"/>
<path d="M337.927 204.938L337.139 205.553L340.278 209.572L341.066 208.957L337.927 204.938Z" fill="#4B0062"/>
<path d="M335.142 207.507L334.18 207.781L335.56 212.638L336.522 212.365L335.142 207.507Z" fill="#4B0062"/>
<path d="M412.78 156.13H411.78V174.32H412.78V156.13Z" fill="#4B0062"/>
<path d="M421.37 164.73H403.18V165.73H421.37V164.73Z" fill="#4B0062"/>
<path d="M407.937 160.178L407.23 160.885L416.613 170.268L417.32 169.561L407.937 160.178Z" fill="#4B0062"/>
<path d="M416.623 160.181L407.24 169.564L407.947 170.271L417.33 160.888L416.623 160.181Z" fill="#4B0062"/>
<path d="M412.28 154.6C412.865 154.6 413.34 153.937 413.34 153.12C413.34 152.303 412.865 151.64 412.28 151.64C411.695 151.64 411.22 152.303 411.22 153.12C411.22 153.937 411.695 154.6 412.28 154.6Z" fill="#4B0062"/>
<path d="M412.28 178.83C412.865 178.83 413.34 178.167 413.34 177.35C413.34 176.533 412.865 175.87 412.28 175.87C411.695 175.87 411.22 176.533 411.22 177.35C411.22 178.167 411.695 178.83 412.28 178.83Z" fill="#4B0062"/>
<path d="M424.39 166.29C425.207 166.29 425.87 165.815 425.87 165.23C425.87 164.645 425.207 164.17 424.39 164.17C423.573 164.17 422.91 164.645 422.91 165.23C422.91 165.815 423.573 166.29 424.39 166.29Z" fill="#4B0062"/>
<path d="M400.16 166.29C400.977 166.29 401.64 165.815 401.64 165.23C401.64 164.645 400.977 164.17 400.16 164.17C399.343 164.17 398.68 164.645 398.68 165.23C398.68 165.815 399.343 166.29 400.16 166.29Z" fill="#4B0062"/>
<path d="M594.08 403.37H593.08V421.56H594.08V403.37Z" fill="#4B0062"/>
<path d="M602.67 411.97H584.48V412.97H602.67V411.97Z" fill="#4B0062"/>
<path d="M589.243 407.457L588.536 408.164L597.919 417.548L598.626 416.84L589.243 407.457Z" fill="#4B0062"/>
<path d="M597.919 407.424L588.536 416.808L589.243 417.515L598.626 408.131L597.919 407.424Z" fill="#4B0062"/>
<path d="M605.69 413.53C606.507 413.53 607.17 413.055 607.17 412.47C607.17 411.885 606.507 411.41 605.69 411.41C604.873 411.41 604.21 411.885 604.21 412.47C604.21 413.055 604.873 413.53 605.69 413.53Z" fill="#4B0062"/>
<path d="M581.46 413.53C582.277 413.53 582.94 413.055 582.94 412.47C582.94 411.885 582.277 411.41 581.46 411.41C580.643 411.41 579.98 411.885 579.98 412.47C579.98 413.055 580.643 413.53 581.46 413.53Z" fill="#4B0062"/>
<path d="M225.14 251.36H224.14V266.45H225.14V251.36Z" fill="#4B0062"/>
<path d="M229.31 258.41H219.96V259.41H229.31V258.41Z" fill="#4B0062"/>
<path d="M208.75 271.23H207.75V282.77H208.75V271.23Z" fill="#4B0062"/>
<path d="M211.82 276.5H204.68V277.5H211.82V276.5Z" fill="#4B0062"/>
<path d="M265.68 361.1C268.093 361.1 270.05 359.143 270.05 356.73C270.05 354.317 268.093 352.36 265.68 352.36C263.267 352.36 261.31 354.317 261.31 356.73C261.31 359.143 263.267 361.1 265.68 361.1Z" fill="#A26BB4"/>
<path d="M282.84 342.29C283.983 342.29 284.91 341.363 284.91 340.22C284.91 339.077 283.983 338.15 282.84 338.15C281.697 338.15 280.77 339.077 280.77 340.22C280.77 341.363 281.697 342.29 282.84 342.29Z" fill="#A26BB4"/>
<path d="M442.08 265.56C445.118 265.56 447.58 263.098 447.58 260.06C447.58 257.022 445.118 254.56 442.08 254.56C439.042 254.56 436.58 257.022 436.58 260.06C436.58 263.098 439.042 265.56 442.08 265.56Z" fill="#A26BB4"/>
<path d="M460.31 273.33C461.63 273.33 462.7 272.26 462.7 270.94C462.7 269.62 461.63 268.55 460.31 268.55C458.99 268.55 457.92 269.62 457.92 270.94C457.92 272.26 458.99 273.33 460.31 273.33Z" fill="#A26BB4"/>
<path d="M570.47 347.97C572.795 347.97 574.68 346.085 574.68 343.76C574.68 341.435 572.795 339.55 570.47 339.55C568.145 339.55 566.26 341.435 566.26 343.76C566.26 346.085 568.145 347.97 570.47 347.97Z" fill="#A26BB4"/>
<path d="M470.33 418.47C471.694 418.47 472.8 417.364 472.8 416C472.8 414.636 471.694 413.53 470.33 413.53C468.966 413.53 467.86 414.636 467.86 416C467.86 417.364 468.966 418.47 470.33 418.47Z" fill="#A26BB4"/>
</g>
<defs>
<clipPath id="clip0_20_1568">
<rect width="800" height="600" fill="white"/>
</clipPath>
</defs>
</svg>
