<svg width="800" height="600" viewBox="0 0 800 600" fill="none" xmlns="http://www.w3.org/2000/svg">
<g clip-path="url(#clip0_20_1122)">
<path d="M525.58 480.48L530.19 505.53H493.19C493.473 502.947 494.445 500.487 496.003 498.408C497.562 496.329 499.65 494.706 502.05 493.71L502.83 493.39L500.03 480.48L496.03 462.25L492.65 446.63H485.47L478.47 465.9L473.19 480.48L464.12 505.53H428.73C428.467 502.334 429.32 499.145 431.143 496.507C432.966 493.869 435.647 491.944 438.73 491.06L440.26 490.62L444.26 480.48L451.26 462.62L457.5 446.62L461.02 437.62L487.92 368.68L545.27 369.96L517.7 437.6L519.36 446.6L522.73 465L525.58 480.48Z" fill="#FFF0DC"/>
<path d="M530.79 506H492.66L492.72 505.45C493.012 502.777 494.017 500.231 495.63 498.079C497.244 495.928 499.406 494.249 501.89 493.22L502.28 493.06L492.28 447.06H485.9L464.57 506H428.27V505.54C428 502.231 428.882 498.93 430.766 496.197C432.651 493.463 435.421 491.465 438.61 490.54L439.9 490.17L487.52 368.11L545.95 369.41L545.68 370.08L518.26 437.6L530.79 506ZM493.79 505H529.59L517.18 437.52L517.24 437.38L544.44 370.38L488.16 369.13L440.61 491L438.84 491.51C435.951 492.349 433.428 494.136 431.677 496.583C429.927 499.03 429.051 501.995 429.19 505H463.86L485.19 446.1H493.12L503.42 493.66L502.25 494.14C500.024 495.068 498.075 496.556 496.593 498.458C495.111 500.361 494.145 502.614 493.79 505Z" fill="#4B0062"/>
<path d="M409.67 198.74L408.71 198.48L415.61 173.54L425.84 168.13L419.22 148.25L432.65 143.06L438.09 123.56L439.05 123.83L433.48 143.81L420.47 148.84L427.06 168.62L416.46 174.22L409.67 198.74Z" fill="#4B0062"/>
<path d="M416.85 195.13L416.04 197.71L414.15 203.71L410.46 215.52L398.06 255.16H375.29L389.72 209.03L395.54 190.41C396.069 188.734 397.24 187.335 398.797 186.52C400.355 185.705 402.171 185.54 403.85 186.06L413.75 189.16C414.347 189.347 414.901 189.649 415.38 190.051C415.859 190.452 416.254 190.945 416.543 191.5C416.831 192.055 417.006 192.661 417.059 193.284C417.112 193.907 417.041 194.535 416.85 195.13Z" fill="#4B0062"/>
<path d="M398.42 255.7H374.61L395.06 190.3C395.628 188.496 396.888 186.991 398.564 186.114C400.239 185.237 402.194 185.059 404 185.62L413.9 188.72C415.224 189.136 416.329 190.061 416.972 191.291C417.615 192.521 417.744 193.955 417.33 195.28L398.42 255.7ZM375.96 254.7H397.68L416.37 195C416.705 193.93 416.602 192.77 416.082 191.777C415.563 190.783 414.67 190.036 413.6 189.7L403.7 186.6C402.151 186.119 400.475 186.27 399.037 187.019C397.598 187.768 396.514 189.055 396.02 190.6L375.96 254.7Z" fill="#4B0062"/>
<path d="M307.47 498.5L321.35 505.53H274.77L279.5 488.59L285.57 476.88L276.03 476.23L274.29 467.55L282.1 464.01L284.42 456.61L295.33 421.79L322.22 433.72L308.75 464.72L307.04 468.64L307.47 498.5Z" fill="#4B0062"/>
<path d="M323.44 506H274.11L279.06 488.33L284.78 477.33L275.62 476.71L273.73 467.27L281.73 463.66L295 421.1L322.86 433.46L307.53 468.74L307.95 498.19L323.44 506ZM275.44 505H319.27L307 498.81V498.51L306.57 468.51L308.32 464.51L321.56 434L295.64 422.5L282.51 464.4L274.86 467.87L276.45 475.79L286.37 476.47L280 488.77L275.44 505Z" fill="#4B0062"/>
<path d="M322.22 433.72L308.75 464.72C301.6 467 294.93 469 294.93 469L284.42 456.56L295.33 421.74L322.22 433.72Z" fill="#F44B1B"/>
<path d="M294.76 469.62L283.86 456.72L295 421.1L322.86 433.46L309.1 465.12L308.88 465.19C301.73 467.46 295.06 469.52 295.06 469.52L294.76 469.62ZM285 456.49L295.12 468.49C296.51 468.06 302.25 466.28 308.4 464.33L321.56 434L295.64 422.5L285 456.49Z" fill="#4B0062"/>
<path d="M281.69 498.5L295.57 505.53H259.79L253.72 488.59L259.79 476.88L250.25 476.23L248.51 467.55L256.32 464.01L259.94 452.46L269.55 421.79L296.44 433.72L283.54 463.39L281.26 468.64L281.69 498.5Z" fill="#4B0062"/>
<path d="M297.66 506H259.44L253.18 488.52L253.28 488.33L259 477.33L249.84 476.71L247.95 467.27L255.95 463.66L269.28 421.12L297.14 433.48L281.81 468.76L282.23 498.21L297.66 506ZM260.14 505H293.47L281.19 498.78V498.48L280.76 468.48L295.76 433.92L269.84 422.42L256.71 464.32L249.06 467.79L250.65 475.71L260.57 476.39L254.25 488.58L260.14 505Z" fill="#4B0062"/>
<path d="M296.44 433.72L283.54 463.39C275.78 465.31 268.25 467.12 268.25 467.12L259.94 452.46L269.55 421.79L296.44 433.72Z" fill="#F44B1B"/>
<path d="M268 467.69L259.4 452.51L259.46 452.3L269.24 421.09L297.1 433.45L283.9 463.8L283.66 463.86C275.9 465.78 268.37 467.59 268.37 467.59L268 467.69ZM260.48 452.4L268.48 466.54C270.06 466.16 276.48 464.61 283.16 462.96L295.76 433.96L269.84 422.46L260.48 452.4Z" fill="#4B0062"/>
<path d="M330.29 250.97L329.35 254.15L325.77 266.33L322.99 275.76L309.96 320.05L287.54 337.75L279.2 352.24L271.59 347.99L270.65 339.33L263.04 335.08L262.1 326.41L254.49 322.17L253.55 313.5L245.94 309.25L245 300.58L237.39 296.32L253.42 286.82L313.91 250.97H330.29Z" fill="#A26BB4"/>
<path d="M279.38 352.91L271.11 348.29L270.17 339.63L262.56 335.38L261.62 326.71L254 322.48L253.06 313.81L245.45 309.56L244.51 300.89L236.37 296.33L313.76 250.47H331L310.44 320.34L287.97 338.08L279.38 352.91ZM272.05 347.67L279.05 351.55L287.27 337.34L309.56 319.74L329.66 251.45H314L238.39 296.3L245.47 300.3L246.41 308.97L254.02 313.22L254.96 321.89L262.57 326.13L263.51 334.8L271.12 339.05L272.05 347.67Z" fill="#4B0062"/>
<path d="M322.426 250.558L244.726 300.192L245.264 301.034L322.965 251.4L322.426 250.558Z" fill="#4B0062"/>
<path d="M333.073 250.546L253.254 313.132L253.871 313.919L333.69 251.333L333.073 250.546Z" fill="#4B0062"/>
<path d="M341.698 250.58L261.754 326.021L262.44 326.748L342.384 251.307L341.698 250.58Z" fill="#4B0062"/>
<path d="M343.015 250.658L270.287 339.042L271.059 339.677L343.787 251.293L343.015 250.658Z" fill="#4B0062"/>
<path d="M313.84 281.58L220.9 427.15L353.21 471.32L383.7 288.19L313.84 281.58Z" fill="#4B0062"/>
<path d="M434 317.76L405.78 251L396.12 228.13L367.63 160.69H304.92L334.72 196.95L325.47 228.13L318.69 251H335.05C332.546 255.396 330.933 260.242 330.302 265.262C329.671 270.281 330.036 275.376 331.374 280.254C332.712 285.133 334.998 289.701 338.101 293.696C341.204 297.691 345.064 301.036 349.46 303.54C358.338 308.596 368.861 309.919 378.714 307.216C388.568 304.514 396.944 298.008 402 289.13L434 317.76Z" fill="#4B0062"/>
<path d="M434 317.76L402 289.13C399.496 293.529 396.151 297.392 392.154 300.499C388.157 303.605 383.588 305.894 378.707 307.234C373.826 308.574 368.729 308.94 363.706 308.311C358.684 307.681 353.834 306.069 349.435 303.565C345.036 301.061 341.173 297.716 338.066 293.719C334.96 289.723 332.671 285.153 331.331 280.272C329.991 275.391 329.625 270.294 330.254 265.271C330.884 260.249 332.496 255.399 335 251H405.73L434 317.76Z" fill="#F48001"/>
<path d="M435.32 319.61L402.08 289.91C399.506 294.34 396.085 298.22 392.011 301.328C387.938 304.436 383.293 306.711 378.34 308.023C373.387 309.336 368.225 309.66 363.147 308.978C358.069 308.295 353.175 306.619 348.745 304.045C344.315 301.471 340.435 298.05 337.327 293.976C334.219 289.903 331.944 285.258 330.631 280.305C329.319 275.352 328.995 270.19 329.677 265.112C330.36 260.034 332.036 255.14 334.61 250.71L334.76 250.47H406.1L406.23 250.78L435.32 319.61ZM401.82 288.33L432.67 315.89L405.45 251.46H335.33C332.873 255.806 331.296 260.594 330.689 265.549C330.082 270.505 330.458 275.531 331.793 280.342C333.129 285.152 335.399 289.653 338.474 293.586C341.549 297.519 345.369 300.808 349.715 303.265C354.061 305.722 358.849 307.299 363.804 307.906C368.76 308.513 373.786 308.137 378.597 306.802C383.407 305.466 387.908 303.196 391.841 300.121C395.774 297.046 399.063 293.226 401.52 288.88L401.82 288.33Z" fill="#4B0062"/>
<path d="M452.89 421.86C452.841 415.291 450.651 408.917 446.652 403.704C442.654 398.492 437.065 394.725 430.732 392.976C424.4 391.227 417.67 391.59 411.563 394.011C405.456 396.431 400.304 400.778 396.89 406.39L396.03 405.87C399.549 400.049 404.874 395.537 411.195 393.022C417.515 390.507 424.484 390.126 431.041 391.938C437.597 393.75 443.382 397.655 447.514 403.058C451.646 408.462 453.899 415.068 453.93 421.87L452.89 421.86Z" fill="#4B0062"/>
<path d="M463 417.31C462.9 418.351 462.619 419.366 462.17 420.31C461.912 420.85 461.469 421.28 460.922 421.522C460.374 421.763 459.758 421.8 459.185 421.626C458.613 421.451 458.122 421.077 457.801 420.572C457.481 420.066 457.353 419.462 457.44 418.87C457.471 418.627 457.542 418.39 457.65 418.17C457.984 417.459 458.105 416.667 458.001 415.888C457.896 415.11 457.57 414.378 457.06 413.78L456.84 413.54C456.711 413.412 456.574 413.292 456.43 413.18C455.724 412.632 454.854 412.336 453.96 412.34C453.033 412.332 452.131 412.647 451.41 413.23C451.29 413.322 451.176 413.422 451.07 413.53L449.86 414.74L434.98 429.62C434.504 430.046 433.883 430.273 433.244 430.255C432.605 430.237 431.998 429.976 431.546 429.524C431.094 429.072 430.833 428.465 430.815 427.826C430.797 427.187 431.024 426.566 431.45 426.09L443.26 414.28L446.84 410.7L447.54 410C448.741 408.787 450.264 407.943 451.93 407.57C452.586 407.42 453.257 407.342 453.93 407.34C454.95 407.336 455.964 407.501 456.93 407.83C458.234 408.279 459.418 409.021 460.39 410C461.079 410.681 461.651 411.472 462.08 412.34C462.845 413.878 463.163 415.6 463 417.31Z" fill="#F44B1B"/>
<path d="M433.18 430.91C432.585 430.911 432.003 430.736 431.508 430.406C431.013 430.076 430.627 429.606 430.4 429.056C430.173 428.506 430.114 427.901 430.232 427.317C430.349 426.734 430.638 426.199 431.06 425.78L447.15 409.69C448.417 408.412 450.024 407.524 451.78 407.13C453.524 406.728 455.346 406.821 457.04 407.4C458.417 407.872 459.666 408.656 460.69 409.69C461.417 410.408 462.018 411.243 462.47 412.16C463.278 413.764 463.625 415.561 463.47 417.35C463.373 418.466 463.078 419.557 462.6 420.57C462.293 421.222 461.761 421.742 461.102 422.034C460.443 422.327 459.701 422.372 459.012 422.162C458.322 421.952 457.731 421.501 457.347 420.891C456.963 420.281 456.811 419.553 456.92 418.84C456.958 418.548 457.042 418.265 457.17 418C457.462 417.376 457.568 416.681 457.476 415.999C457.384 415.316 457.097 414.674 456.65 414.15L456.46 413.94C456.343 413.826 456.219 413.72 456.09 413.62C455.458 413.138 454.685 412.877 453.89 412.877C453.095 412.877 452.322 413.138 451.69 413.62C451.584 413.699 451.483 413.786 451.39 413.88L435.29 430C435.015 430.283 434.688 430.509 434.326 430.665C433.964 430.821 433.574 430.904 433.18 430.91ZM453.92 407.91C453.274 407.91 452.63 407.984 452 408.13C450.426 408.48 448.986 409.275 447.85 410.42L431.76 426.51C431.388 426.885 431.178 427.392 431.178 427.92C431.178 428.448 431.388 428.955 431.76 429.33C432.135 429.702 432.642 429.912 433.17 429.912C433.698 429.912 434.205 429.702 434.58 429.33L450.67 413.24C450.791 413.114 450.922 412.997 451.06 412.89C451.869 412.274 452.858 411.941 453.875 411.941C454.892 411.941 455.881 412.274 456.69 412.89C456.851 413.014 457.005 413.148 457.15 413.29L457.37 413.53C457.958 414.206 458.336 415.04 458.457 415.928C458.578 416.817 458.436 417.721 458.05 418.53C457.964 418.703 457.907 418.889 457.88 419.08C457.811 419.553 457.913 420.035 458.168 420.439C458.423 420.843 458.815 421.143 459.272 421.283C459.729 421.423 460.221 421.395 460.659 421.204C461.097 421.012 461.452 420.67 461.66 420.24C462.087 419.337 462.352 418.365 462.44 417.37C462.583 415.768 462.278 414.159 461.56 412.72C461.177 411.863 460.649 411.078 460 410.4C459.083 409.473 457.964 408.772 456.73 408.35C455.825 408.043 454.876 407.887 453.92 407.89V407.91Z" fill="#4B0062"/>
<path d="M463 417.31L457.44 418.91C457.471 418.667 457.542 418.43 457.65 418.21C457.984 417.499 458.105 416.707 458.001 415.928C457.896 415.15 457.57 414.418 457.06 413.82L462.06 412.38C462.824 413.904 463.15 415.611 463 417.31Z" fill="#FFF0DC"/>
<path d="M456.81 419.61L456.9 418.86C456.938 418.565 457.022 418.278 457.15 418.01C457.442 417.386 457.548 416.691 457.456 416.009C457.364 415.326 457.077 414.684 456.63 414.16L456.12 413.57L462.28 411.8L462.47 412.17C463.275 413.768 463.621 415.557 463.47 417.34V417.7L456.81 419.61ZM457.81 414.11C458.173 414.716 458.392 415.397 458.449 416.101C458.506 416.806 458.4 417.513 458.14 418.17L462.45 416.93C462.519 415.574 462.269 414.221 461.72 412.98L457.81 414.11Z" fill="#4B0062"/>
<path d="M456.88 407.88L456.39 413.23C455.684 412.682 454.814 412.386 453.92 412.39C452.993 412.382 452.091 412.697 451.37 413.28L451.89 407.62C452.546 407.469 453.217 407.392 453.89 407.39C454.907 407.387 455.917 407.552 456.88 407.88Z" fill="#FFF0DC"/>
<path d="M450.76 414.41L451.42 407.21L451.77 407.13C453.514 406.727 455.336 406.821 457.03 407.4L457.4 407.53L456.79 414.19L456.07 413.62C455.438 413.138 454.665 412.877 453.87 412.877C453.075 412.877 452.302 413.138 451.67 413.62L450.76 414.41ZM453.92 411.89C454.615 411.894 455.299 412.058 455.92 412.37L456.3 408.24C455.001 407.861 453.631 407.792 452.3 408.04L451.91 412.33C452.538 412.032 453.225 411.882 453.92 411.89Z" fill="#4B0062"/>
<path d="M449.82 414.79L446.25 418.36L443.22 414.33L446.8 410.75L449.82 414.79Z" fill="#FFF0DC"/>
<path d="M446.19 419.12L442.55 414.28L446.84 409.99L450.47 414.84L446.19 419.12ZM443.87 414.38L446.29 417.6L449.15 414.74L446.74 411.51L443.87 414.38Z" fill="#4B0062"/>
<path d="M577.36 346.22C577.067 349.113 575.813 351.825 573.798 353.921C571.783 356.017 569.123 357.377 566.244 357.784C563.364 358.19 560.432 357.62 557.915 356.163C555.398 354.707 553.442 352.449 552.36 349.75L577.36 346.22Z" fill="#F44B1B"/>
<path d="M564.43 358.28C561.756 358.283 559.142 357.492 556.918 356.007C554.695 354.522 552.962 352.411 551.94 349.94L551.69 349.34L577.93 345.63L577.86 346.27C577.497 349.576 575.925 352.631 573.446 354.848C570.967 357.065 567.756 358.287 564.43 358.28ZM553.13 350.15C554.277 352.554 556.161 354.529 558.508 355.789C560.855 357.049 563.543 357.527 566.18 357.155C568.818 356.782 571.268 355.578 573.174 353.718C575.08 351.858 576.343 349.438 576.78 346.81L553.13 350.15Z" fill="#4B0062"/>
<path d="M570.7 370.79C570.704 372.205 570.47 373.612 570.01 374.95L549.75 360.49C551.673 358.988 553.981 358.058 556.408 357.806C558.835 357.554 561.284 357.991 563.475 359.065C565.666 360.14 567.51 361.809 568.796 363.883C570.083 365.956 570.76 368.35 570.75 370.79H570.7Z" fill="#F44B1B"/>
<path d="M570.26 375.74L548.91 360.5L549.44 360.09C551.799 358.258 554.703 357.269 557.69 357.28C561.271 357.285 564.705 358.71 567.237 361.243C569.77 363.775 571.195 367.209 571.2 370.79C571.202 372.26 570.959 373.72 570.48 375.11L570.26 375.74ZM550.6 360.48L569.74 374.14C570.047 373.05 570.202 371.923 570.2 370.79C570.197 367.473 568.878 364.293 566.533 361.947C564.187 359.602 561.007 358.283 557.69 358.28C555.157 358.27 552.682 359.038 550.6 360.48Z" fill="#4B0062"/>
<path d="M492.28 377.11V396H426.09V386.64C426.093 384.103 427.102 381.67 428.896 379.876C430.69 378.082 433.123 377.073 435.66 377.07L492.28 377.11Z" fill="#F48001"/>
<path d="M448 377.11V396H426V386.64C426.003 384.103 427.012 381.67 428.806 379.876C430.6 378.082 433.033 377.073 435.57 377.07L448 377.11Z" fill="#FFF0DC"/>
<path d="M448.55 396.54H425.55V386.68C425.553 384.01 426.614 381.45 428.502 379.562C430.39 377.674 432.95 376.613 435.62 376.61H448.51L448.55 396.54ZM426.55 395.54H447.55V377.61H435.66C433.255 377.613 430.95 378.569 429.249 380.269C427.549 381.97 426.593 384.275 426.59 386.68L426.55 395.54Z" fill="#4B0062"/>
<path d="M492.78 396.54H425.59V386.68C425.593 384.01 426.654 381.45 428.542 379.562C430.43 377.674 432.99 376.613 435.66 376.61H492.78V396.54ZM426.59 395.54H491.78V377.61H435.66C433.255 377.613 430.95 378.569 429.249 380.269C427.549 381.97 426.593 384.275 426.59 386.68V395.54Z" fill="#4B0062"/>
<path d="M444.19 480.48H473.29L464.22 505.53H428.73C428.467 502.334 429.32 499.145 431.143 496.507C432.966 493.869 435.647 491.944 438.73 491.06L440.26 490.62L444.19 480.48Z" fill="#F44B1B"/>
<path d="M464.57 506H428.27V505.54C428 502.231 428.882 498.93 430.766 496.197C432.651 493.463 435.421 491.465 438.61 490.54L439.9 490.17L443.9 479.94H474L464.57 506ZM429.2 505H463.87L472.57 481H444.57L440.61 491L438.84 491.51C435.951 492.349 433.428 494.136 431.677 496.583C429.927 499.03 429.051 501.995 429.19 505H429.2Z" fill="#4B0062"/>
<path d="M530.19 505.53H493.19C493.473 502.947 494.445 500.487 496.003 498.408C497.562 496.329 499.65 494.706 502.05 493.71L502.83 493.39L500.03 480.48H525.55L530.19 505.53Z" fill="#F44B1B"/>
<path d="M530.79 506H492.66L492.72 505.45C493.012 502.777 494.017 500.231 495.63 498.079C497.244 495.928 499.406 494.249 501.89 493.22L502.28 493.06L499.44 480H526L526.08 480.41L530.79 506ZM493.79 505H529.59L525.16 481H500.68L503.44 493.71L502.27 494.19C500.047 495.111 498.098 496.59 496.613 498.483C495.127 500.377 494.155 502.621 493.79 505Z" fill="#4B0062"/>
<path d="M556.62 467.85V466.85C558.433 466.85 560.171 466.13 561.453 464.848C562.735 463.566 563.455 461.828 563.455 460.015C563.455 458.202 562.735 456.464 561.453 455.182C560.171 453.9 558.433 453.18 556.62 453.18C555.806 453.176 554.999 453.325 554.24 453.62L553.81 453.79L545.74 436.86L546.64 436.43L554.32 452.53C555.064 452.296 555.84 452.177 556.62 452.18C558.698 452.18 560.691 453.005 562.16 454.475C563.63 455.944 564.455 457.937 564.455 460.015C564.455 462.093 563.63 464.086 562.16 465.555C560.691 467.025 558.698 467.85 556.62 467.85Z" fill="#4B0062"/>
<path d="M549.74 445.31C548.454 445.769 547.09 445.969 545.726 445.9C544.362 445.831 543.025 445.494 541.792 444.908C540.559 444.322 539.453 443.498 538.538 442.485C537.623 441.471 536.917 440.287 536.46 439L533.23 430L530.8 423.23L529.1 418.49L526.5 411.23L524.81 406.49L513.16 374L532.73 367L543.58 397.28L545.27 402.02L547.87 409.28L549.57 414.01L552.79 423.01L556.02 432.01C556.482 433.296 556.687 434.66 556.621 436.024C556.556 437.389 556.222 438.727 555.638 439.962C555.055 441.198 554.234 442.306 553.222 443.224C552.21 444.141 551.026 444.85 549.74 445.31Z" fill="#F48001"/>
<path d="M546.23 446.42C543.99 446.412 541.806 445.715 539.976 444.424C538.146 443.132 536.758 441.308 536 439.2L512.53 373.73L533 366.37L556.46 431.85C556.943 433.197 557.156 434.625 557.087 436.054C557.018 437.483 556.667 438.885 556.056 440.178C555.445 441.472 554.585 442.633 553.526 443.594C552.466 444.555 551.227 445.298 549.88 445.78C548.709 446.2 547.474 446.417 546.23 446.42ZM513.8 374.33L536.93 438.86C537.366 440.084 538.038 441.211 538.909 442.175C539.78 443.139 540.833 443.922 542.007 444.479C543.181 445.036 544.453 445.357 545.75 445.422C547.048 445.488 548.346 445.296 549.57 444.86C550.795 444.424 551.923 443.752 552.888 442.88C553.853 442.008 554.636 440.954 555.194 439.779C555.751 438.604 556.071 437.331 556.136 436.032C556.2 434.733 556.008 433.434 555.57 432.21L532.45 367.67L513.8 374.33Z" fill="#4B0062"/>
<path d="M549.57 414.02L530.8 423.26L529.1 418.52L547.87 409.29L549.57 414.02Z" fill="#F44B1B"/>
<path d="M530.52 424L528.52 418.31L548.19 408.64L550.19 414.32L530.52 424ZM529.72 418.82L531.08 422.61L548.95 413.82L547.59 410L529.72 418.82Z" fill="#4B0062"/>
<path d="M545.27 402.03L526.5 411.26L524.81 406.52L543.58 397.29L545.27 402.03Z" fill="#F44B1B"/>
<path d="M526.21 412L524.21 406.31L543.88 396.64L545.88 402.33L526.21 412ZM525.42 406.82L526.77 410.61L544.64 401.82L543.29 398L525.42 406.82Z" fill="#4B0062"/>
<path d="M549.74 445.31C548.454 445.769 547.09 445.969 545.726 445.9C544.362 445.831 543.025 445.494 541.792 444.908C540.559 444.322 539.453 443.498 538.538 442.485C537.623 441.471 536.917 440.287 536.46 439L533.23 430L552.79 423L556.02 432C556.484 433.286 556.689 434.651 556.625 436.017C556.56 437.383 556.226 438.722 555.643 439.959C555.059 441.195 554.238 442.304 553.225 443.223C552.212 444.141 551.028 444.85 549.74 445.31Z" fill="#4B0062"/>
<path d="M517.7 437.6L519.36 446.62H457.4L460.92 437.6L487.82 368.66L545.17 369.94L517.7 437.6Z" fill="#4B0062"/>
<path d="M523.03 374.36L514.44 395.51L512.41 400.51L508.89 409.19L506.86 414.19L502.67 424.51L497.35 437.6H481.64L486.96 424.51L491.15 414.19L493.18 409.19L496.7 400.51L498.73 395.51L507.32 374.36H523.03Z" fill="#F48001"/>
<path d="M522.73 464.98L518.51 462.01L512.83 466.01L507.14 462.01L501.46 466.01L496.11 462.25L492.73 446.63H485.55L478.57 465.9L473.04 462.01L467.35 466.01L461.66 462.01L455.98 466.01L451.16 462.62L460.92 437.6H517.7L522.73 464.98Z" fill="#A26BB4"/>
<path d="M557.28 349.88C557.278 351.675 557.165 353.469 556.94 355.25C555.551 366.123 549.987 376.03 541.425 382.875C532.862 389.719 521.973 392.964 511.061 391.922C500.149 390.881 490.07 385.636 482.956 377.296C475.842 368.956 472.252 358.176 472.944 347.236C473.637 336.296 478.558 326.055 486.667 318.679C494.776 311.303 505.436 307.371 516.393 307.714C527.349 308.057 537.742 312.65 545.373 320.519C553.004 328.389 557.274 338.918 557.28 349.88Z" fill="#FFF0DC"/>
<path d="M515.09 392.57C506.647 392.57 498.393 390.066 491.373 385.375C484.352 380.685 478.881 374.017 475.65 366.217C472.419 358.416 471.573 349.833 473.22 341.552C474.867 333.271 478.933 325.664 484.904 319.694C490.874 313.723 498.481 309.657 506.762 308.01C515.043 306.363 523.626 307.208 531.427 310.44C539.227 313.671 545.895 319.142 550.585 326.163C555.276 333.183 557.78 341.437 557.78 349.88C557.779 351.695 557.666 353.509 557.44 355.31C556.107 365.603 551.075 375.06 543.282 381.916C535.49 388.772 525.469 392.559 515.09 392.57ZM515.09 308.19C507.071 308.19 499.222 310.502 492.484 314.85C485.747 319.198 480.406 325.397 477.102 332.704C473.798 340.011 472.672 348.115 473.858 356.046C475.044 363.977 478.492 371.397 483.789 377.418C489.086 383.438 496.007 387.804 503.722 389.99C511.437 392.177 519.619 392.092 527.287 389.746C534.955 387.4 541.783 382.892 546.954 376.763C552.125 370.634 555.419 363.144 556.44 355.19C556.663 353.429 556.777 351.655 556.78 349.88C556.767 338.827 552.37 328.231 544.555 320.415C536.739 312.6 526.143 308.203 515.09 308.19Z" fill="#4B0062"/>
<path d="M478.81 466.68L473.04 462.62L467.35 466.62L461.66 462.62L455.98 466.62L450.55 462.8L460.45 437.42L461.38 437.78L451.77 462.43L455.98 465.4L461.66 461.4L467.35 465.4L473.04 461.4L478.32 465.11L485.2 446.13H493.13L496.55 461.95L501.46 465.4L507.14 461.4L512.83 465.4L518.51 461.4L522.01 463.86L517.2 437.69L518.19 437.51L523.44 466.09L518.51 462.62L512.83 466.62L507.14 462.62L501.46 466.62L495.66 462.54L492.32 447.13H485.9L478.81 466.68Z" fill="#4B0062"/>
<path d="M502.67 424.51L497.35 437.6H481.64L486.96 424.51H502.67Z" fill="#A26BB4"/>
<path d="M524.37 360.15C522.612 360.15 520.893 359.629 519.431 358.652C517.969 357.675 516.83 356.286 516.157 354.662C515.484 353.038 515.308 351.25 515.651 349.526C515.994 347.801 516.84 346.217 518.084 344.974C519.327 343.731 520.911 342.884 522.636 342.541C524.36 342.198 526.148 342.374 527.772 343.047C529.396 343.72 530.785 344.859 531.762 346.321C532.739 347.783 533.26 349.502 533.26 351.26C533.257 353.617 532.32 355.877 530.653 357.543C528.987 359.21 526.727 360.147 524.37 360.15ZM524.37 343.37C522.809 343.37 521.284 343.833 519.987 344.7C518.689 345.567 517.678 346.799 517.081 348.241C516.483 349.682 516.327 351.269 516.632 352.799C516.936 354.33 517.687 355.736 518.791 356.839C519.894 357.943 521.3 358.694 522.831 358.998C524.361 359.303 525.948 359.147 527.389 358.549C528.831 357.952 530.063 356.941 530.93 355.643C531.797 354.346 532.26 352.82 532.26 351.26C532.257 349.168 531.425 347.163 529.946 345.684C528.467 344.205 526.462 343.373 524.37 343.37Z" fill="#4B0062"/>
<path d="M522.6 352.05C524.461 352.05 525.97 350.541 525.97 348.68C525.97 346.819 524.461 345.31 522.6 345.31C520.739 345.31 519.23 346.819 519.23 348.68C519.23 350.541 520.739 352.05 522.6 352.05Z" fill="#4B0062"/>
<path d="M557.28 349.88C557.278 351.675 557.165 353.469 556.94 355.25L480.31 326C485.403 318.563 492.744 312.953 501.257 309.991C509.77 307.029 519.008 306.872 527.617 309.542C536.226 312.212 543.754 317.569 549.097 324.828C554.441 332.087 557.319 340.866 557.31 349.88H557.28Z" fill="#F44B1B"/>
<path d="M557.35 355.94L479.53 326.24L479.89 325.72C485.048 318.209 492.474 312.546 501.081 309.559C509.689 306.571 519.027 306.415 527.729 309.115C536.431 311.815 544.041 317.228 549.446 324.562C554.851 331.897 557.768 340.769 557.77 349.88C557.769 351.695 557.656 353.509 557.43 355.31L557.35 355.94ZM481.08 325.76L556.51 354.55C556.682 352.999 556.769 351.44 556.77 349.88C556.769 341.037 553.955 332.423 548.737 325.283C543.518 318.144 536.164 312.849 527.738 310.164C519.312 307.479 510.251 307.543 501.863 310.346C493.476 313.15 486.198 318.548 481.08 325.76Z" fill="#4B0062"/>
<path d="M489.29 351.56C480.6 351.56 473.51 345.56 473.4 338.17H505.18C505.06 345.57 498 351.56 489.29 351.56Z" fill="#4B0062"/>
<path d="M504.66 338.67C504.24 345.56 497.51 351.06 489.29 351.06C481.07 351.06 474.29 345.56 473.92 338.67H504.66ZM505.66 337.67H472.91C472.91 337.77 472.91 337.88 472.91 337.99C472.91 345.76 480.25 352.06 489.3 352.06C498.35 352.06 505.69 345.76 505.69 337.99C505.69 337.88 505.69 337.77 505.69 337.67H505.66Z" fill="#4B0062"/>
<path d="M501.5 377.73C500.571 377.717 499.673 377.394 498.948 376.813C498.223 376.231 497.714 375.424 497.5 374.52C497.463 374.362 497.436 374.202 497.42 374.04C496.73 369.62 500.62 365.12 506.28 363.77C507.358 363.512 508.462 363.381 509.57 363.38C514.03 363.38 517.75 365.6 518.83 368.9C518.83 369.04 518.92 369.19 518.96 369.35C519.001 369.498 519.031 369.648 519.05 369.8C519.191 370.822 518.948 371.86 518.368 372.713C517.788 373.567 516.912 374.175 515.91 374.42C515.582 374.497 515.247 374.534 514.91 374.53C514.209 374.527 513.52 374.345 512.91 374C512.696 373.885 512.495 373.747 512.31 373.59C511.52 373.132 510.623 372.891 509.71 372.89C509.292 372.891 508.876 372.942 508.47 373.04C507.193 373.337 506.076 374.105 505.34 375.19C505.163 375.431 505.015 375.693 504.9 375.97C504.522 376.516 504.016 376.963 503.428 377.271C502.839 377.579 502.184 377.74 501.52 377.74L501.5 377.73Z" fill="#4B0062"/>
<path d="M509.52 363.87C513.76 363.87 517.29 365.95 518.3 369.04C518.3 369.18 518.39 369.31 518.43 369.51C518.461 369.628 518.485 369.749 518.5 369.87C518.619 370.768 518.403 371.678 517.891 372.426C517.38 373.174 516.61 373.706 515.73 373.92C514.837 374.133 513.896 373.997 513.1 373.54C512.922 373.441 512.754 373.323 512.6 373.19L512.53 373.13H512.45C511.603 372.658 510.65 372.41 509.68 372.41C509.225 372.411 508.772 372.464 508.33 372.57C506.945 372.894 505.732 373.725 504.93 374.9C504.738 375.164 504.577 375.449 504.45 375.75C504.116 376.218 503.674 376.599 503.163 376.861C502.652 377.124 502.085 377.261 501.51 377.26C500.678 377.256 499.872 376.969 499.224 376.448C498.576 375.927 498.123 375.201 497.94 374.39C497.911 374.265 497.891 374.138 497.88 374.01V373.96C497.23 369.82 500.96 365.57 506.37 364.28C507.408 364.03 508.472 363.903 509.54 363.9M509.54 362.9C508.391 362.903 507.247 363.04 506.13 363.31C500.13 364.73 496.13 369.49 496.89 374.12C496.908 374.292 496.939 374.462 496.98 374.63C497.226 375.648 497.805 376.555 498.626 377.206C499.447 377.856 500.462 378.213 501.51 378.22C502.262 378.223 503.002 378.043 503.668 377.694C504.334 377.346 504.905 376.839 505.33 376.22C505.434 375.957 505.572 375.708 505.74 375.48C506.407 374.502 507.417 373.81 508.57 373.54C508.937 373.453 509.313 373.409 509.69 373.41C510.498 373.404 511.294 373.607 512 374C512.207 374.176 512.432 374.33 512.67 374.46C513.684 375.034 514.877 375.202 516.01 374.93C517.13 374.659 518.11 373.982 518.762 373.032C519.414 372.081 519.691 370.923 519.54 369.78C519.521 369.621 519.491 369.464 519.45 369.31C519.45 369.14 519.36 368.98 519.31 368.82C518.14 365.23 514.19 362.95 509.58 362.95L509.54 362.9Z" fill="#4B0062"/>
<path d="M514.44 395.51L512.41 400.51H496.7L498.73 395.51H514.44Z" fill="#F44B1B"/>
<path d="M508.89 409.19L506.86 414.19H491.15L493.18 409.19H508.89Z" fill="#F44B1B"/>
<path d="M462.72 377.11L462.64 396.04H457.64L457.72 377.11H462.72Z" fill="#F44B1B"/>
<path d="M463.13 396.54H457.13L457.21 376.61H463.21L463.13 396.54ZM458.13 395.54H462.13L462.21 377.61H458.21L458.13 395.54Z" fill="#4B0062"/>
<path d="M475.38 377.11L475.3 396.04H470.3L470.38 377.11H475.38Z" fill="#F44B1B"/>
<path d="M475.79 396.54H469.79L469.87 376.61H475.87L475.79 396.54ZM470.79 395.54H474.79L474.87 377.61H470.87L470.79 395.54Z" fill="#4B0062"/>
<path d="M522.61 395.01H495.87V396.01H522.61V395.01Z" fill="#4B0062"/>
<path d="M519.16 400.01H492.42V401.01H519.16V400.01Z" fill="#4B0062"/>
<path d="M509.71 413.69H482.97V414.69H509.71V413.69Z" fill="#4B0062"/>
<path d="M513.16 408.69H486.42V409.69H513.16V408.69Z" fill="#4B0062"/>
<path d="M437.57 396.53H431.06V386.57H432.06V395.53H436.57V386.57H437.57V396.53Z" fill="#4B0062"/>
<path d="M536.663 280.611L532.292 293.458L533.239 293.78L537.61 280.933L536.663 280.611Z" fill="#4B0062"/>
<path d="M549.546 284.142L541.512 294.854L542.312 295.454L550.346 284.742L549.546 284.142Z" fill="#4B0062"/>
<path d="M558.74 293.959L549.05 300.884L549.632 301.698L559.322 294.773L558.74 293.959Z" fill="#4B0062"/>
<path d="M576.762 304.385L572.326 304.935L572.449 305.928L576.885 305.377L576.762 304.385Z" fill="#4B0062"/>
<path d="M568.072 305.457L554.129 307.186L554.252 308.179L568.195 306.449L568.072 305.457Z" fill="#4B0062"/>
<path d="M457.14 250.47H251.02V251.47H457.14V250.47Z" fill="#4B0062"/>
<path d="M405.78 250.97H318.69L325.47 228.1H396.12L405.78 250.97Z" fill="#F44B1B"/>
<path d="M406.53 251.47H318L325.08 227.6H396.44L406.53 251.47ZM319.36 250.47H405L395.76 228.6H325.84L319.36 250.47Z" fill="#4B0062"/>
<path d="M368.66 179.17L367.85 181.75L365.96 187.75L362.27 199.56L332.7 294.11L311.95 287.62L341.52 193.12L347.35 174.5C347.609 173.668 348.029 172.895 348.587 172.225C349.145 171.556 349.83 171.003 350.602 170.599C351.374 170.195 352.218 169.947 353.086 169.87C353.954 169.793 354.829 169.888 355.66 170.15L365.55 173.24C366.144 173.425 366.696 173.725 367.173 174.123C367.651 174.521 368.046 175.009 368.335 175.56C368.624 176.111 368.801 176.713 368.857 177.333C368.913 177.952 368.846 178.576 368.66 179.17Z" fill="#4B0062"/>
<path d="M333 294.73L311.29 287.94L346.84 174.34C347.118 173.445 347.57 172.613 348.17 171.893C348.771 171.172 349.507 170.578 350.338 170.143C351.168 169.708 352.077 169.441 353.011 169.359C353.945 169.276 354.886 169.378 355.78 169.66L365.67 172.75C366.996 173.164 368.103 174.088 368.748 175.318C369.393 176.548 369.523 177.984 369.11 179.31L362.72 199.74L333 294.73ZM312.55 287.29L332.34 293.48L368.18 179C368.346 178.469 368.405 177.911 368.355 177.358C368.305 176.804 368.147 176.266 367.888 175.774C367.63 175.282 367.278 174.845 366.851 174.489C366.424 174.133 365.931 173.865 365.4 173.7L355.51 170.61C354.743 170.368 353.936 170.279 353.135 170.349C352.334 170.42 351.554 170.647 350.841 171.018C350.128 171.39 349.495 171.898 348.978 172.514C348.461 173.131 348.071 173.843 347.83 174.61L312.55 287.29Z" fill="#4B0062"/>
<path d="M323.89 251.12L322.89 250.82L346.82 174.35C347.098 173.455 347.55 172.623 348.15 171.903C348.751 171.182 349.487 170.588 350.318 170.153C351.148 169.718 352.057 169.451 352.991 169.369C353.925 169.286 354.866 169.388 355.76 169.67L365.65 172.76C366.976 173.174 368.083 174.098 368.728 175.328C369.373 176.558 369.503 177.994 369.09 179.32L362.7 199.75L346.63 251.12L345.63 250.82L368.18 179C368.346 178.469 368.405 177.911 368.355 177.358C368.305 176.804 368.147 176.266 367.888 175.774C367.63 175.282 367.278 174.845 366.851 174.489C366.424 174.133 365.931 173.865 365.4 173.7L355.51 170.61C354.743 170.368 353.936 170.279 353.135 170.349C352.334 170.42 351.554 170.647 350.841 171.018C350.128 171.39 349.495 171.898 348.978 172.514C348.461 173.131 348.071 173.843 347.83 174.61L323.89 251.12Z" fill="#A26BB4"/>
<path d="M368.66 179.17L367.85 181.75L365.96 187.75L362.27 199.56L341.52 193.08L347.35 174.46C347.609 173.628 348.029 172.855 348.587 172.185C349.145 171.516 349.83 170.963 350.602 170.559C351.374 170.155 352.218 169.907 353.086 169.83C353.954 169.753 354.829 169.848 355.66 170.11L365.55 173.2C366.148 173.384 366.704 173.686 367.185 174.087C367.667 174.487 368.063 174.98 368.353 175.535C368.642 176.09 368.818 176.698 368.871 177.322C368.924 177.946 368.852 178.574 368.66 179.17Z" fill="#F48001"/>
<path d="M362.59 200.22L340.88 193.44L346.88 174.34C347.158 173.445 347.61 172.613 348.21 171.893C348.811 171.172 349.547 170.578 350.378 170.143C351.208 169.708 352.117 169.441 353.051 169.359C353.985 169.276 354.926 169.378 355.82 169.66L365.71 172.75C367.036 173.164 368.143 174.088 368.788 175.318C369.433 176.548 369.563 177.984 369.15 179.31L362.59 200.22ZM342.14 192.79L361.94 199L368.18 179C368.346 178.469 368.405 177.911 368.355 177.358C368.305 176.804 368.147 176.266 367.888 175.774C367.63 175.282 367.278 174.845 366.851 174.489C366.424 174.133 365.931 173.865 365.4 173.7L355.51 170.61C354.743 170.368 353.936 170.279 353.135 170.349C352.334 170.42 351.554 170.647 350.841 171.018C350.128 171.39 349.495 171.898 348.978 172.514C348.461 173.131 348.071 173.843 347.83 174.61L342.14 192.79Z" fill="#4B0062"/>
<path d="M416.85 195.13L416.04 197.71L414.15 203.71L410.46 215.52L389.72 209.03L395.54 190.41C396.069 188.734 397.24 187.335 398.797 186.52C400.355 185.705 402.171 185.54 403.85 186.06L413.75 189.16C414.347 189.347 414.901 189.649 415.38 190.051C415.859 190.452 416.254 190.945 416.543 191.5C416.831 192.055 417.006 192.661 417.059 193.284C417.112 193.907 417.041 194.535 416.85 195.13Z" fill="#F48001"/>
<path d="M410.79 216.18L389.1 209.39L395.1 190.29C395.668 188.486 396.928 186.981 398.604 186.104C400.279 185.227 402.234 185.049 404.04 185.61L413.94 188.71C415.264 189.126 416.369 190.051 417.012 191.281C417.655 192.511 417.784 193.945 417.37 195.27L410.79 216.18ZM390.35 208.73L410.14 214.92L416.38 194.92C416.715 193.85 416.612 192.69 416.092 191.697C415.573 190.703 414.68 189.956 413.61 189.62L403.71 186.52C402.161 186.039 400.485 186.19 399.047 186.939C397.608 187.688 396.524 188.975 396.03 190.52L390.35 208.73Z" fill="#4B0062"/>
<path d="M414.48 204.37L403.69 200.99L403.99 200.04L413.82 203.12L415.41 198.03L405.58 194.95L405.88 194L416.66 197.38L414.48 204.37Z" fill="#4B0062"/>
<path d="M444.406 98.7404L440.036 116.398L441.007 116.638L445.377 98.9806L444.406 98.7404Z" fill="#4B0062"/>
<path d="M433.984 105.013L433.744 105.984L451.402 110.353L451.642 109.383L433.984 105.013Z" fill="#4B0062"/>
<path d="M439.707 101.732L438.851 102.248L445.705 113.611L446.561 113.094L439.707 101.732Z" fill="#4B0062"/>
<path d="M448.14 103.823L436.775 110.673L437.291 111.53L448.656 104.679L448.14 103.823Z" fill="#4B0062"/>
<path d="M446.63 96.179C446.827 95.3856 446.525 94.6283 445.957 94.4877C445.389 94.3471 444.769 94.8763 444.572 95.6697C444.376 96.4632 444.677 97.2204 445.246 97.361C445.814 97.5017 446.434 96.9725 446.63 96.179Z" fill="#4B0062"/>
<path d="M440.803 119.689C441 118.895 440.698 118.138 440.13 117.997C439.562 117.857 438.942 118.386 438.745 119.18C438.549 119.973 438.851 120.73 439.419 120.871C439.987 121.011 440.607 120.482 440.803 119.689Z" fill="#4B0062"/>
<path d="M455.884 110.943C456.025 110.375 455.496 109.755 454.702 109.559C453.909 109.362 453.152 109.664 453.011 110.232C452.87 110.8 453.4 111.42 454.193 111.617C454.986 111.813 455.744 111.512 455.884 110.943Z" fill="#4B0062"/>
<path d="M432.365 105.126C432.505 104.558 431.976 103.938 431.183 103.742C430.389 103.545 429.632 103.847 429.491 104.415C429.351 104.984 429.88 105.603 430.673 105.8C431.467 105.996 432.224 105.695 432.365 105.126Z" fill="#4B0062"/>
<path d="M380.71 285.94C386.067 285.94 390.41 281.597 390.41 276.24C390.41 270.883 386.067 266.54 380.71 266.54C375.353 266.54 371.01 270.883 371.01 276.24C371.01 281.597 375.353 285.94 380.71 285.94Z" fill="#FFF0DC"/>
<path d="M380.71 286.44C378.693 286.44 376.721 285.842 375.043 284.721C373.366 283.6 372.058 282.007 371.286 280.143C370.514 278.28 370.312 276.229 370.706 274.25C371.1 272.272 372.071 270.454 373.498 269.028C374.924 267.601 376.741 266.63 378.72 266.236C380.699 265.842 382.75 266.044 384.613 266.816C386.477 267.588 388.07 268.896 389.191 270.573C390.312 272.251 390.91 274.223 390.91 276.24C390.907 278.944 389.832 281.537 387.92 283.45C386.007 285.362 383.414 286.437 380.71 286.44ZM380.71 267.03C378.89 267.03 377.112 267.57 375.599 268.581C374.086 269.591 372.907 271.028 372.21 272.709C371.514 274.39 371.332 276.24 371.687 278.025C372.042 279.81 372.918 281.449 374.205 282.735C375.491 284.022 377.131 284.898 378.915 285.253C380.7 285.608 382.55 285.426 384.231 284.73C385.912 284.033 387.349 282.854 388.36 281.341C389.37 279.828 389.91 278.05 389.91 276.23C389.913 275.02 389.677 273.821 389.216 272.702C388.755 271.583 388.077 270.565 387.223 269.708C386.369 268.851 385.354 268.171 384.236 267.706C383.119 267.241 381.92 267.001 380.71 267V267.03Z" fill="#4B0062"/>
<path d="M385.706 277.715C386.835 275.75 386.5 273.438 384.958 272.552C383.416 271.666 381.25 272.54 380.12 274.505C378.991 276.47 379.326 278.782 380.868 279.669C382.41 280.555 384.576 279.68 385.706 277.715Z" fill="#F44B1B"/>
<path d="M381.09 282C380.535 282.003 379.99 281.858 379.51 281.58C377.74 280.58 377.33 277.94 378.59 275.75C379.85 273.56 382.33 272.6 384.1 273.63C385.87 274.66 386.28 277.27 385.02 279.46C384.456 280.468 383.573 281.26 382.51 281.71C382.059 281.896 381.577 281.995 381.09 282ZM379.46 276.25C378.46 277.96 378.72 279.97 380.01 280.71C380.336 280.885 380.697 280.982 381.067 280.994C381.436 281.007 381.804 280.933 382.14 280.78C382.989 280.41 383.692 279.771 384.14 278.96C385.14 277.25 384.88 275.24 383.59 274.5C382.3 273.76 380.44 274.5 379.45 276.26L379.46 276.25Z" fill="#4B0062"/>
<path d="M370.28 251L356 258.26C355.156 255.769 354.154 253.334 353 250.97L370.28 251Z" fill="#4B0062"/>
<path d="M348.789 252.821L347.816 253.051L349.515 260.233L350.489 260.002L348.789 252.821Z" fill="#4B0062"/>
<path d="M381.48 306.77C376.149 308.725 370.453 309.48 364.797 308.98C359.141 308.481 353.665 306.739 348.76 303.88C344.48 292.08 346.85 279.15 355.65 276.55C358.94 275.55 361.38 276.22 363.38 277.89C365.38 279.56 366.93 282.28 368.38 285.46C368.384 285.497 368.384 285.533 368.38 285.57C370.64 290.4 372.79 296.27 376.19 301.16C377.653 303.292 379.437 305.185 381.48 306.77Z" fill="#4B0062"/>
<path d="M368.18 309.63C361.267 309.634 354.478 307.798 348.51 304.31L348.35 304.22L348.29 304.05C345.48 296.29 345.49 287.99 348.29 282.38C348.981 280.886 349.977 279.553 351.213 278.466C352.45 277.38 353.9 276.563 355.47 276.07C358.69 275.07 361.37 275.59 363.66 277.51C365.95 279.43 367.53 282.51 368.83 285.25C368.865 285.313 368.892 285.38 368.91 285.45C369.45 286.58 370.01 287.87 370.59 289.19C372.225 293.273 374.251 297.188 376.64 300.88C378.045 302.966 379.766 304.822 381.74 306.38L382.45 306.93L381.61 307.24C377.31 308.825 372.763 309.634 368.18 309.63ZM349.18 303.54C353.879 306.248 359.102 307.923 364.5 308.45C369.897 308.978 375.346 308.347 380.48 306.6C378.723 305.097 377.176 303.365 375.88 301.45C373.451 297.705 371.391 293.733 369.73 289.59C369.15 288.28 368.59 287 368.03 285.78L368.43 285.46L367.98 285.67C366.73 283 365.17 280.03 363.07 278.27C360.97 276.51 358.72 276.17 355.8 277.03C354.361 277.486 353.034 278.238 351.903 279.236C350.771 280.235 349.861 281.459 349.23 282.83C346.52 288.16 346.5 296.08 349.17 303.54H349.18Z" fill="#4B0062"/>
<path d="M368.18 309.63C361.267 309.634 354.478 307.798 348.51 304.31L349.02 303.45C353.861 306.271 359.265 307.99 364.847 308.482C370.428 308.975 376.05 308.23 381.31 306.3L381.66 307.24C377.344 308.831 372.78 309.64 368.18 309.63Z" fill="#A26BB4"/>
<path d="M368.42 285.46L359 285.19L363.38 277.89C365.38 279.57 366.93 282.28 368.42 285.46Z" fill="#FFF0DC"/>
<path d="M369.21 286L358.13 285.68L363.25 277.14L363.7 277.52C365.94 279.4 367.57 282.52 368.87 285.26L369.21 286ZM359.86 284.73L367.61 284.95C366.606 282.64 365.212 280.519 363.49 278.68L359.86 284.73Z" fill="#4B0062"/>
<path d="M367.26 300.9L371.51 293.81L363.66 293.59L368.47 285.59C370.73 290.42 372.88 296.29 376.28 301.18L367.26 300.9Z" fill="#FFF0DC"/>
<path d="M377.25 301.69L366.39 301.38L370.64 294.29L362.79 294.07L368.52 284.51L368.92 285.36C369.49 286.58 370.05 287.87 370.63 289.19C372.265 293.273 374.291 297.188 376.68 300.88L377.25 301.69ZM368.12 300.43L375.31 300.64C373.998 298.6 372.829 296.471 371.81 294.27L368.12 300.43ZM364.52 293.12L371.37 293.31C370.8 292.07 370.25 290.82 369.71 289.59C369.27 288.59 368.84 287.59 368.4 286.64L364.52 293.12Z" fill="#4B0062"/>
<path d="M354.89 505.03H186.82V506.03H354.89V505.03Z" fill="#4B0062"/>
<path d="M453.39 421.86V422C453.381 426.727 452.28 431.389 450.173 435.62C448.066 439.852 445.009 443.54 441.242 446.396C437.475 449.252 433.1 451.199 428.456 452.086C423.813 452.973 419.028 452.775 414.473 451.507C409.919 450.24 405.719 447.938 402.201 444.78C398.683 441.623 395.942 437.695 394.191 433.304C392.441 428.913 391.729 424.176 392.11 419.465C392.491 414.753 393.956 410.193 396.39 406.14L453.39 421.86Z" fill="#F48001"/>
<path d="M407 505.03H400.87V506.03H407V505.03Z" fill="#4B0062"/>
<path d="M578.67 505.03H560.2V506.03H578.67V505.03Z" fill="#4B0062"/>
<path d="M545.17 505.03H412.76V506.03H545.17V505.03Z" fill="#4B0062"/>
<path d="M413.78 416.9L407.51 423.65L416.49 425.71L413.78 416.9Z" fill="#4B0062"/>
<path d="M432.56 421.2L426.29 427.95L435.27 430.01L432.56 421.2Z" fill="#4B0062"/>
<path d="M421.45 428.4L417.61 432.54L423.11 433.8L421.45 428.4Z" fill="#4B0062"/>
<path d="M422.77 443.16C420.085 443.142 417.432 442.581 414.97 441.51C408.19 438.58 403.75 432.28 404.16 426.18L404.24 424.94L405.04 425.94C407.56 428.832 410.616 431.209 414.04 432.94C414.77 433.32 415.56 433.7 416.38 434.06C416.71 434.21 417.03 434.34 417.38 434.46C419.15 435.175 420.976 435.74 422.84 436.15C424.025 436.402 425.224 436.585 426.43 436.7C427.27 436.78 428.1 436.82 428.9 436.82C430.797 436.841 432.687 436.585 434.51 436.06L435.7 435.7L435.09 436.78C432.84 440.76 428.23 443.16 422.77 443.16Z" fill="#4B0062"/>
<path d="M404.66 426.21C407.231 429.167 410.352 431.595 413.85 433.36C414.61 433.76 415.41 434.14 416.22 434.49C416.56 434.64 416.89 434.78 417.22 434.9C419.009 435.623 420.855 436.195 422.74 436.61C423.945 436.866 425.164 437.053 426.39 437.17C427.25 437.25 428.09 437.29 428.91 437.29C430.854 437.311 432.791 437.048 434.66 436.51C432.44 440.45 427.88 442.66 422.77 442.66C420.15 442.647 417.561 442.099 415.16 441.05C408.38 438.12 404.26 431.98 404.65 426.21M403.82 423.67L403.65 426.15C403.22 432.46 407.79 438.96 414.76 441.98C417.285 443.078 420.007 443.653 422.76 443.67C428.4 443.67 433.17 441.18 435.53 437.01L436.75 434.84L434.37 435.56C432.592 436.072 430.75 436.321 428.9 436.3C428.11 436.3 427.3 436.3 426.48 436.18C425.291 436.067 424.109 435.887 422.94 435.64C421.117 435.243 419.331 434.694 417.6 434C417.23 433.87 416.92 433.73 416.6 433.6C415.79 433.25 415.02 432.88 414.29 432.5C410.907 430.795 407.887 428.448 405.4 425.59L403.8 423.69L403.82 423.67Z" fill="#4B0062"/>
<path d="M412.15 437.48L413.54 432.63L414.08 432.92C414.81 433.3 415.59 433.68 416.41 434.03C416.74 434.18 417.06 434.31 417.41 434.43L417.86 434.59L416.66 438.77L412.15 437.48Z" fill="#F48001"/>
<path d="M413.85 433.36C414.61 433.76 415.41 434.14 416.22 434.49C416.56 434.64 416.89 434.78 417.22 434.9L416.29 438.15L412.76 437.15L413.84 433.37M413.22 431.91L412.88 433.09L411.8 436.87L411.53 437.87L412.53 438.15L416.06 439.15L417.06 439.43L417.34 438.43L418.27 435.18L418.53 434.28L417.64 433.97C417.32 433.86 417 433.72 416.7 433.59C415.89 433.24 415.12 432.87 414.39 432.49L413.3 431.92L413.22 431.91Z" fill="#4B0062"/>
<path d="M421.42 439.44L422.42 436.02L422.88 436.12C424.065 436.372 425.264 436.555 426.47 436.67L427.07 436.73L425.93 440.73L421.42 439.44Z" fill="#F48001"/>
<path d="M422.75 436.61C423.955 436.866 425.174 437.053 426.4 437.17L425.56 440.11L422.04 439.11L422.75 436.62M422.04 435.45L421.78 436.35L421.07 438.84L420.8 439.84L421.8 440.12L425.32 441.12L426.32 441.4L426.6 440.4L427.44 437.46L427.77 436.3L426.57 436.19C425.381 436.077 424.199 435.897 423.03 435.65L422.12 435.46L422.04 435.45Z" fill="#4B0062"/>
<path d="M555.48 337.17H474.7V338.17H555.48V337.17Z" fill="#4B0062"/>
<path d="M514.43 424.01H480.75V425.01H514.43V424.01Z" fill="#4B0062"/>
<path d="M295.34 505.97L281.19 498.81V498.5L280.75 468.54L285.32 458.02L286.24 458.42L281.76 468.74L282.18 498.19L295.79 505.08L295.34 505.97Z" fill="#A26BB4"/>
<path d="M355.78 184.07L355.482 185.024L365.798 188.253L366.097 187.299L355.78 184.07Z" fill="#4B0062"/>
<path d="M357.693 178.051L357.394 179.005L367.7 182.235L367.999 181.281L357.693 178.051Z" fill="#4B0062"/>
<path d="M389.479 211.095L388.558 211.484L401.64 242.454L402.561 242.065L389.479 211.095Z" fill="#A26BB4"/>
<path d="M207.51 365.85H206.51V384.04H207.51V365.85Z" fill="#4B0062"/>
<path d="M216.1 374.45H197.91V375.45H216.1V374.45Z" fill="#4B0062"/>
<path d="M202.666 369.903L201.959 370.61L211.342 379.993L212.05 379.286L202.666 369.903Z" fill="#4B0062"/>
<path d="M211.342 369.91L201.959 379.293L202.666 380L212.05 370.617L211.342 369.91Z" fill="#4B0062"/>
<path d="M207.01 364.31C207.595 364.31 208.07 363.647 208.07 362.83C208.07 362.013 207.595 361.35 207.01 361.35C206.425 361.35 205.95 362.013 205.95 362.83C205.95 363.647 206.425 364.31 207.01 364.31Z" fill="#4B0062"/>
<path d="M207.01 388.54C207.595 388.54 208.07 387.877 208.07 387.06C208.07 386.243 207.595 385.58 207.01 385.58C206.425 385.58 205.95 386.243 205.95 387.06C205.95 387.877 206.425 388.54 207.01 388.54Z" fill="#4B0062"/>
<path d="M219.12 376.01C219.937 376.01 220.6 375.535 220.6 374.95C220.6 374.365 219.937 373.89 219.12 373.89C218.303 373.89 217.64 374.365 217.64 374.95C217.64 375.535 218.303 376.01 219.12 376.01Z" fill="#4B0062"/>
<path d="M194.89 376.01C195.707 376.01 196.37 375.535 196.37 374.95C196.37 374.365 195.707 373.89 194.89 373.89C194.073 373.89 193.41 374.365 193.41 374.95C193.41 375.535 194.073 376.01 194.89 376.01Z" fill="#4B0062"/>
<path d="M470.8 268.79H469.8V286.98H470.8V268.79Z" fill="#4B0062"/>
<path d="M479.39 277.39H461.2V278.39H479.39V277.39Z" fill="#4B0062"/>
<path d="M465.959 272.837L465.251 273.544L474.635 282.927L475.342 282.22L465.959 272.837Z" fill="#4B0062"/>
<path d="M474.635 272.844L465.251 282.227L465.959 282.934L475.342 273.551L474.635 272.844Z" fill="#4B0062"/>
<path d="M482.41 278.95C483.227 278.95 483.89 278.475 483.89 277.89C483.89 277.305 483.227 276.83 482.41 276.83C481.593 276.83 480.93 277.305 480.93 277.89C480.93 278.475 481.593 278.95 482.41 278.95Z" fill="#4B0062"/>
<path d="M458.18 278.95C458.997 278.95 459.66 278.475 459.66 277.89C459.66 277.305 458.997 276.83 458.18 276.83C457.363 276.83 456.7 277.305 456.7 277.89C456.7 278.475 457.363 278.95 458.18 278.95Z" fill="#4B0062"/>
<path d="M579.17 436.9H578.17V451.99H579.17V436.9Z" fill="#4B0062"/>
<path d="M583.35 443.95H574V444.95H583.35V443.95Z" fill="#4B0062"/>
<path d="M286.22 224.93H285.22V236.47H286.22V224.93Z" fill="#4B0062"/>
<path d="M289.29 230.2H282.15V231.2H289.29V230.2Z" fill="#4B0062"/>
<path d="M210.17 260.18C212.583 260.18 214.54 258.223 214.54 255.81C214.54 253.397 212.583 251.44 210.17 251.44C207.756 251.44 205.8 253.397 205.8 255.81C205.8 258.223 207.756 260.18 210.17 260.18Z" fill="#A26BB4"/>
<path d="M227.33 241.36C228.473 241.36 229.4 240.433 229.4 239.29C229.4 238.147 228.473 237.22 227.33 237.22C226.187 237.22 225.26 238.147 225.26 239.29C225.26 240.433 226.187 241.36 227.33 241.36Z" fill="#A26BB4"/>
<path d="M408 488.92C409.508 488.92 410.73 487.698 410.73 486.19C410.73 484.682 409.508 483.46 408 483.46C406.492 483.46 405.27 484.682 405.27 486.19C405.27 487.698 406.492 488.92 408 488.92Z" fill="#A26BB4"/>
<path d="M416.77 481.88C417.753 481.88 418.55 481.083 418.55 480.1C418.55 479.117 417.753 478.32 416.77 478.32C415.787 478.32 414.99 479.117 414.99 480.1C414.99 481.083 415.787 481.88 416.77 481.88Z" fill="#A26BB4"/>
<path d="M596.13 362.87C598.234 362.87 599.94 361.164 599.94 359.06C599.94 356.956 598.234 355.25 596.13 355.25C594.026 355.25 592.32 356.956 592.32 359.06C592.32 361.164 594.026 362.87 596.13 362.87Z" fill="#A26BB4"/>
<path d="M611.41 370.55C612.388 370.55 613.18 369.758 613.18 368.78C613.18 367.802 612.388 367.01 611.41 367.01C610.432 367.01 609.64 367.802 609.64 368.78C609.64 369.758 610.432 370.55 611.41 370.55Z" fill="#A26BB4"/>
<path d="M545.07 491.48C546.534 491.48 547.72 490.294 547.72 488.83C547.72 487.366 546.534 486.18 545.07 486.18C543.606 486.18 542.42 487.366 542.42 488.83C542.42 490.294 543.606 491.48 545.07 491.48Z" fill="#A26BB4"/>
<path d="M398.64 322.21C399.872 322.21 400.87 321.212 400.87 319.98C400.87 318.748 399.872 317.75 398.64 317.75C397.408 317.75 396.41 318.748 396.41 319.98C396.41 321.212 397.408 322.21 398.64 322.21Z" fill="#A26BB4"/>
</g>
<defs>
<clipPath id="clip0_20_1122">
<rect width="800" height="600" fill="white"/>
</clipPath>
</defs>
</svg>
