<svg width="800" height="600" viewBox="0 0 800 600" fill="none" xmlns="http://www.w3.org/2000/svg">
<g clip-path="url(#clip0_20_519)">
<path d="M302.99 371.61L337.91 395.64L355.02 389.96L318.25 366.24L302.99 371.61Z" fill="#FFF0DC"/>
<path d="M337.83 396.19L301.9 371.46L318.31 365.69L356.17 390.11L337.83 396.19ZM304.09 371.75L338 395.09L353.89 389.82L318.2 366.82L304.09 371.75Z" fill="#4B0062"/>
<path d="M499.57 447.42L457.73 347.78L426.6 367L463.09 441C460.29 443.037 458.248 445.948 457.285 449.274C456.322 452.6 456.492 456.152 457.77 459.37L457.96 459.86L499.57 447.42Z" fill="#FFF0DC"/>
<path d="M457.67 460.47L457.31 459.56C456.018 456.307 455.821 452.721 456.751 449.347C457.68 445.972 459.684 442.993 462.46 440.86L425.96 366.86L458 347L500.28 447.69L457.67 460.47ZM427.25 367.19L463.72 441.19L463.38 441.44C460.67 443.412 458.693 446.229 457.761 449.448C456.829 452.667 456.994 456.105 458.23 459.22V459.28L498.9 447.1L457.5 348.51L427.25 367.19Z" fill="#4B0062"/>
<path d="M298.66 374.44H403.66L398.66 338.11L305.47 340.11V340.04C303.459 336.24 300.039 333.379 295.943 332.07C291.847 330.762 287.402 331.11 283.56 333.04L298.66 374.44Z" fill="#FFF0DC"/>
<path d="M404.2 374.94H298.31L282.85 332.81L283.25 332.61C287.175 330.653 291.705 330.288 295.892 331.593C300.08 332.897 303.601 335.77 305.72 339.61L399.05 337.61L404.2 374.94ZM299 373.94H403L398.12 338.62L305.07 340.62L304.93 340.35C302.999 336.74 299.761 334.005 295.88 332.704C291.999 331.403 287.767 331.634 284.05 333.35L299 373.94Z" fill="#4B0062"/>
<path d="M250.77 278.11L249.22 249.83L373.51 250.7L375.06 278.98L250.77 278.11Z" fill="#FFF0DC"/>
<path d="M375.59 279.48L250.29 278.61L248.68 249.33L373.98 250.2L375.59 279.48ZM251.24 277.61L374.53 278.47L373 251.19L249.71 250.33L251.24 277.61Z" fill="#4B0062"/>
<path d="M468.94 374.44H388.33L347.4 250.55H416.92L420.12 258.17L425.52 271.02L468.94 374.44Z" fill="#FFF0DC"/>
<path d="M469.69 374.94H388L346.7 250.05H417.24L426 270.83L469.69 374.94ZM388.69 373.94H468.19L416.59 251.05H348.09L388.69 373.94Z" fill="#4B0062"/>
<path d="M420.416 258.646L397.602 262.395L397.764 263.381L420.578 259.633L420.416 258.646Z" fill="#4B0062"/>
<path d="M425.52 271L420.06 359.28L419.12 374.42L418.64 382.21H395.51C394.844 382.21 394.185 382.073 393.574 381.809C392.962 381.545 392.412 381.158 391.955 380.673C391.499 380.187 391.147 379.614 390.921 378.987C390.695 378.361 390.599 377.695 390.64 377.03L390.8 374.42L391.74 359.28L398 258.17" fill="#FFF0DC"/>
<path d="M419.11 382.73H395.51C394.776 382.73 394.049 382.58 393.375 382.288C392.701 381.997 392.094 381.571 391.591 381.036C391.088 380.501 390.699 379.869 390.45 379.178C390.2 378.487 390.095 377.753 390.14 377.02L397.49 258.14L398.49 258.2L391.14 377.08C391.103 377.677 391.189 378.275 391.392 378.837C391.595 379.399 391.911 379.914 392.32 380.35C392.729 380.785 393.224 381.132 393.772 381.37C394.321 381.607 394.912 381.73 395.51 381.73H418.17L425 271L426 271.06L419.11 382.73Z" fill="#4B0062"/>
<path d="M420.06 359.3L419.12 374.44L418.64 382.23H395.51C394.844 382.23 394.185 382.093 393.574 381.829C392.962 381.565 392.412 381.178 391.955 380.693C391.499 380.207 391.147 379.634 390.921 379.007C390.695 378.381 390.599 377.715 390.64 377.05L390.8 374.44L391.74 359.3H420.06Z" fill="#F48001"/>
<path d="M419.11 382.73H395.51C394.776 382.73 394.049 382.58 393.375 382.288C392.701 381.997 392.094 381.571 391.591 381.036C391.088 380.501 390.699 379.869 390.45 379.178C390.2 378.487 390.095 377.753 390.14 377.02L391.27 358.8H420.59L419.11 382.73ZM392.21 359.8L391.14 377.08C391.103 377.677 391.189 378.275 391.392 378.837C391.595 379.399 391.911 379.914 392.32 380.35C392.729 380.785 393.224 381.132 393.772 381.37C394.321 381.607 394.912 381.73 395.51 381.73H418.17L419.53 359.8H392.21Z" fill="#4B0062"/>
<path d="M585.74 391.75L578.25 398.43L582.51 407.53L539.26 396.75L550.36 366.8L588.98 375.96L581.48 382.65L585.74 391.75Z" fill="#FFF0DC"/>
<path d="M583.4 408.27L538.59 397.1L550 366.21L590 375.69L582.06 382.77L586.32 391.87L578.83 398.55L583.4 408.27ZM539.92 396.4L581.61 406.79L577.61 398.3L585.1 391.62L580.84 382.52L587.9 376.22L550.64 367.38L539.92 396.4Z" fill="#4B0062"/>
<path d="M465.36 265.66L426.36 222.73L418.56 240.31L443.41 270.1L465.36 265.66Z" fill="#FFF0DC"/>
<path d="M443.22 270.64L418 240.39L426.24 221.82L466.32 266L443.22 270.64ZM419.14 240.22L443.6 269.54L464.39 265.34L426.5 223.63L419.14 240.22Z" fill="#4B0062"/>
<path d="M375.33 270.21C405.164 270.21 429.35 246.024 429.35 216.19C429.35 186.356 405.164 162.17 375.33 162.17C345.496 162.17 321.31 186.356 321.31 216.19C321.31 246.024 345.496 270.21 375.33 270.21Z" fill="#FFF0DC"/>
<path d="M375.33 270.71C364.547 270.71 354.006 267.512 345.04 261.522C336.075 255.531 329.087 247.016 324.96 237.054C320.834 227.092 319.754 216.13 321.858 205.554C323.961 194.978 329.154 185.263 336.779 177.639C344.403 170.014 354.118 164.821 364.694 162.718C375.27 160.614 386.232 161.694 396.194 165.82C406.156 169.947 414.671 176.935 420.662 185.9C426.652 194.866 429.85 205.407 429.85 216.19C429.831 230.644 424.081 244.501 413.861 254.721C403.641 264.941 389.784 270.691 375.33 270.71ZM375.33 162.71C364.745 162.71 354.397 165.849 345.596 171.73C336.795 177.611 329.935 185.969 325.884 195.749C321.833 205.528 320.773 216.289 322.838 226.671C324.903 237.053 330.001 246.589 337.486 254.074C344.971 261.559 354.507 266.657 364.889 268.722C375.271 270.787 386.032 269.727 395.811 265.676C405.591 261.625 413.949 254.765 419.83 245.964C425.711 237.163 428.85 226.815 428.85 216.23C428.845 202.034 423.206 188.419 413.171 178.377C403.136 168.335 389.526 162.686 375.33 162.67V162.71Z" fill="#4B0062"/>
<path d="M357.57 226.04L347.4 213.44L349.07 204.47L379.94 197.32L393.28 222.25L357.57 226.04Z" fill="#F48001"/>
<path d="M357.35 226.57L346.86 213.57L348.64 204.06L380.2 196.75L394.07 222.67L357.35 226.57ZM347.93 213.31L357.78 225.52L392.49 221.84L379.68 197.9L349.5 204.9L347.93 213.31Z" fill="#4B0062"/>
<path d="M411.07 256.54L379.5 197.56L380.38 197.09L411.95 256.07L411.07 256.54Z" fill="#4B0062"/>
<path d="M354.88 203.13C351.88 214.02 341.19 216.19 341.19 216.19L343.12 205.85L354.88 203.13Z" fill="#A26BB4"/>
<path d="M340.56 216.83L342.69 205.44L355.58 202.44L355.36 203.25C352.36 214.31 341.36 216.65 341.29 216.67L340.56 216.83ZM343.56 206.27L341.84 215.51C344.19 214.81 351.54 212 354.17 203.82L343.56 206.27Z" fill="#4B0062"/>
<path d="M383.66 201.57C386.386 202.917 389.334 203.758 392.36 204.05C386.71 209.7 376.07 206.73 367.24 200.26L390.1 195L397.47 198.76C392.19 203.24 383.66 201.57 383.66 201.57Z" fill="#A26BB4"/>
<path d="M384.49 207.52C378.9 207.52 372.35 204.63 366.94 200.67L366.06 200.03L390.16 194.45L398.36 198.63L397.79 199.12C394.41 202 389.79 202.46 386.79 202.38C388.612 202.962 390.488 203.358 392.39 203.56L393.46 203.65L392.7 204.41C391.611 205.454 390.322 206.267 388.912 206.801C387.501 207.336 385.997 207.58 384.49 207.52ZM368.43 200.52C376.06 205.82 385.63 208.83 391.2 204.44C388.484 204.091 385.849 203.276 383.41 202.03L380.71 200.51L383.71 201.1C383.79 201.1 391.44 202.55 396.5 198.84L390 195.5L368.43 200.52Z" fill="#4B0062"/>
<path d="M367.54 240.92C367.554 241.09 367.554 241.26 367.54 241.43C367.364 242.697 366.73 243.857 365.756 244.688C364.783 245.519 363.539 245.964 362.26 245.94C360.945 245.947 359.672 245.474 358.68 244.61C358.435 244.428 358.207 244.224 358 244C356.973 243.147 355.68 242.68 354.345 242.68C353.01 242.68 351.717 243.147 350.69 244C350.448 244.198 350.23 244.423 350.04 244.67C349.058 245.525 347.802 245.997 346.5 246C345.135 246.032 343.813 245.526 342.819 244.59C341.825 243.654 341.24 242.364 341.19 241C341.18 240.817 341.18 240.633 341.19 240.45C341.274 239.499 341.539 238.572 341.97 237.72C342.966 235.89 344.479 234.395 346.32 233.42C347.814 232.601 349.432 232.033 351.11 231.74C352.172 231.546 353.25 231.449 354.33 231.45C355.23 231.45 356.13 231.517 357.02 231.65C358.398 231.853 359.742 232.236 361.02 232.79C362.885 233.555 364.526 234.78 365.79 236.35C366.723 237.53 367.299 238.953 367.45 240.45C367.488 240.605 367.518 240.762 367.54 240.92Z" fill="#4B0062"/>
<path d="M362.23 246.49C360.792 246.496 359.402 245.977 358.32 245.03C358.072 244.815 357.845 244.577 357.64 244.32C356.7 243.572 355.531 243.169 354.329 243.18C353.128 243.191 351.966 243.615 351.04 244.38C350.824 244.557 350.629 244.758 350.46 244.98C349.36 245.961 347.934 246.496 346.46 246.48C344.96 246.51 343.509 245.947 342.421 244.913C341.333 243.88 340.697 242.46 340.65 240.96C340.637 240.747 340.637 240.533 340.65 240.32C340.738 239.303 341.02 238.311 341.48 237.4C342.519 235.481 344.102 233.912 346.03 232.89C347.573 232.042 349.246 231.454 350.98 231.15C352.985 230.788 355.035 230.758 357.05 231.06C358.479 231.268 359.875 231.665 361.2 232.24C363.154 233.033 364.875 234.31 366.2 235.95C367.193 237.204 367.804 238.718 367.96 240.31C367.971 240.507 367.971 240.703 367.96 240.9C367.977 241.1 367.977 241.3 367.96 241.5C367.783 242.89 367.102 244.166 366.045 245.086C364.989 246.007 363.631 246.506 362.23 246.49ZM354.37 242.19C355.833 242.173 357.253 242.684 358.37 243.63C358.558 243.86 358.766 244.074 358.99 244.27C359.893 245.058 361.052 245.488 362.25 245.48C363.407 245.506 364.533 245.105 365.415 244.355C366.296 243.605 366.871 242.557 367.03 241.41C367.043 241.26 367.043 241.11 367.03 240.96C367.039 240.793 367.039 240.627 367.03 240.46C366.891 239.053 366.349 237.717 365.47 236.61C364.257 235.11 362.685 233.94 360.9 233.21C359.654 232.673 358.343 232.303 357 232.11C355.095 231.828 353.156 231.858 351.26 232.2C349.634 232.484 348.066 233.035 346.62 233.83C344.865 234.756 343.421 236.178 342.47 237.92C342.066 238.716 341.819 239.581 341.74 240.47C341.731 240.64 341.731 240.81 341.74 240.98C341.777 242.222 342.303 243.4 343.204 244.256C344.105 245.112 345.307 245.577 346.55 245.55C347.735 245.557 348.883 245.134 349.78 244.36C349.974 244.107 350.199 243.878 350.45 243.68C351.538 242.733 352.928 242.205 354.37 242.19Z" fill="#4B0062"/>
<path d="M500.501 240.665L498.22 240.458L496.579 258.493L498.86 258.701L500.501 240.665Z" fill="#4B0062"/>
<path d="M329.42 172.17L328.7 171.48C329.9 170.23 331.17 169.01 332.47 167.86L333.13 168.61C331.86 169.74 330.61 170.94 329.42 172.17Z" fill="#4B0062"/>
<path d="M314 199.43L313 199.17C315.361 190.473 319.532 182.373 325.24 175.4L326.02 176.03C320.411 182.897 316.315 190.871 314 199.43Z" fill="#4B0062"/>
<path d="M421.163 187.203L321.473 210.384L321.699 211.358L421.39 188.177L421.163 187.203Z" fill="#4B0062"/>
<path d="M414.805 178.874L325.136 195.461L325.318 196.444L414.987 179.857L414.805 178.874Z" fill="#4B0062"/>
<path d="M342.446 172.971L342.18 173.935L384.259 185.542L384.525 184.578L342.446 172.971Z" fill="#4B0062"/>
<path d="M331.651 184.027L331.445 185.005L357.455 190.482L357.661 189.503L331.651 184.027Z" fill="#4B0062"/>
<path d="M379.736 161.916L350.353 175.282L350.767 176.192L380.15 162.826L379.736 161.916Z" fill="#4B0062"/>
<path d="M400.056 167.788L365.082 179.301L365.394 180.25L400.368 168.738L400.056 167.788Z" fill="#4B0062"/>
<path d="M404.702 191.417L403.887 191.996L428.101 226.056L428.916 225.477L404.702 191.417Z" fill="#4B0062"/>
<path d="M398.981 192.792L398.086 193.238L422.417 242.083L423.313 241.637L398.981 192.792Z" fill="#4B0062"/>
<path d="M393.245 221.73L322.97 229.191L323.076 230.185L393.351 222.725L393.245 221.73Z" fill="#4B0062"/>
<path d="M399.185 232.927L330.993 246.652L331.19 247.633L399.382 233.908L399.185 232.927Z" fill="#4B0062"/>
<path d="M359.1 267.93L358.73 267.6L358.24 267.73C358.16 267.44 358.16 267.44 373.57 251.18L388.79 235.12L389.52 235.81C389.21 236.13 359.56 267.4 359.1 267.93Z" fill="#4B0062"/>
<path d="M401.186 237.507L378.49 269.848L379.308 270.422L402.004 238.081L401.186 237.507Z" fill="#4B0062"/>
<path d="M405.866 246.467L399.269 264.253L400.206 264.601L406.803 246.815L405.866 246.467Z" fill="#4B0062"/>
<path d="M374.734 250.085L341.213 257.677L341.434 258.652L374.955 251.061L374.734 250.085Z" fill="#4B0062"/>
<path d="M422.64 191.651L413.363 206.082L414.203 206.622L423.48 192.191L422.64 191.651Z" fill="#4B0062"/>
<path d="M424.625 194.981L419.578 213.723L420.544 213.983L425.59 195.241L424.625 194.981Z" fill="#4B0062"/>
<path d="M426.714 200.971L425.547 222.239L426.546 222.294L427.712 201.026L426.714 200.971Z" fill="#4B0062"/>
<path d="M321.79 222L321.35 221.1L341.82 211.17L342.26 212.07L321.79 222Z" fill="#4B0062"/>
<path d="M341.69 228.04L330.73 217.29L331.43 216.58L342.39 227.33L341.69 228.04Z" fill="#4B0062"/>
<path d="M384.78 214C384.395 215.585 383.658 217.062 382.625 218.324C381.591 219.585 380.287 220.597 378.809 221.286C377.331 221.975 375.716 222.322 374.086 222.303C372.455 222.283 370.85 221.896 369.389 221.172C367.928 220.448 366.649 219.404 365.646 218.118C364.643 216.832 363.942 215.337 363.596 213.744C363.249 212.15 363.266 210.499 363.644 208.913C364.022 207.327 364.752 205.846 365.78 204.58L368.78 206.07L378.03 210.66L384.78 214Z" fill="#FFF0DC"/>
<path d="M374.22 222.81C372.074 222.808 369.972 222.199 368.158 221.054C366.343 219.908 364.889 218.273 363.964 216.337C363.038 214.4 362.679 212.242 362.928 210.11C363.177 207.979 364.024 205.961 365.37 204.29L365.62 203.98L385.36 213.76L385.26 214.15C384.659 216.623 383.243 218.822 381.24 220.392C379.238 221.963 376.765 222.815 374.22 222.81ZM365.91 205.23C364.761 206.773 364.063 208.604 363.895 210.52C363.726 212.436 364.093 214.361 364.955 216.081C365.817 217.801 367.14 219.247 368.776 220.258C370.412 221.27 372.297 221.807 374.22 221.81C376.48 221.821 378.681 221.092 380.487 219.734C382.292 218.376 383.604 216.464 384.22 214.29L365.91 205.23Z" fill="#4B0062"/>
<path d="M378 210.68C377.923 211.581 377.627 212.45 377.138 213.211C376.648 213.972 375.98 214.602 375.192 215.045C374.404 215.489 373.519 215.733 372.614 215.757C371.71 215.78 370.813 215.582 370.003 215.18C369.193 214.778 368.493 214.184 367.965 213.45C367.436 212.715 367.096 211.863 366.972 210.967C366.848 210.07 366.946 209.158 367.256 208.308C367.566 207.458 368.079 206.696 368.75 206.09L378 210.68Z" fill="#F44B1B"/>
<path d="M372.51 216.24C370.913 216.24 369.381 215.61 368.246 214.486C367.111 213.363 366.466 211.837 366.45 210.24C366.45 209.396 366.629 208.562 366.973 207.792C367.318 207.021 367.821 206.333 368.45 205.77L368.7 205.54L378.56 210.43V210.77C378.411 212.27 377.709 213.661 376.591 214.673C375.472 215.684 374.018 216.242 372.51 216.24ZM368.87 206.69C367.957 207.626 367.448 208.883 367.45 210.19C367.499 211.426 368 212.601 368.858 213.492C369.715 214.383 370.87 214.928 372.103 215.025C373.336 215.121 374.562 214.761 375.547 214.014C376.533 213.266 377.21 212.183 377.45 210.97L368.87 206.69Z" fill="#4B0062"/>
<path d="M361.775 202.076L361.331 202.972L388.937 216.652L389.381 215.756L361.775 202.076Z" fill="#4B0062"/>
<path d="M412.775 139.896L408.54 148.555L409.438 148.995L413.673 140.335L412.775 139.896Z" fill="#4B0062"/>
<path d="M426.275 145.666L417.543 153.288L418.201 154.042L426.932 146.42L426.275 145.666Z" fill="#4B0062"/>
<path d="M437.02 156.404L426.45 159.761L426.753 160.714L437.323 157.357L437.02 156.404Z" fill="#4B0062"/>
<path d="M357.06 231.57V236H351.15V231.66C352.212 231.466 353.29 231.369 354.37 231.37C355.27 231.37 356.17 231.437 357.06 231.57Z" fill="#FFF0DC"/>
<path d="M357.56 236.5H350.65V231.24L351.06 231.16C353.068 230.796 355.122 230.766 357.14 231.07L357.57 231.13L357.56 236.5ZM351.65 235.5H356.56V232C354.928 231.797 353.275 231.824 351.65 232.08V235.5Z" fill="#4B0062"/>
<path d="M348.41 236.89L343.29 239.89L342 237.64C342.996 235.81 344.509 234.315 346.35 233.34L348.41 236.89Z" fill="#FFF0DC"/>
<path d="M343.1 240.54L341.43 237.66L341.55 237.42C342.589 235.501 344.172 233.932 346.1 232.91L346.53 232.67L349.08 237.08L343.1 240.54ZM342.57 237.64L343.46 239.18L347.71 236.72L346.17 234C344.679 234.879 343.442 236.13 342.58 237.63L342.57 237.64Z" fill="#4B0062"/>
<path d="M365.85 236.27L363.91 239.63L358.79 236.63L361.08 232.63C362.954 233.418 364.596 234.67 365.85 236.27Z" fill="#FFF0DC"/>
<path d="M364.09 240.32L358.09 236.87L360.85 232.08L361.26 232.26C363.214 233.053 364.934 234.33 366.26 235.97L366.46 236.23L364.09 240.32ZM359.47 236.5L363.72 238.95L365.24 236.32C364.144 235.037 362.778 234.013 361.24 233.32L359.47 236.5Z" fill="#4B0062"/>
<path d="M444.732 293.803L443.81 294.19L447.105 302.036L448.027 301.649L444.732 293.803Z" fill="#4B0062"/>
<path d="M350.095 289.144L349.145 289.457L356.259 310.993L357.209 310.679L350.095 289.144Z" fill="#4B0062"/>
<path d="M358.937 315.859L357.988 316.172L360.379 323.408L361.329 323.094L358.937 315.859Z" fill="#4B0062"/>
<path d="M451.217 309.19L450.295 309.577L466.41 347.951L467.332 347.564L451.217 309.19Z" fill="#4B0062"/>
<path d="M449.556 373.968L449.1 374.858L468.685 384.88L469.14 383.99L449.556 373.968Z" fill="#4B0062"/>
<path d="M471.909 381.864L443.97 402.477L444.564 403.282L472.503 382.668L471.909 381.864Z" fill="#4B0062"/>
<path d="M433.163 379.359L432.634 380.208L455.759 394.624L456.288 393.776L433.163 379.359Z" fill="#4B0062"/>
<path d="M473.686 386.286L449.361 413.539L450.107 414.205L474.432 386.952L473.686 386.286Z" fill="#4B0062"/>
<path d="M480.363 402.285L457.491 430.15L458.264 430.785L481.136 402.92L480.363 402.285Z" fill="#4B0062"/>
<path d="M493.084 431.725L462.962 440.482L463.241 441.443L493.364 432.685L493.084 431.725Z" fill="#4B0062"/>
<path d="M487.15 417.554L462.594 424.005L462.848 424.973L487.404 418.521L487.15 417.554Z" fill="#4B0062"/>
<path d="M471.943 438.06L471.385 438.889L489.128 450.835L489.687 450.005L471.943 438.06Z" fill="#4B0062"/>
<path d="M495.489 437.694L480.095 443.851L480.466 444.779L495.86 438.622L495.489 437.694Z" fill="#4B0062"/>
<path d="M458.729 445.828L458.231 446.695L473.568 455.511L474.066 454.644L458.729 445.828Z" fill="#4B0062"/>
<path d="M382.409 357.894L377.71 374.294L378.671 374.569L383.37 358.169L382.409 357.894Z" fill="#4B0062"/>
<path d="M368.194 338.773L367.195 338.798L368.098 374.467L369.097 374.441L368.194 338.773Z" fill="#4B0062"/>
<path d="M363.313 338.695L353.895 374.291L354.862 374.546L364.28 338.951L363.313 338.695Z" fill="#4B0062"/>
<path d="M349.29 339.027L337.431 374.307L338.379 374.626L350.238 339.346L349.29 339.027Z" fill="#4B0062"/>
<path d="M320.393 339.559L319.484 339.975L335.365 374.63L336.274 374.213L320.393 339.559Z" fill="#4B0062"/>
<path d="M312.617 339.867L311.637 340.067L318.679 374.555L319.658 374.355L312.617 339.867Z" fill="#4B0062"/>
<path d="M305.918 340.025L304.928 340.163L309.705 374.503L310.695 374.365L305.918 340.025Z" fill="#4B0062"/>
<path d="M306.023 347.533L296.2 368.782L297.108 369.202L306.931 347.953L306.023 347.533Z" fill="#4B0062"/>
<path d="M301.097 335.065L292.292 358.196L293.226 358.552L302.031 335.421L301.097 335.065Z" fill="#4B0062"/>
<path d="M295.035 331.642L286.612 342.358L287.398 342.976L295.821 332.26L295.035 331.642Z" fill="#4B0062"/>
<path d="M347.928 343.643L325.116 350.936L325.42 351.889L348.233 344.595L347.928 343.643Z" fill="#4B0062"/>
<path d="M343.091 357.925L330.707 363.248L331.101 364.167L343.486 358.843L343.091 357.925Z" fill="#4B0062"/>
<path d="M399.836 371.541L399.003 382.168L400 382.246L400.833 371.619L399.836 371.541Z" fill="#4B0062"/>
<path d="M409.447 371.53L408.615 382.158L409.612 382.236L410.444 371.608L409.447 371.53Z" fill="#4B0062"/>
<path d="M420.82 346.34H392.5V347.34H420.82V346.34Z" fill="#4B0062"/>
<path d="M420.79 341.61C394.3 309.7 394.31 309.61 394.32 309.37L395.32 309.43H394.82L395.24 309.16C395.71 309.83 412.66 330.28 421.56 341L420.79 341.61Z" fill="#4B0062"/>
<path d="M396.439 288.964L395.691 289.627L422.17 319.462L422.918 318.798L396.439 288.964Z" fill="#4B0062"/>
<path d="M396.82 280.587L396.324 281.455L423.684 297.086L424.18 296.218L396.82 280.587Z" fill="#4B0062"/>
<path d="M424.704 283.091L403.294 284.389L403.354 285.387L424.765 284.089L424.704 283.091Z" fill="#4B0062"/>
<path d="M425.31 272.253L396.704 276.896L396.865 277.883L425.47 273.24L425.31 272.253Z" fill="#4B0062"/>
<path d="M406.147 322.811L393.737 324.874L393.901 325.861L406.311 323.797L406.147 322.811Z" fill="#4B0062"/>
<path d="M414.46 332.944L392.799 339.106L393.073 340.067L414.734 333.905L414.46 332.944Z" fill="#4B0062"/>
<path d="M275.376 249.667L274.695 250.399L305.357 278.882L306.038 278.15L275.376 249.667Z" fill="#4B0062"/>
<path d="M299.887 249.773L299.276 250.564L336.251 279.09L336.862 278.299L299.887 249.773Z" fill="#4B0062"/>
<path d="M341.578 258.702L339.306 278.643L340.299 278.756L342.571 258.815L341.578 258.702Z" fill="#4B0062"/>
<path d="M327.489 250.289L324.709 269.872L325.699 270.013L328.479 250.429L327.489 250.289Z" fill="#4B0062"/>
<path d="M319.197 249.965L311.12 259.015L311.866 259.681L319.943 250.631L319.197 249.965Z" fill="#4B0062"/>
<path d="M294.119 267.154L293.146 267.385L295.786 278.526L296.759 278.296L294.119 267.154Z" fill="#4B0062"/>
<path d="M281.05 255.03L280.063 255.195L283.941 278.413L284.927 278.249L281.05 255.03Z" fill="#4B0062"/>
<path d="M305.7 243.48H293.63V244.48H305.7V243.48Z" fill="#4B0062"/>
<path d="M286.91 243.48H279.16V244.48H286.91V243.48Z" fill="#4B0062"/>
<path d="M351.56 459.36H279.16V460.36H351.56V459.36Z" fill="#4B0062"/>
<path d="M601.02 459.36H577.93V460.36H601.02V459.36Z" fill="#4B0062"/>
<path d="M504.09 459.36H378.2V460.36H504.09V459.36Z" fill="#4B0062"/>
<path d="M371.363 269.869L361.103 292.425L362.013 292.839L372.273 270.283L371.363 269.869Z" fill="#4B0062"/>
<path d="M386.12 268.803L376.055 291.085L376.966 291.496L387.031 269.214L386.12 268.803Z" fill="#4B0062"/>
<path d="M396.398 279.437L363.085 298.377L363.58 299.246L396.892 280.306L396.398 279.437Z" fill="#4B0062"/>
<path d="M367.828 311.125L367.245 311.938L393.252 330.584L393.834 329.771L367.828 311.125Z" fill="#4B0062"/>
<path d="M395.203 298.394L370.917 313.706L371.45 314.551L395.736 299.24L395.203 298.394Z" fill="#4B0062"/>
<path d="M394.302 314.928L379.119 319.442L379.404 320.401L394.587 315.886L394.302 314.928Z" fill="#4B0062"/>
<path d="M374.209 330.478L373.666 331.318L392.472 343.47L393.014 342.63L374.209 330.478Z" fill="#4B0062"/>
<path d="M392.06 353.52H381.57V354.52H392.06V353.52Z" fill="#4B0062"/>
<path d="M446.983 323.024L422.071 374.192L422.97 374.63L447.882 323.462L446.983 323.024Z" fill="#4B0062"/>
<path d="M452.501 336.268L443.976 360.025L444.917 360.363L453.442 336.606L452.501 336.268Z" fill="#4B0062"/>
<path d="M429.955 358.819L429.893 359.817L463.446 361.934L463.509 360.936L429.955 358.819Z" fill="#4B0062"/>
<path d="M439.362 304.759L421.179 333.948L422.028 334.477L440.211 305.287L439.362 304.759Z" fill="#4B0062"/>
<path d="M430.48 283.187L424.145 287.958L424.747 288.756L431.082 283.986L430.48 283.187Z" fill="#4B0062"/>
<path d="M434.96 293.132L424.056 293.515L424.091 294.514L434.995 294.132L434.96 293.132Z" fill="#4B0062"/>
<path d="M437.71 300.219L423 307.493L423.443 308.389L438.153 301.116L437.71 300.219Z" fill="#4B0062"/>
<path d="M565.44 388.1L544.82 365.75L522.22 386.64C520.56 388.57 523.6 394.85 529.16 400.88C534.72 406.91 540.74 410.45 542.8 408.95L565.44 388.1Z" fill="#FFF0DC"/>
<path d="M541.58 409.77C538.37 409.77 532.97 405.77 528.8 401.22C523.8 395.84 519.72 388.79 521.8 386.31L544.8 365.04L566.1 388.13L543.1 409.31C542.654 409.619 542.122 409.78 541.58 409.77ZM544.79 366.46L522.56 387C521.3 388.47 523.77 394.29 529.56 400.54C535.35 406.79 540.91 409.72 542.56 408.54L564.78 388.07L544.79 366.46Z" fill="#4B0062"/>
<path d="M278.32 265L267.45 235.16L234.83 247L245.64 276.67L245.7 276.84C246.91 279.18 254.79 278.53 263.61 275.32C272.43 272.11 278.9 267.56 278.32 265Z" fill="#FFF0DC"/>
<path d="M250 278.76C247.88 278.76 246.25 278.37 245.49 277.47H245.38L245.12 276.85L234.12 246.71L267.71 234.47L279 265.28H278.86C278.86 268.54 271.28 273.04 263.81 275.76C259 277.55 253.78 278.76 250 278.76ZM246.06 276.52L246.13 276.64C247.13 278.48 254.26 278.21 263.42 274.88C272.58 271.55 278.25 267.13 277.79 265.1V264.89L267.18 235.78L235.47 247.34L246.06 276.52Z" fill="#4B0062"/>
<path d="M586.31 289.15H570.91V290.15H586.31V289.15Z" fill="#4B0062"/>
<path d="M542.9 237.62L545.49 237.23L547.04 239.36L553.28 230.06L542.51 233.14L544.06 235.27L542.9 237.62Z" fill="#A26BB4"/>
<path d="M547.05 240.24L545.26 237.77L542.03 238.25L543.48 235.32L541.69 232.86L554.46 229.21L547.05 240.24ZM545.71 236.7L547.02 238.5L552.11 230.93L543.34 233.43L544.65 235.23L543.78 236.99L545.71 236.7Z" fill="#4B0062"/>
<path d="M566.27 222.12L567.43 219.77L564.85 220.16L563.3 218.03L557.05 227.33L567.82 224.25L566.27 222.12Z" fill="#A26BB4"/>
<path d="M555.87 228.18L563.28 217.18L565.07 219.64L568.31 219.16L566.85 222.09L568.64 224.55L555.87 228.18ZM563.31 218.9L558.22 226.47L567 224L565.69 222.2L566.56 220.44L564.62 220.73L563.31 218.9Z" fill="#4B0062"/>
<path d="M558.243 232.952C560.57 231.26 561.085 228.001 559.393 225.674C557.701 223.347 554.443 222.832 552.115 224.524C549.788 226.216 549.273 229.474 550.965 231.802C552.657 234.129 555.916 234.644 558.243 232.952Z" fill="#A26BB4"/>
<path d="M555.17 234.41C554.193 234.411 553.232 234.162 552.379 233.685C551.526 233.209 550.809 232.521 550.298 231.689C549.786 230.856 549.497 229.906 549.458 228.93C549.419 227.954 549.63 226.984 550.073 226.113C550.516 225.242 551.175 224.499 551.986 223.955C552.798 223.412 553.736 223.086 554.71 223.008C555.684 222.93 556.662 223.104 557.549 223.512C558.437 223.921 559.205 224.55 559.78 225.34C560.4 226.191 560.772 227.197 560.855 228.247C560.939 229.296 560.731 230.349 560.253 231.287C559.776 232.226 559.049 233.014 558.152 233.565C557.255 234.116 556.223 234.409 555.17 234.41ZM555.17 223.99C554.112 223.992 553.086 224.351 552.257 225.007C551.428 225.663 550.844 226.58 550.599 227.609C550.354 228.637 550.462 229.719 550.906 230.679C551.351 231.638 552.105 232.421 553.048 232.899C553.991 233.378 555.068 233.526 556.105 233.318C557.142 233.111 558.079 232.561 558.765 231.756C559.451 230.951 559.846 229.939 559.887 228.882C559.928 227.825 559.612 226.785 558.99 225.93C558.551 225.327 557.975 224.837 557.309 224.502C556.642 224.166 555.906 223.994 555.16 224L555.17 223.99Z" fill="#4B0062"/>
<path d="M569.345 301.188L568.931 302.098L580.452 307.346L580.866 306.436L569.345 301.188Z" fill="#4B0062"/>
<path d="M516.65 325C510.095 324.996 503.656 323.26 497.988 319.967C492.319 316.675 487.621 311.942 484.37 306.25C479.372 297.552 478.027 287.228 480.63 277.54C485.98 257.33 506.57 245.2 526.52 250.48C546.47 255.76 558.36 276.48 553.01 296.7C550.478 306.408 544.199 314.715 535.55 319.8C529.83 323.196 523.302 324.992 516.65 325ZM517.05 250.23C510.584 250.298 504.249 252.054 498.671 255.325C493.094 258.596 488.468 263.268 485.252 268.877C482.036 274.487 480.343 280.84 480.339 287.306C480.335 293.772 482.021 300.126 485.23 305.74C487.606 309.901 490.786 313.548 494.585 316.467C498.384 319.387 502.726 321.521 507.358 322.746C511.99 323.971 516.82 324.262 521.566 323.602C526.311 322.941 530.878 321.343 535 318.9C543.422 313.946 549.536 305.855 552 296.4C557.21 276.73 545.64 256.54 526.22 251.4C523.227 250.61 520.145 250.21 517.05 250.21V250.23Z" fill="#4B0062"/>
<path d="M552.52 296.53C551.348 301.293 549.239 305.775 546.316 309.714C543.393 313.653 539.715 316.971 535.496 319.473C531.277 321.976 526.602 323.613 521.744 324.289C516.885 324.966 511.941 324.668 507.199 323.412C502.457 322.157 498.013 319.971 494.125 316.979C490.237 313.988 486.984 310.253 484.556 305.991C482.127 301.729 480.572 297.027 479.98 292.157C479.388 287.288 479.773 282.349 481.11 277.63C481.776 275.105 482.701 272.655 483.87 270.32L553.74 288.81C553.6 291.418 553.191 294.005 552.52 296.53Z" fill="#F48001"/>
<path d="M516.58 325C513.387 325.001 510.207 324.588 507.12 323.77C487.12 318.49 475.28 297.77 480.62 277.55C481.297 274.99 482.235 272.507 483.42 270.14L483.6 269.78L483.99 269.88L554.25 288.47V288.88C554.11 291.522 553.698 294.143 553.02 296.7C550.909 304.771 546.193 311.919 539.604 317.036C533.015 322.153 524.922 324.952 516.58 325ZM484.14 270.95C483.073 273.145 482.222 275.44 481.6 277.8C476.39 297.47 487.96 317.66 507.39 322.8C526.82 327.94 546.84 316.12 552.05 296.44C552.676 294.081 553.072 291.666 553.23 289.23L484.14 270.95Z" fill="#4B0062"/>
<path d="M541.75 293.68C536.46 313.68 521.02 326.89 507.25 323.24C493.48 319.59 486.6 300.45 491.89 280.48C492.553 277.965 493.398 275.502 494.42 273.11L543.2 286C542.905 288.592 542.42 291.159 541.75 293.68Z" fill="#F48001"/>
<path d="M511.88 324.34C510.273 324.34 508.673 324.132 507.12 323.72C493.12 320.01 486.05 300.55 491.4 280.35C492.069 277.812 492.921 275.325 493.95 272.91L494.12 272.51L543.74 285.64V286.07C543.442 288.679 542.954 291.262 542.28 293.8C537.49 311.75 524.53 324.34 511.88 324.34ZM494.71 273.7C493.773 275.947 492.991 278.256 492.37 280.61C487.16 300.28 493.9 319.19 507.37 322.76C520.84 326.33 536.05 313.23 541.26 293.55C541.887 291.198 542.351 288.806 542.65 286.39L494.71 273.7Z" fill="#4B0062"/>
<path d="M518.293 279.413L506.737 323.09L507.703 323.346L519.26 279.669L518.293 279.413Z" fill="#4B0062"/>
<path d="M503.44 285.7L494.12 291.93L508.46 295.73L503.44 285.7Z" fill="#4B0062"/>
<path d="M509.4 296.49L492.92 292.13L503.64 285L509.4 296.49ZM495.31 291.73L507.51 294.96L503.24 286.43L495.31 291.73Z" fill="#4B0062"/>
<path d="M529.12 292.49L519.8 298.73L534.14 302.52L529.12 292.49Z" fill="#4B0062"/>
<path d="M535.09 303.29L518.61 298.93L529.33 291.77L535.09 303.29ZM521 298.53L533.2 301.76L528.93 293.23L521 298.53Z" fill="#4B0062"/>
<path d="M529 318.48C525.22 314.29 518.84 310.58 511.15 308.54C503.46 306.5 496.09 306.54 490.73 308.35C492.82 304.44 497.09 301.78 502.29 300.86C504.271 300.521 506.287 300.434 508.29 300.6C511.479 300.853 514.595 301.679 517.49 303.04C519.329 303.892 521.05 304.977 522.61 306.27C526.71 309.62 529.1 314.06 529 318.48Z" fill="#4B0062"/>
<path d="M508 304.6L502 304.18L502.23 300.86C504.211 300.521 506.227 300.434 508.23 300.6L508 304.6Z" fill="#F48001"/>
<path d="M522.64 306.26L521.2 309.26L515.78 306.66L517.52 303.05C519.358 303.895 521.079 304.974 522.64 306.26Z" fill="#F48001"/>
<path d="M509.215 234.414C509.681 229.288 505.904 224.754 500.778 224.288C495.652 223.821 491.118 227.599 490.651 232.725C490.185 237.851 493.962 242.385 499.088 242.851C504.214 243.318 508.748 239.54 509.215 234.414Z" fill="#F44B1B"/>
<path d="M500 243.42C499.7 243.42 499.4 243.42 499.1 243.42C497.166 243.244 495.327 242.498 493.817 241.277C492.307 240.056 491.192 238.415 490.615 236.561C490.037 234.706 490.022 232.722 490.572 230.86C491.122 228.997 492.212 227.339 493.704 226.096C495.197 224.853 497.024 224.08 498.955 223.875C500.887 223.67 502.835 224.043 504.555 224.946C506.275 225.849 507.688 227.241 508.616 228.947C509.544 230.653 509.946 232.596 509.77 234.53C509.534 236.96 508.404 239.215 506.598 240.858C504.793 242.501 502.441 243.414 500 243.42ZM500 224.77C498.29 224.771 496.617 225.27 495.185 226.204C493.753 227.139 492.624 228.47 491.935 230.035C491.245 231.6 491.026 233.332 491.303 235.019C491.58 236.706 492.342 238.277 493.495 239.539C494.649 240.802 496.144 241.702 497.8 242.13C499.456 242.557 501.2 242.495 502.821 241.949C504.441 241.403 505.868 240.398 506.928 239.056C507.988 237.714 508.635 236.093 508.79 234.39C508.896 233.235 508.773 232.07 508.428 230.962C508.083 229.855 507.523 228.826 506.78 227.935C506.036 227.044 505.125 226.309 504.097 225.771C503.069 225.233 501.946 224.903 500.79 224.8C500.51 224.79 500.24 224.78 500 224.78V224.77Z" fill="#4B0062"/>
<path d="M501.47 243.21C497.65 241.28 494.88 237.78 494.75 234.69C494.73 233.659 495.001 232.643 495.531 231.759C496.062 230.875 496.831 230.158 497.75 229.69C498.588 229.095 499.627 228.856 500.641 229.024C501.654 229.193 502.56 229.756 503.16 230.59C504.62 232.38 505.16 235.42 503.55 237.08C503.222 237.49 502.786 237.801 502.292 237.977C501.797 238.154 501.264 238.19 500.75 238.08C500.292 237.963 499.872 237.726 499.535 237.394C499.198 237.062 498.955 236.647 498.83 236.19C498.694 235.681 498.698 235.144 498.843 234.637C498.987 234.13 499.266 233.671 499.65 233.31L500.36 234.01C500.097 234.244 499.905 234.547 499.804 234.884C499.704 235.222 499.699 235.58 499.79 235.92C499.887 236.186 500.048 236.424 500.259 236.613C500.47 236.801 500.725 236.934 501 237C501.342 237.059 501.694 237.024 502.018 236.899C502.342 236.774 502.626 236.564 502.84 236.29C504.03 235.03 503.56 232.56 502.4 231.12C501.936 230.496 501.249 230.077 500.482 229.95C499.716 229.823 498.93 229.999 498.29 230.44C497.524 230.825 496.883 231.419 496.44 232.154C495.998 232.888 495.772 233.733 495.79 234.59C495.91 237.29 498.51 240.52 501.96 242.26L501.47 243.21Z" fill="#4B0062"/>
<path d="M562.4 264.17C562.42 264.41 562.42 264.65 562.4 264.89C562.327 266.883 561.603 268.797 560.34 270.34C560.19 270.52 560.04 270.7 559.88 270.87L559.28 271.51L556.48 274.51L556.27 274.72L555.98 274.44L552.51 271.17L554.02 269.56L554.88 268.65L556.12 267.34C556.534 266.895 556.848 266.367 557.04 265.79C557.044 265.74 557.044 265.69 557.04 265.64C557.172 265.216 557.229 264.773 557.21 264.33C557.197 263.778 557.073 263.235 556.847 262.731C556.62 262.228 556.295 261.775 555.89 261.4L555.8 261.32C555.606 261.131 555.387 260.97 555.15 260.84C554.204 260.282 553.075 260.121 552.01 260.39C551.519 260.5 551.054 260.704 550.64 260.99C550.385 261.156 550.153 261.354 549.95 261.58L547.13 264.58L546.2 265.58L544.2 267.72L541.44 270.65L540.28 271.88L536.77 275.61L536.69 275.53L533.18 271.88L535.57 269.34L538.36 266.34L539.14 265.51L543.06 261.35L543.53 260.85L546.2 258C546.643 257.529 547.132 257.104 547.66 256.73C548.226 256.327 548.836 255.991 549.48 255.73C550.405 255.351 551.383 255.122 552.38 255.05C554.457 254.903 556.524 255.456 558.25 256.62C558.34 256.62 558.43 256.74 558.52 256.8C558.849 257.037 559.163 257.294 559.46 257.57C560.296 258.378 560.974 259.334 561.46 260.39C562.038 261.569 562.359 262.858 562.4 264.17Z" fill="#FFF0DC"/>
<path d="M536.77 276.32L536.33 275.88L532.48 271.88L545.84 257.69C546.305 257.197 546.817 256.752 547.37 256.36C547.973 255.953 548.62 255.618 549.3 255.36C550.797 254.745 552.423 254.509 554.033 254.673C555.643 254.837 557.188 255.396 558.53 256.3L558.72 256.42L558.81 256.49C559.16 256.739 559.494 257.01 559.81 257.3C560.625 258.076 561.301 258.986 561.81 259.99L561.96 260.27C562.545 261.5 562.865 262.839 562.9 264.2C562.921 264.466 562.921 264.734 562.9 265C562.821 267.09 562.059 269.096 560.73 270.71C560.57 270.9 560.41 271.09 560.25 271.27L556.25 275.47L555.61 274.85L551.78 271.24L555.78 267.04C556.145 266.65 556.421 266.186 556.59 265.68V265.54C556.706 265.172 556.756 264.786 556.74 264.4C556.731 263.912 556.624 263.432 556.424 262.987C556.225 262.542 555.938 262.141 555.58 261.81L555.48 261.72C555.321 261.568 555.143 261.436 554.95 261.33C554.114 260.831 553.114 260.684 552.17 260.92C551.736 261.017 551.325 261.197 550.96 261.45C550.738 261.596 550.536 261.771 550.36 261.97L536.77 276.32ZM533.86 271.87L536.75 274.87L549.6 261.22C549.833 260.963 550.099 260.738 550.39 260.55C550.853 260.231 551.372 260.004 551.92 259.88C553.108 259.586 554.365 259.769 555.42 260.39C555.69 260.54 555.938 260.725 556.16 260.94L556.26 261.03C556.711 261.449 557.074 261.954 557.327 262.516C557.579 263.078 557.716 263.684 557.73 264.3C557.752 264.797 557.687 265.295 557.54 265.77C557.53 265.835 557.514 265.899 557.49 265.96C557.282 266.595 556.942 267.178 556.49 267.67L553.22 271.14L556.22 274.01L559.48 270.53C559.63 270.37 559.78 270.19 559.92 270.02C561.117 268.563 561.802 266.754 561.87 264.87C561.888 264.644 561.888 264.416 561.87 264.19C561.842 263.056 561.594 261.939 561.14 260.9L561.02 260.65C560.549 259.647 559.895 258.742 559.09 257.98C558.809 257.718 558.512 257.474 558.2 257.25L558.11 257.19L557.98 257.1C556.77 256.276 555.375 255.765 553.92 255.613C552.464 255.461 550.994 255.673 549.64 256.23C549.033 256.472 548.455 256.784 547.92 257.16C547.422 257.514 546.959 257.916 546.54 258.36L533.86 271.87Z" fill="#4B0062"/>
<path d="M562.38 264.89C562.307 266.883 561.583 268.797 560.32 270.34C560.17 270.52 560.02 270.7 559.86 270.87L559.26 271.51L554.86 268.64L556.1 267.33C556.514 266.885 556.828 266.357 557.02 265.78C557.024 265.73 557.024 265.68 557.02 265.63L562.38 264.89Z" fill="#F44B1B"/>
<path d="M559.33 272.16L554.08 268.73L555.73 266.98C556.095 266.59 556.371 266.126 556.54 265.62L556.61 265.27L556.99 265.13L562.9 264.31V264.91C562.826 267.013 562.064 269.033 560.73 270.66C560.57 270.85 560.41 271.04 560.25 271.22L559.33 272.16ZM555.63 268.55L559.18 270.86L559.49 270.53C559.64 270.37 559.79 270.19 559.93 270.02C560.995 268.722 561.656 267.14 561.83 265.47L557.44 266.08C557.218 266.672 556.877 267.213 556.44 267.67L555.63 268.55Z" fill="#4B0062"/>
<path d="M558.25 256.67L555.82 261.31C555.626 261.121 555.407 260.96 555.17 260.83C554.223 260.272 553.095 260.111 552.03 260.38C551.539 260.49 551.074 260.694 550.66 260.98L549.48 255.78C550.405 255.401 551.383 255.172 552.38 255.1C554.457 254.953 556.524 255.506 558.25 256.67Z" fill="#F44B1B"/>
<path d="M556 262.13L555.52 261.68C555.358 261.523 555.177 261.389 554.98 261.28C554.144 260.781 553.144 260.634 552.2 260.87C551.766 260.967 551.355 261.147 550.99 261.4L550.38 261.82L548.94 255.49L549.33 255.33C550.828 254.713 552.456 254.476 554.068 254.64C555.68 254.804 557.227 255.364 558.57 256.27L558.94 256.52L556 262.13ZM553 259.75C553.837 259.751 554.659 259.976 555.38 260.4L555.61 260.54L557.55 256.84C556.429 256.165 555.172 255.747 553.869 255.617C552.567 255.488 551.252 255.649 550.02 256.09L550.95 260.21C551.244 260.07 551.552 259.962 551.87 259.89C552.239 259.796 552.619 259.749 553 259.75Z" fill="#4B0062"/>
<path d="M546.22 265.57L544.19 267.71L541.43 270.64L538.35 266.37L539.13 265.54L543.05 261.38L543.52 260.88L546.22 265.57Z" fill="#F44B1B"/>
<path d="M541.38 271.43L537.7 266.34L543.61 260.06L546.83 265.66L541.38 271.43ZM539 266.43L541.48 269.87L545.6 265.51L543.42 261.73L539 266.43Z" fill="#4B0062"/>
<path d="M565.544 388.251C567.464 386.479 564.358 379.989 558.606 373.753C552.854 367.518 546.635 363.899 544.715 365.67C542.795 367.442 545.901 373.932 551.653 380.167C557.404 386.403 563.624 390.022 565.544 388.251Z" fill="#FFF0DC"/>
<path d="M564.2 389.17C562.623 389.026 561.107 388.49 559.79 387.61C556.631 385.647 553.768 383.243 551.29 380.47C546.08 374.82 541.88 367.57 544.38 365.27C546.88 362.97 553.76 367.73 558.98 373.38C561.54 376.059 563.705 379.09 565.41 382.38C566.84 385.38 567.01 387.5 565.89 388.54C565.431 388.963 564.824 389.189 564.2 389.17ZM546.06 365.68C545.698 365.658 545.342 365.772 545.06 366C543.59 367.36 546.06 373.35 552.06 379.79C554.468 382.506 557.253 384.864 560.33 386.79C562.68 388.16 564.52 388.57 565.25 387.9C565.98 387.23 565.72 385.36 564.54 382.9C562.883 379.684 560.775 376.72 558.28 374.1C553.24 368.65 548.36 365.68 546.06 365.68Z" fill="#4B0062"/>
<path d="M559.367 381.554C560.154 380.828 558.896 378.182 556.555 375.645C554.215 373.108 551.679 371.64 550.892 372.366C550.104 373.093 551.363 375.739 553.703 378.276C556.044 380.813 558.579 382.281 559.367 381.554Z" fill="#4B0062"/>
<path d="M252.811 245.686C261.887 242.379 268.496 237.646 267.574 235.113C266.651 232.581 258.546 233.209 249.47 236.516C240.394 239.823 233.785 244.556 234.707 247.089C235.63 249.621 243.735 248.993 252.811 245.686Z" fill="#FFF0DC"/>
<path d="M239.1 249.13C236.37 249.13 234.7 248.49 234.25 247.25C233.71 245.78 235.03 243.85 238.06 241.68C241.548 239.307 245.33 237.397 249.31 236C257.51 233 266.86 231.61 268.06 234.89C269.26 238.17 261.19 243.12 253 246.1C249.064 247.6 244.949 248.582 240.76 249.02C240.167 249.093 239.613 249.13 239.1 249.13ZM263.23 234C258.57 234.254 253.983 235.268 249.65 237C245.761 238.354 242.063 240.206 238.65 242.51C236.14 244.31 234.85 245.96 235.2 246.93C235.55 247.9 237.6 248.33 240.69 248.09C244.797 247.661 248.831 246.7 252.69 245.23C262.1 241.8 267.86 237.23 267.16 235.3C266.83 234.48 265.43 234 263.23 234Z" fill="#4B0062"/>
<path d="M251.825 242.98C255.53 241.63 258.227 239.694 257.849 238.657C257.471 237.619 254.161 237.872 250.456 239.222C246.751 240.572 244.054 242.508 244.432 243.545C244.81 244.583 248.12 244.33 251.825 242.98Z" fill="#4B0062"/>
<path d="M257.54 303.74L258.07 296.38L251.53 297.6L252.14 289.2L245.6 290.43L246.2 282.02L241.73 283.45C245.73 277.1 261.34 253.87 267.81 236.02L278.3 264.81C278.3 264.81 279.56 270.06 257.54 303.74Z" fill="#FFF0DC"/>
<path d="M256.9 305.63L257.52 296.99L251 298.21L251.61 289.81L245.05 291L245.64 282.68L240.58 284.3L241.3 283.15C241.83 282.3 242.57 281.15 243.48 279.73C249.41 270.48 261.75 251.22 267.33 235.82L267.8 234.53L278.8 264.61C278.87 264.89 279.88 270.51 257.99 303.99L256.9 305.63ZM258.61 295.77L258.17 301.85C278.4 270.68 277.82 264.98 277.81 264.93L267.81 237.47C261.99 252.74 250.12 271.27 244.33 280.3L242.89 282.55L246.76 281.31L246.15 289.81L252.69 288.58L252.08 296.98L258.61 295.77Z" fill="#4B0062"/>
<path d="M217.4 312.32H216.4V336.31H217.4V312.32Z" fill="#4B0062"/>
<path d="M228.89 323.81H204.9V324.81H228.89V323.81Z" fill="#4B0062"/>
<path d="M211.067 317.777L210.36 318.484L222.734 330.858L223.441 330.151L211.067 317.777Z" fill="#4B0062"/>
<path d="M222.727 317.77L210.353 330.144L211.06 330.851L223.434 318.477L222.727 317.77Z" fill="#4B0062"/>
<path d="M216.9 310.29C217.673 310.29 218.3 309.417 218.3 308.34C218.3 307.263 217.673 306.39 216.9 306.39C216.127 306.39 215.5 307.263 215.5 308.34C215.5 309.417 216.127 310.29 216.9 310.29Z" fill="#4B0062"/>
<path d="M216.9 342.24C217.673 342.24 218.3 341.367 218.3 340.29C218.3 339.213 217.673 338.34 216.9 338.34C216.127 338.34 215.5 339.213 215.5 340.29C215.5 341.367 216.127 342.24 216.9 342.24Z" fill="#4B0062"/>
<path d="M232.88 325.71C233.957 325.71 234.83 325.083 234.83 324.31C234.83 323.537 233.957 322.91 232.88 322.91C231.803 322.91 230.93 323.537 230.93 324.31C230.93 325.083 231.803 325.71 232.88 325.71Z" fill="#4B0062"/>
<path d="M200.92 325.71C201.997 325.71 202.87 325.083 202.87 324.31C202.87 323.537 201.997 322.91 200.92 322.91C199.843 322.91 198.97 323.537 198.97 324.31C198.97 325.083 199.843 325.71 200.92 325.71Z" fill="#4B0062"/>
<path d="M478.64 175.95H477.64V194.14H478.64V175.95Z" fill="#4B0062"/>
<path d="M487.24 184.54H469.05V185.54H487.24V184.54Z" fill="#4B0062"/>
<path d="M473.805 180.005L473.097 180.712L482.481 190.096L483.188 189.389L473.805 180.005Z" fill="#4B0062"/>
<path d="M482.481 179.998L473.097 189.382L473.805 190.089L483.188 180.705L482.481 179.998Z" fill="#4B0062"/>
<path d="M490.26 186.1C491.077 186.1 491.74 185.625 491.74 185.04C491.74 184.455 491.077 183.98 490.26 183.98C489.443 183.98 488.78 184.455 488.78 185.04C488.78 185.625 489.443 186.1 490.26 186.1Z" fill="#4B0062"/>
<path d="M466.03 186.1C466.847 186.1 467.51 185.625 467.51 185.04C467.51 184.455 466.847 183.98 466.03 183.98C465.213 183.98 464.55 184.455 464.55 185.04C464.55 185.625 465.213 186.1 466.03 186.1Z" fill="#4B0062"/>
<path d="M408.95 410.81H407.95V425.9H408.95V410.81Z" fill="#4B0062"/>
<path d="M413.13 417.85H403.78V418.85H413.13V417.85Z" fill="#4B0062"/>
<path d="M421.86 422.38H420.86V431.82H421.86V422.38Z" fill="#4B0062"/>
<path d="M424.29 426.6H418.44V427.6H424.29V426.6Z" fill="#4B0062"/>
<path d="M489.22 345.49C491.959 345.49 494.18 343.269 494.18 340.53C494.18 337.791 491.959 335.57 489.22 335.57C486.481 335.57 484.26 337.791 484.26 340.53C484.26 343.269 486.481 345.49 489.22 345.49Z" fill="#A26BB4"/>
<path d="M504.21 362.15C505.801 362.15 507.09 360.861 507.09 359.27C507.09 357.679 505.801 356.39 504.21 356.39C502.619 356.39 501.33 357.679 501.33 359.27C501.33 360.861 502.619 362.15 504.21 362.15Z" fill="#A26BB4"/>
<path d="M288.31 210.92C290.458 210.92 292.2 209.178 292.2 207.03C292.2 204.882 290.458 203.14 288.31 203.14C286.162 203.14 284.42 204.882 284.42 207.03C284.42 209.178 286.162 210.92 288.31 210.92Z" fill="#A26BB4"/>
<path d="M382.84 401.34C384.414 401.34 385.69 400.064 385.69 398.49C385.69 396.916 384.414 395.64 382.84 395.64C381.266 395.64 379.99 396.916 379.99 398.49C379.99 400.064 381.266 401.34 382.84 401.34Z" fill="#A26BB4"/>
</g>
<defs>
<clipPath id="clip0_20_519">
<rect width="800" height="600" fill="white"/>
</clipPath>
</defs>
</svg>
