<svg width="800" height="600" viewBox="0 0 800 600" fill="none" xmlns="http://www.w3.org/2000/svg">
<g clip-path="url(#clip0_20_119)">
<path d="M673.88 333.57L680.73 326.06C677.775 343.693 672.073 360.754 663.83 376.62L656.53 377.32L651.25 351.81L673.88 333.57Z" fill="#F44B1B"/>
<path d="M682.08 278.75L665.49 288.56L663.39 275.05L661.29 290.53L649.87 298.28L636.36 251.69L640.42 281.22L628 272.16L620.65 263.37L617.11 242.51L617.76 264.51L627.56 276L639.13 286.76L642.78 304.34L635.78 300.54L628.69 285.84L628.3 289.64L630.73 300.14L635.91 305.65L644.05 319.96L627.43 319.13V312.51L625.59 312.89C625.51 311.34 624.93 310.15 624.23 310.15C623.7 310.15 623.23 310.83 623.01 311.81L620.92 312.51L622.92 312.58C622.92 312.81 622.92 313.05 622.92 313.29C622.92 313.35 622.92 313.4 622.92 313.45L621.69 313.71L623.29 318.92H623.12L615.38 316.82L620.76 321.82L646.22 325.37C646.22 325.37 640.31 354.89 640.22 355.81C640.13 356.73 635.63 366.81 635.63 366.81L632.74 358.15L628.94 356.58L633.94 374.71L632 380C613 382.28 590.16 385.46 565.12 389.82V379.3H562.12C561.471 378.181 560.54 377.252 559.42 376.606C558.299 375.961 557.028 375.621 555.735 375.621C554.442 375.621 553.171 375.961 552.05 376.606C550.93 377.252 549.999 378.181 549.35 379.3H546.35V393.25L545.35 393.43L543.82 393.73L540.94 394.29C538.8 394.697 536.643 395.123 534.47 395.57L533.68 395.73L533.03 395.86H532.76L532.36 395.94H532.12C531.47 386.43 528.68 378.44 524.86 374.37L524.33 373.84C522.96 372.41 521.089 371.567 519.11 371.49C511.84 371.49 505.94 384.36 505.94 400.24C505.94 400.69 505.94 401.14 505.94 401.59L505.61 401.67C471.47 409.49 435.72 419.48 401.38 432.22L398 433.59C357.41 401.78 331.39 352.59 331.39 297.48C331.39 201.55 410.12 123.78 507.24 123.78C598 123.78 672.63 191.63 682.08 278.75Z" fill="#F44B1B"/>
<path d="M683.1 297.48C683.1 302.9 682.85 308.257 682.35 313.55L671.13 330.29L666.54 330.55L650.85 334.88L652.76 308.51L682.23 280.18C682.813 285.928 683.103 291.702 683.1 297.48Z" fill="#F44B1B"/>
<path d="M455.257 380.495L454.368 380.952L460.662 393.199L461.551 392.742L455.257 380.495Z" fill="#4B0062"/>
<path d="M458.409 380.455L457.519 380.912L463.814 393.159L464.703 392.702L458.409 380.455Z" fill="#4B0062"/>
<path d="M476.45 361.58C476 361.58 475.54 361.58 475.08 361.58H474.7C470.26 361.67 466.54 363.4 464.7 365.92C464.361 366.365 464.082 366.852 463.87 367.37L462.66 363.71L461.66 360.77C462.571 360.527 463.496 360.343 464.43 360.22C465.557 360.074 466.693 360 467.83 360C470.781 359.929 473.716 360.467 476.45 361.58Z" fill="#4B0062"/>
<path d="M463.81 368.77L461 360.38L461.51 360.24C462.44 359.993 463.386 359.806 464.34 359.68C468.489 359.076 472.723 359.573 476.62 361.12L479.14 362.26L476.38 362.07C475.93 362.07 475.44 362.07 475 362.07H474.7C470.55 362.15 466.87 363.74 465.05 366.21C464.736 366.621 464.477 367.072 464.28 367.55L463.81 368.77ZM462.32 361.08L463.97 366.08C464.07 365.92 464.18 365.763 464.3 365.61C466.13 363.11 469.52 361.48 473.5 361.14C470.55 360.458 467.502 360.313 464.5 360.71C463.764 360.796 463.033 360.919 462.31 361.08H462.32Z" fill="#4B0062"/>
<path d="M462.9 364.1L462.4 363.23C465.416 361.625 468.794 360.823 472.21 360.9C473.058 360.896 473.906 360.94 474.75 361.03L474.64 362.03C473.83 361.941 473.015 361.898 472.2 361.9C468.963 361.825 465.761 362.583 462.9 364.1Z" fill="#A26BB4"/>
<path d="M454.62 382.8H449.9L458.1 360.45C458.383 359.679 458.933 359.034 459.65 358.634C460.368 358.234 461.205 358.105 462.01 358.27C462.792 358.431 463.494 358.859 463.994 359.481C464.494 360.104 464.762 360.881 464.75 361.68L464.59 373C464.538 375.612 463.465 378.1 461.602 379.932C459.739 381.763 457.233 382.793 454.62 382.8Z" fill="#4B0062"/>
<path d="M454.62 383.3H449.18L457.63 360.3C457.949 359.428 458.567 358.698 459.373 358.238C460.179 357.778 461.123 357.618 462.035 357.787C462.948 357.956 463.772 358.442 464.36 359.16C464.949 359.879 465.264 360.782 465.25 361.71L465.09 373C465.035 375.744 463.909 378.358 461.953 380.282C459.996 382.207 457.364 383.29 454.62 383.3ZM450.62 382.3H454.62C457.104 382.29 459.486 381.308 461.256 379.565C463.026 377.821 464.043 375.454 464.09 372.97L464.25 361.68C464.259 360.989 464.024 360.316 463.585 359.782C463.146 359.247 462.533 358.885 461.853 358.759C461.173 358.634 460.47 358.752 459.87 359.095C459.269 359.437 458.808 359.981 458.57 360.63L450.62 382.3Z" fill="#4B0062"/>
<path d="M388.05 438L387.68 437.07C390.99 435.76 394.41 434.44 397.83 433.15L401.27 431.88C436.61 419 502.06 402.18 505.5 401.3V400.3C505.5 384.17 511.63 371.05 519.17 371.05C521.277 371.122 523.273 372.015 524.73 373.54C524.92 373.72 525.1 373.9 525.28 374.09C529.19 378.25 531.93 386.18 532.64 395.4H532.7H532.91L543.78 393.25L545.31 392.95L545.86 392.85V378.85H549.07C549.785 377.722 550.773 376.794 551.942 376.15C553.112 375.507 554.425 375.169 555.76 375.169C557.095 375.169 558.408 375.507 559.578 376.15C560.747 376.794 561.735 377.722 562.45 378.85H565.66V389.29C587.42 385.51 609.66 382.29 631.66 379.61L633.33 374.71L628.12 355.71L633.12 357.71L635.67 365.36C637.36 361.5 639.61 356.25 639.67 355.66C639.79 354.79 644.79 329.79 645.61 325.71L620.52 322.21L613.52 315.74L622.52 318.19L621 313.3L622.31 313.03L618.12 312.89L622.62 311.4C622.95 310.28 623.54 309.62 624.25 309.62C625.15 309.62 625.85 310.62 626.06 312.26L627.95 311.87V318.62L643.19 319.38L635.53 305.91L630.3 300.35L627.82 289.64L628.4 284L636.19 300.15L642.05 303.35L638.67 287L627.22 276.35L617.22 264.76V264.58L616.57 242.58L617.57 242.48L621.09 263.21L628.31 271.85L639.77 280.18L635.87 251.81L636.87 251.6L650.19 297.53L660.86 290.29L663.39 271.63L665.9 287.81L689.83 273.67L682.6 280.6L653.27 308.8L651.43 334.27L666.54 330.11L670.88 329.86L688.29 303.86L683.58 323.73L674.27 333.93L651.8 352L656.93 376.77L657.7 376.69L663.78 376.11C679.36 374.68 688.59 374.16 688.68 374.11L688.73 375.11C688.64 375.11 679.43 375.63 663.87 377.06L657.79 377.64L656.12 377.8L650.69 351.55L673.56 333.12L682.64 323.12L686 309L671.39 330.79L666.6 331.06L650.28 335.56L652.28 308.29L652.42 308.16L682.9 278.86L665.11 289.38L663.42 278.54L661.75 290.84L649.58 299.1L637.79 258.43L641.08 282.33L627.58 272.5L620.14 263.61L617.78 249.72L618.21 264.38L627.93 275.67L639.58 286.5L643.48 305.29L635.48 300.89L629.09 287.64L628.89 289.64L631.27 299.93L636.43 305.44L645.02 320.54L627.02 319.64V313.1L625.22 313.47V312.89C625.14 311.4 624.61 310.62 624.35 310.62C624.09 310.62 623.83 311.03 623.62 311.91L623.54 312.19V312.61C623.529 312.833 623.529 313.057 623.54 313.28V313.7L623.14 313.93L622.45 314.07L624.31 320.07L623.11 319.34L617.33 317.77L621.1 321.26L646.93 324.86L646.83 325.38C644.83 335.59 640.9 355.08 640.83 355.79C640.7 356.73 636.95 365.24 636.2 366.94L635.68 368.12L632.45 358.45L629.81 357.36L634.56 374.65L632.56 380.43H632.25C609.92 383.11 587.43 386.43 565.4 390.25L564.81 390.35V379.8H561.99L561.85 379.52C561.243 378.485 560.376 377.627 559.335 377.03C558.294 376.434 557.115 376.12 555.915 376.12C554.715 376.12 553.536 376.434 552.495 377.03C551.454 377.627 550.587 378.485 549.98 379.52L549.84 379.8H547.01V393.66L546.61 393.74L545.61 393.92L544.1 394.22L533.31 396.35L533 396.41L532.74 396.47H532.63H532.42L531.84 396.62V396.02C531.21 386.78 528.54 378.84 524.7 374.76L524.19 374.25C522.913 372.906 521.162 372.113 519.31 372.04C512.31 372.04 506.64 384.71 506.64 400.29V402.02L506.27 402.12L505.92 402.2C503.15 402.91 437.24 419.86 401.75 432.73L398.33 434C394.77 435.35 391.36 436.67 388.05 438Z" fill="#4B0062"/>
<path d="M387.87 437.51V450C377.47 446.54 364.87 442.61 350.31 438.51V429.82L357.92 431.37V419.53C357.92 409.6 362.92 401.53 369.09 401.53C375.26 401.53 380.26 409.53 380.26 419.53V436L387.87 437.51Z" fill="#FFF0DC"/>
<path d="M388.37 450.72L387.71 450.5C375.71 446.5 363.12 442.66 350.17 439.02L349.81 438.92V429.24L357.42 430.79V419.53C357.42 409.34 362.66 401.05 369.09 401.05C375.52 401.05 380.76 409.34 380.76 419.53V435.53L388.37 437.08V450.72ZM350.81 438.16C363.41 441.71 375.7 445.47 387.37 449.34V437.92L379.76 436.37V419.53C379.76 409.89 374.97 402.05 369.09 402.05C363.21 402.05 358.42 409.89 358.42 419.53V432L350.81 430.45V438.16Z" fill="#4B0062"/>
<path d="M214.64 411.15C203.8 409.67 192.78 408.35 181.87 407.21L181.97 406.21C192.88 407.35 203.92 408.68 214.77 410.16L214.64 411.15Z" fill="#4B0062"/>
<path d="M422.58 463.39C422.46 463.34 410.06 457.97 387.71 450.51C375.71 446.51 363.12 442.67 350.17 439.03C340.48 436.31 330.5 433.68 320.51 431.23L320.75 430.23C330.75 432.69 340.75 435.31 350.44 438.04C363.44 441.69 376.05 445.55 388.02 449.54C410.41 457.02 422.85 462.4 423.02 462.46L422.58 463.39Z" fill="#4B0062"/>
<path d="M689.37 212.91C688.587 210.019 686.868 207.469 684.481 205.66C682.094 203.85 679.175 202.883 676.18 202.91C674.148 202.902 672.14 203.347 670.301 204.212C668.463 205.077 666.84 206.34 665.55 207.91C663.82 201.41 658.84 196.72 652.97 196.72C646.13 196.72 640.51 203.08 639.83 211.23H631.95C630.245 211.23 628.609 211.907 627.403 213.113C626.197 214.319 625.52 215.955 625.52 217.66H701.39C701.39 216.411 700.894 215.213 700.01 214.329C699.127 213.446 697.929 212.95 696.68 212.95L689.37 212.91Z" fill="#4B0062"/>
<path d="M701.89 218.12H625V217.62C625.003 215.783 625.734 214.022 627.033 212.723C628.332 211.424 630.093 210.693 631.93 210.69H639.35C640.23 202.39 646.01 196.18 652.95 196.18C658.66 196.18 663.71 200.43 665.75 206.85C667.456 205.03 669.611 203.691 671.998 202.965C674.385 202.24 676.921 202.155 679.351 202.718C681.782 203.281 684.022 204.473 685.846 206.174C687.671 207.875 689.018 210.025 689.75 212.41H696.68C698.061 212.413 699.385 212.962 700.361 213.939C701.338 214.915 701.887 216.239 701.89 217.62V218.12ZM626.04 217.12H700.86C700.736 216.098 700.242 215.157 699.472 214.474C698.702 213.791 697.709 213.412 696.68 213.41H689L688.9 213.03C688.157 210.236 686.504 207.769 684.202 206.019C681.901 204.27 679.081 203.337 676.19 203.37C674.232 203.36 672.296 203.788 670.525 204.622C668.753 205.456 667.19 206.675 665.95 208.19L665.33 208.95L665.08 208C663.36 201.53 658.5 197.18 652.98 197.18C646.44 197.18 640.98 203.18 640.34 211.23V211.69H632C630.499 211.669 629.045 212.218 627.932 213.225C626.819 214.233 626.129 215.624 626 217.12H626.04Z" fill="#4B0062"/>
<path d="M384 267C383.56 264.554 382.534 262.251 381.01 260.288C379.486 258.325 377.51 256.761 375.25 255.728C372.989 254.695 370.513 254.225 368.031 254.357C365.55 254.49 363.137 255.222 361 256.49C358.867 253.336 355.991 250.755 352.625 248.975C349.259 247.195 345.508 246.269 341.7 246.28C335.627 246.248 329.789 248.619 325.457 252.875C321.126 257.131 318.654 262.928 318.58 269C318.58 269.19 318.58 269.38 318.58 269.56H301.43C300.104 269.56 298.832 270.087 297.894 271.024C296.957 271.962 296.43 273.234 296.43 274.56H410.43C410.43 272.552 409.632 270.627 408.213 269.207C406.793 267.788 404.868 266.99 402.86 266.99L384 267Z" fill="#4B0062"/>
<path d="M411 275H296V274.5C296.003 273.053 296.579 271.666 297.602 270.642C298.625 269.619 300.013 269.043 301.46 269.04H318.11V269C318.208 264.004 319.881 259.167 322.89 255.179C325.899 251.19 330.091 248.253 334.868 246.788C339.645 245.322 344.763 245.403 349.491 247.017C354.22 248.632 358.317 251.699 361.2 255.78C363.378 254.575 365.809 253.898 368.296 253.805C370.783 253.712 373.258 254.204 375.52 255.242C377.783 256.28 379.769 257.835 381.32 259.782C382.871 261.729 383.943 264.013 384.45 266.45H402.92C405.059 266.453 407.111 267.304 408.623 268.817C410.136 270.329 410.987 272.381 410.99 274.52L411 275ZM297 274H409.94C409.811 272.217 409.013 270.549 407.705 269.33C406.398 268.112 404.677 267.433 402.89 267.43H383.59L383.52 267.02C383.094 264.655 382.101 262.429 380.628 260.531C379.154 258.633 377.244 257.12 375.059 256.121C372.874 255.122 370.479 254.666 368.08 254.793C365.68 254.92 363.347 255.626 361.28 256.85L360.87 257.09L360.61 256.7C357.909 252.698 354.002 249.661 349.458 248.03C344.913 246.399 339.967 246.259 335.337 247.63C330.708 249.001 326.635 251.812 323.712 255.655C320.789 259.498 319.166 264.172 319.08 269C319.08 269.18 319.08 269.36 319.08 269.53V270.06H301.43C300.338 270.062 299.284 270.464 298.468 271.19C297.652 271.916 297.13 272.915 297 274Z" fill="#4B0062"/>
<path d="M191.792 185.478L190.804 185.63L218.673 366.698L219.662 366.546L191.792 185.478Z" fill="#4B0062"/>
<path d="M252.45 243.22V259.05H192.2V248.25C192.2 246.924 192.727 245.652 193.664 244.714C194.602 243.777 195.874 243.25 197.2 243.25L252.45 243.22Z" fill="#4B0062"/>
<path d="M252.95 259.55H191.7V248.25C191.7 246.783 192.283 245.377 193.32 244.34C194.357 243.303 195.763 242.72 197.23 242.72H252.95V259.55ZM192.7 258.55H251.95V243.72H197.23C196.029 243.72 194.876 244.197 194.027 245.047C193.177 245.896 192.7 247.049 192.7 248.25V258.55Z" fill="#4B0062"/>
<path d="M295.49 354.28L274.76 244.37C278.191 241.62 280.955 238.128 282.843 234.156C284.73 230.185 285.694 225.837 285.66 221.44C285.66 208.06 276.96 196.83 265.22 193.77C261.033 192.681 256.637 192.681 252.45 193.77V193.66L252.19 193.84C251.76 193.95 251.33 194.06 250.91 194.2C245.362 196.032 240.558 199.615 237.22 204.41L219.64 228H208.86L226 254.74H239.48L220.71 354.28H295.49Z" fill="#4B0062"/>
<path d="M296.09 354.78H220.09L220.2 354.19L238.86 255.24H225.73L207.94 227.54H219.39L236.84 204.06C240.249 199.203 245.129 195.571 250.76 193.7C251.11 193.58 251.48 193.49 251.84 193.39H251.97L252.97 192.7V193.14C257.057 192.199 261.312 192.261 265.37 193.32C277.62 196.51 286.18 208.09 286.18 221.47C286.199 225.889 285.235 230.256 283.358 234.256C281.482 238.257 278.74 241.79 275.33 244.6L296.09 354.78ZM221.31 353.78H294.88L274.21 244.17L274.45 243.98C277.812 241.268 280.521 237.833 282.375 233.931C284.229 230.029 285.181 225.76 285.16 221.44C285.16 208.51 276.91 197.33 265.09 194.25C260.984 193.188 256.676 193.188 252.57 194.25L252.1 194.38C251.75 194.47 251.41 194.56 251.1 194.68C245.666 196.485 240.957 199.991 237.67 204.68L237.59 204.79L219.9 228.54H209.77L226.27 254.24H240.08L239.97 254.83L221.31 353.78Z" fill="#4B0062"/>
<path d="M242.25 242.72H197.23V243.72H242.25V242.72Z" fill="#A26BB4"/>
<path d="M236.46 220.91C236.46 209.48 246.37 200.21 258.59 200.21C270.81 200.21 280.72 209.48 280.72 220.91C280.688 224.208 279.851 227.448 278.283 230.35C276.714 233.251 274.462 235.726 271.72 237.56V243.85C271.72 244.487 271.467 245.097 271.017 245.547C270.567 245.997 269.957 246.25 269.32 246.25C268.683 246.25 268.073 245.997 267.623 245.547C267.173 245.097 266.92 244.487 266.92 243.85C266.92 244.487 266.667 245.097 266.217 245.547C265.767 245.997 265.157 246.25 264.52 246.25C263.883 246.25 263.273 245.997 262.823 245.547C262.373 245.097 262.12 244.487 262.12 243.85C262.12 244.487 261.867 245.097 261.417 245.547C260.967 245.997 260.357 246.25 259.72 246.25C259.083 246.25 258.473 245.997 258.023 245.547C257.573 245.097 257.32 244.487 257.32 243.85C257.32 244.487 257.067 245.097 256.617 245.547C256.167 245.997 255.557 246.25 254.92 246.25C254.283 246.25 253.673 245.997 253.223 245.547C252.773 245.097 252.52 244.487 252.52 243.85C252.52 244.487 252.267 245.097 251.817 245.547C251.367 245.997 250.757 246.25 250.12 246.25C249.483 246.25 248.873 245.997 248.423 245.547C247.973 245.097 247.72 244.487 247.72 243.85V238.85C244.388 237.168 241.578 234.608 239.594 231.447C237.609 228.285 236.526 224.642 236.46 220.91Z" fill="#FFF0DC"/>
<path d="M269.34 246.76C268.861 246.76 268.389 246.642 267.966 246.415C267.544 246.188 267.185 245.86 266.92 245.46C266.655 245.858 266.296 246.185 265.875 246.41C265.454 246.636 264.983 246.754 264.505 246.754C264.027 246.754 263.556 246.636 263.135 246.41C262.714 246.185 262.355 245.858 262.09 245.46C261.827 245.86 261.468 246.189 261.047 246.416C260.625 246.644 260.154 246.763 259.675 246.763C259.196 246.763 258.725 246.644 258.303 246.416C257.881 246.189 257.523 245.86 257.26 245.46C256.997 245.86 256.638 246.189 256.217 246.416C255.795 246.644 255.324 246.763 254.845 246.763C254.366 246.763 253.895 246.644 253.473 246.416C253.052 246.189 252.693 245.86 252.43 245.46C252.085 245.976 251.583 246.367 250.998 246.577C250.414 246.786 249.778 246.803 249.183 246.624C248.589 246.445 248.068 246.079 247.696 245.582C247.325 245.084 247.123 244.481 247.12 243.86V239.19C243.798 237.419 241.014 234.788 239.057 231.572C237.101 228.357 236.045 224.674 236 220.91C236 209.22 246.15 199.71 258.63 199.71C271.11 199.71 281.26 209.22 281.26 220.91C281.219 224.242 280.381 227.517 278.815 230.459C277.249 233.401 275.001 235.925 272.26 237.82V243.82C272.265 244.206 272.194 244.589 272.049 244.947C271.904 245.305 271.69 245.63 271.418 245.904C271.146 246.177 270.822 246.394 270.465 246.541C270.108 246.688 269.726 246.763 269.34 246.76ZM266.41 243.36H267.41V243.86C267.391 244.12 267.426 244.382 267.513 244.628C267.599 244.875 267.736 245.1 267.914 245.292C268.091 245.483 268.307 245.635 268.546 245.74C268.786 245.844 269.044 245.898 269.305 245.898C269.566 245.898 269.824 245.844 270.064 245.74C270.303 245.635 270.519 245.483 270.696 245.292C270.874 245.1 271.011 244.875 271.097 244.628C271.184 244.382 271.219 244.12 271.2 243.86V237.3L271.42 237.15C274.085 235.353 276.274 232.936 277.802 230.108C279.329 227.28 280.148 224.124 280.19 220.91C280.19 209.77 270.49 200.71 258.56 200.71C246.63 200.71 237 209.77 237 220.91C237.058 224.544 238.101 228.095 240.019 231.182C241.937 234.269 244.658 236.778 247.89 238.44L248.15 238.58V243.85C248.131 244.11 248.166 244.372 248.253 244.618C248.339 244.865 248.476 245.09 248.654 245.282C248.831 245.473 249.047 245.625 249.286 245.73C249.526 245.834 249.784 245.888 250.045 245.888C250.306 245.888 250.564 245.834 250.804 245.73C251.043 245.625 251.259 245.473 251.436 245.282C251.614 245.09 251.751 244.865 251.837 244.618C251.924 244.372 251.959 244.11 251.94 243.85V243.35H252.94V243.85C252.94 244.354 253.14 244.837 253.496 245.194C253.853 245.55 254.336 245.75 254.84 245.75C255.344 245.75 255.827 245.55 256.184 245.194C256.54 244.837 256.74 244.354 256.74 243.85V243.35H257.74V243.85C257.721 244.11 257.756 244.372 257.843 244.618C257.929 244.865 258.066 245.09 258.244 245.282C258.421 245.473 258.637 245.625 258.876 245.73C259.116 245.834 259.374 245.888 259.635 245.888C259.896 245.888 260.154 245.834 260.394 245.73C260.633 245.625 260.849 245.473 261.026 245.282C261.204 245.09 261.341 244.865 261.427 244.618C261.514 244.372 261.549 244.11 261.53 243.85V243.35H262.53V243.85C262.53 244.354 262.73 244.837 263.086 245.194C263.443 245.55 263.926 245.75 264.43 245.75C264.934 245.75 265.417 245.55 265.773 245.194C266.13 244.837 266.33 244.354 266.33 243.85L266.41 243.36Z" fill="#4B0062"/>
<path d="M642.63 475.11H573.87V406.5C573.792 401.936 574.624 397.403 576.316 393.164C578.009 388.926 580.529 385.066 583.728 381.812C586.928 378.557 590.744 375.972 594.953 374.207C599.162 372.442 603.681 371.534 608.245 371.534C612.809 371.534 617.328 372.442 621.537 374.207C625.746 375.972 629.562 378.557 632.762 381.812C635.962 385.066 638.481 388.926 640.174 393.164C641.866 397.403 642.698 401.936 642.62 406.5L642.63 475.11Z" fill="#A26BB4"/>
<path d="M643.13 475.61H573.38V406.5C573.302 401.87 574.146 397.272 575.863 392.972C577.581 388.672 580.137 384.757 583.383 381.455C586.629 378.154 590.5 375.531 594.771 373.741C599.041 371.951 603.625 371.029 608.255 371.029C612.885 371.029 617.469 371.951 621.739 373.741C626.01 375.531 629.881 378.154 633.127 381.455C636.373 384.757 638.929 388.672 640.647 392.972C642.364 397.272 643.208 401.87 643.13 406.5V475.61ZM574.38 474.61H642.13V406.5C642.207 402.002 641.388 397.535 639.721 393.357C638.053 389.179 635.57 385.376 632.417 382.168C629.263 378.96 625.503 376.412 621.355 374.673C617.206 372.934 612.753 372.038 608.255 372.038C603.757 372.038 599.304 372.934 595.155 374.673C591.007 376.412 587.247 378.96 584.093 382.168C580.94 385.376 578.457 389.179 576.789 393.357C575.122 397.535 574.303 402.002 574.38 406.5V474.61Z" fill="#4B0062"/>
<path d="M635.63 471.11V406.5C635.7 402.861 635.043 399.245 633.698 395.863C632.354 392.48 630.349 389.4 627.8 386.802C625.251 384.204 622.21 382.14 618.854 380.731C615.498 379.322 611.895 378.597 608.255 378.597C604.615 378.597 601.012 379.322 597.656 380.731C594.3 382.14 591.259 384.204 588.71 386.802C586.161 389.4 584.156 392.48 582.812 395.863C581.467 399.245 580.81 402.861 580.88 406.5V471.11" fill="#A26BB4"/>
<path d="M636.13 471.11H635.13V406.5C635.199 402.927 634.555 399.376 633.235 396.055C631.915 392.734 629.947 389.71 627.444 387.159C624.942 384.608 621.956 382.581 618.661 381.198C615.366 379.814 611.829 379.102 608.255 379.102C604.681 379.102 601.144 379.814 597.849 381.198C594.554 382.581 591.568 384.608 589.066 387.159C586.563 389.71 584.595 392.734 583.275 396.055C581.955 399.376 581.311 402.927 581.38 406.5V471.11H580.38V406.5C580.31 402.795 580.979 399.113 582.348 395.67C583.718 392.226 585.76 389.09 588.355 386.445C590.95 383.8 594.047 381.699 597.464 380.265C600.881 378.831 604.549 378.092 608.255 378.092C611.961 378.092 615.629 378.831 619.046 380.265C622.463 381.699 625.56 383.8 628.155 386.445C630.75 389.09 632.792 392.226 634.162 395.67C635.531 399.113 636.2 402.795 636.13 406.5V471.11Z" fill="#4B0062"/>
<path d="M648.34 469.41H568.16V475.88H648.34V469.41Z" fill="#A26BB4"/>
<path d="M648.84 476.38H567.66V468.91H648.84V476.38ZM568.66 475.38H647.84V469.91H568.66V475.38Z" fill="#4B0062"/>
<path d="M345.45 436.76H344.45V441.69H345.45V436.76Z" fill="#4B0062"/>
<path d="M342.05 451.82L347.69 451.12V440.49L342.05 441.19V451.82Z" fill="#FFF0DC"/>
<path d="M341.55 452.39V440.75L348.19 439.92V451.56L341.55 452.39ZM342.55 441.64V451.26L347.19 450.68V441.06L342.55 441.64Z" fill="#4B0062"/>
<path d="M330 459.43C330 451.86 336.56 445.72 344.65 445.72C352.74 445.72 359.3 451.86 359.3 459.43C359.275 461.609 358.72 463.748 357.684 465.665C356.647 467.581 355.16 469.217 353.35 470.43V474.6C353.35 475.022 353.182 475.426 352.884 475.724C352.586 476.022 352.182 476.19 351.76 476.19C351.338 476.19 350.934 476.022 350.636 475.724C350.338 475.426 350.17 475.022 350.17 474.6C350.17 475.022 350.002 475.426 349.704 475.724C349.406 476.022 349.002 476.19 348.58 476.19C348.158 476.19 347.754 476.022 347.456 475.724C347.158 475.426 346.99 475.022 346.99 474.6C346.99 475.022 346.822 475.426 346.524 475.724C346.226 476.022 345.822 476.19 345.4 476.19C344.978 476.19 344.574 476.022 344.276 475.724C343.978 475.426 343.81 475.022 343.81 474.6C343.81 475.022 343.642 475.426 343.344 475.724C343.046 476.022 342.642 476.19 342.22 476.19C341.798 476.19 341.394 476.022 341.096 475.724C340.798 475.426 340.63 475.022 340.63 474.6C340.63 475.022 340.462 475.426 340.164 475.724C339.866 476.022 339.462 476.19 339.04 476.19C338.618 476.19 338.214 476.022 337.916 475.724C337.618 475.426 337.45 475.022 337.45 474.6V471.31C335.245 470.195 333.386 468.499 332.073 466.406C330.76 464.313 330.043 461.901 330 459.43Z" fill="#FFF0DC"/>
<path d="M351.81 476.72C351.614 476.487 351.369 476.299 351.093 476.17C350.816 476.041 350.515 475.975 350.21 475.975C349.905 475.975 349.604 476.041 349.327 476.17C349.051 476.299 348.806 476.487 348.61 476.72C348.415 476.485 348.17 476.296 347.894 476.166C347.617 476.036 347.315 475.969 347.01 475.969C346.705 475.969 346.403 476.036 346.126 476.166C345.85 476.296 345.605 476.485 345.41 476.72C345.214 476.487 344.969 476.299 344.693 476.17C344.416 476.041 344.115 475.975 343.81 475.975C343.505 475.975 343.204 476.041 342.927 476.17C342.651 476.299 342.406 476.487 342.21 476.72C342.015 476.485 341.77 476.296 341.494 476.166C341.217 476.036 340.915 475.969 340.61 475.969C340.305 475.969 340.003 476.036 339.726 476.166C339.45 476.296 339.205 476.485 339.01 476.72C338.456 476.72 337.924 476.5 337.532 476.108C337.14 475.716 336.92 475.184 336.92 474.63V471.63C334.715 470.437 332.868 468.678 331.569 466.533C330.27 464.389 329.566 461.937 329.53 459.43C329.53 451.59 336.33 445.22 344.69 445.22C353.05 445.22 359.84 451.6 359.84 459.43C359.814 461.649 359.261 463.829 358.226 465.792C357.192 467.755 355.705 469.444 353.89 470.72V474.63C353.89 475.183 353.671 475.713 353.281 476.104C352.892 476.496 352.363 476.717 351.81 476.72ZM349.7 474.13H350.7V474.63C350.7 474.919 350.815 475.196 351.019 475.401C351.224 475.605 351.501 475.72 351.79 475.72C352.079 475.72 352.356 475.605 352.561 475.401C352.765 475.196 352.88 474.919 352.88 474.63V470.2L353.1 470.05C354.842 468.875 356.274 467.295 357.272 465.445C358.27 463.596 358.804 461.532 358.83 459.43C358.83 452.15 352.48 446.22 344.68 446.22C336.88 446.22 330.52 452.15 330.52 459.43C330.558 461.806 331.24 464.127 332.494 466.145C333.748 468.164 335.527 469.804 337.64 470.89L337.9 471.03V474.62C337.9 474.909 338.015 475.186 338.219 475.391C338.424 475.595 338.701 475.71 338.99 475.71C339.279 475.71 339.556 475.595 339.761 475.391C339.965 475.186 340.08 474.909 340.08 474.62V474.12H341.08V474.62C341.08 474.909 341.195 475.186 341.399 475.391C341.604 475.595 341.881 475.71 342.17 475.71C342.459 475.71 342.736 475.595 342.941 475.391C343.145 475.186 343.26 474.909 343.26 474.62V474.12H344.26V474.62C344.26 474.909 344.375 475.186 344.579 475.391C344.784 475.595 345.061 475.71 345.35 475.71C345.639 475.71 345.916 475.595 346.121 475.391C346.325 475.186 346.44 474.909 346.44 474.62V474.12H347.44V474.62C347.44 474.909 347.555 475.186 347.759 475.391C347.964 475.595 348.241 475.71 348.53 475.71C348.819 475.71 349.096 475.595 349.301 475.391C349.505 475.186 349.62 474.909 349.62 474.62L349.7 474.13Z" fill="#4B0062"/>
<path d="M351.8 476.72C351.245 476.72 350.712 476.5 350.319 476.108C349.925 475.717 349.703 475.185 349.7 474.63V472.86H350.7V474.63C350.7 474.922 350.816 475.202 351.022 475.408C351.228 475.614 351.508 475.73 351.8 475.73C352.092 475.73 352.372 475.614 352.578 475.408C352.784 475.202 352.9 474.922 352.9 474.63V470.46H353.9V474.63C353.897 475.185 353.675 475.717 353.281 476.108C352.888 476.5 352.355 476.72 351.8 476.72Z" fill="#4B0062"/>
<path d="M348.6 476.72C348.045 476.72 347.512 476.5 347.119 476.108C346.725 475.717 346.503 475.185 346.5 474.63V472.86H347.5V474.63C347.503 474.845 347.569 475.055 347.69 475.233C347.811 475.411 347.982 475.55 348.181 475.632C348.38 475.714 348.599 475.735 348.81 475.694C349.022 475.653 349.216 475.551 349.37 475.4C349.472 475.299 349.552 475.179 349.607 475.047C349.662 474.915 349.69 474.773 349.69 474.63H350.69C350.687 475.185 350.465 475.717 350.071 476.108C349.678 476.5 349.145 476.72 348.59 476.72H348.6Z" fill="#4B0062"/>
<path d="M345.41 476.72C344.855 476.72 344.322 476.5 343.929 476.108C343.535 475.717 343.313 475.185 343.31 474.63V472.86H344.31V474.63C344.336 474.902 344.463 475.155 344.665 475.339C344.868 475.523 345.131 475.625 345.405 475.625C345.679 475.625 345.942 475.523 346.145 475.339C346.347 475.155 346.474 474.902 346.5 474.63H347.5C347.5 475.184 347.28 475.716 346.888 476.108C346.496 476.5 345.964 476.72 345.41 476.72Z" fill="#4B0062"/>
<path d="M342.21 476.72C341.656 476.72 341.124 476.5 340.732 476.108C340.34 475.716 340.12 475.184 340.12 474.63V472.86H341.12V474.63C341.146 474.902 341.273 475.155 341.475 475.339C341.678 475.523 341.941 475.625 342.215 475.625C342.489 475.625 342.752 475.523 342.955 475.339C343.157 475.155 343.284 474.902 343.31 474.63H344.31C344.307 475.185 344.085 475.717 343.691 476.108C343.298 476.5 342.765 476.72 342.21 476.72Z" fill="#4B0062"/>
<path d="M339 476.72C338.445 476.72 337.912 476.5 337.519 476.108C337.125 475.717 336.903 475.185 336.9 474.63V472.86H337.9V474.63C337.9 474.922 338.016 475.202 338.222 475.408C338.428 475.614 338.708 475.73 339 475.73C339.292 475.73 339.572 475.614 339.778 475.408C339.984 475.202 340.1 474.922 340.1 474.63H341.1C341.097 475.185 340.875 475.717 340.481 476.108C340.088 476.5 339.555 476.72 339 476.72Z" fill="#4B0062"/>
<path d="M351.51 464.14C353.272 464.14 354.7 462.712 354.7 460.95C354.7 459.188 353.272 457.76 351.51 457.76C349.748 457.76 348.32 459.188 348.32 460.95C348.32 462.712 349.748 464.14 351.51 464.14Z" fill="#4B0062"/>
<path d="M341.51 464.14C343.272 464.14 344.7 462.712 344.7 460.95C344.7 459.188 343.272 457.76 341.51 457.76C339.748 457.76 338.32 459.188 338.32 460.95C338.32 462.712 339.748 464.14 341.51 464.14Z" fill="#4B0062"/>
<path d="M337.79 447.34C338.006 447.706 338.32 448.005 338.696 448.202C339.072 448.4 339.496 448.489 339.92 448.46C341.78 448.38 340.99 449.46 342.52 449.86C344.05 450.26 344.62 448.86 346.44 448.46C348.26 448.06 349.16 449.74 350.77 449.04C351.49 448.73 351.58 448.04 351.35 447.22C349.229 446.215 346.908 445.703 344.561 445.724C342.214 445.745 339.903 446.297 337.8 447.34H337.79Z" fill="#FFF0DC"/>
<path d="M343 450.42C342.794 450.418 342.589 450.391 342.39 450.34C342.1 450.281 341.825 450.161 341.583 449.989C341.342 449.817 341.14 449.596 340.99 449.34C340.78 449.04 340.68 448.89 339.93 448.93C339.416 448.965 338.903 448.856 338.447 448.616C337.992 448.375 337.612 448.013 337.35 447.57L337.07 447.11L337.55 446.87C339.764 445.765 342.206 445.194 344.68 445.2C347.058 445.189 349.407 445.719 351.55 446.75L351.75 446.85L351.81 447.06C352.27 448.64 351.47 449.25 350.95 449.47C350.532 449.631 350.084 449.697 349.637 449.662C349.191 449.628 348.758 449.494 348.37 449.27C347.808 448.956 347.157 448.836 346.52 448.93C345.918 449.075 345.351 449.337 344.85 449.7C344.32 450.121 343.675 450.372 343 450.42ZM340.11 448C340.448 447.96 340.791 448.019 341.096 448.17C341.401 448.321 341.656 448.557 341.83 448.85C341.914 448.999 342.03 449.128 342.171 449.227C342.311 449.325 342.471 449.391 342.64 449.42C343.3 449.58 343.71 449.32 344.33 448.92C344.93 448.488 345.61 448.179 346.33 448.01C347.165 447.872 348.023 448.013 348.77 448.41C349.031 448.583 349.329 448.692 349.64 448.728C349.951 448.765 350.266 448.728 350.56 448.62C350.73 448.54 351.08 448.4 350.91 447.62C348.957 446.72 346.83 446.259 344.68 446.27C342.575 446.27 340.493 446.713 338.57 447.57C338.935 447.885 339.409 448.043 339.89 448.01L340.11 448Z" fill="#4B0062"/>
<path d="M346.58 465.4L347.95 469.94H345.21L346.58 465.4Z" fill="#4B0062"/>
<path d="M345.06 429.85L346.93 436.04C347.007 436.331 347.017 436.635 346.96 436.931C346.903 437.226 346.78 437.505 346.6 437.746C346.421 437.987 346.189 438.185 345.922 438.324C345.655 438.463 345.361 438.54 345.06 438.55C344.759 438.54 344.465 438.463 344.198 438.324C343.931 438.185 343.7 437.987 343.52 437.746C343.34 437.505 343.217 437.226 343.16 436.931C343.103 436.635 343.113 436.331 343.19 436.04L345.06 429.85Z" fill="#F44B1B"/>
<path d="M345.06 439C344.677 439.001 344.299 438.912 343.957 438.74C343.615 438.569 343.317 438.319 343.089 438.012C342.86 437.705 342.707 437.348 342.641 436.971C342.576 436.594 342.599 436.206 342.71 435.84L345.06 428.07L347.4 435.84C347.511 436.206 347.534 436.592 347.469 436.969C347.404 437.345 347.251 437.701 347.024 438.008C346.797 438.315 346.501 438.565 346.16 438.737C345.819 438.909 345.442 438.999 345.06 439ZM345.06 431.53L343.67 436.13C343.604 436.346 343.589 436.574 343.627 436.796C343.666 437.019 343.756 437.229 343.89 437.41C344.03 437.585 344.207 437.726 344.408 437.824C344.61 437.921 344.831 437.971 345.055 437.971C345.279 437.971 345.5 437.921 345.702 437.824C345.903 437.726 346.08 437.585 346.22 437.41C346.354 437.229 346.444 437.019 346.483 436.796C346.521 436.574 346.506 436.346 346.44 436.13L345.06 431.53Z" fill="#4B0062"/>
<path d="M269.33 246.76C268.56 246.76 267.821 246.455 267.276 245.911C266.73 245.368 266.423 244.63 266.42 243.86V240.19H267.42V243.86C267.42 244.368 267.622 244.855 267.981 245.214C268.34 245.573 268.827 245.775 269.335 245.775C269.843 245.775 270.33 245.573 270.689 245.214C271.048 244.855 271.25 244.368 271.25 243.86V237.57H272.25V243.86C272.249 244.242 272.172 244.62 272.025 244.973C271.877 245.325 271.662 245.645 271.391 245.915C271.119 246.184 270.798 246.397 270.444 246.542C270.091 246.687 269.712 246.761 269.33 246.76Z" fill="#4B0062"/>
<path d="M264.5 246.76C263.73 246.76 262.991 246.455 262.446 245.911C261.9 245.368 261.593 244.63 261.59 243.86V240.18H262.59V243.86C262.592 244.237 262.706 244.604 262.916 244.917C263.127 245.229 263.425 245.472 263.774 245.615C264.122 245.759 264.505 245.796 264.875 245.722C265.244 245.648 265.583 245.466 265.85 245.2C266.028 245.025 266.168 244.816 266.265 244.586C266.361 244.356 266.41 244.109 266.41 243.86H267.41C267.397 244.614 267.088 245.332 266.55 245.86C266.285 246.138 265.967 246.361 265.615 246.516C265.263 246.67 264.884 246.753 264.5 246.76Z" fill="#4B0062"/>
<path d="M259.68 246.76C258.91 246.76 258.171 246.455 257.626 245.911C257.08 245.368 256.773 244.63 256.77 243.86V240.18H257.77V243.86C257.77 244.367 257.971 244.852 258.329 245.211C258.688 245.569 259.173 245.77 259.68 245.77C260.187 245.77 260.672 245.569 261.031 245.211C261.389 244.852 261.59 244.367 261.59 243.86H262.59C262.587 244.63 262.28 245.368 261.734 245.911C261.189 246.455 260.45 246.76 259.68 246.76Z" fill="#4B0062"/>
<path d="M254.85 246.76C254.08 246.76 253.341 246.455 252.796 245.911C252.25 245.368 251.943 244.63 251.94 243.86V240.18H252.94V243.86C252.94 244.367 253.141 244.852 253.499 245.211C253.858 245.569 254.343 245.77 254.85 245.77C255.357 245.77 255.842 245.569 256.201 245.211C256.559 244.852 256.76 244.367 256.76 243.86H257.76C257.757 244.63 257.45 245.368 256.904 245.911C256.359 246.455 255.62 246.76 254.85 246.76Z" fill="#4B0062"/>
<path d="M250 246.76C249.23 246.76 248.491 246.455 247.946 245.911C247.4 245.368 247.093 244.63 247.09 243.86V241.18H248.09V243.86C248.09 244.368 248.292 244.855 248.651 245.214C249.01 245.573 249.497 245.775 250.005 245.775C250.513 245.775 251 245.573 251.359 245.214C251.718 244.855 251.92 244.368 251.92 243.86H252.92C252.919 244.242 252.842 244.62 252.695 244.973C252.547 245.325 252.332 245.645 252.061 245.915C251.789 246.184 251.468 246.397 251.114 246.542C250.761 246.687 250.382 246.761 250 246.76Z" fill="#4B0062"/>
<path d="M269.33 228.89C272.229 228.89 274.58 226.54 274.58 223.64C274.58 220.741 272.229 218.39 269.33 218.39C266.43 218.39 264.08 220.741 264.08 223.64C264.08 226.54 266.43 228.89 269.33 228.89Z" fill="#F44B1B"/>
<path d="M269.33 229.39C268.193 229.39 267.081 229.053 266.135 228.421C265.19 227.789 264.453 226.891 264.018 225.84C263.583 224.79 263.469 223.634 263.691 222.518C263.912 221.403 264.46 220.378 265.264 219.574C266.068 218.77 267.093 218.222 268.208 218.001C269.324 217.779 270.48 217.893 271.53 218.328C272.581 218.763 273.479 219.5 274.111 220.445C274.743 221.391 275.08 222.503 275.08 223.64C275.077 225.164 274.471 226.625 273.393 227.703C272.315 228.781 270.854 229.387 269.33 229.39ZM269.33 218.89C268.391 218.89 267.472 219.169 266.691 219.691C265.91 220.212 265.301 220.954 264.942 221.822C264.582 222.69 264.488 223.645 264.671 224.567C264.855 225.488 265.307 226.334 265.971 226.999C266.636 227.663 267.482 228.115 268.403 228.299C269.325 228.482 270.28 228.388 271.148 228.028C272.016 227.669 272.758 227.06 273.279 226.279C273.801 225.498 274.08 224.579 274.08 223.64C274.077 222.381 273.576 221.174 272.686 220.284C271.796 219.394 270.589 218.893 269.33 218.89Z" fill="#4B0062"/>
<path d="M254.22 228.89C257.119 228.89 259.47 226.54 259.47 223.64C259.47 220.741 257.119 218.39 254.22 218.39C251.321 218.39 248.97 220.741 248.97 223.64C248.97 226.54 251.321 228.89 254.22 228.89Z" fill="#F44B1B"/>
<path d="M254.22 229.39C253.083 229.39 251.971 229.053 251.025 228.421C250.08 227.789 249.343 226.891 248.908 225.84C248.472 224.79 248.359 223.634 248.58 222.518C248.802 221.403 249.35 220.378 250.154 219.574C250.958 218.77 251.983 218.222 253.098 218.001C254.214 217.779 255.37 217.893 256.42 218.328C257.471 218.763 258.369 219.5 259.001 220.445C259.633 221.391 259.97 222.503 259.97 223.64C259.967 225.164 259.361 226.625 258.283 227.703C257.205 228.781 255.744 229.387 254.22 229.39ZM254.22 218.89C253.281 218.89 252.362 219.169 251.581 219.691C250.8 220.212 250.191 220.954 249.832 221.822C249.472 222.69 249.378 223.645 249.561 224.567C249.745 225.488 250.197 226.334 250.861 226.999C251.526 227.663 252.372 228.115 253.293 228.299C254.215 228.482 255.17 228.388 256.038 228.028C256.906 227.669 257.648 227.06 258.169 226.279C258.691 225.498 258.97 224.579 258.97 223.64C258.967 222.381 258.466 221.174 257.576 220.284C256.686 219.394 255.479 218.893 254.22 218.89Z" fill="#4B0062"/>
<path d="M261.45 229.92L263.52 236.78H259.38L261.45 229.92Z" fill="#4B0062"/>
<path d="M179.54 413.63C178.977 408.135 176.535 403.003 172.628 399.099C168.72 395.195 163.585 392.758 158.09 392.2L157.09 384.02L167.64 382.75L166.35 372L155.81 373.27L154.67 363.84L143.97 365.14L145.11 374.57L134.57 375.84L135.86 386.54L146.4 385.27L147.4 393.48C142.335 395.299 138.029 398.768 135.172 403.329C132.316 407.89 131.075 413.279 131.65 418.63L137.65 475.3H186L179.54 413.63Z" fill="#A26BB4"/>
<path d="M186.59 475.84H137.17L131.17 418.72C130.599 413.328 131.829 407.899 134.67 403.28C137.51 398.661 141.8 395.113 146.87 393.19L145.98 385.87L135.44 387.14L134 375.45L144.54 374.18L143.4 364.75L155.09 363.33L156.23 372.77L166.77 371.5L168.18 383.19L157.64 384.46L158.52 391.75C164.036 392.437 169.159 394.966 173.058 398.928C176.956 402.891 179.403 408.053 180 413.58L186.59 475.84ZM138.06 474.84H185.47L179 413.68C178.422 408.309 176.023 403.297 172.203 399.477C168.383 395.657 163.371 393.258 158 392.68H157.6L156.5 383.6L167.04 382.33L165.87 372.62L155.34 373.89L155.27 373.41L154.19 364.41L144.48 365.59L145.62 375.02L135.08 376.29L136.3 386L146.84 384.73L147.95 393.83L147.58 393.97C142.625 395.759 138.414 399.158 135.618 403.623C132.823 408.088 131.605 413.361 132.16 418.6L138.06 474.84Z" fill="#4B0062"/>
<path d="M143 469.34H179.35L173.54 414.26C173.037 409.486 170.659 405.107 166.928 402.087C163.197 399.067 158.419 397.652 153.645 398.155C148.871 398.658 144.492 401.036 141.472 404.767C138.452 408.498 137.037 413.276 137.54 418.05L143 469.34Z" fill="#A26BB4"/>
<path d="M179.93 469.84H142.57L137.12 418.1C136.818 415.651 137.008 413.166 137.677 410.791C138.346 408.416 139.481 406.198 141.017 404.266C142.552 402.335 144.457 400.728 146.62 399.541C148.783 398.354 151.161 397.609 153.615 397.351C156.069 397.092 158.55 397.325 160.913 398.036C163.276 398.747 165.474 399.922 167.378 401.491C169.282 403.06 170.855 404.993 172.004 407.177C173.153 409.361 173.855 411.752 174.07 414.21L179.93 469.84ZM143.47 468.84H178.82L173.07 414.31C172.582 409.669 170.27 405.411 166.643 402.475C163.016 399.538 158.371 398.162 153.73 398.65C149.089 399.138 144.831 401.45 141.895 405.077C138.958 408.704 137.582 413.349 138.07 417.99L143.47 468.84Z" fill="#4B0062"/>
<path d="M165.556 424.142L148.53 426.2L149.024 430.29L166.05 428.233L165.556 424.142Z" fill="#A26BB4"/>
<path d="M148.58 430.85L147.96 425.76L165.96 423.58L166.58 428.67L148.58 430.85ZM149.08 426.64L149.46 429.74L165.46 427.8L165.09 424.7L149.08 426.64Z" fill="#4B0062"/>
<path d="M162.869 440.727L155.105 441.659L155.224 442.652L162.988 441.72L162.869 440.727Z" fill="#4B0062"/>
<path d="M162.383 436.624L154.619 437.557L154.739 438.55L162.503 437.617L162.383 436.624Z" fill="#4B0062"/>
<path d="M307.48 455.14H201.31V476.21H307.48V455.14Z" fill="#A26BB4"/>
<path d="M308 476.72H200.81V454.64H308V476.72ZM201.83 475.72H307V455.64H201.81L201.83 475.72Z" fill="#4B0062"/>
<path d="M300.21 440.49H208.58V455.14H300.21V440.49Z" fill="#A26BB4"/>
<path d="M300.72 455.64H208.08V440H300.71L300.72 455.64ZM209.09 454.64H299.72V441H209.08L209.09 454.64Z" fill="#4B0062"/>
<path d="M294.4 375.71H219.15V440.49H294.4V375.71Z" fill="#A26BB4"/>
<path d="M294.9 441H218.65V375.21H294.9V441ZM219.65 440H293.9V376.21H219.65V440Z" fill="#4B0062"/>
<path d="M307.48 354.28H206.07V375.71H307.48V354.28Z" fill="#A26BB4"/>
<path d="M308 376.21H205.57V353.78H308V376.21ZM206.59 375.21H307V354.78H206.57L206.59 375.21Z" fill="#4B0062"/>
<path d="M204.36 243.22V259.05H192.2V248.25C192.2 246.924 192.727 245.652 193.664 244.714C194.602 243.777 195.874 243.25 197.2 243.25L204.36 243.22Z" fill="#FFF0DC"/>
<path d="M204.86 259.55H191.7V248.25C191.7 246.783 192.283 245.377 193.32 244.34C194.357 243.303 195.763 242.72 197.23 242.72H204.86V259.55ZM192.7 258.55H203.86V243.72H197.23C196.029 243.72 194.876 244.197 194.027 245.047C193.177 245.896 192.7 247.049 192.7 248.25V258.55Z" fill="#4B0062"/>
<path d="M201.48 254.27H191.7V248H201.48V249H192.7V253.27H201.48V254.27Z" fill="#4B0062"/>
<path d="M296.47 204.84C296.47 205.4 296.47 205.96 296.41 206.51C290.53 190.93 269.69 181.72 244.88 185.2C222.83 188.29 203.88 200.52 195.88 215.29L191.31 185.57C202.31 177.47 218.31 171.9 236.13 170.97C269.45 169.22 296.47 184.38 296.47 204.84Z" fill="#A26BB4"/>
<path d="M195.59 216.83L190.75 185.35L190.99 185.17C202.5 176.73 218.93 171.37 236.08 170.47C257.4 169.34 276.78 175.01 287.95 185.61C293.85 191.2 296.95 197.85 296.95 204.84C296.95 205.41 296.95 205.98 296.89 206.55L296.72 208.81L295.92 206.69C289.98 190.95 269.01 182.32 244.92 185.69C223.63 188.69 204.53 200.38 196.27 215.52L195.59 216.83ZM191.83 185.83L196.14 213.83C204.9 199.03 223.81 187.68 244.82 184.74C268.27 181.45 288.82 189.41 295.97 204.23C295.78 197.77 292.79 191.61 287.28 186.38C276.28 175.96 257.18 170.38 236.15 171.51C219.3 172.35 203.17 177.57 191.83 185.79V185.83Z" fill="#4B0062"/>
<path d="M241.83 445.04H240.83V455.14H241.83V445.04Z" fill="#4B0062"/>
<path d="M258.08 454.34H257.08V468.92H258.08V454.34Z" fill="#4B0062"/>
<path d="M257.58 448.93L259.9 456.62C260.009 456.982 260.032 457.364 259.967 457.737C259.902 458.109 259.751 458.461 259.525 458.764C259.3 459.067 259.006 459.314 258.669 459.483C258.331 459.653 257.958 459.741 257.58 459.74C257.202 459.741 256.829 459.653 256.491 459.483C256.154 459.314 255.86 459.067 255.635 458.764C255.409 458.461 255.258 458.109 255.193 457.737C255.128 457.364 255.151 456.982 255.26 456.62L257.58 448.93Z" fill="#F44B1B"/>
<path d="M257.58 460.24C257.123 460.241 256.673 460.135 256.264 459.93C255.856 459.725 255.502 459.428 255.229 459.061C254.957 458.694 254.775 458.269 254.696 457.819C254.618 457.369 254.647 456.907 254.78 456.47L257.58 447.2L260.38 456.47C260.513 456.907 260.542 457.369 260.463 457.819C260.385 458.269 260.203 458.694 259.931 459.061C259.658 459.428 259.304 459.725 258.896 459.93C258.487 460.135 258.037 460.241 257.58 460.24ZM257.58 450.66L255.74 456.76C255.653 457.047 255.635 457.35 255.687 457.646C255.739 457.941 255.86 458.22 256.04 458.46C256.228 458.688 256.463 458.872 256.731 458.998C256.998 459.125 257.29 459.19 257.585 459.19C257.88 459.19 258.172 459.125 258.439 458.998C258.707 458.872 258.942 458.688 259.13 458.46C259.31 458.22 259.431 457.941 259.483 457.646C259.535 457.35 259.517 457.047 259.43 456.76L257.58 450.66Z" fill="#4B0062"/>
<path d="M262.92 462.99H252.25V476.21H262.92V462.99Z" fill="#FFF0DC"/>
<path d="M263.42 476.72H251.75V462.49H263.42V476.72ZM252.75 475.72H262.42V463.49H252.75V475.72Z" fill="#4B0062"/>
<path d="M610.02 446.58H609.02V461.16H610.02V446.58Z" fill="#4B0062"/>
<path d="M609.52 439.91L612.25 448.91C612.378 449.336 612.404 449.785 612.328 450.223C612.251 450.661 612.073 451.074 611.807 451.431C611.542 451.788 611.197 452.077 610.8 452.277C610.403 452.476 609.964 452.58 609.52 452.58C609.076 452.58 608.637 452.476 608.24 452.277C607.843 452.077 607.498 451.788 607.233 451.431C606.968 451.074 606.789 450.661 606.712 450.223C606.636 449.785 606.662 449.336 606.79 448.91L609.52 439.91Z" fill="#F44B1B"/>
<path d="M609.52 453.12C608.997 453.121 608.481 452.999 608.013 452.764C607.546 452.529 607.14 452.188 606.828 451.768C606.516 451.348 606.306 450.861 606.216 450.345C606.126 449.83 606.159 449.301 606.31 448.8L609.52 438.18L612.73 448.8C612.881 449.301 612.914 449.83 612.824 450.345C612.734 450.861 612.525 451.348 612.212 451.768C611.9 452.188 611.494 452.529 611.027 452.764C610.559 452.999 610.043 453.121 609.52 453.12ZM609.52 441.64L607.27 449.09C607.164 449.441 607.142 449.812 607.205 450.173C607.268 450.534 607.415 450.875 607.634 451.17C607.852 451.464 608.137 451.703 608.464 451.868C608.792 452.032 609.153 452.118 609.52 452.118C609.887 452.118 610.248 452.032 610.576 451.868C610.903 451.703 611.188 451.464 611.406 451.17C611.625 450.875 611.772 450.534 611.835 450.173C611.898 449.812 611.876 449.441 611.77 449.09L609.52 441.64Z" fill="#4B0062"/>
<path d="M490.36 470.44H427.88V412.44H436.11V411.89C436.11 405.79 438.533 399.94 442.847 395.627C447.16 391.313 453.01 388.89 459.11 388.89C465.21 388.89 471.06 391.313 475.373 395.627C479.687 399.94 482.11 405.79 482.11 411.89V412.44H490.34L490.36 470.44Z" fill="#A26BB4"/>
<path d="M490.86 470.95H427.38V411.95H435.61V411.9C435.518 408.756 436.058 405.626 437.198 402.695C438.338 399.763 440.054 397.091 442.245 394.834C444.436 392.578 447.058 390.785 449.955 389.56C452.852 388.335 455.965 387.704 459.11 387.704C462.255 387.704 465.368 388.335 468.265 389.56C471.162 390.785 473.784 392.578 475.975 394.834C478.166 397.091 479.882 399.763 481.022 402.695C482.162 405.626 482.702 408.756 482.61 411.9V411.95H490.84L490.86 470.95ZM428.38 469.95H489.86V412.95H481.63V411.9C481.72 408.889 481.204 405.89 480.114 403.082C479.024 400.274 477.381 397.713 475.282 395.551C473.184 393.389 470.673 391.671 467.899 390.497C465.124 389.324 462.143 388.719 459.13 388.719C456.117 388.719 453.136 389.324 450.361 390.497C447.587 391.671 445.076 393.389 442.978 395.551C440.879 397.713 439.236 400.274 438.146 403.082C437.056 405.89 436.54 408.889 436.63 411.9V412.95H428.4L428.38 469.95Z" fill="#4B0062"/>
<path d="M434.88 465.44H483.36V419.44H475.13V411.89C475.13 407.647 473.444 403.577 470.444 400.576C467.443 397.576 463.373 395.89 459.13 395.89C454.887 395.89 450.817 397.576 447.816 400.576C444.816 403.577 443.13 407.647 443.13 411.89V419.44H434.9L434.88 465.44Z" fill="#A26BB4"/>
<path d="M483.86 465.95H434.38V418.95H442.61V411.9C442.533 409.685 442.903 407.477 443.697 405.408C444.491 403.338 445.695 401.45 447.234 399.856C448.774 398.262 450.619 396.994 452.659 396.128C454.7 395.262 456.893 394.815 459.11 394.815C461.326 394.815 463.52 395.262 465.561 396.128C467.601 396.994 469.446 398.262 470.986 399.856C472.525 401.45 473.729 403.338 474.523 405.408C475.317 407.477 475.687 409.685 475.61 411.9V418.95H483.84L483.86 465.95ZM435.38 464.95H482.86V419.95H474.63V411.9C474.705 409.818 474.359 407.742 473.614 405.796C472.869 403.85 471.739 402.074 470.292 400.575C468.846 399.075 467.112 397.882 465.194 397.068C463.276 396.253 461.214 395.833 459.13 395.833C457.046 395.833 454.984 396.253 453.066 397.068C451.148 397.882 449.414 399.075 447.968 400.575C446.521 402.074 445.391 403.85 444.646 405.796C443.901 407.742 443.555 409.818 443.63 411.9V419.95H435.4L435.38 464.95Z" fill="#4B0062"/>
<path d="M190.14 468.18H131.47V476.22H190.14V468.18Z" fill="#A26BB4"/>
<path d="M190.64 476.72H131V467.72H190.67L190.64 476.72ZM131.97 475.72H189.64V468.72H132L131.97 475.72Z" fill="#4B0062"/>
<path d="M247.18 451.37V476.22H235.48V450.78C237.035 452.327 239.127 453.215 241.32 453.26C242.374 453.364 243.439 453.251 244.447 452.925C245.455 452.6 246.385 452.071 247.18 451.37Z" fill="#FFF0DC"/>
<path d="M247.68 476.72H235V449.48L235.87 450.48C237.334 451.928 239.301 452.755 241.36 452.79C242.344 452.888 243.337 452.784 244.279 452.485C245.222 452.186 246.093 451.697 246.84 451.05L247.7 450.18L247.68 476.72ZM235.98 475.72H246.68V452.43C245.074 453.444 243.183 453.911 241.29 453.76C239.377 453.688 237.528 453.047 235.98 451.92V475.72Z" fill="#4B0062"/>
<path d="M241.33 433.5L244.4 443.68C244.545 444.159 244.576 444.666 244.49 445.16C244.404 445.653 244.204 446.12 243.906 446.522C243.608 446.924 243.219 447.251 242.772 447.477C242.325 447.702 241.831 447.82 241.33 447.82C240.829 447.82 240.335 447.702 239.888 447.477C239.441 447.251 239.052 446.924 238.754 446.522C238.456 446.12 238.255 445.653 238.17 445.16C238.084 444.666 238.115 444.159 238.26 443.68L241.33 433.5Z" fill="#F44B1B"/>
<path d="M241.33 448.32C240.751 448.32 240.181 448.184 239.664 447.924C239.148 447.664 238.699 447.286 238.354 446.822C238.009 446.358 237.777 445.819 237.678 445.249C237.578 444.679 237.613 444.094 237.78 443.54L241.33 431.77L244.88 443.54C245.047 444.094 245.082 444.679 244.982 445.249C244.883 445.819 244.651 446.358 244.306 446.822C243.961 447.286 243.512 447.664 242.996 447.924C242.479 448.184 241.909 448.32 241.33 448.32ZM241.33 435.23L238.74 443.83C238.618 444.235 238.593 444.662 238.666 445.079C238.739 445.495 238.908 445.889 239.16 446.228C239.412 446.567 239.74 446.843 240.118 447.032C240.496 447.222 240.912 447.321 241.335 447.321C241.758 447.321 242.174 447.222 242.552 447.032C242.93 446.843 243.258 446.567 243.51 446.228C243.762 445.889 243.931 445.495 244.004 445.079C244.077 444.662 244.052 444.235 243.93 443.83L241.33 435.23Z" fill="#4B0062"/>
<path d="M305.23 425.32L306.26 414.01L303.54 413.13L305.77 410.94L309.65 411.97L311.43 425.32H305.23Z" fill="#4B0062"/>
<path d="M312 425.82H304.68L305.68 414.36L302.56 413.36L305.56 410.36L310.03 411.54L312 425.82ZM305.78 424.82H310.86L309.2 412.36L305.92 411.49L304.48 412.9L306.79 413.65L305.78 424.82Z" fill="#4B0062"/>
<path d="M319.82 426C319.291 425.996 318.763 426.033 318.24 426.11C315.313 423.829 311.711 422.584 308 422.57C303.953 422.609 300.052 424.092 297 426.75C295.72 426.272 294.366 426.019 293 426C283.79 426 276.32 436.66 276.32 449.8C276.32 450.66 276.32 451.51 276.43 452.35C276.43 452.783 276.467 453.217 276.54 453.65C277.61 462.41 284.05 469.83 293.04 473.56C297.238 475.294 301.738 476.178 306.28 476.16C314.299 476.268 322.077 473.42 328.13 468.16C330.785 465.806 332.906 462.911 334.35 459.67C334.45 459.44 334.55 459.21 334.63 458.97C334.71 458.73 334.79 458.56 334.87 458.35C334.95 458.14 335.1 457.68 335.2 457.35C335.3 457.02 335.32 456.97 335.37 456.78C335.375 456.73 335.375 456.68 335.37 456.63C335.42 456.46 335.47 456.28 335.51 456.1C336.166 453.637 336.502 451.099 336.51 448.55C336.49 436.15 329 426 319.82 426Z" fill="#F48001"/>
<path d="M306.26 476.72C301.652 476.743 297.086 475.845 292.83 474.08C283.39 470.16 277.1 462.57 276.03 453.77V453.52C276.03 453.18 275.96 452.79 275.94 452.41C275.87 451.41 275.83 450.62 275.83 449.83C275.83 436.43 283.54 425.53 293.01 425.53C294.37 425.529 295.722 425.752 297.01 426.19C299.966 423.637 303.714 422.186 307.618 422.082C311.522 421.978 315.342 423.228 318.43 425.62C318.908 425.563 319.389 425.536 319.87 425.54C329.34 425.54 337.04 435.9 337.04 448.64C337.038 451.232 336.702 453.814 336.04 456.32C336.04 456.49 335.95 456.68 335.9 456.86C335.89 456.925 335.873 456.988 335.85 457.05C335.803 457.24 335.746 457.426 335.68 457.61C335.59 457.92 335.47 458.27 335.35 458.61L335.28 458.8C335.22 458.96 335.16 459.11 335.1 459.27C335.04 459.43 334.93 459.72 334.82 459.97C333.351 463.277 331.189 466.231 328.48 468.63C322.308 473.947 314.406 476.824 306.26 476.72ZM277.05 453.95C278.18 462.26 284.2 469.43 293.21 473.16C297.33 474.868 301.75 475.738 306.21 475.72C314.097 475.81 321.745 473.019 327.72 467.87C330.326 465.566 332.406 462.728 333.82 459.55C333.91 459.33 334.01 459.12 334.08 458.89C334.15 458.66 334.21 458.58 334.26 458.44L334.33 458.25C334.44 457.93 334.55 457.6 334.65 457.25C334.75 456.9 334.77 456.87 334.82 456.7V456.54C334.82 456.38 334.91 456.21 334.95 456.04C335.585 453.611 335.904 451.111 335.9 448.6C335.9 436.41 328.65 426.5 319.73 426.5C319.228 426.495 318.727 426.529 318.23 426.6H318.02L317.85 426.47C314.904 424.126 311.223 422.9 307.46 423.01C303.697 423.12 300.094 424.558 297.29 427.07L297.04 427.28L296.75 427.13C295.514 426.688 294.212 426.461 292.9 426.46C283.98 426.46 276.72 436.91 276.72 449.76C276.72 450.53 276.72 451.33 276.83 452.27C276.83 452.71 276.89 453.13 276.94 453.55L277.03 453.84L277.05 453.95Z" fill="#4B0062"/>
<path d="M329.21 448.84V448.93C329.21 459.05 319.64 467.25 307.84 467.25C296.04 467.25 286.48 459.05 286.48 448.93V448.85C290.523 452.58 295.571 455.042 301 455.93C303.239 456.352 305.512 456.563 307.79 456.56H307.88C309.89 456.552 311.897 456.382 313.88 456.05C316.162 455.675 318.398 455.059 320.55 454.21C323.77 453.023 326.716 451.196 329.21 448.84Z" fill="#4B0062"/>
<path d="M307.84 467.75C295.79 467.75 285.98 459.31 285.98 448.93V447.73L286.83 448.49C290.816 452.159 295.792 454.576 301.14 455.44C303.349 455.855 305.592 456.063 307.84 456.06C309.87 456.06 311.897 455.893 313.9 455.56C316.148 455.192 318.351 454.585 320.47 453.75C323.589 452.574 326.442 450.785 328.86 448.49L329.71 447.66V448.94C329.71 459.31 319.9 467.75 307.84 467.75ZM287 450C287.71 459.35 296.78 466.71 307.82 466.71C318.86 466.71 328 459.34 328.67 450C326.344 451.992 323.691 453.568 320.83 454.66C318.646 455.522 316.377 456.149 314.06 456.53C312.034 456.87 309.984 457.044 307.93 457.05C305.582 457.058 303.238 456.844 300.93 456.41C295.801 455.545 290.994 453.333 287 450Z" fill="#4B0062"/>
<path d="M307.93 456.56L307.69 459.91L300.8 459.41L301.05 455.93C303.289 456.352 305.562 456.563 307.84 456.56H307.93Z" fill="#F48001"/>
<path d="M308.15 460.45L300.26 459.88L300.59 455.34L301.14 455.44C303.349 455.855 305.592 456.063 307.84 456.06H308.38L308.43 456.6L308.15 460.45ZM301.33 458.95L307.22 459.38L307.39 457.06C305.419 457.037 303.453 456.856 301.51 456.52L301.33 458.95Z" fill="#4B0062"/>
<path d="M321.46 458.13L314.7 459.53L313.98 456.05C316.262 455.675 318.498 455.059 320.65 454.21L321.46 458.13Z" fill="#F48001"/>
<path d="M314.31 460.12L313.38 455.64L313.89 455.56C316.138 455.192 318.341 454.585 320.46 453.75L321.01 453.53L322.01 458.53L314.31 460.12ZM314.57 456.45L315.08 458.94L320.86 457.74L320.27 454.89C318.42 455.579 316.513 456.102 314.57 456.45Z" fill="#4B0062"/>
<path d="M304.23 437.91L297.81 446.65L308.59 447.84L304.23 437.91Z" fill="#4B0062"/>
<path d="M319.72 437.16L327.7 444.49L317.36 447.75L319.72 437.16Z" fill="#4B0062"/>
<path d="M313.74 454.3L309.7 449.2L316.52 448.41L313.74 454.3Z" fill="#4B0062"/>
<path d="M581.21 435.53C580.084 435.53 578.967 435.73 577.91 436.12C575.441 433.959 572.281 432.753 569 432.72C566.005 432.751 563.105 433.77 560.75 435.62C560.322 435.568 559.891 435.541 559.46 435.54C552 435.54 545.94 443.74 545.94 453.86C545.933 455.925 546.195 457.983 546.72 459.98C546.78 460.23 546.85 460.47 546.92 460.71C547.04 461.12 547.17 461.53 547.32 461.93C547.47 462.33 547.56 462.57 547.7 462.93C548.876 465.58 550.617 467.942 552.8 469.85C557.702 474.081 563.985 476.369 570.46 476.28C574.144 476.292 577.794 475.575 581.2 474.17C588.44 471.17 593.64 465.17 594.55 458.17C594.55 457.9 594.61 457.64 594.63 457.37C594.71 456.56 594.75 455.74 594.75 454.9C594.73 444.16 588.68 435.53 581.21 435.53Z" fill="#F48001"/>
<path d="M570.44 476.72C563.837 476.825 557.427 474.489 552.44 470.16C550.202 468.207 548.42 465.787 547.22 463.07C547.08 462.76 546.96 462.44 546.84 462.07C546.72 461.7 546.54 461.21 546.42 460.79C546.35 460.54 546.28 460.29 546.21 460.04C545.677 458.003 545.411 455.905 545.42 453.8C545.42 443.42 551.71 434.98 559.42 434.98C559.811 434.98 560.201 435 560.59 435.04C563.099 433.099 566.201 432.085 569.372 432.169C572.543 432.253 575.587 433.43 577.99 435.5C579.021 435.154 580.102 434.978 581.19 434.98C588.92 434.98 595.19 443.86 595.19 454.77C595.19 455.62 595.19 456.47 595.07 457.29C595.07 457.53 595.07 457.78 595 458.03C594.07 465.21 589 471.35 581.34 474.52C577.888 475.967 574.183 476.715 570.44 476.72ZM559.44 436.03C552.26 436.03 546.44 444.03 546.44 453.85C546.431 455.875 546.686 457.892 547.2 459.85C547.26 460.1 547.33 460.34 547.4 460.57C547.52 460.97 547.64 461.37 547.79 461.75C547.94 462.13 548.03 462.38 548.16 462.67C549.311 465.26 551.018 467.564 553.16 469.42C557.98 473.554 564.14 475.793 570.49 475.72C574.096 475.732 577.668 475.028 581 473.65C588.3 470.65 593.17 464.78 594 458.03C594 457.74 594.06 457.5 594.08 457.26C594.16 456.46 594.2 455.64 594.2 454.83C594.2 444.47 588.36 436.04 581.2 436.04C580.132 436.039 579.072 436.229 578.07 436.6L577.8 436.7L577.58 436.51C575.329 434.485 572.432 433.324 569.405 433.234C566.378 433.144 563.417 434.132 561.05 436.02L560.88 436.15H560.67C560.263 436.075 559.853 436.025 559.44 436V436.03Z" fill="#4B0062"/>
<path d="M575.57 455.87L569.75 449.28L578.37 447.54L575.57 455.87Z" fill="#4B0062"/>
<path d="M575.76 456.85L568.76 448.96L579.07 446.88L575.76 456.85ZM570.7 449.59L575.37 454.88L577.62 448.19L570.7 449.59Z" fill="#4B0062"/>
<path d="M560.34 455.42L565.79 448.53L557.1 447.25L560.34 455.42Z" fill="#4B0062"/>
<path d="M560.19 456.41L556.31 446.63L566.72 448.16L560.19 456.41ZM557.88 447.87L560.48 454.43L564.86 448.9L557.88 447.87Z" fill="#4B0062"/>
<path d="M566.96 459.6L570.24 455.45L564.71 454.82L566.96 459.6Z" fill="#4B0062"/>
<path d="M566.85 460.54L563.85 454.22L571.16 455.06L566.85 460.54ZM565.54 455.42L567.06 458.66L569.28 455.86L565.54 455.42Z" fill="#4B0062"/>
<path d="M551.93 453.85C552.11 454 560 462 560 462L563.84 460.62L568.58 464.4L572.18 459.99L575.41 462.66L584.8 454.2L576.67 467.1L573.31 465.36L568.31 469.44L563.44 465.54L559.39 466.62L551.93 453.85Z" fill="#4B0062"/>
<path d="M568.37 470.05L563.37 466.05L559.19 467.16L549.87 451.36L552.24 453.46C552.41 453.61 558.41 459.66 560.13 461.39L563.93 460.03L568.5 463.67L572.1 459.26L575.39 461.97L587.14 451.38L576.84 467.72L573.37 465.92L568.37 470.05ZM563.61 465L568.36 468.8L573.26 464.8L576.5 466.48L582.5 457.03L575.5 463.36L572.32 460.74L568.73 465.14L563.83 461.23L559.96 462.62L559.74 462.39L554.44 457.05L559.76 466.05L563.61 465Z" fill="#4B0062"/>
<path d="M614.86 455.24H604.19V475.88H614.86V455.24Z" fill="#FFF0DC"/>
<path d="M615.35 476.38H603.69V454.74H615.36L615.35 476.38ZM604.68 475.38H614.35V455.74H604.68V475.38Z" fill="#4B0062"/>
<path d="M501.39 468.54H416.84V475.88H501.39V468.54Z" fill="#A26BB4"/>
<path d="M501.9 476.38H416.34V468H501.9V476.38ZM417.35 475.38H500.9V469H417.34L417.35 475.38Z" fill="#4B0062"/>
<path d="M495.46 462.93H422.78V468.54H495.46V462.93Z" fill="#A26BB4"/>
<path d="M496 469H422.28V462.39H496V469ZM423.32 468H495V463.39H423.28L423.32 468Z" fill="#4B0062"/>
<path d="M624.01 408.05H592.49V413.03H624.01V408.05Z" fill="#A26BB4"/>
<path d="M624.51 413.54H592V407.54H624.52L624.51 413.54ZM592.99 412.54H623.51V408.54H593L592.99 412.54Z" fill="#4B0062"/>
<path d="M615.98 423.48H600.52V424.48H615.98V423.48Z" fill="#4B0062"/>
<path d="M615.98 429.89H600.52V430.89H615.98V429.89Z" fill="#4B0062"/>
<path d="M470.31 427.48H447.92V436.34H470.31V427.48Z" fill="#A26BB4"/>
<path d="M470.82 436.85H447.42V427H470.81L470.82 436.85ZM448.43 435.85H469.82V428H448.42L448.43 435.85Z" fill="#4B0062"/>
<path d="M519.66 353.67H518.66V371.25H519.66V353.67Z" fill="#4B0062"/>
<path d="M526.04 359.83H512.28V360.83H526.04V359.83Z" fill="#4B0062"/>
<path d="M617.4 264.93L608.88 257.62L604.96 251.53L605.8 250.99L609.68 257.02L618.05 264.17L617.4 264.93Z" fill="#4B0062"/>
<path d="M461.82 362.24C462.516 362.24 463.08 361.676 463.08 360.98C463.08 360.284 462.516 359.72 461.82 359.72C461.124 359.72 460.56 360.284 460.56 360.98C460.56 361.676 461.124 362.24 461.82 362.24Z" fill="#FFF0DC"/>
<path d="M672.27 475.72H128.06V476.72H672.27V475.72Z" fill="#4B0062"/>
<path d="M456 382.8L449.61 392.7C449.333 392.699 449.06 392.632 448.814 392.504C448.567 392.377 448.355 392.193 448.194 391.967C448.033 391.742 447.928 391.481 447.887 391.207C447.846 390.933 447.871 390.653 447.96 390.39C446.96 392.53 443.56 392.7 443.56 392.7L449.94 382.8H456Z" fill="#4B0062"/>
<path d="M442.57 393.25L449.63 382.3H456.88L449.88 393.22H449.58C449.234 393.217 448.892 393.136 448.582 392.982C448.272 392.827 448.001 392.605 447.79 392.33C447.672 392.162 447.581 391.976 447.52 391.78C446.379 392.634 445.013 393.135 443.59 393.22L442.57 393.25ZM447.47 390.17L448.4 390.52C448.297 390.932 448.354 391.368 448.56 391.74C448.748 391.977 449.02 392.131 449.32 392.17L455 383.3H450.13L444.54 392C445.131 391.922 445.698 391.718 446.203 391.403C446.709 391.087 447.141 390.667 447.47 390.17Z" fill="#4B0062"/>
<path d="M450.12 383.25L449.68 382.35L451.4 381.51C454.045 380.224 456.356 378.342 458.151 376.012C459.945 373.681 461.174 370.966 461.74 368.08C461.787 367.798 461.774 367.509 461.699 367.232C461.625 366.956 461.493 366.698 461.311 366.477C461.129 366.257 460.902 366.077 460.644 365.952C460.387 365.826 460.106 365.758 459.82 365.75H456.34V364.75H459.82C460.253 364.758 460.68 364.86 461.07 365.048C461.46 365.237 461.805 365.507 462.081 365.842C462.357 366.176 462.556 366.567 462.667 366.986C462.777 367.405 462.795 367.843 462.72 368.27C462.12 371.308 460.824 374.165 458.935 376.619C457.046 379.072 454.614 381.054 451.83 382.41L450.12 383.25Z" fill="#A26BB4"/>
<path d="M168.61 303.97H167.61V327.97H168.61V303.97Z" fill="#4B0062"/>
<path d="M180.11 315.46H156.11V316.46H180.11V315.46Z" fill="#4B0062"/>
<path d="M162.283 309.432L161.576 310.139L173.943 322.506L174.65 321.799L162.283 309.432Z" fill="#4B0062"/>
<path d="M173.943 309.439L161.576 321.806L162.283 322.514L174.65 310.146L173.943 309.439Z" fill="#4B0062"/>
<path d="M168.11 301.94C168.883 301.94 169.51 301.067 169.51 299.99C169.51 298.913 168.883 298.04 168.11 298.04C167.337 298.04 166.71 298.913 166.71 299.99C166.71 301.067 167.337 301.94 168.11 301.94Z" fill="#4B0062"/>
<path d="M168.11 333.89C168.883 333.89 169.51 333.017 169.51 331.94C169.51 330.863 168.883 329.99 168.11 329.99C167.337 329.99 166.71 330.863 166.71 331.94C166.71 333.017 167.337 333.89 168.11 333.89Z" fill="#4B0062"/>
<path d="M184.09 317.37C185.167 317.37 186.04 316.743 186.04 315.97C186.04 315.197 185.167 314.57 184.09 314.57C183.013 314.57 182.14 315.197 182.14 315.97C182.14 316.743 183.013 317.37 184.09 317.37Z" fill="#4B0062"/>
<path d="M152.14 317.37C153.217 317.37 154.09 316.743 154.09 315.97C154.09 315.197 153.217 314.57 152.14 314.57C151.063 314.57 150.19 315.197 150.19 315.97C150.19 316.743 151.063 317.37 152.14 317.37Z" fill="#4B0062"/>
<path d="M683.6 395.89H682.6V414.08H683.6V395.89Z" fill="#4B0062"/>
<path d="M692.19 404.48H674V405.48H692.19V404.48Z" fill="#4B0062"/>
<path d="M678.774 399.978L678.067 400.685L687.45 410.068L688.157 409.361L678.774 399.978Z" fill="#4B0062"/>
<path d="M687.44 399.931L678.057 409.314L678.764 410.021L688.147 400.638L687.44 399.931Z" fill="#4B0062"/>
<path d="M695.21 406.04C696.027 406.04 696.69 405.565 696.69 404.98C696.69 404.395 696.027 403.92 695.21 403.92C694.393 403.92 693.73 404.395 693.73 404.98C693.73 405.565 694.393 406.04 695.21 406.04Z" fill="#4B0062"/>
<path d="M670.98 406.04C671.797 406.04 672.46 405.565 672.46 404.98C672.46 404.395 671.797 403.92 670.98 403.92C670.163 403.92 669.5 404.395 669.5 404.98C669.5 405.565 670.163 406.04 670.98 406.04Z" fill="#4B0062"/>
<path d="M306.35 213.13H305.35V228.22H306.35V213.13Z" fill="#4B0062"/>
<path d="M310.52 220.18H301.17V221.18H310.52V220.18Z" fill="#4B0062"/>
<path d="M319.26 224.7H318.26V234.14H319.26V224.7Z" fill="#4B0062"/>
<path d="M321.68 228.93H315.83V229.93H321.68V228.93Z" fill="#4B0062"/>
<path d="M180.3 236.99C182.388 236.99 184.08 235.298 184.08 233.21C184.08 231.122 182.388 229.43 180.3 229.43C178.212 229.43 176.52 231.122 176.52 233.21C176.52 235.298 178.212 236.99 180.3 236.99Z" fill="#A26BB4"/>
<path d="M187.87 222.05C188.881 222.05 189.7 221.231 189.7 220.22C189.7 219.209 188.881 218.39 187.87 218.39C186.859 218.39 186.04 219.209 186.04 220.22C186.04 221.231 186.859 222.05 187.87 222.05Z" fill="#A26BB4"/>
<path d="M696.79 356.49C699.33 356.49 701.39 354.431 701.39 351.89C701.39 349.35 699.33 347.29 696.79 347.29C694.249 347.29 692.19 349.35 692.19 351.89C692.19 354.431 694.249 356.49 696.79 356.49Z" fill="#A26BB4"/>
<path d="M703.11 336.59C704.06 336.59 704.83 335.82 704.83 334.87C704.83 333.92 704.06 333.15 703.11 333.15C702.16 333.15 701.39 333.92 701.39 334.87C701.39 335.82 702.16 336.59 703.11 336.59Z" fill="#A26BB4"/>
<path d="M100.42 453.07C103.319 453.07 105.67 450.72 105.67 447.82C105.67 444.921 103.319 442.57 100.42 442.57C97.5205 442.57 95.17 444.921 95.17 447.82C95.17 450.72 97.5205 453.07 100.42 453.07Z" fill="#A26BB4"/>
<path d="M349.49 186.59C351.683 186.59 353.46 184.813 353.46 182.62C353.46 180.427 351.683 178.65 349.49 178.65C347.297 178.65 345.52 180.427 345.52 182.62C345.52 184.813 347.297 186.59 349.49 186.59Z" fill="#A26BB4"/>
</g>
<defs>
<clipPath id="clip0_20_119">
<rect width="800" height="600" fill="white"/>
</clipPath>
</defs>
</svg>
