<svg width="800" height="595" viewBox="0 0 800 595" fill="none" xmlns="http://www.w3.org/2000/svg">
<g clip-path="url(#clip0_20_441)">
<path d="M464.895 388.002L429.491 399.677L451.656 466.896L487.061 455.222L464.895 388.002Z" fill="#A26BB4"/>
<path d="M451.36 467.5L451.2 467.02L428.87 399.32L465.22 387.32L465.38 387.8L487.71 455.5L451.36 467.5ZM430.14 400L452 466.24L486.45 454.88L464.59 388.6L430.14 400Z" fill="#4B0062"/>
<path d="M426.67 400.09H389.39V470.87H426.67V400.09Z" fill="#A26BB4"/>
<path d="M427.17 471.37H388.89V399.59H427.17V471.37ZM389.89 470.37H426.17V400.59H389.89V470.37Z" fill="#4B0062"/>
<path d="M426.67 435.48H389.39V458.46H426.67V435.48Z" fill="#FFF0DC"/>
<path d="M427.17 459H388.89V435H427.17V459ZM389.89 458H426.17V436H389.89V458Z" fill="#4B0062"/>
<path d="M475.976 421.613L440.571 433.288L447.767 455.112L483.172 443.438L475.976 421.613Z" fill="#FFF0DC"/>
<path d="M447.47 455.71L440 432.94L476.35 420.94L483.86 443.71L447.47 455.71ZM441.22 433.57L448.1 454.44L482.55 443.08L475.67 422.21L441.22 433.57Z" fill="#4B0062"/>
<path d="M426.67 440.42H389.39V444.86H426.67V440.42Z" fill="#4B0062"/>
<path d="M427.17 445.36H388.89V439.92H427.17V445.36ZM389.89 444.36H426.17V440.92H389.89V444.36Z" fill="#4B0062"/>
<path d="M477.529 426.307L442.125 437.981L443.515 442.198L478.92 430.523L477.529 426.307Z" fill="#4B0062"/>
<path d="M443.21 442.79L441.51 437.62L477.86 425.62L479.56 430.78L443.21 442.79ZM442.77 438.26L443.85 441.52L478.3 430.16L477.22 426.9L442.77 438.26Z" fill="#4B0062"/>
<path d="M297.33 262.12H407L350.09 398.73L275.66 307.88C260.68 289.59 273.69 262.12 297.33 262.12Z" fill="#FFF0DC"/>
<path d="M350.23 399.69L275.23 308.19C271.811 304.014 269.648 298.954 268.992 293.597C268.336 288.24 269.213 282.807 271.523 277.93C273.832 273.052 277.479 268.93 282.038 266.043C286.598 263.156 291.883 261.622 297.28 261.62H407.77L407.48 262.31L350.23 399.69ZM297.33 262.62C292.117 262.611 287.009 264.084 282.601 266.866C278.193 269.648 274.666 273.625 272.431 278.334C270.196 283.043 269.345 288.29 269.976 293.465C270.608 298.639 272.697 303.527 276 307.56L349.9 397.77L406.22 262.62H297.33Z" fill="#4B0062"/>
<path d="M487 136.89C486.277 132.288 484.014 128.068 480.581 124.92C477.147 121.771 472.747 119.882 468.1 119.56C465.226 119.358 462.342 119.762 459.634 120.746C456.926 121.73 454.456 123.271 452.382 125.271C450.308 127.27 448.677 129.683 447.595 132.353C446.512 135.023 446.003 137.891 446.1 140.77L447.5 182.5C439.576 176.569 429.895 173.46 420 173.67C409.752 173.87 399.887 177.604 392.075 184.24C384.263 190.877 378.984 200.009 377.13 210.09L337.59 425.3H532.27L487 136.89Z" fill="#FFF0DC"/>
<path d="M532.85 425.8H337L337.11 425.21L376.67 210C378.57 199.821 383.913 190.606 391.802 183.899C399.692 177.193 409.648 173.405 420 173.17C429.667 172.935 439.146 175.86 447 181.5L445.63 140.79C445.448 135.429 447.319 130.2 450.859 126.17C454.4 122.14 459.344 119.612 464.684 119.102C470.024 118.592 475.358 120.138 479.597 123.425C483.837 126.711 486.663 131.491 487.5 136.79L532.85 425.8ZM338.18 424.8H531.68L486.49 137C485.687 131.96 482.994 127.416 478.96 124.291C474.925 121.166 469.852 119.696 464.771 120.178C459.691 120.661 454.985 123.061 451.612 126.89C448.238 130.719 446.449 135.689 446.61 140.79L448 183.53L447.17 182.91C439.353 177.027 429.781 173.948 420 174.17C409.876 174.395 400.137 178.095 392.419 184.65C384.7 191.205 379.471 200.216 377.61 210.17L338.18 424.8Z" fill="#4B0062"/>
<path d="M451.52 315.149L450.52 315.179L452.822 391.909L453.822 391.879L451.52 315.149Z" fill="#4B0062"/>
<path d="M449.88 253L446.11 140.73C446.013 137.851 446.522 134.983 447.605 132.313C448.687 129.643 450.318 127.23 452.392 125.231C454.466 123.231 456.936 121.69 459.644 120.706C462.352 119.722 465.236 119.318 468.11 119.52C472.761 119.846 477.164 121.742 480.596 124.898C484.028 128.054 486.286 132.282 487 136.89" fill="#FFF0DC"/>
<path d="M449.38 253.06L445.61 140.79C445.428 135.429 447.299 130.2 450.839 126.17C454.38 122.14 459.324 119.612 464.664 119.102C470.004 118.592 475.338 120.138 479.577 123.425C483.817 126.711 486.643 131.491 487.48 136.79L486.48 136.94C485.677 131.9 482.984 127.356 478.95 124.231C474.915 121.106 469.842 119.636 464.761 120.118C459.681 120.601 454.975 123.001 451.602 126.83C448.228 130.659 446.439 135.629 446.6 140.73L450.38 253L449.38 253.06Z" fill="#4B0062"/>
<path d="M489.134 376.556L488.138 376.647L492.577 425.335L493.573 425.244L489.134 376.556Z" fill="#4B0062"/>
<path d="M379.834 324.116L361.178 425.168L362.161 425.349L380.817 324.297L379.834 324.116Z" fill="#4B0062"/>
<path d="M399.03 226.34C403.796 226.34 407.66 222.476 407.66 217.71C407.66 212.944 403.796 209.08 399.03 209.08C394.264 209.08 390.4 212.944 390.4 217.71C390.4 222.476 394.264 226.34 399.03 226.34Z" fill="#4B0062"/>
<path d="M399 226.84C397.194 226.84 395.429 226.305 393.928 225.301C392.426 224.298 391.256 222.872 390.565 221.204C389.874 219.536 389.693 217.7 390.045 215.929C390.398 214.158 391.267 212.531 392.544 211.254C393.821 209.977 395.448 209.108 397.219 208.755C398.99 208.403 400.826 208.584 402.494 209.275C404.162 209.966 405.588 211.136 406.591 212.638C407.595 214.139 408.13 215.904 408.13 217.71C408.127 220.131 407.165 222.451 405.453 224.163C403.741 225.875 401.421 226.837 399 226.84ZM399 209.58C397.392 209.58 395.82 210.057 394.483 210.95C393.146 211.844 392.104 213.113 391.489 214.599C390.874 216.084 390.713 217.719 391.026 219.296C391.34 220.873 392.114 222.322 393.251 223.459C394.388 224.596 395.837 225.37 397.414 225.684C398.991 225.997 400.626 225.837 402.111 225.221C403.597 224.606 404.867 223.564 405.76 222.227C406.653 220.89 407.13 219.318 407.13 217.71C407.127 215.555 406.27 213.488 404.746 211.964C403.222 210.44 401.155 209.583 399 209.58Z" fill="#4B0062"/>
<path d="M430.54 226.34C435.306 226.34 439.17 222.476 439.17 217.71C439.17 212.944 435.306 209.08 430.54 209.08C425.774 209.08 421.91 212.944 421.91 217.71C421.91 222.476 425.774 226.34 430.54 226.34Z" fill="#4B0062"/>
<path d="M430.54 226.84C428.734 226.84 426.969 226.305 425.468 225.301C423.966 224.298 422.796 222.872 422.105 221.204C421.414 219.536 421.233 217.7 421.585 215.929C421.938 214.158 422.807 212.531 424.084 211.254C425.361 209.977 426.988 209.108 428.759 208.755C430.53 208.403 432.366 208.584 434.034 209.275C435.702 209.966 437.128 211.136 438.131 212.638C439.135 214.139 439.67 215.904 439.67 217.71C439.667 220.131 438.705 222.451 436.993 224.163C435.281 225.875 432.961 226.837 430.54 226.84ZM430.54 209.58C428.932 209.58 427.36 210.057 426.023 210.95C424.686 211.844 423.644 213.113 423.029 214.599C422.414 216.084 422.253 217.719 422.566 219.296C422.88 220.873 423.654 222.322 424.791 223.459C425.928 224.596 427.377 225.37 428.954 225.684C430.531 225.997 432.166 225.837 433.651 225.221C435.137 224.606 436.406 223.564 437.3 222.227C438.193 220.89 438.67 219.318 438.67 217.71C438.667 215.555 437.81 213.488 436.286 211.964C434.762 210.44 432.695 209.583 430.54 209.58Z" fill="#4B0062"/>
<path d="M584.9 253.04C588.876 253.04 592.1 249.816 592.1 245.84C592.1 241.864 588.876 238.64 584.9 238.64C580.924 238.64 577.7 241.864 577.7 245.84C577.7 249.816 580.924 253.04 584.9 253.04Z" fill="#A26BB4"/>
<path d="M571.06 277.68C573.335 277.68 575.18 275.835 575.18 273.56C575.18 271.285 573.335 269.44 571.06 269.44C568.785 269.44 566.94 271.285 566.94 273.56C566.94 275.835 568.785 277.68 571.06 277.68Z" fill="#A26BB4"/>
<path d="M524.93 138.79C528.492 138.79 531.38 135.902 531.38 132.34C531.38 128.778 528.492 125.89 524.93 125.89C521.368 125.89 518.48 128.778 518.48 132.34C518.48 135.902 521.368 138.79 524.93 138.79Z" fill="#A26BB4"/>
<path d="M314.75 216.3C317.981 216.3 320.6 213.681 320.6 210.45C320.6 207.219 317.981 204.6 314.75 204.6C311.519 204.6 308.9 207.219 308.9 210.45C308.9 213.681 311.519 216.3 314.75 216.3Z" fill="#A26BB4"/>
<path d="M532.77 179.59H531.77V203.58H532.77V179.59Z" fill="#4B0062"/>
<path d="M544.27 191.09H520.27V192.09H544.27V191.09Z" fill="#4B0062"/>
<path d="M526.438 185.048L525.731 185.755L538.106 198.129L538.813 197.422L526.438 185.048Z" fill="#4B0062"/>
<path d="M538.106 185.048L525.731 197.422L526.438 198.129L538.813 185.755L538.106 185.048Z" fill="#4B0062"/>
<path d="M532.27 177.56C533.043 177.56 533.67 176.687 533.67 175.61C533.67 174.533 533.043 173.66 532.27 173.66C531.497 173.66 530.87 174.533 530.87 175.61C530.87 176.687 531.497 177.56 532.27 177.56Z" fill="#4B0062"/>
<path d="M532.27 209.52C533.043 209.52 533.67 208.647 533.67 207.57C533.67 206.493 533.043 205.62 532.27 205.62C531.497 205.62 530.87 206.493 530.87 207.57C530.87 208.647 531.497 209.52 532.27 209.52Z" fill="#4B0062"/>
<path d="M548.25 192.99C549.327 192.99 550.2 192.363 550.2 191.59C550.2 190.817 549.327 190.19 548.25 190.19C547.173 190.19 546.3 190.817 546.3 191.59C546.3 192.363 547.173 192.99 548.25 192.99Z" fill="#4B0062"/>
<path d="M516.29 192.99C517.367 192.99 518.24 192.363 518.24 191.59C518.24 190.817 517.367 190.19 516.29 190.19C515.213 190.19 514.34 190.817 514.34 191.59C514.34 192.363 515.213 192.99 516.29 192.99Z" fill="#4B0062"/>
<path d="M287.6 408.58H286.6V426.77H287.6V408.58Z" fill="#4B0062"/>
<path d="M296.19 417.17H278V418.17H296.19V417.17Z" fill="#4B0062"/>
<path d="M282.759 412.631L282.052 413.338L291.435 422.721L292.142 422.014L282.759 412.631Z" fill="#4B0062"/>
<path d="M291.435 412.624L282.052 422.007L282.759 422.714L292.142 413.331L291.435 412.624Z" fill="#4B0062"/>
<path d="M299.21 418.73C300.027 418.73 300.69 418.255 300.69 417.67C300.69 417.085 300.027 416.61 299.21 416.61C298.393 416.61 297.73 417.085 297.73 417.67C297.73 418.255 298.393 418.73 299.21 418.73Z" fill="#4B0062"/>
<path d="M274.98 418.73C275.797 418.73 276.46 418.255 276.46 417.67C276.46 417.085 275.797 416.61 274.98 416.61C274.163 416.61 273.5 417.085 273.5 417.67C273.5 418.255 274.163 418.73 274.98 418.73Z" fill="#4B0062"/>
<path d="M292.27 147.76H291.27V162.85H292.27V147.76Z" fill="#4B0062"/>
<path d="M296.45 154.81H287.1V155.81H296.45V154.81Z" fill="#4B0062"/>
<path d="M305.18 159.33H304.18V168.77H305.18V159.33Z" fill="#4B0062"/>
<path d="M307.61 163.55H301.76V164.55H307.61V163.55Z" fill="#4B0062"/>
<path d="M558.02 342H557.02V351.44H558.02V342Z" fill="#4B0062"/>
<path d="M560.45 346.22H554.6V347.22H560.45V346.22Z" fill="#4B0062"/>
<path d="M212.86 402.08C215.599 402.08 217.82 399.859 217.82 397.12C217.82 394.381 215.599 392.16 212.86 392.16C210.121 392.16 207.9 394.381 207.9 397.12C207.9 399.859 210.121 402.08 212.86 402.08Z" fill="#A26BB4"/>
<path d="M227.85 418.74C229.441 418.74 230.73 417.451 230.73 415.86C230.73 414.269 229.441 412.98 227.85 412.98C226.259 412.98 224.97 414.269 224.97 415.86C224.97 417.451 226.259 418.74 227.85 418.74Z" fill="#A26BB4"/>
<path d="M275.36 380.57C251.36 380.57 231.82 360.8 231.82 336.49C231.82 312.18 251.35 292.41 275.36 292.41C299.37 292.41 318.9 312.18 318.9 336.49C318.9 360.8 299.37 380.57 275.36 380.57ZM275.36 293.41C251.91 293.41 232.82 312.74 232.82 336.49C232.82 360.24 251.9 379.57 275.36 379.57C298.82 379.57 317.9 360.24 317.9 336.49C317.9 312.74 298.82 293.41 275.36 293.41Z" fill="#4B0062"/>
<path d="M318.39 336.49C318.39 360.56 299.13 380.07 275.39 380.07C251.65 380.07 232.39 360.56 232.39 336.49C232.388 333.446 232.699 330.41 233.32 327.43H317.53C318.127 330.412 318.415 333.448 318.39 336.49Z" fill="#F48001"/>
<path d="M275.36 380.57C251.36 380.57 231.82 360.8 231.82 336.49C231.819 333.413 232.134 330.343 232.76 327.33L232.84 326.93H317.84L317.92 327.33C318.546 330.343 318.861 333.413 318.86 336.49C318.89 360.79 299.37 380.57 275.36 380.57ZM233.66 327.93C233.101 330.749 232.82 333.616 232.82 336.49C232.82 360.24 251.9 379.57 275.36 379.57C298.82 379.57 317.89 360.24 317.89 336.49C317.89 333.616 317.609 330.749 317.05 327.93H233.66Z" fill="#4B0062"/>
<path d="M305.41 336.49C305.41 360.56 291.96 380.07 275.41 380.07C258.86 380.07 245.36 360.56 245.36 336.49C245.356 333.458 245.573 330.43 246.01 327.43H304.81C305.23 330.431 305.431 333.459 305.41 336.49Z" fill="#F48001"/>
<path d="M275.36 380.57C258.51 380.57 244.81 360.8 244.81 336.49C244.808 333.435 245.029 330.383 245.47 327.36L245.53 326.93H305.2L305.26 327.36C305.702 330.383 305.922 333.435 305.92 336.49C305.91 360.79 292.21 380.57 275.36 380.57ZM246.36 327.93C245.969 330.767 245.775 333.627 245.78 336.49C245.78 360.24 259.04 379.57 275.33 379.57C291.62 379.57 304.88 360.24 304.88 336.49C304.884 333.627 304.69 330.767 304.3 327.93H246.36Z" fill="#4B0062"/>
<path d="M261.39 335.3L255.31 345.84H267.48L261.39 335.3Z" fill="#4B0062"/>
<path d="M289.34 335.3L283.25 345.84H295.42L289.34 335.3Z" fill="#4B0062"/>
<path d="M301.78 346.31C301.188 352.907 298.148 359.043 293.258 363.511C288.368 367.979 281.983 370.454 275.36 370.45C274.61 370.45 273.87 370.45 273.13 370.35C270.737 370.168 268.381 369.653 266.13 368.82C261.408 367.107 257.276 364.077 254.221 360.09C251.166 356.103 249.316 351.325 248.89 346.32C251.183 349.689 254.183 352.518 257.68 354.61C259.861 355.942 262.194 357.006 264.63 357.78C267.617 358.745 270.723 359.29 273.86 359.4C274.34 359.4 274.86 359.4 275.31 359.4C277.152 359.4 278.991 359.256 280.81 358.97C283.08 358.62 285.309 358.037 287.46 357.23C289.935 356.316 292.287 355.097 294.46 353.6C297.329 351.643 299.811 349.171 301.78 346.31Z" fill="#4B0062"/>
<path d="M264.68 357.78V360.24H257.73V354.61C259.911 355.942 262.244 357.006 264.68 357.78Z" fill="#F48001"/>
<path d="M280.86 359V362H273.86V359.4C274.34 359.4 274.86 359.4 275.31 359.4C277.168 359.412 279.023 359.279 280.86 359Z" fill="#F48001"/>
<path d="M294.47 353.64V358.56H287.47V357.27C289.945 356.356 292.297 355.137 294.47 353.64Z" fill="#F48001"/>
<path d="M288.29 364.65V367.11C286.097 368.329 283.739 369.225 281.29 369.77V364.65H288.29Z" fill="#F48001"/>
<path d="M273.13 365.25V370.35C270.737 370.168 268.381 369.653 266.13 368.82V365.25H273.13Z" fill="#F48001"/>
<path d="M405.18 458.46V455C405.18 453.891 404.74 452.828 403.956 452.044C403.172 451.26 402.109 450.82 401 450.82H389.39V455.34C385.509 455.689 381.9 457.478 379.27 460.353C376.641 463.229 375.182 466.984 375.18 470.88H426.67V458.46H405.18Z" fill="#F44B1B"/>
<path d="M427.17 471.37H374.68V470.87C374.655 466.919 376.093 463.099 378.717 460.145C381.34 457.191 384.964 455.312 388.89 454.87V450.3H401C402.241 450.3 403.432 450.793 404.309 451.671C405.187 452.548 405.68 453.739 405.68 454.98V457.98H427.17V471.37ZM375.69 470.37H426.17V459H404.68V455C404.68 454.024 404.292 453.088 403.602 452.398C402.912 451.708 401.976 451.32 401 451.32H389.89V455.79H389.43C385.745 456.099 382.305 457.759 379.769 460.45C377.233 463.141 375.781 466.674 375.69 470.37Z" fill="#4B0062"/>
<path d="M487.08 455.19L483.19 443.4L462.78 450.13L461.69 446.83C461.343 445.779 460.593 444.909 459.605 444.411C458.617 443.912 457.472 443.826 456.42 444.17L445.42 447.81L446.83 452.1C443.253 453.647 440.385 456.476 438.788 460.03C437.191 463.585 436.981 467.609 438.2 471.31L465.67 462.25L487.08 455.19Z" fill="#F44B1B"/>
<path d="M437.86 472L437.7 471.52C436.441 467.776 436.612 463.698 438.179 460.072C439.747 456.446 442.6 453.528 446.19 451.88L444.76 447.54L456.26 443.75C456.845 443.558 457.462 443.483 458.076 443.53C458.69 443.577 459.289 443.745 459.838 444.024C460.387 444.302 460.875 444.687 461.275 445.154C461.676 445.622 461.98 446.164 462.17 446.75L463.1 449.57L483.51 442.84L487.71 455.58L437.86 472ZM446 448.14L447.4 452.39L446.98 452.57C443.581 454.014 440.834 456.662 439.266 460.005C437.698 463.349 437.418 467.153 438.48 470.69L486.42 454.88L482.87 444L462.46 450.73L461.22 447C460.914 446.075 460.253 445.31 459.384 444.871C458.514 444.432 457.506 444.357 456.58 444.66L446 448.14Z" fill="#4B0062"/>
<path d="M361.83 141.43C363.703 141.163 365.32 142.14 366.68 144.36C368.04 146.58 368.103 148.513 366.87 150.16C369.777 148.993 371.777 150.017 372.87 153.23C373.963 156.443 371.84 159.443 366.5 162.23C362.98 156.45 359.333 150.513 355.56 144.42C357.374 142.926 359.527 141.9 361.83 141.43ZM359.83 145.84L362.89 150.56C364.99 149.1 365.613 147.567 364.76 145.96C363.907 144.353 362.253 144.31 359.8 145.83L359.83 145.84ZM364.19 153.4L366.85 157.98C369.583 156.1 370.583 154.463 369.85 153.07C369.117 151.677 367.22 151.783 364.16 153.39L364.19 153.4Z" fill="#A26BB4"/>
<path d="M382.06 148.93C380.393 151.103 378.423 151.687 376.15 150.68C373.697 149.492 371.773 147.436 370.75 144.91C369.417 142.07 369.443 139.63 370.83 137.59C371.413 136.631 372.297 135.892 373.345 135.488C374.392 135.085 375.544 135.04 376.62 135.36C379.1 135.913 381.043 137.77 382.45 140.93C383.857 144.09 383.727 146.757 382.06 148.93ZM380 146.17C380.376 145.507 380.574 144.757 380.574 143.995C380.574 143.233 380.376 142.483 380 141.82C379.709 141.062 379.243 140.384 378.64 139.84C378.037 139.296 377.314 138.902 376.53 138.69C376.207 138.572 375.863 138.524 375.52 138.549C375.177 138.574 374.843 138.671 374.541 138.835C374.238 138.998 373.974 139.224 373.765 139.498C373.557 139.771 373.408 140.085 373.33 140.42C373.055 141.179 372.972 141.995 373.089 142.794C373.206 143.594 373.519 144.351 374 145C374.335 145.626 374.79 146.179 375.339 146.629C375.888 147.078 376.521 147.415 377.2 147.62C377.761 147.717 378.338 147.627 378.844 147.366C379.349 147.104 379.755 146.684 380 146.17Z" fill="#A26BB4"/>
<path d="M394.16 141.71C392.493 143.883 390.523 144.467 388.25 143.46C385.797 142.272 383.873 140.216 382.85 137.69C381.517 134.85 381.543 132.41 382.93 130.37C383.513 129.411 384.397 128.672 385.445 128.268C386.493 127.865 387.644 127.82 388.72 128.14C391.2 128.693 393.143 130.55 394.55 133.71C395.957 136.87 395.827 139.537 394.16 141.71ZM392.1 139C392.476 138.337 392.674 137.587 392.674 136.825C392.674 136.063 392.476 135.313 392.1 134.65C391.809 133.892 391.343 133.214 390.74 132.67C390.137 132.126 389.414 131.732 388.63 131.52C388.307 131.402 387.963 131.354 387.62 131.379C387.277 131.404 386.943 131.501 386.641 131.665C386.338 131.828 386.074 132.054 385.865 132.328C385.657 132.601 385.508 132.915 385.43 133.25C385.146 134.009 385.054 134.827 385.164 135.63C385.274 136.432 385.582 137.196 386.06 137.85C386.395 138.476 386.85 139.03 387.399 139.479C387.948 139.929 388.58 140.265 389.26 140.47C389.829 140.575 390.417 140.487 390.931 140.221C391.446 139.955 391.857 139.525 392.1 139Z" fill="#A26BB4"/>
<path d="M402 131.93C399.407 127.717 397.033 123.947 394.88 120.62L397.8 118.68C400.413 123.653 402.533 127.613 404.16 130.56L402 131.93ZM404.4 136.83C403.613 135.663 402.947 134.663 402.4 133.83L405.45 131.83L407.2 135.09L404.4 136.83Z" fill="#A26BB4"/>
<path d="M275.86 327.43H274.86V380.07H275.86V327.43Z" fill="#4B0062"/>
</g>
<defs>
<clipPath id="clip0_20_441">
<rect width="800" height="600" fill="white" transform="translate(0 -5)"/>
</clipPath>
</defs>
</svg>
