<svg width="800" height="600" viewBox="0 0 800 600" fill="none" xmlns="http://www.w3.org/2000/svg">
<g clip-path="url(#clip0_20_3)">
<path d="M432.98 335.36V473.2H420.49V465.12L418.2 467.41L412.41 473.2H389.43V335.36H432.98Z" fill="#4B0062"/>
<path d="M433.48 473.7H420V466.33L412.63 473.7H388.93V334.86H433.48V473.7ZM420.99 472.7H432.48V335.86H389.93V472.7H412.2L420.99 463.91V472.7Z" fill="#4B0062"/>
<path d="M476.52 335.36V473.2H453.54L447.76 467.41L445.47 465.12V473.2H432.98V335.36H476.52Z" fill="#4B0062"/>
<path d="M477 473.7H453.33L446 466.33V473.7H432.48V334.86H477V473.7ZM453.73 472.7H476V335.86H433.48V472.7H445V463.91L453.73 472.7Z" fill="#4B0062"/>
<path d="M467.04 211.73H390.67V354.57H467.04V211.73Z" fill="#A26BB4"/>
<path d="M467.54 355.08H390.17V211.23H467.54V355.08ZM391.17 354.08H466.54V212.23H391.17V354.08Z" fill="#4B0062"/>
<path d="M366 200.94H340.4V264.68H275.48C273.358 264.68 271.323 265.523 269.823 267.023C268.323 268.523 267.48 270.558 267.48 272.68V313.45H366V376.11H404.53V200.94H366Z" fill="#F48001"/>
<path d="M405 376.64H365.51V314H267V272.71C267.003 270.449 267.902 268.28 269.501 266.681C271.1 265.082 273.269 264.183 275.53 264.18H339.96V200.44H405V376.64ZM366.47 375.64H404V201.44H340.91V265.18H275.48C273.484 265.183 271.57 265.977 270.158 267.388C268.747 268.8 267.953 270.714 267.95 272.71V313H366.51L366.47 375.64Z" fill="#4B0062"/>
<path d="M303 264.68V313.48H267.45V272.71C267.45 270.588 268.293 268.553 269.793 267.053C271.293 265.553 273.328 264.71 275.45 264.71L303 264.68Z" fill="#FFF0DC"/>
<path d="M303.52 314H267V272.71C267.003 270.449 267.902 268.28 269.501 266.681C271.1 265.082 273.269 264.183 275.53 264.18H303.53L303.52 314ZM268 313H302.57V265.2H275.57C273.574 265.203 271.66 265.997 270.248 267.408C268.837 268.82 268.043 270.734 268.04 272.73L268 313Z" fill="#4B0062"/>
<path d="M366.51 231.06H365.51V376.14H366.51V231.06Z" fill="#4B0062"/>
<path d="M504.1 200.94H452.85V376.14H504.1V200.94Z" fill="#F48001"/>
<path d="M504.6 376.64H452.35V200.44H504.6V376.64ZM453.35 375.64H503.6V201.44H453.35V375.64Z" fill="#4B0062"/>
<path d="M466.69 275.36L478.47 292.45L452.85 336.46V200.94H465.21L486.24 258.52L466.69 275.36Z" fill="#F44B1B"/>
<path d="M452.35 338.31V200.44H465.56L486.83 258.67L467.36 275.44L479.07 292.44L478.91 292.71L452.35 338.31ZM453.35 201.44V334.61L477.88 292.47L466 275.27L485.63 258.36L464.84 201.43L453.35 201.44Z" fill="#4B0062"/>
<path d="M404.54 200.94V328.77L383.4 292.45L395.18 275.36L375.63 258.52L396.66 200.94H404.54Z" fill="#F44B1B"/>
<path d="M405 330.62L382.77 292.42L394.48 275.42L375 258.67L396.27 200.44H405V330.62ZM384 292.47L404 326.92V201.44H397L376.21 258.37L395.84 275.28L384 292.47Z" fill="#4B0062"/>
<path d="M470.27 193.67H468.95V153.38C468.948 152.348 468.737 151.328 468.33 150.38C467.736 148.961 466.735 147.751 465.454 146.9C464.172 146.049 462.668 145.597 461.13 145.6H390.5C388.428 145.6 386.44 146.422 384.974 147.887C383.508 149.351 382.683 151.338 382.68 153.41V244.6C382.68 245.627 382.882 246.644 383.275 247.593C383.668 248.541 384.244 249.403 384.97 250.13C385.697 250.856 386.559 251.432 387.507 251.825C388.456 252.218 389.473 252.42 390.5 252.42H461.13C462.157 252.42 463.174 252.218 464.123 251.825C465.071 251.432 465.933 250.856 466.66 250.13C467.386 249.403 467.962 248.541 468.355 247.593C468.748 246.644 468.95 245.627 468.95 244.6V218.33H470.27C471.694 218.33 473.06 217.764 474.067 216.757C475.074 215.75 475.64 214.384 475.64 212.96V199C475.629 197.583 475.059 196.227 474.053 195.229C473.047 194.23 471.687 193.67 470.27 193.67Z" fill="#FFF0DC"/>
<path d="M461.13 252.92H390.5C388.294 252.917 386.18 252.04 384.62 250.48C383.06 248.92 382.183 246.806 382.18 244.6V153.38C382.183 151.175 383.06 149.061 384.62 147.503C386.18 145.945 388.295 145.07 390.5 145.07H461.13C462.767 145.065 464.369 145.546 465.733 146.452C467.096 147.358 468.16 148.649 468.79 150.16C469.227 151.177 469.451 152.273 469.45 153.38V193.17H470.27C471.826 193.173 473.318 193.792 474.418 194.892C475.518 195.992 476.137 197.484 476.14 199.04V213C476.137 214.556 475.518 216.048 474.418 217.148C473.318 218.248 471.826 218.867 470.27 218.87H469.45V244.6C469.447 246.806 468.57 248.92 467.01 250.48C465.45 252.04 463.336 252.917 461.13 252.92ZM390.5 146.07C388.56 146.07 386.7 146.84 385.328 148.21C383.955 149.581 383.183 151.44 383.18 153.38V244.6C383.183 246.541 383.955 248.401 385.327 249.773C386.699 251.145 388.559 251.917 390.5 251.92H461.13C463.071 251.917 464.931 251.145 466.303 249.773C467.675 248.401 468.447 246.541 468.45 244.6V217.83H470.27C471.561 217.827 472.798 217.313 473.711 216.401C474.623 215.488 475.137 214.251 475.14 212.96V199C475.137 197.709 474.623 196.472 473.711 195.559C472.798 194.647 471.561 194.133 470.27 194.13H468.45V153.38C468.451 152.407 468.254 151.444 467.87 150.55C467.317 149.219 466.381 148.083 465.181 147.285C463.981 146.488 462.571 146.065 461.13 146.07H390.5Z" fill="#4B0062"/>
<path d="M414.06 195.17L408.85 216.48H419.27L414.06 195.17Z" fill="#F48001"/>
<path d="M468.95 153.38V193.67H461.47V150.35H468.33C468.741 151.307 468.952 152.338 468.95 153.38Z" fill="#4B0062"/>
<path d="M469.45 194.17H461V149.85H468.69L468.82 150.15C469.258 151.17 469.483 152.27 469.48 153.38L469.45 194.17ZM461.97 193.17H468.45V153.38C468.452 152.516 468.296 151.658 467.99 150.85H461.99L461.97 193.17Z" fill="#4B0062"/>
<path d="M468.95 153.38V164.38L461.83 160.38L461.47 160.58L454.63 164.38L447.44 160.38L440.24 164.38L433.04 160.38L425.85 164.38L418.65 160.38L411.46 164.38L404.26 160.38L397.07 164.38L389.87 160.38L382.68 164.38V153.38C382.683 151.308 383.508 149.321 384.974 147.857C386.44 146.393 388.428 145.57 390.5 145.57H461.13C462.668 145.567 464.172 146.019 465.454 146.87C466.735 147.721 467.736 148.932 468.33 150.35C468.741 151.307 468.952 152.338 468.95 153.38Z" fill="#4B0062"/>
<path d="M382.18 165.31V153.38C382.183 151.175 383.06 149.061 384.62 147.503C386.18 145.945 388.295 145.07 390.5 145.07H461.13C462.767 145.065 464.369 145.546 465.733 146.452C467.096 147.358 468.16 148.649 468.79 150.16C469.227 151.177 469.451 152.273 469.45 153.38V165.28L461.83 161L454.63 165L447.44 161L440.24 165L433.04 161L425.85 165L418.65 161L411.46 165L404.26 161L397.07 165L389.87 161L382.18 165.31ZM433 159.9L440.2 163.9L447.4 159.9L454.59 163.9L461.79 159.9L468.41 163.58V153.38C468.411 152.407 468.214 151.444 467.83 150.55C467.277 149.219 466.341 148.083 465.141 147.285C463.941 146.488 462.531 146.065 461.09 146.07H390.5C388.56 146.07 386.7 146.84 385.328 148.21C383.955 149.581 383.183 151.44 383.18 153.38V163.61L389.87 159.9L397.07 163.9L404.26 159.9L411.46 163.9L418.65 159.9L425.85 163.9L433 159.9Z" fill="#4B0062"/>
<path d="M377.42 162.76H369.44V182.02H377.42V162.76Z" fill="#A26BB4"/>
<path d="M377.92 182.52H368.92V162.26H377.92V182.52ZM369.92 181.52H376.92V163.26H369.92V181.52Z" fill="#4B0062"/>
<path d="M382.69 169.21H377.42V175.57H382.69V169.21Z" fill="#A26BB4"/>
<path d="M383.18 176.07H376.91V168.71H383.18V176.07ZM377.91 175.07H382.18V169.71H377.91V175.07Z" fill="#4B0062"/>
<path d="M464.46 182.03H472.44V162.77H464.46V182.03Z" fill="#A26BB4"/>
<path d="M472.94 182.52H463.94V162.26H472.94V182.52ZM464.94 181.52H471.94V163.26H464.94V181.52Z" fill="#4B0062"/>
<path d="M456.11 175.58H464.46V169.22H456.11V175.58Z" fill="#A26BB4"/>
<path d="M465 176.07H455.65V168.71H465V176.07ZM456.65 175.07H464V169.71H456.65V175.07Z" fill="#4B0062"/>
<path d="M452.84 172.38H382.68V173.38H452.84V172.38Z" fill="#4B0062"/>
<path d="M445.99 169.21H444.99V176.18H445.99V169.21Z" fill="#4B0062"/>
<path d="M432.13 169.21H431.13V176.18H432.13V169.21Z" fill="#4B0062"/>
<path d="M418.27 169.21H417.27V176.18H418.27V169.21Z" fill="#4B0062"/>
<path d="M404.41 169.21H403.41V176.18H404.41V169.21Z" fill="#4B0062"/>
<path d="M390.54 169.21H389.54V176.18H390.54V169.21Z" fill="#4B0062"/>
<path d="M447.04 180.24H386.5V185.85H447.04V180.24Z" fill="#4B0062"/>
<path d="M447.54 186.34H386V179.73H447.54V186.34ZM387 185.34H446.54V180.73H387V185.34Z" fill="#4B0062"/>
<path d="M406.41 187.08C406.41 189.43 405.477 191.683 403.815 193.345C402.153 195.007 399.9 195.94 397.55 195.94C395.2 195.94 392.947 195.007 391.285 193.345C389.623 191.683 388.69 189.43 388.69 187.08C388.689 186.668 388.719 186.257 388.78 185.85H406.32C406.381 186.257 406.411 186.668 406.41 187.08Z" fill="#FFF0DC"/>
<path d="M397.55 196.44C395.068 196.437 392.689 195.45 390.934 193.696C389.18 191.941 388.193 189.562 388.19 187.08C388.191 186.645 388.225 186.21 388.29 185.78L388.35 185.35H406.75L406.81 185.78C406.875 186.21 406.909 186.645 406.91 187.08C406.907 189.562 405.92 191.941 404.166 193.696C402.411 195.45 400.032 196.437 397.55 196.44ZM389.22 186.35C389.22 186.59 389.22 186.83 389.22 187.08C389.22 189.297 390.101 191.424 391.669 192.991C393.236 194.559 395.363 195.44 397.58 195.44C399.797 195.44 401.924 194.559 403.491 192.991C405.059 191.424 405.94 189.297 405.94 187.08C405.94 186.83 405.94 186.59 405.94 186.35H389.22Z" fill="#4B0062"/>
<path d="M398.8 187C398.869 187.562 398.818 188.133 398.65 188.674C398.483 189.215 398.202 189.714 397.826 190.139C397.451 190.563 396.99 190.903 396.473 191.136C395.957 191.369 395.397 191.489 394.83 191.489C394.263 191.489 393.703 191.369 393.187 191.136C392.67 190.903 392.209 190.563 391.834 190.139C391.458 189.714 391.177 189.215 391.01 188.674C390.842 188.133 390.791 187.562 390.86 187C390.86 186.607 390.918 186.216 391.03 185.84H398.63C398.742 186.216 398.8 186.607 398.8 187Z" fill="#F44B1B"/>
<path d="M394.83 191.48C393.644 191.48 392.508 191.009 391.669 190.171C390.831 189.332 390.36 188.195 390.36 187.01C390.361 186.57 390.425 186.132 390.55 185.71L390.66 185.35H399L399.11 185.71C399.235 186.132 399.299 186.57 399.3 187.01C399.3 188.195 398.829 189.332 397.991 190.171C397.152 191.009 396.016 191.48 394.83 191.48ZM391.42 186.35C391.379 186.568 391.359 186.789 391.36 187.01C391.36 187.93 391.726 188.813 392.376 189.464C393.027 190.114 393.91 190.48 394.83 190.48C395.75 190.48 396.633 190.114 397.284 189.464C397.934 188.813 398.3 187.93 398.3 187.01C398.301 186.789 398.281 186.568 398.24 186.35H391.42Z" fill="#4B0062"/>
<path d="M440.12 187.08C440.12 189.43 439.187 191.683 437.525 193.345C435.863 195.007 433.61 195.94 431.26 195.94C428.91 195.94 426.657 195.007 424.995 193.345C423.333 191.683 422.4 189.43 422.4 187.08C422.399 186.668 422.429 186.257 422.49 185.85H440C440.071 186.256 440.111 186.668 440.12 187.08Z" fill="#FFF0DC"/>
<path d="M431.26 196.44C428.778 196.437 426.399 195.45 424.644 193.696C422.89 191.941 421.903 189.562 421.9 187.08C421.9 186.641 421.934 186.204 422 185.77L422.06 185.35H440.46L440.52 185.78C440.585 186.21 440.619 186.645 440.62 187.08C440.617 189.562 439.63 191.941 437.876 193.696C436.121 195.45 433.742 196.437 431.26 196.44ZM422.93 186.35C422.93 186.59 422.93 186.83 422.93 187.08C422.93 189.297 423.811 191.424 425.379 192.991C426.946 194.559 429.073 195.44 431.29 195.44C433.507 195.44 435.634 194.559 437.201 192.991C438.769 191.424 439.65 189.297 439.65 187.08C439.65 186.83 439.65 186.59 439.65 186.35H422.93Z" fill="#4B0062"/>
<path d="M432.51 187C432.585 187.565 432.539 188.139 432.374 188.685C432.209 189.23 431.93 189.734 431.554 190.163C431.179 190.592 430.716 190.935 430.197 191.171C429.678 191.406 429.115 191.528 428.545 191.528C427.975 191.528 427.412 191.406 426.893 191.171C426.374 190.935 425.911 190.592 425.536 190.163C425.16 189.734 424.881 189.23 424.716 188.685C424.551 188.139 424.505 187.565 424.58 187C424.58 186.607 424.638 186.216 424.75 185.84H432.34C432.452 186.216 432.51 186.607 432.51 187Z" fill="#F44B1B"/>
<path d="M428.54 191.48C427.356 191.477 426.222 191.005 425.386 190.167C424.55 189.329 424.08 188.194 424.08 187.01C424.08 186.57 424.144 186.132 424.27 185.71L424.38 185.35H432.72L432.83 185.71C432.948 186.13 433.005 186.564 433 187C433.001 187.587 432.887 188.169 432.664 188.711C432.44 189.254 432.112 189.748 431.698 190.164C431.284 190.58 430.792 190.91 430.25 191.136C429.708 191.362 429.127 191.479 428.54 191.48ZM425.14 186.35C425.046 186.85 425.063 187.364 425.19 187.857C425.317 188.35 425.552 188.808 425.876 189.2C426.201 189.591 426.608 189.907 427.068 190.123C427.529 190.339 428.031 190.452 428.54 190.452C429.049 190.452 429.551 190.339 430.012 190.123C430.472 189.907 430.879 189.591 431.204 189.2C431.528 188.808 431.763 188.35 431.89 187.857C432.017 187.364 432.034 186.85 431.94 186.35H425.14Z" fill="#4B0062"/>
<path d="M445.89 229.28H390.86V230.28H445.89V229.28Z" fill="#4B0062"/>
<path d="M407.79 225.37H398.15V229.78H407.79V225.37Z" fill="#FFF0DC"/>
<path d="M408.29 230.28H397.65V224.87H408.29V230.28ZM398.65 229.28H407.29V225.87H398.65V229.28Z" fill="#4B0062"/>
<path d="M435.46 225.37H425.82V229.78H435.46V225.37Z" fill="#FFF0DC"/>
<path d="M436 230.28H425.32V224.87H436V230.28ZM426.36 229.28H435V225.87H426.36V229.28Z" fill="#4B0062"/>
<path d="M462.063 228.467L434.447 248.961L435.043 249.764L462.659 229.27L462.063 228.467Z" fill="#4B0062"/>
<path d="M455.245 228.666L454.469 229.297L460.019 236.126L460.795 235.495L455.245 228.666Z" fill="#4B0062"/>
<path d="M447.373 234.765L446.597 235.396L452.147 242.225L452.923 241.594L447.373 234.765Z" fill="#4B0062"/>
<path d="M439.49 240.826L438.714 241.457L444.263 248.287L445.039 247.656L439.49 240.826Z" fill="#4B0062"/>
<path d="M433 440.84V473.2H420.49V465.12L418.2 467.41L412.41 473.2H361.86V455.2C361.86 453.587 362.501 452.041 363.641 450.901C364.781 449.761 366.327 449.12 367.94 449.12H389.43V440.88L433 440.84Z" fill="#A26BB4"/>
<path d="M433.48 473.7H420V466.33L412.63 473.7H361.36V455.16C361.363 453.416 362.057 451.744 363.29 450.51C364.524 449.277 366.196 448.583 367.94 448.58H388.94V440.34H433.49L433.48 473.7ZM420.99 472.7H432.48V441.34H389.93V449.58H367.93C366.451 449.583 365.033 450.171 363.987 451.217C362.941 452.263 362.353 453.681 362.35 455.16V472.7H412.2L420.99 463.91V472.7Z" fill="#4B0062"/>
<path d="M504.09 455.16V473.16H453.54L447.76 467.37L445.47 465.08V473.16H433V440.84H476.54V449.08H498C498.799 449.079 499.591 449.235 500.33 449.54C501.069 449.845 501.74 450.293 502.306 450.857C502.871 451.422 503.32 452.093 503.626 452.831C503.932 453.569 504.09 454.361 504.09 455.16Z" fill="#A26BB4"/>
<path d="M504.59 473.7H453.33L446 466.33V473.7H432.48V440.34H477V448.58H498C499.744 448.583 501.416 449.277 502.65 450.51C503.883 451.744 504.577 453.416 504.58 455.16L504.59 473.7ZM453.75 472.7H503.59V455.16C503.587 453.681 502.999 452.263 501.953 451.217C500.907 450.171 499.489 449.583 498.01 449.58H476V441.34H433.48V472.7H445V463.91L453.75 472.7Z" fill="#4B0062"/>
<path d="M531.09 269.61C530.228 267.265 528.712 265.215 526.722 263.703C524.732 262.192 522.351 261.282 519.86 261.08L493.12 188.54C494.883 186.769 496.103 184.531 496.635 182.09C497.168 179.649 496.991 177.106 496.126 174.762C495.261 172.418 493.743 170.37 491.753 168.86C489.762 167.35 487.381 166.441 484.89 166.24L489.45 178.61L479.1 182.43L474.54 170.06C472.779 171.831 471.56 174.069 471.027 176.51C470.495 178.951 470.671 181.493 471.534 183.837C472.398 186.181 473.914 188.229 475.902 189.741C477.891 191.253 480.27 192.165 482.76 192.37L509.5 264.91C507.737 266.681 506.517 268.919 505.985 271.36C505.452 273.801 505.629 276.344 506.494 278.688C507.359 281.032 508.877 283.08 510.867 284.59C512.858 286.1 515.239 287.009 517.73 287.21L513.17 274.84L523.52 271L528.08 283.37C529.843 281.603 531.064 279.369 531.597 276.93C532.131 274.492 531.955 271.952 531.09 269.61Z" fill="#4B0062"/>
<path d="M518.47 287.77L517.69 287.71C515.13 287.504 512.682 286.577 510.627 285.037C508.572 283.497 506.995 281.406 506.079 279.008C505.162 276.609 504.944 274 505.448 271.482C505.953 268.964 507.16 266.64 508.93 264.78L482.4 192.84C479.849 192.568 477.426 191.581 475.412 189.992C473.397 188.403 471.873 186.277 471.015 183.859C470.157 181.441 469.999 178.83 470.561 176.326C471.123 173.823 472.381 171.529 474.19 169.71L474.74 169.16L479.4 181.79L488.81 178.32L484.15 165.68L484.93 165.74C487.49 165.946 489.938 166.873 491.993 168.413C494.048 169.953 495.625 172.044 496.541 174.442C497.458 176.841 497.676 179.45 497.172 181.968C496.667 184.486 495.46 186.81 493.69 188.67L520.22 260.61C522.771 260.882 525.194 261.869 527.208 263.458C529.223 265.047 530.747 267.173 531.605 269.591C532.463 272.009 532.621 274.62 532.059 277.124C531.497 279.627 530.239 281.921 528.43 283.74L527.88 284.29L523.22 271.66L513.81 275.13L518.47 287.77ZM474.35 171C472.81 172.756 471.789 174.906 471.399 177.209C471.01 179.512 471.267 181.878 472.143 184.043C473.02 186.208 474.48 188.087 476.362 189.471C478.243 190.855 480.472 191.689 482.8 191.88H483.12L510.12 265.01L509.89 265.24C508.237 266.894 507.076 268.975 506.538 271.25C506 273.526 506.106 275.906 506.844 278.125C507.582 280.344 508.922 282.314 510.716 283.814C512.51 285.314 514.686 286.286 517 286.62L512.55 274.54L523.84 270.37L528.29 282.45C529.785 280.745 530.792 278.668 531.206 276.438C531.619 274.208 531.424 271.908 530.64 269.78C529.806 267.528 528.347 265.56 526.434 264.108C524.521 262.655 522.234 261.778 519.84 261.58H519.52L492.52 188.44L492.82 188.15C494.448 186.486 495.585 184.404 496.103 182.135C496.62 179.865 496.5 177.497 495.755 175.291C495.009 173.086 493.668 171.13 491.879 169.64C490.09 168.15 487.924 167.184 485.62 166.85L490.07 178.93L478.78 183.1L474.35 171Z" fill="#4B0062"/>
<path d="M580.19 200.94V242.86C580.182 245.556 579.104 248.138 577.194 250.039C575.283 251.94 572.696 253.005 570 253H497.64C494.943 253 492.356 251.929 490.449 250.021C488.541 248.114 487.47 245.527 487.47 242.83V200.94H580.19Z" fill="#F48001"/>
<path d="M570 253.53H497.64C494.816 253.519 492.111 252.391 490.117 250.391C488.124 248.392 487.003 245.684 487 242.86V200.44H580.72V242.86C580.719 244.265 580.44 245.656 579.9 246.953C579.361 248.25 578.57 249.428 577.574 250.42C576.578 251.411 575.397 252.196 574.097 252.729C572.797 253.263 571.405 253.535 570 253.53ZM488 201.44V242.86C488.003 245.424 489.022 247.882 490.835 249.695C492.648 251.508 495.106 252.527 497.67 252.53H570C572.564 252.527 575.022 251.508 576.835 249.695C578.648 247.882 579.667 245.424 579.67 242.86V201.44H488Z" fill="#4B0062"/>
<path d="M524.87 200.94V253H497.64C494.943 253 492.356 251.929 490.449 250.021C488.541 248.114 487.47 245.527 487.47 242.83V200.94H524.87Z" fill="#FFF0DC"/>
<path d="M525.37 253.53H497.64C494.816 253.519 492.111 252.391 490.117 250.391C488.124 248.392 487.003 245.684 487 242.86V200.44H525.4L525.37 253.53ZM488 201.44V242.86C488.003 245.424 489.022 247.882 490.835 249.695C492.648 251.508 495.106 252.527 497.67 252.53H524.4V201.44H488Z" fill="#4B0062"/>
<path d="M433.48 354.58H432.48V440.84H433.48V354.58Z" fill="#A26BB4"/>
<path d="M507.28 213.47H487.47V214.47H507.28V213.47Z" fill="#4B0062"/>
<path d="M507.28 226.49H487.47V227.49H507.28V226.49Z" fill="#4B0062"/>
<path d="M507.28 239.51H487.47V240.51H507.28V239.51Z" fill="#4B0062"/>
<path d="M287.26 276.38H267.45V277.38H287.26V276.38Z" fill="#4B0062"/>
<path d="M287.26 288.58H267.45V289.58H287.26V288.58Z" fill="#4B0062"/>
<path d="M287.26 300.78H267.45V301.78H287.26V300.78Z" fill="#4B0062"/>
<path d="M462.66 200.78H467.85C468.616 200.78 469.352 201.085 469.894 201.626C470.436 202.168 470.74 202.904 470.74 203.67V208.33C470.74 209.097 470.436 209.832 469.894 210.374C469.352 210.916 468.616 211.22 467.85 211.22H462.66V200.78Z" fill="#4B0062"/>
<path d="M467.84 211.72H462.15V200.28H467.84C468.739 200.28 469.601 200.637 470.237 201.273C470.873 201.909 471.23 202.771 471.23 203.67V208.33C471.23 208.775 471.142 209.216 470.972 209.627C470.802 210.039 470.552 210.412 470.237 210.727C469.922 211.042 469.549 211.292 469.137 211.462C468.726 211.632 468.285 211.72 467.84 211.72ZM463.15 210.72H467.84C468.474 210.72 469.082 210.468 469.53 210.02C469.978 209.572 470.23 208.964 470.23 208.33V203.67C470.23 203.036 469.978 202.428 469.53 201.98C469.082 201.532 468.474 201.28 467.84 201.28H463.15V210.72Z" fill="#4B0062"/>
<path d="M361.86 467.41H418.2L412.41 473.2H361.86V467.41Z" fill="#4B0062"/>
<path d="M412.62 473.7H361.36V466.91H419.36L412.62 473.7ZM362.36 472.7H412.2L416.99 467.91H362.36V472.7Z" fill="#4B0062"/>
<path d="M432.98 467.41H420.49V473.2H432.98V467.41Z" fill="#4B0062"/>
<path d="M433.48 473.7H420V466.91H433.49L433.48 473.7ZM420.99 472.7H432.48V467.91H421L420.99 472.7Z" fill="#4B0062"/>
<path d="M445.47 467.41H432.98V473.2H445.47V467.41Z" fill="#4B0062"/>
<path d="M446 473.7H432.48V466.91H446V473.7ZM433.51 472.7H445V467.91H433.48L433.51 472.7Z" fill="#4B0062"/>
<path d="M504.09 467.41V473.2H453.54L447.76 467.41H504.09Z" fill="#4B0062"/>
<path d="M504.59 473.7H453.33L446.55 466.91H504.55L504.59 473.7ZM453.75 472.7H503.59V467.91H449L453.75 472.7Z" fill="#4B0062"/>
<path d="M433.48 467.41H432.48V473.2H433.48V467.41Z" fill="#A26BB4"/>
<path d="M560.27 472.69H300.18V473.69H560.27V472.69Z" fill="#4B0062"/>
<path d="M292.49 247.73H281.51V320.45H292.49V247.73Z" fill="#4B0062"/>
<path d="M293 321H281V247.23H293V321ZM282 320H292V248.23H282V320Z" fill="#4B0062"/>
<path d="M287 253.45C303.696 253.45 317.23 233.755 317.23 209.46C317.23 185.165 303.696 165.47 287 165.47C270.304 165.47 256.77 185.165 256.77 209.46C256.77 233.755 270.304 253.45 287 253.45Z" fill="#4B0062"/>
<path d="M287 254C270.05 254 256.27 234 256.27 209.51C256.27 185.02 270.06 165 287 165C303.94 165 317.73 185 317.73 209.49C317.73 233.98 303.95 254 287 254ZM287 166C270.61 166 257.27 185.51 257.27 209.49C257.27 233.47 270.61 253 287 253C303.39 253 316.73 233.49 316.73 209.51C316.73 185.53 303.4 166 287 166Z" fill="#4B0062"/>
<path d="M287 244.98C300.481 244.98 311.41 229.077 311.41 209.46C311.41 189.843 300.481 173.94 287 173.94C273.519 173.94 262.59 189.843 262.59 209.46C262.59 229.077 273.519 244.98 287 244.98Z" fill="#FFF0DC"/>
<path d="M287 245.48C273.27 245.48 262.09 229.32 262.09 209.48C262.09 189.64 273.26 173.48 287 173.48C300.74 173.48 311.91 189.64 311.91 209.48C311.91 229.32 300.74 245.48 287 245.48ZM287 174.48C273.82 174.48 263.09 190.19 263.09 209.48C263.09 228.77 273.82 244.48 287 244.48C300.18 244.48 310.91 228.77 310.91 209.48C310.91 190.19 300.19 174.45 287 174.45V174.48Z" fill="#4B0062"/>
<path d="M296.513 191.855L275.485 223.206L276.316 223.763L297.343 192.412L296.513 191.855Z" fill="#4B0062"/>
<path d="M287.381 191.782L277.072 205.275L277.867 205.882L288.175 192.39L287.381 191.782Z" fill="#4B0062"/>
<path d="M220.06 180C220.712 180 221.24 179.266 221.24 178.36C221.24 177.454 220.712 176.72 220.06 176.72C219.408 176.72 218.88 177.454 218.88 178.36C218.88 179.266 219.408 180 220.06 180Z" fill="#4B0062"/>
<path d="M220.06 206.87C220.712 206.87 221.24 206.136 221.24 205.23C221.24 204.324 220.712 203.59 220.06 203.59C219.408 203.59 218.88 204.324 218.88 205.23C218.88 206.136 219.408 206.87 220.06 206.87Z" fill="#4B0062"/>
<path d="M233.5 192.98C234.406 192.98 235.14 192.452 235.14 191.8C235.14 191.148 234.406 190.62 233.5 190.62C232.594 190.62 231.86 191.148 231.86 191.8C231.86 192.452 232.594 192.98 233.5 192.98Z" fill="#4B0062"/>
<path d="M206.63 192.98C207.536 192.98 208.27 192.452 208.27 191.8C208.27 191.148 207.536 190.62 206.63 190.62C205.724 190.62 204.99 191.148 204.99 191.8C204.99 192.452 205.724 192.98 206.63 192.98Z" fill="#4B0062"/>
<path d="M220.56 181.71H219.56V201.89H220.56V181.71Z" fill="#4B0062"/>
<path d="M230.15 191.29H209.97V192.29H230.15V191.29Z" fill="#4B0062"/>
<path d="M215.218 186.239L214.511 186.946L224.913 197.348L225.62 196.641L215.218 186.239Z" fill="#4B0062"/>
<path d="M224.913 186.232L214.511 196.634L215.218 197.341L225.62 186.939L224.913 186.232Z" fill="#4B0062"/>
<path d="M327.03 126.8H326.03V145.56H327.03V126.8Z" fill="#4B0062"/>
<path d="M332.44 135.68H320.63V136.68H332.44V135.68Z" fill="#4B0062"/>
<path d="M346.61 157.93H345.61V171.01H346.61V157.93Z" fill="#4B0062"/>
<path d="M350.41 163.97H341.81V164.97H350.41V163.97Z" fill="#4B0062"/>
<path d="M326.53 351.8C328.943 351.8 330.9 349.843 330.9 347.43C330.9 345.017 328.943 343.06 326.53 343.06C324.117 343.06 322.16 345.017 322.16 347.43C322.16 349.843 324.117 351.8 326.53 351.8Z" fill="#A26BB4"/>
<path d="M313.48 360.02C314.623 360.02 315.55 359.093 315.55 357.95C315.55 356.807 314.623 355.88 313.48 355.88C312.337 355.88 311.41 356.807 311.41 357.95C311.41 359.093 312.337 360.02 313.48 360.02Z" fill="#A26BB4"/>
<path d="M524.67 176.18C527.415 176.18 529.64 173.955 529.64 171.21C529.64 168.465 527.415 166.24 524.67 166.24C521.925 166.24 519.7 168.465 519.7 171.21C519.7 173.955 521.925 176.18 524.67 176.18Z" fill="#A26BB4"/>
<path d="M592.92 207.79C594.08 207.79 595.02 206.85 595.02 205.69C595.02 204.53 594.08 203.59 592.92 203.59C591.76 203.59 590.82 204.53 590.82 205.69C590.82 206.85 591.76 207.79 592.92 207.79Z" fill="#A26BB4"/>
<path d="M526.94 453.52C529.685 453.52 531.91 451.295 531.91 448.55C531.91 445.805 529.685 443.58 526.94 443.58C524.195 443.58 521.97 445.805 521.97 448.55C521.97 451.295 524.195 453.52 526.94 453.52Z" fill="#A26BB4"/>
<path d="M508.62 441.79C510.039 441.79 511.19 440.639 511.19 439.22C511.19 437.801 510.039 436.65 508.62 436.65C507.201 436.65 506.05 437.801 506.05 439.22C506.05 440.639 507.201 441.79 508.62 441.79Z" fill="#A26BB4"/>
</g>
<defs>
<clipPath id="clip0_20_3">
<rect width="800" height="600" fill="white"/>
</clipPath>
</defs>
</svg>
