<svg width="800" height="600" viewBox="0 0 800 600" fill="none" xmlns="http://www.w3.org/2000/svg">
<g clip-path="url(#clip0_20_1411)">
<path d="M308.613 210.336L212.335 225.896L222.713 290.108L318.99 274.548L308.613 210.336Z" fill="#4B0062"/>
<path d="M221.5 290.05L221.42 289.56L211 225L308 209.35L308.08 209.84L318.49 274.37L221.5 290.05ZM212.16 225.86L222.33 288.86L317.33 273.53L307.16 210.53L212.16 225.86Z" fill="#4B0062"/>
<path d="M303.978 207.149L214.822 221.541L225.158 285.572L314.314 271.18L303.978 207.149Z" fill="#FFF0DC"/>
<path d="M224.73 286.17L224.65 285.68L214.24 221.15L304.38 206.61L304.46 207.1L314.87 271.63L224.73 286.17ZM215.39 222L225.56 285L313.73 270.77L303.56 207.77L215.39 222Z" fill="#4B0062"/>
<path d="M500.27 356.97L447.74 328.92L359.16 281.63L371.05 247.66H348.67L380.39 220.96L419.94 107.93L422.4 100.89H468.23L434.58 118.96L452.35 183.35L482.86 293.89L483.85 297.46L500.27 356.97Z" fill="#FFF0DC"/>
<path d="M501.06 358L358.54 281.87L370.34 248.16H347.34L380 220.66L422 100.39H470.17L435.12 119.21L501.06 358ZM359.77 281.39L499.47 356L434 118.71L466.25 101.39H422.75L420.41 108.1L380.81 221.25L350 247.16H371.72L359.77 281.39Z" fill="#4B0062"/>
<path d="M500.27 356.97L447.74 328.92V293.89H482.86L483.85 297.46L500.27 356.97Z" fill="#F48001"/>
<path d="M501.06 358L447.24 329.26V293.39H483.24L484.33 297.33L501.06 358ZM448.24 328.66L499.47 356L482.47 294.41H448.24V328.66Z" fill="#4B0062"/>
<path d="M473.27 301.54L500.27 356.97H447.73L466.37 301.54H473.27Z" fill="#4B0062"/>
<path d="M501.07 357.47H447L466 301H473.57L501.07 357.47ZM448.43 356.47H499.43L473 302H466.77L448.43 356.47Z" fill="#4B0062"/>
<path d="M483.85 297.46H440.2L414.27 208.84L462.88 221.5L483.85 297.46Z" fill="#F48001"/>
<path d="M484.5 298H439.82L439.72 297.64L413.54 208.17L463.28 221.17L463.36 221.45L484.5 298ZM440.57 297H483.19L462.47 222L415 209.54L440.57 297Z" fill="#4B0062"/>
<path d="M416.57 189.118L415.61 189.399L447.26 297.563L448.22 297.283L416.57 189.118Z" fill="#4B0062"/>
<path d="M424.116 189.111L423.157 189.391L454.807 297.556L455.766 297.275L424.116 189.111Z" fill="#4B0062"/>
<path d="M431.663 189.11L430.703 189.391L462.353 297.556L463.313 297.275L431.663 189.11Z" fill="#4B0062"/>
<path d="M439.199 189.113L438.239 189.394L469.889 297.558L470.849 297.277L439.199 189.113Z" fill="#4B0062"/>
<path d="M446.747 189.1L445.788 189.381L491.8 346.628L492.759 346.347L446.747 189.1Z" fill="#4B0062"/>
<path d="M452.35 183.35L462.88 221.5L387.1 201.77L419.94 107.93L422.4 100.89H468.23L434.58 118.96L452.35 183.35Z" fill="#4B0062"/>
<path d="M463.59 222.2L386.45 202.12L386.63 201.61L422 100.39H470.17L435.12 119.21L463.59 222.2ZM387.75 201.42L462.17 220.8L434 118.71L466.25 101.39H422.75L387.75 201.42Z" fill="#4B0062"/>
<path d="M461.01 214.73L389.12 196.01L393.55 183.35L456.9 199.84L461.01 214.73Z" fill="#A26BB4"/>
<path d="M461.72 215.43L388.47 196.36L393.23 182.75L457.3 199.43L461.72 215.43ZM389.72 195.66L460.29 214L456.49 200.22L393.87 183.92L389.72 195.66Z" fill="#4B0062"/>
<path d="M316.987 182.986L316.735 183.953L521.076 237.142L521.328 236.174L316.987 182.986Z" fill="#4B0062"/>
<path d="M383.2 261.72C380.302 261.665 377.429 261.17 374.68 260.25L374.99 259.25C378.99 260.55 386.45 262.13 391.27 258.13C394.91 255.13 396.27 249.49 395.18 241.44L396.18 241.31C397.27 249.72 395.84 255.63 391.92 258.89C389.44 260.835 386.35 261.838 383.2 261.72Z" fill="#4B0062"/>
<path d="M395.27 230.86C397.838 230.86 399.92 228.778 399.92 226.21C399.92 223.642 397.838 221.56 395.27 221.56C392.702 221.56 390.62 223.642 390.62 226.21C390.62 228.778 392.702 230.86 395.27 230.86Z" fill="#4B0062"/>
<path d="M410.06 219.88C407.62 213.03 398.79 209.26 392.79 210.58L392.58 209.58C399.09 208.14 408.36 212.09 411 219.52L410.06 219.88Z" fill="#4B0062"/>
<path d="M323.63 196.39C324.155 196.39 324.58 195.799 324.58 195.07C324.58 194.341 324.155 193.75 323.63 193.75C323.105 193.75 322.68 194.341 322.68 195.07C322.68 195.799 323.105 196.39 323.63 196.39Z" fill="#4B0062"/>
<path d="M323.63 217.99C324.155 217.99 324.58 217.399 324.58 216.67C324.58 215.941 324.155 215.35 323.63 215.35C323.105 215.35 322.68 215.941 322.68 216.67C322.68 217.399 323.105 217.99 323.63 217.99Z" fill="#4B0062"/>
<path d="M334.43 206.82C335.159 206.82 335.75 206.395 335.75 205.87C335.75 205.345 335.159 204.92 334.43 204.92C333.701 204.92 333.11 205.345 333.11 205.87C333.11 206.395 333.701 206.82 334.43 206.82Z" fill="#4B0062"/>
<path d="M312.84 206.82C313.569 206.82 314.16 206.395 314.16 205.87C314.16 205.345 313.569 204.92 312.84 204.92C312.111 204.92 311.52 205.345 311.52 205.87C311.52 206.395 312.111 206.82 312.84 206.82Z" fill="#4B0062"/>
<path d="M324.13 197.76H323.13V213.97H324.13V197.76Z" fill="#4B0062"/>
<path d="M331.73 205.37H315.52V206.37H331.73V205.37Z" fill="#4B0062"/>
<path d="M319.808 201.329L319.1 202.036L327.458 210.394L328.166 209.687L319.808 201.329Z" fill="#4B0062"/>
<path d="M327.459 201.339L319.1 209.697L319.808 210.404L328.166 202.046L327.459 201.339Z" fill="#4B0062"/>
<path d="M227.81 184.23C228.379 184.23 228.84 183.899 228.84 183.49C228.84 183.081 228.379 182.75 227.81 182.75C227.241 182.75 226.78 183.081 226.78 183.49C226.78 183.899 227.241 184.23 227.81 184.23Z" fill="#4B0062"/>
<path d="M210.91 184.23C211.479 184.23 211.94 183.899 211.94 183.49C211.94 183.081 211.479 182.75 210.91 182.75C210.341 182.75 209.88 183.081 209.88 183.49C209.88 183.899 210.341 184.23 210.91 184.23Z" fill="#4B0062"/>
<path d="M219.86 177.14H218.86V189.83H219.86V177.14Z" fill="#4B0062"/>
<path d="M225.71 182.98H213.02V183.98H225.71V182.98Z" fill="#4B0062"/>
<path d="M216.438 179.849L215.731 180.556L222.271 187.096L222.978 186.389L216.438 179.849Z" fill="#4B0062"/>
<path d="M222.288 179.859L215.748 186.399L216.455 187.106L222.995 180.566L222.288 179.859Z" fill="#4B0062"/>
<path d="M259.99 310.92C260.625 310.92 261.14 310.548 261.14 310.09C261.14 309.632 260.625 309.26 259.99 309.26C259.355 309.26 258.84 309.632 258.84 310.09C258.84 310.548 259.355 310.92 259.99 310.92Z" fill="#4B0062"/>
<path d="M241.17 310.92C241.805 310.92 242.32 310.548 242.32 310.09C242.32 309.632 241.805 309.26 241.17 309.26C240.535 309.26 240.02 309.632 240.02 310.09C240.02 310.548 240.535 310.92 241.17 310.92Z" fill="#4B0062"/>
<path d="M251.08 303.02H250.08V317.16H251.08V303.02Z" fill="#4B0062"/>
<path d="M257.65 309.59H243.52V310.59H257.65V309.59Z" fill="#4B0062"/>
<path d="M247.288 306.088L246.581 306.795L253.872 314.085L254.579 313.378L247.288 306.088Z" fill="#4B0062"/>
<path d="M253.879 306.088L246.588 313.378L247.295 314.085L254.586 306.795L253.879 306.088Z" fill="#4B0062"/>
<path d="M543.48 301.54H466.37L484.25 364.85H344.47L374.84 303.52L344.47 275.72H543.47C544.377 279.963 544.823 284.291 544.8 288.63C544.832 292.969 544.39 297.298 543.48 301.54Z" fill="#F44B1B"/>
<path d="M484.91 365.35H343.66L374.22 303.64L343.22 275.22H543.89L543.98 275.61C544.891 279.883 545.34 284.241 545.32 288.61C545.342 292.979 544.89 297.338 543.97 301.61L543.88 302H467L484.91 365.35ZM345.28 364.35H483.58L465.71 301H543.08C543.925 296.918 544.34 292.759 544.32 288.59C544.339 284.422 543.927 280.263 543.09 276.18H345.75L375.45 303.36L345.28 364.35Z" fill="#4B0062"/>
<path d="M544.82 288.63C544.846 292.969 544.396 297.298 543.48 301.54H518.3V275.72H543.49C544.397 279.963 544.843 284.291 544.82 288.63Z" fill="#FFF0DC"/>
<path d="M543.88 302H517.8V275.22H543.89L543.98 275.61C544.891 279.883 545.34 284.241 545.32 288.61C545.342 292.979 544.89 297.338 543.97 301.61L543.88 302ZM518.8 301H543.08C543.925 296.918 544.34 292.759 544.32 288.59C544.339 284.422 543.927 280.263 543.09 276.18H518.8V301Z" fill="#4B0062"/>
<path d="M421.95 275.72L421.52 276.46L415.93 286.07L370.11 364.85H344.47L374.84 303.52L344.47 275.72H421.95Z" fill="#4B0062"/>
<path d="M370.39 365.35H343.66L374.22 303.64L343.22 275.22H422.85L416.39 286.32L370.39 365.35ZM345.27 364.35H369.82L421.08 276.22H345.75L375.45 303.4L345.27 364.35Z" fill="#4B0062"/>
<path d="M463.82 275.72L443.67 287.92L434.72 282.62L424.11 276.33L423.09 275.72H463.82Z" fill="#4B0062"/>
<path d="M443.67 288.5L421.28 275.22H465.61L443.67 288.5ZM424.9 276.22L443.66 287.34L462 276.22H424.9Z" fill="#4B0062"/>
<path d="M544.48 280.97H534.03V281.97H544.48V280.97Z" fill="#4B0062"/>
<path d="M544.82 288.13H534.03V289.13H544.82V288.13Z" fill="#4B0062"/>
<path d="M544.48 295.29H534.03V296.29H544.48V295.29Z" fill="#4B0062"/>
<path d="M419.53 298.94L418.55 298.75L422.7 276.73L426.84 298.75L425.86 298.94L422.7 282.13L419.53 298.94Z" fill="#4B0062"/>
<path d="M502.2 371.51C502.2 371.51 532.09 282.15 533.58 273.22C534.73 266.35 540.3 240.58 542.81 229.04C543.197 227.266 543.961 225.596 545.052 224.145C546.143 222.694 547.534 221.495 549.13 220.63L574.39 206.94C575.605 206.28 576.946 205.886 578.324 205.783C579.703 205.681 581.087 205.872 582.386 206.345C583.685 206.817 584.869 207.561 585.859 208.525C586.849 209.49 587.623 210.654 588.13 211.94L596.39 233.11C597.205 235.197 597.391 237.476 596.926 239.667C596.46 241.858 595.363 243.865 593.77 245.44L577.4 261.62C576.973 262.044 576.462 262.375 575.901 262.593C575.34 262.811 574.74 262.911 574.138 262.886C573.537 262.862 572.947 262.714 572.405 262.451C571.863 262.189 571.382 261.817 570.99 261.36C568.31 258.23 564.74 253.67 563.86 250.62C562.4 245.62 567.21 249.84 571.54 250.31C575.87 250.78 578.91 252.63 580.06 240.61C581.21 228.59 581.55 220.43 578.56 220.99C571.92 222.24 557.94 225.85 555.51 228.62C553.08 231.39 548.56 237.51 545.17 254.12C541.56 271.79 513.95 366.86 513.46 366.26L502.2 371.51Z" fill="#F48001"/>
<path d="M501.36 372.45L501.73 371.35C502.03 370.46 531.63 281.92 533.1 273.13C534.25 266.22 539.94 239.91 542.34 228.92C542.74 227.074 543.535 225.337 544.669 223.827C545.802 222.317 547.249 221.069 548.91 220.17L574.17 206.48C575.449 205.788 576.86 205.376 578.311 205.27C579.761 205.165 581.217 205.369 582.583 205.869C583.948 206.37 585.192 207.154 586.231 208.172C587.27 209.189 588.081 210.416 588.61 211.77L596.86 233C597.704 235.178 597.895 237.554 597.408 239.839C596.921 242.123 595.779 244.216 594.12 245.86L577.76 262C577.279 262.467 576.709 262.833 576.083 263.075C575.458 263.317 574.79 263.431 574.12 263.41C573.451 263.385 572.794 263.221 572.191 262.928C571.589 262.635 571.054 262.221 570.62 261.71C567.82 258.44 564.29 253.89 563.39 250.79C562.97 249.34 563.01 248.49 563.52 248.03C564.26 247.35 565.52 247.86 567.35 248.57C568.705 249.176 570.134 249.603 571.6 249.84C572.06 249.84 572.5 249.95 572.92 250.01C574.55 250.25 575.85 250.43 576.86 249.64C578.22 248.57 579.08 245.69 579.57 240.58C580.15 234.58 581.22 223.39 579.34 221.68C579.252 221.594 579.143 221.533 579.023 221.501C578.904 221.47 578.779 221.469 578.66 221.5C571.66 222.81 558.12 226.43 555.89 228.97C554.26 230.83 549.29 236.47 545.66 254.24C544.12 261.77 537.79 285.19 528.72 316.88C525.14 329.38 521.49 341.88 518.72 351.3C514.23 366.38 514 366.66 513.63 366.76L501.36 372.45ZM579 206.25C577.46 206.251 575.944 206.636 574.59 207.37L549.33 221.06C547.796 221.891 546.46 223.043 545.413 224.437C544.365 225.832 543.631 227.436 543.26 229.14C540.87 240.14 535.18 266.41 534.03 273.3C532.62 281.74 506.58 359.84 503.03 370.57L513.11 365.9C514.72 362 541 272.26 544.69 254C548.37 236 553.47 230.18 555.14 228.27C557.88 225.16 573.2 221.47 578.48 220.48C578.752 220.42 579.033 220.427 579.302 220.501C579.57 220.574 579.816 220.711 580.02 220.9C581.9 222.62 581.64 229.44 580.57 240.64C580.04 246.12 579.09 249.13 577.48 250.39C576.13 251.45 574.48 251.21 572.78 250.96C572.36 250.9 571.94 250.84 571.49 250.79C569.943 250.559 568.434 250.125 567 249.5C565.94 249.08 564.51 248.5 564.21 248.77C564.21 248.77 563.95 249.06 564.37 250.51C565.22 253.44 568.66 257.86 571.37 261.06C571.717 261.465 572.144 261.794 572.624 262.027C573.104 262.26 573.627 262.391 574.16 262.413C574.693 262.434 575.225 262.346 575.722 262.153C576.219 261.959 576.671 261.666 577.05 261.29L593.42 245.11C594.94 243.602 595.988 241.684 596.434 239.589C596.88 237.495 596.705 235.316 595.93 233.32L587.67 212.15C586.992 210.415 585.807 208.925 584.269 207.874C582.731 206.824 580.912 206.261 579.05 206.26L579 206.25Z" fill="#4B0062"/>
<path d="M571.36 223.12C571.275 223.12 571.191 223.099 571.117 223.058C571.043 223.016 570.98 222.957 570.935 222.885C570.89 222.813 570.864 222.731 570.86 222.646C570.855 222.561 570.873 222.476 570.91 222.4C572.69 218.85 574.23 213.56 571.49 208.5C571.458 208.442 571.439 208.379 571.432 208.313C571.425 208.248 571.431 208.182 571.449 208.119C571.468 208.055 571.499 207.997 571.54 207.945C571.581 207.894 571.632 207.852 571.69 207.82C571.748 207.788 571.811 207.769 571.877 207.762C571.942 207.755 572.008 207.761 572.071 207.779C572.135 207.798 572.193 207.829 572.245 207.87C572.296 207.911 572.338 207.962 572.37 208.02C574.7 212.32 574.5 217.45 571.8 222.84C571.76 222.923 571.697 222.993 571.619 223.042C571.542 223.091 571.452 223.118 571.36 223.12Z" fill="#4B0062"/>
<path d="M584.75 228C583.388 227.994 582.037 227.764 580.75 227.32C580.688 227.298 580.63 227.265 580.581 227.221C580.531 227.177 580.491 227.124 580.462 227.064C580.434 227.005 580.417 226.94 580.413 226.874C580.409 226.808 580.418 226.742 580.44 226.68C580.462 226.618 580.495 226.56 580.539 226.511C580.583 226.461 580.636 226.421 580.696 226.392C580.755 226.364 580.82 226.347 580.886 226.343C580.952 226.339 581.018 226.348 581.08 226.37C584.49 227.54 589.44 227.37 592.15 222.99C592.22 222.877 592.332 222.797 592.462 222.767C592.591 222.737 592.727 222.76 592.84 222.83C592.953 222.9 593.033 223.012 593.063 223.142C593.093 223.271 593.07 223.407 593 223.52C592.146 224.931 590.932 226.09 589.482 226.877C588.032 227.665 586.399 228.052 584.75 228Z" fill="#4B0062"/>
<path d="M582.53 235.11C581.863 235.11 581.197 235.08 580.53 235.02C580.399 235.007 580.278 234.943 580.194 234.842C580.11 234.741 580.069 234.611 580.08 234.48C580.085 234.415 580.103 234.351 580.133 234.293C580.163 234.234 580.205 234.183 580.255 234.141C580.305 234.099 580.364 234.067 580.426 234.048C580.489 234.029 580.555 234.023 580.62 234.03C586.53 234.59 591.2 232.56 594.14 228.19C594.177 228.135 594.224 228.089 594.279 228.052C594.334 228.016 594.395 227.991 594.46 227.979C594.524 227.966 594.59 227.966 594.655 227.979C594.719 227.993 594.781 228.018 594.835 228.055C594.89 228.092 594.936 228.139 594.972 228.194C595.009 228.249 595.034 228.31 595.046 228.375C595.059 228.439 595.059 228.505 595.046 228.57C595.032 228.634 595.007 228.695 594.97 228.75C593.617 230.789 591.762 232.445 589.583 233.559C587.404 234.673 584.975 235.207 582.53 235.11Z" fill="#4B0062"/>
<path d="M579 247.35C578.867 247.35 578.74 247.297 578.646 247.204C578.553 247.11 578.5 246.983 578.5 246.85C578.5 246.717 578.553 246.59 578.646 246.496C578.74 246.403 578.867 246.35 579 246.35C587.78 246.24 593.08 241.3 595.21 231.23C595.238 231.097 595.317 230.981 595.431 230.907C595.544 230.833 595.682 230.807 595.815 230.835C595.948 230.863 596.064 230.942 596.138 231.056C596.212 231.169 596.238 231.307 596.21 231.44C594 241.89 588.21 247.25 579.03 247.36L579 247.35Z" fill="#4B0062"/>
<path d="M559.66 226.77C559.539 226.771 559.422 226.729 559.33 226.65C556.661 224.392 554.232 221.865 552.08 219.11C552.018 219.003 551.998 218.878 552.023 218.757C552.048 218.637 552.116 218.53 552.216 218.456C552.315 218.383 552.437 218.349 552.56 218.361C552.683 218.373 552.797 218.429 552.88 218.52C554.988 221.217 557.367 223.689 559.98 225.9C560.058 225.967 560.114 226.056 560.139 226.155C560.165 226.255 560.159 226.359 560.123 226.456C560.087 226.552 560.022 226.634 559.938 226.692C559.853 226.75 559.753 226.781 559.65 226.78L559.66 226.77Z" fill="#4B0062"/>
<path d="M555.61 229.06C555.497 229.061 555.388 229.024 555.299 228.955C555.21 228.886 555.147 228.789 555.12 228.68C554.33 225.44 551.5 223.59 546.45 223.03C546.333 223.021 546.222 222.971 546.138 222.889C546.054 222.807 546.001 222.697 545.99 222.58C545.976 222.449 546.014 222.317 546.097 222.214C546.179 222.111 546.299 222.045 546.43 222.03H546.54C552.06 222.64 555.18 224.74 556.08 228.44C556.11 228.569 556.088 228.704 556.019 228.816C555.949 228.929 555.838 229.009 555.71 229.04L555.61 229.06Z" fill="#4B0062"/>
<path d="M550.35 237.48C550.254 237.48 550.16 237.452 550.08 237.4C547.479 235.86 544.651 234.739 541.7 234.08C541.634 234.063 541.573 234.033 541.519 233.992C541.464 233.951 541.419 233.9 541.385 233.842C541.35 233.783 541.328 233.718 541.318 233.651C541.309 233.584 541.313 233.516 541.33 233.45C541.347 233.384 541.377 233.323 541.418 233.269C541.459 233.214 541.51 233.169 541.568 233.134C541.627 233.1 541.692 233.078 541.759 233.068C541.826 233.059 541.894 233.063 541.96 233.08C545.014 233.765 547.94 234.929 550.63 236.53C550.721 236.588 550.79 236.675 550.827 236.776C550.865 236.877 550.869 236.987 550.838 237.091C550.808 237.194 550.745 237.285 550.659 237.35C550.573 237.415 550.468 237.45 550.36 237.45L550.35 237.48Z" fill="#4B0062"/>
<path d="M534.76 267.46C534.635 267.463 534.514 267.418 534.421 267.334C534.328 267.251 534.27 267.135 534.26 267.01C534.252 266.927 534.266 266.843 534.299 266.766C534.332 266.689 534.384 266.622 534.45 266.57C537.957 263.679 541.184 260.464 544.09 256.97C544.133 256.92 544.185 256.879 544.243 256.849C544.302 256.819 544.366 256.802 544.431 256.796C544.497 256.791 544.562 256.799 544.625 256.82C544.687 256.84 544.745 256.872 544.795 256.915C544.845 256.958 544.886 257.01 544.916 257.068C544.945 257.127 544.963 257.191 544.968 257.256C544.974 257.322 544.966 257.387 544.945 257.45C544.925 257.512 544.893 257.57 544.85 257.62C541.91 261.153 538.645 264.404 535.1 267.33C535.019 267.41 534.913 267.46 534.8 267.47L534.76 267.46Z" fill="#4B0062"/>
<path d="M522.39 310.61C522.257 310.634 522.121 310.604 522.01 310.527C521.899 310.45 521.824 310.333 521.8 310.2C521.776 310.067 521.806 309.931 521.883 309.82C521.96 309.709 522.077 309.634 522.21 309.61C525.93 308.21 529.03 306.84 530.97 305.94C531.091 305.884 531.229 305.879 531.353 305.925C531.478 305.971 531.579 306.064 531.635 306.185C531.691 306.306 531.696 306.444 531.65 306.568C531.604 306.693 531.511 306.794 531.39 306.85C529.39 307.76 526.32 309.14 522.57 310.55C522.514 310.582 522.453 310.602 522.39 310.61Z" fill="#4B0062"/>
<path d="M519.05 320.92C518.938 320.921 518.83 320.884 518.742 320.816C518.653 320.747 518.591 320.652 518.563 320.544C518.535 320.436 518.545 320.322 518.589 320.219C518.634 320.117 518.712 320.033 518.81 319.98C521.81 318.37 525.03 316.7 528.38 314.98C528.497 314.931 528.627 314.929 528.746 314.973C528.864 315.016 528.961 315.103 529.018 315.216C529.075 315.329 529.088 315.459 529.053 315.58C529.018 315.701 528.938 315.805 528.83 315.87C525.49 317.57 522.28 319.24 519.28 320.87C519.209 320.905 519.13 320.923 519.05 320.92Z" fill="#4B0062"/>
<path d="M511.48 344C511.371 343.999 511.265 343.962 511.179 343.895C511.093 343.828 511.031 343.735 511.002 343.63C510.974 343.524 510.981 343.413 511.022 343.312C511.063 343.211 511.136 343.126 511.23 343.07C514.77 341.07 517.11 338.16 519.31 333.07C521.8 327.33 524.31 321.93 527.12 319.02C527.164 318.967 527.219 318.925 527.281 318.894C527.343 318.864 527.41 318.846 527.479 318.843C527.548 318.84 527.617 318.851 527.681 318.876C527.745 318.901 527.804 318.938 527.853 318.987C527.902 319.035 527.941 319.093 527.966 319.157C527.992 319.221 528.004 319.289 528.002 319.358C528 319.427 527.983 319.495 527.954 319.557C527.924 319.619 527.882 319.675 527.83 319.72C525.1 322.51 522.68 327.82 520.23 333.47C517.94 338.75 515.48 341.77 511.73 343.91C511.656 343.962 511.57 343.993 511.48 344Z" fill="#4B0062"/>
<path d="M414 286.86C413.373 286.903 412.744 286.793 412.169 286.538C411.594 286.284 411.09 285.893 410.7 285.4C410.325 284.796 410.115 284.104 410.09 283.394C410.066 282.683 410.228 281.978 410.56 281.35C411.341 279.749 412.509 278.369 413.959 277.333C415.408 276.298 417.093 275.64 418.86 275.42C419.563 275.259 420.298 275.31 420.973 275.566C421.647 275.822 422.231 276.271 422.651 276.858C423.071 277.444 423.308 278.142 423.333 278.863C423.358 279.584 423.169 280.296 422.79 280.91C422.009 282.511 420.842 283.892 419.392 284.928C417.943 285.963 416.258 286.621 414.49 286.84L414 286.86ZM419.36 276.4H418.94C417.354 276.606 415.843 277.2 414.542 278.13C413.241 279.06 412.189 280.296 411.48 281.73C411.214 282.2 411.073 282.73 411.073 283.27C411.073 283.81 411.214 284.34 411.48 284.81C411.836 285.213 412.29 285.517 412.798 285.692C413.306 285.868 413.851 285.908 414.38 285.81C415.966 285.604 417.477 285.01 418.778 284.08C420.079 283.15 421.131 281.914 421.84 280.48C422.106 280.011 422.247 279.48 422.247 278.94C422.247 278.4 422.106 277.87 421.84 277.4C421.536 277.042 421.149 276.764 420.714 276.588C420.279 276.412 419.807 276.344 419.34 276.39L419.36 276.4Z" fill="#4B0062"/>
<path d="M431.4 286.86H430.91C429.142 286.641 427.457 285.983 426.008 284.948C424.558 283.912 423.391 282.531 422.61 280.93C422.231 280.316 422.042 279.604 422.067 278.883C422.092 278.162 422.329 277.464 422.749 276.878C423.169 276.291 423.753 275.842 424.427 275.586C425.102 275.33 425.837 275.279 426.54 275.44C428.307 275.66 429.992 276.318 431.441 277.353C432.891 278.389 434.059 279.769 434.84 281.37C435.172 281.998 435.334 282.703 435.31 283.414C435.285 284.124 435.075 284.816 434.7 285.42C434.308 285.909 433.803 286.296 433.228 286.547C432.653 286.798 432.026 286.905 431.4 286.86ZM426 276.39C425.535 276.345 425.066 276.412 424.633 276.586C424.199 276.76 423.814 277.036 423.51 277.39C423.244 277.86 423.103 278.39 423.103 278.93C423.103 279.47 423.244 280 423.51 280.47C424.219 281.904 425.271 283.14 426.572 284.07C427.873 285 429.384 285.594 430.97 285.8C431.499 285.897 432.043 285.856 432.551 285.681C433.059 285.506 433.514 285.202 433.87 284.8C434.136 284.33 434.277 283.8 434.277 283.26C434.277 282.72 434.136 282.189 433.87 281.72C433.161 280.286 432.109 279.05 430.808 278.12C429.507 277.19 427.996 276.596 426.41 276.39H426Z" fill="#4B0062"/>
<path d="M414 286.86C413.374 286.9 412.748 286.789 412.175 286.535C411.602 286.28 411.1 285.891 410.71 285.4C410.444 285.007 410.259 284.565 410.166 284.1C410.074 283.634 410.075 283.155 410.17 282.69C410.705 280.481 412.065 278.56 413.97 277.32C416.71 275.32 419.97 274.83 421.8 276.04L421.26 276.88C419.75 275.88 416.93 276.43 414.55 278.14C412.865 279.231 411.651 280.916 411.15 282.86C411.071 283.2 411.063 283.553 411.125 283.897C411.187 284.241 411.318 284.568 411.51 284.86C412.24 285.86 413.88 286.17 415.8 285.63L416.07 286.63C415.394 286.8 414.697 286.877 414 286.86Z" fill="#A26BB4"/>
<path d="M434.23 282.71C433.705 280.822 432.506 279.192 430.86 278.13C428.58 276.5 425.86 275.94 424.35 276.76L423.88 275.88C425.79 274.88 428.88 275.44 431.45 277.32C433.303 278.531 434.646 280.382 435.22 282.52L434.23 282.71Z" fill="#A26BB4"/>
<path d="M394.35 305.93H426.49C428.548 305.93 430.522 306.748 431.977 308.203C433.432 309.658 434.25 311.632 434.25 313.69V330.78H394.35V305.93Z" fill="#FFF0DC"/>
<path d="M434.74 331.27H393.85V305.43H426.49C428.681 305.43 430.782 306.3 432.331 307.849C433.88 309.398 434.75 311.499 434.75 313.69L434.74 331.27ZM394.85 330.27H433.74V313.68C433.74 311.755 432.975 309.908 431.614 308.546C430.252 307.185 428.405 306.42 426.48 306.42H394.85V330.27Z" fill="#4B0062"/>
<path d="M418.31 317.41H417.31V330.77H418.31V317.41Z" fill="#4B0062"/>
<path d="M423.79 317.41H422.79V330.77H423.79V317.41Z" fill="#4B0062"/>
<path d="M429.26 317.41H428.26V330.77H429.26V317.41Z" fill="#4B0062"/>
<path d="M414.39 320.8H417.81V330.8H414.91C413.946 335.817 411.178 340.308 407.13 343.424C403.081 346.54 398.032 348.067 392.935 347.715C387.838 347.363 383.047 345.157 379.465 341.514C375.883 337.871 373.759 333.042 373.494 327.94C373.229 322.838 374.84 317.815 378.025 313.82C381.21 309.825 385.747 307.135 390.779 306.256C395.812 305.377 400.993 306.371 405.342 309.051C409.692 311.73 412.911 315.91 414.39 320.8Z" fill="#FFF0DC"/>
<path d="M394.35 348.3C390.393 348.3 386.513 347.206 383.14 345.137C379.767 343.068 377.032 340.106 375.238 336.579C373.444 333.052 372.661 329.098 372.976 325.153C373.291 321.209 374.692 317.428 377.023 314.231C379.353 311.033 382.524 308.543 386.183 307.036C389.841 305.529 393.846 305.064 397.753 305.692C401.659 306.32 405.316 308.018 408.318 310.596C411.32 313.174 413.549 316.533 414.76 320.3H418.31V331.3H415.31C414.291 336.105 411.654 340.415 407.838 343.509C404.023 346.604 399.262 348.295 394.35 348.3ZM394.35 306.43C390.47 306.428 386.669 307.53 383.392 309.608C380.116 311.686 377.498 314.653 375.845 318.164C374.192 321.674 373.573 325.583 374.059 329.432C374.546 333.282 376.118 336.913 378.592 339.902C381.066 342.891 384.339 345.115 388.03 346.312C391.721 347.51 395.676 347.632 399.433 346.665C403.191 345.698 406.596 343.681 409.25 340.85C411.903 338.02 413.697 334.492 414.42 330.68L414.5 330.27H417.31V321.27H414L413.89 320.91C412.595 316.733 410.003 313.077 406.489 310.473C402.975 307.869 398.723 306.453 394.35 306.43Z" fill="#4B0062"/>
<path d="M443.46 320.8H434.24V330.77H443.46V320.8Z" fill="#FFF0DC"/>
<path d="M444 331.27H433.74V320.27H444V331.27ZM434.78 330.27H443V321.27H434.78V330.27Z" fill="#4B0062"/>
<path d="M444.35 332.73L441.61 344.06C441.508 344.475 441.502 344.907 441.593 345.324C441.683 345.742 441.867 346.133 442.131 346.468C442.395 346.804 442.732 347.075 443.117 347.26C443.501 347.446 443.923 347.542 444.35 347.54C444.777 347.542 445.199 347.446 445.583 347.26C445.968 347.075 446.305 346.804 446.569 346.468C446.833 346.133 447.017 345.742 447.107 345.324C447.198 344.907 447.192 344.475 447.09 344.06L444.35 332.73Z" fill="#A26BB4"/>
<path d="M444.35 348C443.849 347.999 443.355 347.884 442.905 347.665C442.455 347.445 442.061 347.127 441.751 346.734C441.441 346.34 441.224 345.882 441.117 345.393C441.009 344.904 441.014 344.397 441.13 343.91L444.35 330.57L447.57 343.91C447.686 344.397 447.691 344.904 447.583 345.393C447.476 345.882 447.259 346.34 446.949 346.734C446.639 347.127 446.245 347.445 445.795 347.665C445.345 347.884 444.851 347.999 444.35 348ZM444.35 334.83L442.1 344.14C442.013 344.484 442.006 344.843 442.08 345.19C442.155 345.537 442.309 345.862 442.53 346.14C442.754 346.404 443.033 346.615 443.348 346.761C443.662 346.906 444.004 346.981 444.35 346.981C444.696 346.981 445.038 346.906 445.352 346.761C445.667 346.615 445.946 346.404 446.17 346.14C446.391 345.862 446.545 345.537 446.62 345.19C446.694 344.843 446.688 344.484 446.6 344.14L444.35 334.83Z" fill="#4B0062"/>
<path d="M467.71 347.53C470.538 347.53 472.83 345.238 472.83 342.41C472.83 339.582 470.538 337.29 467.71 337.29C464.882 337.29 462.59 339.582 462.59 342.41C462.59 345.238 464.882 347.53 467.71 347.53Z" fill="#A26BB4"/>
<path d="M467.71 348C466.598 348 465.512 347.67 464.588 347.053C463.663 346.435 462.943 345.558 462.518 344.531C462.092 343.504 461.981 342.374 462.198 341.284C462.415 340.193 462.95 339.192 463.736 338.406C464.522 337.62 465.523 337.085 466.614 336.868C467.704 336.651 468.834 336.762 469.861 337.188C470.888 337.613 471.765 338.334 472.383 339.258C473 340.182 473.33 341.268 473.33 342.38C473.327 343.87 472.734 345.298 471.681 346.351C470.628 347.404 469.2 347.997 467.71 348ZM467.71 337.76C466.796 337.76 465.903 338.031 465.143 338.539C464.384 339.046 463.791 339.768 463.442 340.612C463.092 341.456 463.001 342.385 463.179 343.281C463.357 344.178 463.797 345.001 464.443 345.647C465.089 346.293 465.912 346.733 466.809 346.911C467.705 347.09 468.634 346.998 469.478 346.648C470.322 346.299 471.044 345.707 471.551 344.947C472.059 344.187 472.33 343.294 472.33 342.38C472.322 341.16 471.832 339.992 470.966 339.133C470.101 338.273 468.93 337.79 467.71 337.79V337.76Z" fill="#4B0062"/>
<path d="M340.15 340.13C344.01 340.13 347.14 337 347.14 333.14C347.14 329.28 344.01 326.15 340.15 326.15C336.29 326.15 333.16 329.28 333.16 333.14C333.16 337 336.29 340.13 340.15 340.13Z" fill="#A26BB4"/>
<path d="M340.15 340.63C338.669 340.63 337.22 340.191 335.989 339.368C334.757 338.545 333.797 337.375 333.23 336.006C332.663 334.638 332.515 333.132 332.804 331.679C333.093 330.226 333.806 328.891 334.854 327.844C335.901 326.796 337.236 326.083 338.689 325.794C340.142 325.505 341.648 325.653 343.016 326.22C344.385 326.787 345.555 327.747 346.378 328.979C347.201 330.211 347.64 331.659 347.64 333.14C347.637 335.126 346.847 337.029 345.443 338.433C344.039 339.837 342.136 340.627 340.15 340.63ZM340.15 326.63C338.866 326.63 337.612 327.011 336.544 327.724C335.477 328.437 334.645 329.45 334.154 330.636C333.663 331.822 333.534 333.127 333.785 334.386C334.035 335.645 334.653 336.801 335.561 337.709C336.469 338.617 337.625 339.235 338.884 339.485C340.143 339.736 341.448 339.607 342.634 339.116C343.82 338.625 344.833 337.793 345.546 336.726C346.259 335.658 346.64 334.404 346.64 333.12C346.632 331.403 345.945 329.759 344.729 328.547C343.513 327.334 341.867 326.653 340.15 326.65V326.63Z" fill="#4B0062"/>
<path d="M321.2 318.93C323.409 318.93 325.2 317.139 325.2 314.93C325.2 312.721 323.409 310.93 321.2 310.93C318.991 310.93 317.2 312.721 317.2 314.93C317.2 317.139 318.991 318.93 321.2 318.93Z" fill="#A26BB4"/>
<path d="M321.2 319.43C320.31 319.43 319.44 319.166 318.7 318.672C317.96 318.177 317.383 317.474 317.043 316.652C316.702 315.83 316.613 314.925 316.786 314.052C316.96 313.179 317.389 312.377 318.018 311.748C318.647 311.119 319.449 310.69 320.322 310.516C321.195 310.343 322.1 310.432 322.922 310.773C323.744 311.113 324.447 311.69 324.942 312.43C325.436 313.17 325.7 314.04 325.7 314.93C325.697 316.123 325.222 317.266 324.379 318.109C323.536 318.952 322.393 319.427 321.2 319.43ZM321.2 311.43C320.508 311.43 319.831 311.635 319.256 312.02C318.68 312.404 318.231 312.951 317.966 313.591C317.702 314.23 317.632 314.934 317.767 315.613C317.902 316.292 318.236 316.915 318.725 317.405C319.215 317.894 319.838 318.228 320.517 318.363C321.196 318.498 321.9 318.428 322.539 318.164C323.179 317.899 323.726 317.45 324.11 316.874C324.495 316.299 324.7 315.622 324.7 314.93C324.7 314.002 324.331 313.112 323.675 312.455C323.019 311.799 322.128 311.43 321.2 311.43Z" fill="#4B0062"/>
<path d="M326.79 303.77C328.027 303.77 329.03 302.767 329.03 301.53C329.03 300.293 328.027 299.29 326.79 299.29C325.553 299.29 324.55 300.293 324.55 301.53C324.55 302.767 325.553 303.77 326.79 303.77Z" fill="#A26BB4"/>
<path d="M326.79 304.28C326.248 304.28 325.718 304.119 325.268 303.818C324.817 303.517 324.466 303.089 324.259 302.589C324.051 302.088 323.997 301.537 324.103 301.006C324.208 300.474 324.469 299.986 324.853 299.603C325.236 299.219 325.724 298.958 326.255 298.853C326.787 298.747 327.338 298.801 327.839 299.009C328.339 299.216 328.767 299.567 329.068 300.018C329.369 300.468 329.53 300.998 329.53 301.54C329.53 302.267 329.241 302.964 328.727 303.478C328.214 303.991 327.517 304.28 326.79 304.28ZM326.79 299.8C326.446 299.8 326.109 299.902 325.823 300.093C325.537 300.284 325.314 300.556 325.182 300.874C325.051 301.192 325.016 301.542 325.083 301.879C325.151 302.217 325.316 302.527 325.56 302.77C325.803 303.014 326.113 303.179 326.451 303.247C326.788 303.314 327.138 303.279 327.456 303.148C327.774 303.016 328.046 302.793 328.237 302.507C328.428 302.221 328.53 301.884 328.53 301.54C328.531 301.311 328.487 301.083 328.4 300.871C328.314 300.659 328.186 300.466 328.024 300.303C327.862 300.141 327.67 300.012 327.458 299.923C327.246 299.835 327.019 299.79 326.79 299.79V299.8Z" fill="#4B0062"/>
<path d="M474.74 330.71C476.48 330.71 477.89 329.3 477.89 327.56C477.89 325.82 476.48 324.41 474.74 324.41C473 324.41 471.59 325.82 471.59 327.56C471.59 329.3 473 330.71 474.74 330.71Z" fill="#A26BB4"/>
<path d="M474.74 331.21C474.018 331.21 473.312 330.996 472.712 330.595C472.112 330.194 471.644 329.624 471.368 328.957C471.092 328.29 471.019 327.556 471.16 326.848C471.301 326.14 471.649 325.49 472.159 324.979C472.67 324.469 473.32 324.121 474.028 323.98C474.736 323.839 475.47 323.912 476.137 324.188C476.804 324.464 477.374 324.932 477.775 325.532C478.176 326.132 478.39 326.838 478.39 327.56C478.39 328.528 478.005 329.456 477.321 330.141C476.636 330.825 475.708 331.21 474.74 331.21ZM474.74 324.91C474.216 324.91 473.704 325.065 473.268 325.357C472.832 325.648 472.492 326.062 472.292 326.546C472.091 327.03 472.039 327.563 472.141 328.077C472.243 328.591 472.496 329.063 472.866 329.434C473.237 329.804 473.709 330.057 474.223 330.159C474.737 330.261 475.27 330.209 475.754 330.008C476.238 329.808 476.652 329.468 476.943 329.032C477.235 328.596 477.39 328.084 477.39 327.56C477.39 326.857 477.111 326.183 476.614 325.686C476.117 325.189 475.443 324.91 474.74 324.91Z" fill="#4B0062"/>
<path d="M211.99 294.95H210.99V306.76H211.99V294.95Z" fill="#4B0062"/>
<path d="M217.4 300.35H205.59V301.35H217.4V300.35Z" fill="#4B0062"/>
<path d="M207.61 194.55H206.61V203.15H207.61V194.55Z" fill="#4B0062"/>
<path d="M211.42 198.34H202.82V199.34H211.42V198.34Z" fill="#4B0062"/>
<path d="M510.47 376.36L509.77 377.36C513.735 387.462 515.77 398.218 515.77 409.07C515.77 458.83 473.85 499.16 422.14 499.16C370.43 499.16 328.49 458.78 328.49 409C328.49 398.148 330.525 387.392 334.49 377.29L333.79 376.29L323.21 362C322.869 361.531 322.665 360.976 322.619 360.398C322.574 359.82 322.688 359.24 322.951 358.723C323.214 358.206 323.614 357.772 324.108 357.468C324.602 357.164 325.17 357.002 325.75 357H518.48C519.06 357.002 519.628 357.164 520.122 357.468C520.616 357.772 521.016 358.206 521.279 358.723C521.542 359.24 521.656 359.82 521.611 360.398C521.565 360.976 521.361 361.531 521.02 362L510.47 376.36Z" fill="#4B0062"/>
<path d="M422.11 499.61C370.21 499.61 328 459 328 409C327.986 398.182 329.987 387.456 333.9 377.37L322.82 362.26C322.418 361.716 322.175 361.072 322.118 360.398C322.061 359.724 322.192 359.048 322.497 358.444C322.802 357.841 323.268 357.334 323.845 356.98C324.421 356.626 325.084 356.439 325.76 356.44H518.48C519.156 356.439 519.819 356.626 520.395 356.98C520.972 357.334 521.438 357.841 521.743 358.444C522.048 359.048 522.179 359.724 522.122 360.398C522.065 361.072 521.822 361.716 521.42 362.26L510.33 377.36C514.248 387.448 516.253 398.178 516.24 409C516.24 459 474 499.61 422.11 499.61ZM334.7 376.81H335.18L334.92 377.49C330.992 387.53 328.984 398.219 329 409C329 458.4 370.77 498.59 422.12 498.59C473.47 498.59 515.25 458.4 515.25 409C515.263 398.211 513.248 387.515 509.31 377.47L509.21 377.21L510.07 376.04L520.62 361.67C520.911 361.275 521.086 360.807 521.126 360.318C521.167 359.829 521.07 359.339 520.849 358.901C520.627 358.464 520.288 358.097 519.87 357.84C519.452 357.584 518.97 357.449 518.48 357.45H325.75C325.26 357.449 324.778 357.584 324.36 357.84C323.942 358.097 323.603 358.464 323.381 358.901C323.16 359.339 323.063 359.829 323.104 360.318C323.144 360.807 323.319 361.275 323.61 361.67L334.7 376.81Z" fill="#4B0062"/>
<path d="M509.77 376.81H334.45V377.81H509.77V376.81Z" fill="#A26BB4"/>
<path d="M565.84 499.61H292.84C292.707 499.61 292.58 499.557 292.486 499.464C292.393 499.37 292.34 499.243 292.34 499.11C292.34 498.977 292.393 498.85 292.486 498.756C292.58 498.663 292.707 498.61 292.84 498.61H565.84C565.973 498.61 566.1 498.663 566.194 498.756C566.287 498.85 566.34 498.977 566.34 499.11C566.34 499.243 566.287 499.37 566.194 499.464C566.1 499.557 565.973 499.61 565.84 499.61Z" fill="#4B0062"/>
<path d="M475.69 357V417.11C475.62 418.98 474.829 420.75 473.481 422.048C472.134 423.346 470.336 424.071 468.465 424.071C466.594 424.071 464.796 423.346 463.449 422.048C462.101 420.75 461.31 418.98 461.24 417.11V378.73C461.24 379.9 460.775 381.021 459.948 381.848C459.121 382.675 458 383.14 456.83 383.14C455.66 383.14 454.539 382.675 453.712 381.848C452.885 381.021 452.42 379.9 452.42 378.73V357H475.69Z" fill="#A26BB4"/>
<path d="M468.46 424.8C466.413 424.797 464.451 423.983 463.004 422.536C461.557 421.089 460.743 419.127 460.74 417.08V381.69C460.117 382.511 459.251 383.114 458.265 383.416C457.28 383.717 456.224 383.701 455.249 383.369C454.273 383.037 453.427 382.406 452.829 381.567C452.232 380.727 451.914 379.721 451.92 378.69V356.47H476.19V417.08C476.187 419.128 475.372 421.092 473.922 422.539C472.473 423.987 470.508 424.8 468.46 424.8ZM461.74 378.73V417.08C461.807 418.819 462.545 420.464 463.799 421.67C465.053 422.877 466.725 423.551 468.465 423.551C470.205 423.551 471.877 422.877 473.131 421.67C474.385 420.464 475.123 418.819 475.19 417.08V357.47H452.92V378.73C452.92 379.767 453.332 380.762 454.065 381.495C454.798 382.228 455.793 382.64 456.83 382.64C457.867 382.64 458.862 382.228 459.595 381.495C460.328 380.762 460.74 379.767 460.74 378.73H461.74Z" fill="#4B0062"/>
<path d="M432.7 357V390.49C432.641 391.855 432.057 393.143 431.07 394.088C430.084 395.033 428.771 395.56 427.405 395.56C426.039 395.56 424.726 395.033 423.74 394.088C422.753 393.143 422.169 391.855 422.11 390.49V357H432.7Z" fill="#A26BB4"/>
<path d="M427.4 396.25C425.865 396.247 424.394 395.637 423.309 394.551C422.224 393.466 421.613 391.995 421.61 390.46V356.46H433.2V390.46C433.197 391.997 432.585 393.469 431.498 394.555C430.41 395.64 428.937 396.25 427.4 396.25ZM422.61 357.47V390.47C422.61 391.742 423.115 392.961 424.014 393.861C424.914 394.76 426.133 395.265 427.405 395.265C428.677 395.265 429.896 394.76 430.796 393.861C431.695 392.961 432.2 391.742 432.2 390.47V357.47H422.61Z" fill="#4B0062"/>
<path d="M259.92 214.28L271.48 278.12L231.38 272.46L221.64 204.26L259.92 214.28Z" fill="#F44B1B"/>
<path d="M272.09 278.71L230.93 272.91L230.88 272.54L221 203.59L260.32 213.88L272.09 278.71ZM231.82 272L270.82 277.5L259.44 214.66L222.2 204.91L231.82 272Z" fill="#4B0062"/>
<path d="M245.91 224.97L247.21 239.93L237.37 237.1L235.97 221.35L245.91 224.97Z" fill="#FFF0DC"/>
<path d="M247.77 240.61L236.91 237.49L235.41 220.61L246.41 224.61L247.77 240.61ZM237.84 236.72L246.65 239.25L245.45 225.33L236.55 222.09L237.84 236.72Z" fill="#4B0062"/>
<path d="M235.457 242.656L235.252 243.634L260.028 248.81L260.232 247.831L235.457 242.656Z" fill="#4B0062"/>
<path d="M235.767 246.713L235.562 247.691L260.337 252.867L260.542 251.888L235.767 246.713Z" fill="#4B0062"/>
<path d="M250.637 231.183L250.432 232.162L255.738 233.27L255.942 232.291L250.637 231.183Z" fill="#4B0062"/>
<path d="M250.645 235.52L250.44 236.499L255.746 237.608L255.95 236.629L250.645 235.52Z" fill="#4B0062"/>
<path d="M236.084 250.781L235.879 251.76L260.655 256.936L260.859 255.957L236.084 250.781Z" fill="#4B0062"/>
<path d="M236.403 254.851L236.199 255.829L260.974 261.005L261.178 260.026L236.403 254.851Z" fill="#4B0062"/>
<path d="M301.32 249.126L276.711 253.116L276.872 254.103L301.48 250.113L301.32 249.126Z" fill="#4B0062"/>
<path d="M302.369 254.074L277.76 258.064L277.92 259.051L302.529 255.061L302.369 254.074Z" fill="#4B0062"/>
<path d="M303.419 259.032L278.811 263.022L278.971 264.009L303.579 260.019L303.419 259.032Z" fill="#4B0062"/>
<path d="M278.26 243.07C277.062 241.97 276.104 240.633 275.449 239.144C274.793 237.655 274.453 236.047 274.45 234.42H275.45C275.45 235.909 275.76 237.382 276.359 238.745C276.958 240.108 277.833 241.333 278.93 242.34L278.26 243.07Z" fill="#A26BB4"/>
<path d="M276.17 230.56L275.24 230.2C276.339 227.363 278.487 225.057 281.24 223.76L281.66 224.67C279.142 225.856 277.176 227.965 276.17 230.56Z" fill="#A26BB4"/>
<path d="M296.44 231.22C295.95 229.665 295.114 228.241 293.995 227.055C292.876 225.868 291.504 224.951 289.98 224.37L290.33 223.43C291.995 224.065 293.495 225.069 294.718 226.366C295.941 227.663 296.854 229.22 297.39 230.92L296.44 231.22Z" fill="#A26BB4"/>
<path d="M286.19 246.15V245.15C289.038 245.147 291.768 244.015 293.781 242.001C295.795 239.988 296.927 237.258 296.93 234.41H297.93C297.927 237.523 296.69 240.507 294.488 242.709C292.287 244.91 289.303 246.147 286.19 246.15Z" fill="#A26BB4"/>
<path d="M285.55 224.47C286.262 224.47 286.84 223.892 286.84 223.18C286.84 222.468 286.262 221.89 285.55 221.89C284.838 221.89 284.26 222.468 284.26 223.18C284.26 223.892 284.838 224.47 285.55 224.47Z" fill="#A26BB4"/>
<path d="M285.55 225C285.196 225 284.85 224.895 284.556 224.698C284.261 224.502 284.032 224.222 283.896 223.895C283.761 223.568 283.725 223.208 283.794 222.861C283.863 222.514 284.034 222.195 284.284 221.944C284.535 221.694 284.854 221.523 285.201 221.454C285.548 221.385 285.908 221.421 286.235 221.556C286.562 221.692 286.842 221.921 287.038 222.216C287.235 222.51 287.34 222.856 287.34 223.21C287.34 223.685 287.151 224.14 286.816 224.476C286.48 224.811 286.025 225 285.55 225ZM285.55 222.42C285.394 222.42 285.241 222.466 285.111 222.553C284.981 222.64 284.88 222.763 284.82 222.908C284.76 223.052 284.745 223.211 284.775 223.364C284.806 223.517 284.881 223.658 284.991 223.769C285.102 223.879 285.243 223.954 285.396 223.985C285.549 224.015 285.708 224 285.852 223.94C285.997 223.88 286.12 223.779 286.207 223.649C286.294 223.519 286.34 223.366 286.34 223.21C286.344 223.104 286.327 222.998 286.289 222.898C286.251 222.799 286.193 222.708 286.12 222.632C286.046 222.555 285.957 222.494 285.859 222.453C285.762 222.411 285.656 222.39 285.55 222.39V222.42Z" fill="#A26BB4"/>
<path d="M281.68 246.11C282.392 246.11 282.97 245.532 282.97 244.82C282.97 244.108 282.392 243.53 281.68 243.53C280.968 243.53 280.39 244.108 280.39 244.82C280.39 245.532 280.968 246.11 281.68 246.11Z" fill="#A26BB4"/>
<path d="M281.68 246.61C281.326 246.61 280.98 246.505 280.686 246.308C280.391 246.112 280.162 245.832 280.026 245.505C279.891 245.178 279.855 244.818 279.924 244.471C279.993 244.124 280.164 243.805 280.414 243.554C280.665 243.304 280.984 243.133 281.331 243.064C281.678 242.995 282.038 243.031 282.365 243.166C282.692 243.302 282.972 243.531 283.168 243.826C283.365 244.12 283.47 244.466 283.47 244.82C283.47 245.295 283.281 245.75 282.946 246.086C282.61 246.421 282.155 246.61 281.68 246.61ZM281.68 244.03C281.524 244.03 281.371 244.076 281.241 244.163C281.111 244.25 281.01 244.373 280.95 244.518C280.89 244.662 280.875 244.821 280.905 244.974C280.936 245.127 281.011 245.268 281.121 245.379C281.232 245.489 281.373 245.564 281.526 245.595C281.679 245.625 281.838 245.61 281.982 245.55C282.127 245.49 282.25 245.389 282.337 245.259C282.424 245.129 282.47 244.976 282.47 244.82C282.474 244.714 282.457 244.608 282.419 244.508C282.381 244.409 282.323 244.318 282.249 244.242C282.176 244.165 282.087 244.104 281.989 244.063C281.892 244.021 281.786 244 281.68 244V244.03Z" fill="#A26BB4"/>
<path d="M417.81 326.09V328.42H412.56C412.499 329.21 412.385 329.995 412.22 330.77C411.249 335.169 408.689 339.054 405.03 341.682C401.372 344.31 396.872 345.496 392.393 345.011C387.915 344.527 383.772 342.407 380.76 339.057C377.748 335.708 376.078 331.365 376.07 326.86C376.07 326.6 376.07 326.34 376.07 326.09H417.81Z" fill="#A26BB4"/>
<path d="M394.35 345.65C389.37 345.642 384.596 343.66 381.076 340.137C377.555 336.615 375.575 331.84 375.57 326.86C375.57 326.59 375.57 326.33 375.57 326.07V325.59H418.27V328.92H413C412.936 329.592 412.833 330.26 412.69 330.92C411.749 335.087 409.424 338.813 406.093 341.488C402.762 344.163 398.622 345.63 394.35 345.65ZM376.57 326.59C376.57 326.677 376.57 326.767 376.57 326.86C376.58 331.24 378.206 335.462 381.136 338.718C384.066 341.973 388.094 344.034 392.448 344.504C396.803 344.975 401.178 343.823 404.736 341.268C408.294 338.714 410.784 334.937 411.73 330.66C411.891 329.905 412.001 329.14 412.06 328.37V327.91H417.27V326.58L376.57 326.59Z" fill="#4B0062"/>
<path d="M443.46 326.09H434.24V328.42H443.46V326.09Z" fill="#A26BB4"/>
<path d="M444 328.92H433.74V325.59H444V328.92ZM434.78 327.92H443V326.59H434.78V327.92Z" fill="#4B0062"/>
<path d="M375.04 355.87H348.67V356.87H375.04V355.87Z" fill="#A26BB4"/>
<path d="M500.27 356.47H482.02V357.47H500.27V356.47Z" fill="#A26BB4"/>
<path d="M546.58 386.65H545.58V404.84H546.58V386.65Z" fill="#4B0062"/>
<path d="M555.18 395.25H536.99V396.25H555.18V395.25Z" fill="#4B0062"/>
<path d="M541.743 390.742L541.036 391.449L550.419 400.832L551.126 400.125L541.743 390.742Z" fill="#4B0062"/>
<path d="M550.426 390.702L541.043 400.085L541.75 400.792L551.133 391.409L550.426 390.702Z" fill="#4B0062"/>
<path d="M546.08 385.11C546.665 385.11 547.14 384.447 547.14 383.63C547.14 382.813 546.665 382.15 546.08 382.15C545.495 382.15 545.02 382.813 545.02 383.63C545.02 384.447 545.495 385.11 546.08 385.11Z" fill="#4B0062"/>
<path d="M546.08 409.34C546.665 409.34 547.14 408.677 547.14 407.86C547.14 407.043 546.665 406.38 546.08 406.38C545.495 406.38 545.02 407.043 545.02 407.86C545.02 408.677 545.495 409.34 546.08 409.34Z" fill="#4B0062"/>
<path d="M558.2 396.81C559.017 396.81 559.68 396.335 559.68 395.75C559.68 395.165 559.017 394.69 558.2 394.69C557.383 394.69 556.72 395.165 556.72 395.75C556.72 396.335 557.383 396.81 558.2 396.81Z" fill="#4B0062"/>
<path d="M533.97 396.81C534.787 396.81 535.45 396.335 535.45 395.75C535.45 395.165 534.787 394.69 533.97 394.69C533.153 394.69 532.49 395.165 532.49 395.75C532.49 396.335 533.153 396.81 533.97 396.81Z" fill="#4B0062"/>
<path d="M496.33 249.56H495.33V261.1H496.33V249.56Z" fill="#4B0062"/>
<path d="M499.39 254.83H492.25V255.83H499.39V254.83Z" fill="#4B0062"/>
<path d="M555.42 349.47C557.833 349.47 559.79 347.513 559.79 345.1C559.79 342.687 557.833 340.73 555.42 340.73C553.006 340.73 551.05 342.687 551.05 345.1C551.05 347.513 553.006 349.47 555.42 349.47Z" fill="#A26BB4"/>
<path d="M572.58 330.66C573.723 330.66 574.65 329.733 574.65 328.59C574.65 327.447 573.723 326.52 572.58 326.52C571.437 326.52 570.51 327.447 570.51 328.59C570.51 329.733 571.437 330.66 572.58 330.66Z" fill="#A26BB4"/>
</g>
<defs>
<clipPath id="clip0_20_1411">
<rect width="800" height="600" fill="white"/>
</clipPath>
</defs>
</svg>
