<svg width="800" height="600" viewBox="0 0 800 600" fill="none" xmlns="http://www.w3.org/2000/svg">
<g clip-path="url(#clip0_20_716)">
<path d="M596.9 338.12L591.54 363.93H488.39V340.81C488.39 340.099 488.672 339.418 489.175 338.915C489.678 338.412 490.359 338.13 491.07 338.13L596.9 338.12Z" fill="#A26BB4"/>
<path d="M592 364.43H487.89V340.81C487.893 339.967 488.229 339.16 488.824 338.564C489.42 337.969 490.227 337.633 491.07 337.63H597.52L592 364.43ZM488.94 363.43H591.14L596.29 338.62H491.08C490.503 338.623 489.95 338.853 489.541 339.261C489.133 339.67 488.903 340.223 488.9 340.8L488.94 363.43Z" fill="#4B0062"/>
<path d="M507.14 338.12V363.93H488.39V340.81C488.39 340.099 488.672 339.418 489.175 338.915C489.678 338.412 490.359 338.13 491.07 338.13L507.14 338.12Z" fill="#FFF0DC"/>
<path d="M507.64 364.43H487.89V340.81C487.893 339.967 488.229 339.16 488.824 338.564C489.42 337.969 490.227 337.633 491.07 337.63H507.64V364.43ZM488.89 363.43H506.64V338.62H491.08C490.503 338.623 489.95 338.853 489.541 339.261C489.133 339.67 488.903 340.223 488.9 340.8L488.89 363.43Z" fill="#4B0062"/>
<path d="M529.06 378.11L482.26 266C481.735 264.71 480.952 263.54 479.958 262.564C478.965 261.588 477.782 260.825 476.483 260.323C475.183 259.821 473.795 259.59 472.403 259.644C471.011 259.698 469.645 260.037 468.389 260.639C467.133 261.241 466.013 262.094 465.099 263.145C464.185 264.196 463.495 265.423 463.073 266.75C462.65 268.078 462.504 269.478 462.643 270.864C462.782 272.25 463.203 273.593 463.88 274.81L522.23 382C521.781 383.18 521.707 384.47 522.018 385.694C522.329 386.918 523.01 388.016 523.967 388.839C524.925 389.662 526.113 390.17 527.37 390.293C528.627 390.416 529.891 390.149 530.99 389.528C532.089 388.906 532.97 387.961 533.513 386.821C534.056 385.681 534.234 384.401 534.023 383.156C533.812 381.911 533.222 380.762 532.334 379.864C531.446 378.966 530.303 378.364 529.06 378.14V378.11Z" fill="#4B0062"/>
<path d="M528 390.79C526.24 390.787 524.552 390.087 523.308 388.842C522.063 387.598 521.363 385.91 521.36 384.15C521.361 383.422 521.482 382.699 521.72 382.01L463.48 275.01C462.769 273.733 462.326 272.324 462.18 270.87C462.034 269.415 462.187 267.946 462.63 266.553C463.073 265.16 463.796 263.873 464.756 262.77C465.715 261.667 466.89 260.772 468.208 260.141C469.526 259.509 470.96 259.154 472.42 259.097C473.881 259.04 475.337 259.283 476.701 259.81C478.064 260.337 479.305 261.138 480.347 262.163C481.389 263.188 482.21 264.416 482.76 265.77L529.46 377.63C531.103 377.942 532.569 378.862 533.563 380.207C534.557 381.553 535.007 383.223 534.822 384.886C534.638 386.548 533.833 388.08 532.568 389.175C531.303 390.269 529.672 390.846 528 390.79ZM472.84 260.23C471.157 260.232 469.504 260.671 468.042 261.504C466.58 262.337 465.359 263.536 464.5 264.983C463.641 266.43 463.173 268.075 463.141 269.758C463.11 271.44 463.516 273.102 464.32 274.58L522.78 381.93L522.7 382.14C522.288 383.223 522.22 384.407 522.504 385.53C522.789 386.653 523.412 387.662 524.29 388.418C525.168 389.175 526.257 389.642 527.41 389.757C528.564 389.873 529.724 389.63 530.734 389.062C531.744 388.495 532.555 387.63 533.057 386.585C533.558 385.54 533.725 384.366 533.536 383.223C533.346 382.08 532.809 381.023 531.997 380.196C531.186 379.369 530.139 378.811 529 378.6H528.73L528.63 378.35L481.8 266.2C481.064 264.42 479.815 262.899 478.213 261.831C476.61 260.762 474.726 260.195 472.8 260.2L472.84 260.23Z" fill="#4B0062"/>
<path d="M589.53 447.92L586.81 458.08L584.62 466.24L582.63 473.66L580.44 481.82L578.45 489.24L576.26 497.4L572.58 511.13H568.38V503.96L560.58 511.13H541.04L557.24 497.4V446.68L589.53 447.92Z" fill="#FFF0DC"/>
<path d="M573 511.63H567.92V505.1L560.82 511.63H539.72L556.78 497.17V446.17L590.21 447.45L573 511.63ZM568.92 510.63H572.24L588.93 448.4L557.78 447.2V497.63L542.44 510.63H560.44L568.94 502.82L568.92 510.63Z" fill="#4B0062"/>
<path d="M619.25 289.14V350.93H555.62V311.46H535.87L542.75 299.75L559.14 271.88L559.82 270.72H559.83L582.92 277.88L619.25 289.14Z" fill="#FFF0DC"/>
<path d="M619.75 351.43H555.12V312H535L559.54 270.26H559.98L619.75 288.79V351.43ZM556.12 350.43H618.75V289.51L560.05 271.31L536.75 311H556.13L556.12 350.43Z" fill="#4B0062"/>
<path d="M619.25 289.14V335.06C604.25 331.38 589.25 312.19 584.4 289.06C583.615 285.371 583.12 281.626 582.92 277.86L619.25 289.14Z" fill="#F48001"/>
<path d="M619.75 335.7L619.13 335.55C603.59 331.75 588.78 312.25 583.91 289.19C583.12 285.475 582.622 281.703 582.42 277.91V277.2L619.79 288.78L619.75 335.7ZM583.46 278.57C583.683 282.077 584.161 285.563 584.89 289C589.62 311.4 603.79 330.36 618.75 334.44V289.51L583.46 278.57Z" fill="#4B0062"/>
<path d="M619.25 169.63V289.14L559.83 270.72L562.91 265.47L567.93 256.93L619.25 169.63Z" fill="#4B0062"/>
<path d="M619.75 289.82L559.08 271L567.5 256.67L619.75 167.79V289.82ZM560.58 270.43L618.75 288.43V171.43L560.58 270.43Z" fill="#4B0062"/>
<path d="M619.25 317.64L592.82 311.46L542.75 299.75L559.14 271.88L611.13 311.46L619.25 317.64Z" fill="#F44B1B"/>
<path d="M621.42 318.66L542 300.09L559 271.15L621.42 318.66ZM543.53 299.42L617.09 316.62L559.29 272.62L543.53 299.42Z" fill="#4B0062"/>
<path d="M619.25 272.82V282.91L562.91 265.47L567.93 256.93L619.25 272.82Z" fill="#A26BB4"/>
<path d="M619.75 283.59L562.16 265.76L567.7 256.33L619.75 272.45V283.59ZM563.66 265.18L618.75 282.23V273.23L568.16 257.57L563.66 265.18Z" fill="#4B0062"/>
<path d="M151.47 219.77V267.76H110.95V219.77H121.09V234.31H141.33V219.77H151.47Z" fill="#FFF0DC"/>
<path d="M152 268.26H110.45V219.26H121.59V233.8H140.83V219.27H152V268.26ZM111.48 267.26H151V220.26H141.86V234.8H120.59V220.27H111.45L111.48 267.26Z" fill="#4B0062"/>
<path d="M121.59 234.31H120.59V246.24H121.59V234.31Z" fill="#4B0062"/>
<path d="M141.84 234.31H140.84V246.24H141.84V234.31Z" fill="#4B0062"/>
<path d="M131.71 234.31H130.71V246.24H131.71V234.31Z" fill="#4B0062"/>
<path d="M484.48 88.87H483.48V205.03H484.48V88.87Z" fill="#4B0062"/>
<path d="M499.05 176.61C496.55 176.612 494.058 176.89 491.62 177.44C489.2 176.43 486.603 175.909 483.98 175.909C481.357 175.909 478.76 176.43 476.34 177.44C473.902 176.89 471.41 176.612 468.91 176.61C449.59 176.61 433.91 192.85 433.91 212.88C433.91 232.91 449.57 249.15 468.91 249.15C474.145 249.157 479.311 247.949 484 245.62C488.683 247.946 493.841 249.154 499.07 249.15C518.39 249.15 534.07 232.91 534.07 212.88C534.07 192.85 518.37 176.61 499.05 176.61Z" fill="#F48001"/>
<path d="M237.84 391.56V509.75H248.55V502.82L250.51 504.79L255.47 509.75H275.18V391.56H237.84Z" fill="#4B0062"/>
<path d="M275.68 510.25H255.27L249 504V510.22H237.34V391.06H275.68V510.25ZM255.68 509.25H274.68V392.06H238.34V509.25H248V501.61L255.68 509.25Z" fill="#4B0062"/>
<path d="M370.96 197.98H362.66V207.69H370.96V197.98Z" fill="#4B0062"/>
<path d="M371.45 208.19H362.15V197.48H371.45V208.19ZM363.15 207.19H370.45V198.48H363.15V207.19Z" fill="#4B0062"/>
<path d="M349.97 197.98H341.67V207.69H349.97V197.98Z" fill="#FFF0DC"/>
<path d="M350.47 208.19H341.17V197.48H350.47V208.19ZM342.17 207.19H349.47V198.48H342.17V207.19Z" fill="#4B0062"/>
<path d="M337.63 197.98H329.33V207.69H337.63V197.98Z" fill="#FFF0DC"/>
<path d="M338.13 208.19H328.83V197.48H338.13V208.19ZM329.83 207.19H337.13V198.48H329.83V207.19Z" fill="#4B0062"/>
<path d="M325.3 197.98H317V207.69H325.3V197.98Z" fill="#FFF0DC"/>
<path d="M325.79 208.19H316.49V197.48H325.79V208.19ZM317.49 207.19H324.79V198.48H317.49V207.19Z" fill="#4B0062"/>
<path d="M297.38 197.98H289.08V207.69H297.38V197.98Z" fill="#FFF0DC"/>
<path d="M297.87 208.19H288.57V197.48H297.87V208.19ZM289.57 207.19H296.87V198.48H289.57V207.19Z" fill="#4B0062"/>
<path d="M285.04 197.98H276.74V207.69H285.04V197.98Z" fill="#FFF0DC"/>
<path d="M285.54 208.19H276.24V197.48H285.54V208.19ZM277.24 207.19H284.54V198.48H277.24V207.19Z" fill="#4B0062"/>
<path d="M379.37 182.25V219.08H251.26V182.25H379.37ZM386.37 175.25H244.26V226.08H386.37V175.25Z" fill="#FFF0DC"/>
<path d="M386.87 226.58H243.76V174.75H386.87V226.58ZM244.76 225.58H385.87V175.75H244.76V225.58ZM379.87 219.58H250.76V181.75H379.87V219.58ZM251.76 218.58H378.87V182.75H251.76V218.58Z" fill="#4B0062"/>
<path d="M203.55 386.12L157.35 494.9L175.48 502.61L181.99 499.97L184.56 498.93L181.85 505.31L191.71 509.5L237.91 400.71L203.55 386.12Z" fill="#4B0062"/>
<path d="M192 510.15L181.22 505.57L183.65 499.84L175.5 503.14L156.71 495.14L203.3 385.43L238.58 400.43L192 510.15ZM182.51 505L191.45 508.8L237.25 401L203.81 386.8L158 494.64L175.49 502.07L185.49 498.07L182.51 505Z" fill="#4B0062"/>
<path d="M141.63 471.42L135.63 485.66L175.53 502.6L182 500L184.57 499L181.86 505.38L191.72 509.57L202.56 484L168.2 469.41L165.44 475.91L148.44 468.71C147.177 468.174 145.753 468.158 144.478 468.665C143.203 469.172 142.179 470.162 141.63 471.42Z" fill="#A26BB4"/>
<path d="M192 510.15L181.22 505.57L183.65 499.84L175.5 503.14L134.95 485.92L141.19 471.22C141.786 469.83 142.91 468.733 144.314 468.171C145.719 467.608 147.289 467.626 148.68 468.22L165.18 475.22L167.94 468.72L203.22 483.72L192 510.15ZM182.51 505L191.45 508.8L201.91 484.18L168.46 470L165.7 476.5L148.28 469.1C147.71 468.858 147.098 468.73 146.479 468.725C145.86 468.72 145.246 468.836 144.672 469.069C144.098 469.301 143.575 469.644 143.134 470.078C142.693 470.513 142.341 471.03 142.1 471.6L136.25 485.38L175.5 502.05L185.5 498.05L182.51 505Z" fill="#4B0062"/>
<path d="M183.399 500.375L181.465 504.938L191.318 509.115L193.252 504.552L183.399 500.375Z" fill="#4B0062"/>
<path d="M192 510.15L181.22 505.57L183.55 500.08L194.33 504.66L192 510.15ZM182.51 505L191.45 508.8L193 505.15L184.06 501.35L182.51 505Z" fill="#4B0062"/>
<path d="M137.53 481.09L135.59 485.66L175.48 502.61L181.99 499.97L137.53 481.09Z" fill="#4B0062"/>
<path d="M175.48 503.15L134.93 485.93L137.26 480.44L183.26 499.99L175.48 503.15ZM136.24 485.4L175.49 502.07L180.68 499.97L137.79 481.76L136.24 485.4Z" fill="#4B0062"/>
<path d="M208.64 408.04H274.12V285.56H208.64V408.04Z" fill="#A26BB4"/>
<path d="M274.62 408.54H208.13V285.06H274.61L274.62 408.54ZM209.14 407.54H273.62V286.06H209.13L209.14 407.54Z" fill="#4B0062"/>
<path d="M151.47 276.3V260.09H111V314.31C111 316.259 111.774 318.129 113.153 319.507C114.531 320.886 116.401 321.66 118.35 321.66H176.9V426.53H220.8V276.3H151.47Z" fill="#F48001"/>
<path d="M221.3 427H176.36V322.16H118.3C116.219 322.157 114.224 321.329 112.752 319.858C111.281 318.386 110.453 316.391 110.45 314.31V259.58H152V275.8H221.3V427ZM177.36 426H220.3V276.8H151V260.58H111.45V314.3C111.453 316.116 112.175 317.857 113.459 319.141C114.743 320.425 116.484 321.147 118.3 321.15H177.35L177.36 426Z" fill="#4B0062"/>
<path d="M354.71 276.31V323.09H295.26V426.53H262.22V276.3L354.71 276.31Z" fill="#F48001"/>
<path d="M295.76 427H261.76V275.8H355.24V323.58H295.76V427ZM262.76 426H294.76V322.59H354.21V276.81H262.72L262.76 426Z" fill="#4B0062"/>
<path d="M386.37 201.91H244.26V286.45H386.37V201.91Z" fill="#FFF0DC"/>
<path d="M386.87 287H243.76V201.41H386.87V287ZM244.76 286H385.87V202.41H244.76V286Z" fill="#4B0062"/>
<path d="M342.77 214.65H295.96V286.46H342.77V214.65Z" fill="#FFF0DC"/>
<path d="M343.27 287H295.46V214.15H343.27V287ZM296.46 286H342.27V215.15H296.46V286Z" fill="#4B0062"/>
<path d="M295.76 302.13H294.76V426.53H295.76V302.13Z" fill="#4B0062"/>
<path d="M208.93 340.12L198.83 354.77L220.8 392.5V276.3H210.2L192.17 325.68L208.93 340.12Z" fill="#F44B1B"/>
<path d="M221.3 394.36L198.24 354.75L208.24 340.21L191.55 325.84L191.67 325.51L209.82 275.81H221.3V394.36ZM199.42 354.79L220.3 390.65V276.8H210.55L192.76 325.52L209.6 340L199.42 354.79Z" fill="#4B0062"/>
<path d="M262.22 276.3V385.91L280.35 354.77L270.25 340.12L287.01 325.68L268.98 276.3H262.22Z" fill="#F44B1B"/>
<path d="M261.72 387.76V275.76H269.33L287.6 325.76L270.92 340.2L280.92 354.74L280.76 355.01L261.72 387.76ZM262.72 276.76V384.06L279.72 354.79L269.58 340L286.42 325.49L268.63 276.8L262.72 276.76Z" fill="#4B0062"/>
<path d="M205.86 270.07H207V235.52C206.997 234.626 207.178 233.741 207.53 232.92C208.039 231.704 208.897 230.666 209.995 229.936C211.093 229.207 212.382 228.818 213.7 228.82H274.26C275.141 228.819 276.013 228.991 276.827 229.327C277.641 229.663 278.381 230.157 279.004 230.779C279.627 231.401 280.122 232.14 280.459 232.954C280.796 233.767 280.97 234.639 280.97 235.52V313.74C280.971 314.622 280.799 315.495 280.462 316.309C280.125 317.124 279.631 317.864 279.008 318.488C278.384 319.111 277.644 319.605 276.829 319.942C276.015 320.279 275.142 320.451 274.26 320.45H213.7C212.818 320.451 211.945 320.279 211.131 319.942C210.316 319.605 209.576 319.111 208.952 318.488C208.329 317.864 207.835 317.124 207.498 316.309C207.161 315.495 206.989 314.622 206.99 313.74V291.22H205.86C204.637 291.22 203.465 290.734 202.6 289.87C201.736 289.005 201.25 287.833 201.25 286.61V274.68C201.25 273.457 201.736 272.285 202.6 271.42C203.465 270.556 204.637 270.07 205.86 270.07Z" fill="#FFF0DC"/>
<path d="M274.26 320.95H213.7C211.788 320.95 209.954 320.19 208.602 318.838C207.25 317.486 206.49 315.652 206.49 313.74V291.74H205.86C204.505 291.74 203.205 291.202 202.247 290.243C201.288 289.285 200.75 287.985 200.75 286.63V274.68C200.75 274.009 200.882 273.344 201.139 272.724C201.396 272.105 201.772 271.541 202.247 271.067C202.721 270.592 203.285 270.216 203.904 269.959C204.524 269.702 205.189 269.57 205.86 269.57H206.49V235.57C206.485 234.607 206.679 233.654 207.06 232.77C207.605 231.462 208.526 230.346 209.706 229.563C210.887 228.779 212.273 228.364 213.69 228.37H274.25C276.16 228.37 277.993 229.128 279.345 230.478C280.697 231.828 281.457 233.66 281.46 235.57V313.79C281.447 315.692 280.683 317.511 279.334 318.852C277.986 320.193 276.162 320.947 274.26 320.95ZM205.86 270.58C205.32 270.58 204.786 270.686 204.287 270.893C203.789 271.099 203.335 271.402 202.954 271.784C202.572 272.165 202.269 272.619 202.063 273.117C201.856 273.616 201.75 274.15 201.75 274.69V286.62C201.75 287.71 202.183 288.755 202.954 289.526C203.725 290.297 204.77 290.73 205.86 290.73H207.49V313.73C207.49 315.377 208.144 316.957 209.309 318.121C210.473 319.286 212.053 319.94 213.7 319.94H274.26C275.907 319.94 277.487 319.286 278.651 318.121C279.816 316.957 280.47 315.377 280.47 313.73V235.52C280.467 233.875 279.812 232.298 278.648 231.135C277.483 229.973 275.905 229.32 274.26 229.32H213.7C212.48 229.315 211.286 229.673 210.269 230.348C209.253 231.022 208.459 231.984 207.99 233.11C207.662 233.871 207.495 234.691 207.5 235.52V270.52L205.86 270.58Z" fill="#4B0062"/>
<path d="M254.06 271.36L258.53 289.63H249.59L254.06 271.36Z" fill="#F48001"/>
<path d="M207 235.52V270.07H213.41V232.93H207.53C207.179 233.748 206.999 234.63 207 235.52Z" fill="#4B0062"/>
<path d="M213.91 270.57H206.5V235.57C206.495 234.607 206.69 233.654 207.07 232.77L207.2 232.47H213.91V270.57ZM207.5 269.57H212.91V233.43H207.91C207.664 234.103 207.538 234.814 207.54 235.53L207.5 269.57Z" fill="#4B0062"/>
<path d="M207 235.52V245L213.11 241.6L213.42 241.77L219.28 245.03L225.45 241.6L231.62 245.03L237.79 241.6L244 245L250.17 241.57L256.34 245L262.51 241.57L268.68 245L274.85 241.57L281 245V235.5C281 234.619 280.826 233.747 280.489 232.934C280.152 232.12 279.657 231.381 279.034 230.759C278.411 230.137 277.671 229.643 276.857 229.307C276.043 228.971 275.171 228.799 274.29 228.8H213.7C212.382 228.798 211.093 229.187 209.995 229.916C208.897 230.646 208.039 231.684 207.53 232.9C207.175 233.728 206.994 234.619 207 235.52Z" fill="#4B0062"/>
<path d="M281.47 245.87L274.8 242.17L268.63 245.6L262.46 242.17L256.29 245.6L250.12 242.17L244 245.61L237.83 242.18L231.66 245.61L225.49 242.18L219.32 245.61L213.15 242.18L206.54 245.85V235.52C206.535 234.557 206.73 233.604 207.11 232.72C207.655 231.412 208.576 230.296 209.756 229.512C210.937 228.729 212.323 228.314 213.74 228.32H274.3C276.21 228.32 278.043 229.078 279.395 230.428C280.747 231.778 281.507 233.61 281.51 235.52L281.47 245.87ZM225.47 241.03L231.64 244.46L237.81 241.03L243.98 244.46L250.15 241.03L256.32 244.46L262.49 241.03L268.66 244.46L274.8 241L280.47 244.14V235.49C280.467 233.845 279.812 232.268 278.648 231.105C277.483 229.943 275.905 229.29 274.26 229.29H213.7C212.48 229.285 211.286 229.643 210.269 230.318C209.253 230.992 208.459 231.954 207.99 233.08C207.662 233.841 207.495 234.661 207.5 235.49V244.11L213.1 241L219.27 244.43L225.47 241.03Z" fill="#4B0062"/>
<path d="M285.47 260.09H292.32V243.58H285.47V260.09Z" fill="#A26BB4"/>
<path d="M292.82 260.58H285V243.07H292.84L292.82 260.58ZM285.98 259.58H291.82V244.07H286L285.98 259.58Z" fill="#4B0062"/>
<path d="M280.97 254.56H285.48V249.1H280.97V254.56Z" fill="#A26BB4"/>
<path d="M286 255.06H280.49V248.6H286V255.06ZM281.49 254.06H285V249.6H281.49V254.06Z" fill="#4B0062"/>
<path d="M210.85 243.57H204V260.08H210.85V243.57Z" fill="#A26BB4"/>
<path d="M211.34 260.58H203.5V243.07H211.34V260.58ZM204.5 259.58H210.34V244.07H204.5V259.58Z" fill="#4B0062"/>
<path d="M218 249.1H210.84V254.56H218V249.1Z" fill="#A26BB4"/>
<path d="M218.5 255.06H210.34V248.6H218.5V255.06ZM211.34 254.06H217.5V249.6H211.34V254.06Z" fill="#4B0062"/>
<path d="M280.96 251.75H220.8V252.75H280.96V251.75Z" fill="#4B0062"/>
<path d="M227.61 249.1H226.61V255.08H227.61V249.1Z" fill="#4B0062"/>
<path d="M239.5 249.1H238.5V255.08H239.5V249.1Z" fill="#4B0062"/>
<path d="M251.38 249.1H250.38V255.08H251.38V249.1Z" fill="#4B0062"/>
<path d="M263.27 249.1H262.27V255.08H263.27V249.1Z" fill="#4B0062"/>
<path d="M275.15 249.1H274.15V255.08H275.15V249.1Z" fill="#4B0062"/>
<path d="M225.79 263.36H277.7V258.55H225.79V263.36Z" fill="#4B0062"/>
<path d="M278.2 263.86H225.28V258.05H278.2V263.86ZM226.29 262.86H277.2V259.05H226.28L226.29 262.86Z" fill="#4B0062"/>
<path d="M260.62 264.42C260.583 265.441 260.752 266.458 261.117 267.412C261.482 268.366 262.035 269.236 262.744 269.971C263.453 270.706 264.303 271.291 265.243 271.69C266.183 272.09 267.194 272.296 268.215 272.296C269.236 272.296 270.247 272.09 271.187 271.69C272.127 271.291 272.977 270.706 273.686 269.971C274.395 269.236 274.948 268.366 275.313 267.412C275.678 266.458 275.847 265.441 275.81 264.42C275.809 264.069 275.783 263.718 275.73 263.37H260.73C260.667 263.717 260.631 264.068 260.62 264.42Z" fill="#FFF0DC"/>
<path d="M268.22 272.52C266.073 272.517 264.014 271.663 262.495 270.145C260.977 268.626 260.123 266.567 260.12 264.42C260.119 264.042 260.145 263.664 260.2 263.29L260.26 262.86H276.16L276.22 263.29C276.275 263.664 276.301 264.042 276.3 264.42C276.297 266.564 275.446 268.62 273.932 270.138C272.418 271.656 270.364 272.512 268.22 272.52ZM261.15 263.87C261.15 264.05 261.15 264.24 261.15 264.42C261.219 266.256 261.997 267.993 263.32 269.267C264.643 270.542 266.408 271.254 268.245 271.254C270.082 271.254 271.847 270.542 273.17 269.267C274.493 267.993 275.271 266.256 275.34 264.42C275.34 264.23 275.34 264.05 275.34 263.87H261.15Z" fill="#4B0062"/>
<path d="M267.15 264.36C267.15 265.263 267.509 266.129 268.147 266.768C268.786 267.406 269.652 267.765 270.555 267.765C271.458 267.765 272.324 267.406 272.963 266.768C273.601 266.129 273.96 265.263 273.96 264.36C273.959 264.021 273.908 263.684 273.81 263.36H267.29C267.195 263.685 267.148 264.022 267.15 264.36Z" fill="#F44B1B"/>
<path d="M270.55 268.26C269.516 268.257 268.526 267.846 267.795 267.115C267.064 266.384 266.653 265.394 266.65 264.36C266.651 263.974 266.709 263.59 266.82 263.22L266.93 262.86H274.19L274.3 263.22C274.411 263.59 274.469 263.974 274.47 264.36C274.469 264.873 274.366 265.382 274.169 265.856C273.971 266.329 273.682 266.76 273.318 267.122C272.954 267.484 272.522 267.771 272.047 267.966C271.572 268.161 271.063 268.261 270.55 268.26ZM267.69 263.86C267.677 264.023 267.677 264.187 267.69 264.35C267.69 265.12 267.996 265.859 268.541 266.404C269.086 266.949 269.825 267.255 270.595 267.255C271.365 267.255 272.104 266.949 272.649 266.404C273.194 265.859 273.5 265.12 273.5 264.35C273.513 264.187 273.513 264.023 273.5 263.86H267.69Z" fill="#4B0062"/>
<path d="M231.72 264.42C231.791 266.387 232.623 268.249 234.039 269.615C235.456 270.981 237.347 271.744 239.315 271.744C241.283 271.744 243.174 270.981 244.591 269.615C246.007 268.249 246.839 266.387 246.91 264.42C246.909 264.069 246.883 263.718 246.83 263.37H231.83C231.767 263.717 231.731 264.068 231.72 264.42Z" fill="#FFF0DC"/>
<path d="M239.31 272.52C237.163 272.517 235.104 271.663 233.585 270.145C232.067 268.626 231.213 266.567 231.21 264.42C231.209 264.042 231.235 263.664 231.29 263.29L231.35 262.86H247.25L247.31 263.29C247.365 263.664 247.391 264.042 247.39 264.42C247.387 266.564 246.536 268.62 245.022 270.138C243.508 271.656 241.454 272.512 239.31 272.52ZM232.24 263.87C232.24 264.05 232.24 264.24 232.24 264.42C232.204 265.374 232.361 266.326 232.702 267.218C233.042 268.11 233.559 268.924 234.221 269.612C234.884 270.299 235.678 270.847 236.557 271.22C237.435 271.594 238.38 271.786 239.335 271.786C240.29 271.786 241.235 271.594 242.113 271.22C242.992 270.847 243.786 270.299 244.449 269.612C245.111 268.924 245.628 268.11 245.968 267.218C246.309 266.326 246.466 265.374 246.43 264.42C246.43 264.23 246.43 264.05 246.43 263.87H232.24Z" fill="#4B0062"/>
<path d="M238.24 264.36C238.24 265.262 238.598 266.127 239.236 266.764C239.873 267.402 240.738 267.76 241.64 267.76C242.542 267.76 243.407 267.402 244.044 266.764C244.682 266.127 245.04 265.262 245.04 264.36C245.039 264.021 244.988 263.684 244.89 263.36H238.38C238.285 263.685 238.238 264.022 238.24 264.36Z" fill="#F44B1B"/>
<path d="M241.64 268.26C240.606 268.257 239.616 267.846 238.885 267.115C238.154 266.384 237.743 265.394 237.74 264.36C237.741 263.974 237.799 263.59 237.91 263.22L238.02 262.86H245.27L245.38 263.22C245.491 263.59 245.549 263.974 245.55 264.36C245.55 264.873 245.449 265.381 245.252 265.855C245.056 266.329 244.767 266.759 244.404 267.121C244.041 267.484 243.61 267.771 243.136 267.966C242.661 268.161 242.153 268.261 241.64 268.26ZM238.78 263.86C238.767 264.023 238.767 264.187 238.78 264.35C238.78 265.119 239.086 265.857 239.629 266.401C240.173 266.944 240.911 267.25 241.68 267.25C242.449 267.25 243.187 266.944 243.731 266.401C244.274 265.857 244.58 265.119 244.58 264.35C244.593 264.187 244.593 264.023 244.58 263.86H238.78Z" fill="#4B0062"/>
<path d="M212.949 299.846L212.352 300.648L236.024 318.235L236.621 317.433L212.949 299.846Z" fill="#4B0062"/>
<path d="M218.685 300.047L213.927 305.896L214.703 306.527L219.461 300.678L218.685 300.047Z" fill="#4B0062"/>
<path d="M225.447 305.239L220.689 311.088L221.465 311.719L226.223 305.87L225.447 305.239Z" fill="#4B0062"/>
<path d="M232.199 310.43L227.441 316.279L228.217 316.91L232.975 311.061L232.199 310.43Z" fill="#4B0062"/>
<path d="M237.84 482V509.75H248.55V502.82L250.55 504.82L255.55 509.82H298.89V494.28C298.89 492.898 298.341 491.573 297.364 490.596C296.387 489.619 295.062 489.07 293.68 489.07H275.18V482H237.84Z" fill="#A26BB4"/>
<path d="M299.32 510.25H255.27L249 504V510.22H237.34V481.5H275.68V488.57H293.61C295.124 488.573 296.574 489.175 297.645 490.245C298.715 491.316 299.317 492.766 299.32 494.28V510.25ZM255.68 509.25H298.32V494.25C298.317 493.002 297.82 491.805 296.938 490.922C296.055 490.04 294.858 489.543 293.61 489.54H274.68V482.5H238.34V509.25H248V501.61L255.68 509.25Z" fill="#4B0062"/>
<path d="M238.34 408.04H237.34V482H238.34V408.04Z" fill="#A26BB4"/>
<path d="M212.39 285.12H208.39C207.624 285.12 206.888 284.816 206.346 284.274C205.805 283.732 205.5 282.997 205.5 282.23V279.06C205.5 278.294 205.805 277.558 206.346 277.017C206.888 276.475 207.624 276.17 208.39 276.17H212.39V285.17V285.12Z" fill="#4B0062"/>
<path d="M212.89 285.62H208.35C207.451 285.62 206.589 285.263 205.953 284.627C205.317 283.991 204.96 283.129 204.96 282.23V279.06C204.96 278.161 205.317 277.299 205.953 276.663C206.589 276.027 207.451 275.67 208.35 275.67H212.89V285.62ZM208.35 276.62C207.716 276.62 207.108 276.872 206.66 277.32C206.212 277.768 205.96 278.376 205.96 279.01V282.18C205.96 282.814 206.212 283.422 206.66 283.87C207.108 284.318 207.716 284.57 208.35 284.57H211.89V276.57L208.35 276.62Z" fill="#4B0062"/>
<path d="M298.82 504.79H250.51L255.47 509.75H298.82V504.79Z" fill="#4B0062"/>
<path d="M299.32 510.25H255.27L249.27 504.25H299.27L299.32 510.25ZM255.68 509.25H298.32V505.25H251.72L255.68 509.25Z" fill="#4B0062"/>
<path d="M248.55 504.79H237.84V509.75H248.55V504.79Z" fill="#4B0062"/>
<path d="M249 510.25H237.34V504.25H249V510.25ZM238.29 509.25H248V505.25H238.29V509.25Z" fill="#4B0062"/>
<path d="M238.34 504.79H237.34V509.75H238.34V504.79Z" fill="#A26BB4"/>
<path d="M351.71 509.25H128.69V510.25H351.71V509.25Z" fill="#4B0062"/>
<path d="M151.97 276.3H150.97V289.63H151.97V276.3Z" fill="#4B0062"/>
<path d="M184.29 321.16H176.86V322.16H184.29V321.16Z" fill="#4B0062"/>
<path d="M508.88 144.96H507.88V161.05H508.88V144.96Z" fill="#4B0062"/>
<path d="M513.44 152.51H503.32V153.51H513.44V152.51Z" fill="#4B0062"/>
<path d="M534.27 164.02H533.27V175.24H534.27V164.02Z" fill="#4B0062"/>
<path d="M537.45 169.13H530.08V170.13H537.45V169.13Z" fill="#4B0062"/>
<path d="M148.03 254.56H127.04V246.24H148.03" fill="#FFF0DC"/>
<path d="M148.03 255.06H126.54V245.74H148.03V246.74H127.54V254.06H148.03V255.06Z" fill="#4B0062"/>
<path d="M274.64 298.25V298.39C274.64 300.041 274.157 301.657 273.251 303.037C272.345 304.418 271.055 305.503 269.54 306.16C268.476 306.631 267.324 306.873 266.16 306.87H236.38C235.342 306.871 234.315 306.662 233.36 306.257C232.404 305.851 231.54 305.258 230.82 304.511C230.099 303.764 229.536 302.88 229.165 301.91C228.794 300.941 228.622 299.907 228.66 298.87C228.774 297.055 229.553 295.346 230.85 294.07C234.91 289.85 239.65 291.17 241.48 294.37C241.904 295.162 242.532 295.827 243.298 296.296C244.064 296.765 244.942 297.022 245.84 297.04H258.45C259.314 297.058 260.166 296.843 260.918 296.417C261.669 295.991 262.292 295.37 262.72 294.62C263.393 293.352 264.494 292.364 265.826 291.829C267.159 291.295 268.637 291.249 270 291.7C271.37 292.156 272.559 293.036 273.393 294.215C274.228 295.393 274.665 296.806 274.64 298.25Z" fill="#4B0062"/>
<path d="M266.16 307.37H236.38C235.276 307.371 234.183 307.149 233.166 306.718C232.149 306.287 231.23 305.655 230.463 304.861C229.695 304.067 229.096 303.126 228.7 302.095C228.305 301.064 228.121 299.964 228.16 298.86C228.278 296.921 229.108 295.094 230.49 293.73C231.308 292.776 232.339 292.028 233.499 291.547C234.66 291.066 235.917 290.865 237.17 290.96C238.151 291.086 239.09 291.438 239.913 291.988C240.735 292.538 241.419 293.271 241.91 294.13C242.289 294.848 242.853 295.451 243.545 295.877C244.236 296.302 245.028 296.535 245.84 296.55H258.45C259.222 296.567 259.985 296.376 260.659 295.998C261.332 295.62 261.892 295.068 262.28 294.4C263.005 293.039 264.186 291.976 265.615 291.397C267.044 290.817 268.632 290.758 270.1 291.23C271.568 291.716 272.844 292.656 273.743 293.914C274.641 295.172 275.117 296.684 275.1 298.23V298.37C275.096 300.118 274.584 301.827 273.625 303.289C272.666 304.75 271.302 305.901 269.7 306.6C268.587 307.101 267.381 307.363 266.16 307.37ZM236.38 291.91C235.393 291.957 234.427 292.204 233.538 292.636C232.649 293.067 231.857 293.674 231.21 294.42C230.018 295.614 229.306 297.205 229.21 298.89C229.176 299.859 229.338 300.825 229.686 301.73C230.034 302.635 230.56 303.461 231.234 304.158C231.908 304.855 232.715 305.409 233.608 305.788C234.501 306.166 235.46 306.361 236.43 306.36H266.21C267.306 306.365 268.389 306.136 269.39 305.69C270.813 305.069 272.025 304.047 272.877 302.749C273.73 301.451 274.186 299.933 274.19 298.38V298.24C274.21 296.899 273.8 295.586 273.021 294.494C272.242 293.402 271.135 292.588 269.86 292.17C268.612 291.767 267.262 291.816 266.047 292.308C264.831 292.799 263.827 293.703 263.21 294.86C262.742 295.692 262.056 296.381 261.227 296.853C260.397 297.325 259.454 297.563 258.5 297.54H245.84C244.854 297.525 243.889 297.246 243.047 296.733C242.205 296.219 241.515 295.49 241.05 294.62C240.582 293.797 239.904 293.113 239.086 292.637C238.267 292.161 237.337 291.91 236.39 291.91H236.38Z" fill="#4B0062"/>
<path d="M245.67 302.91H236.9V306.87H245.67V302.91Z" fill="#FFF0DC"/>
<path d="M246.17 307.37H236.4V302.37H246.17V307.37ZM237.4 306.37H245.17V303.37H237.4V306.37Z" fill="#4B0062"/>
<path d="M266.03 302.91H257.26V306.87H266.03V302.91Z" fill="#FFF0DC"/>
<path d="M266.53 307.37H256.76V302.37H266.53V307.37ZM257.76 306.37H265.53V303.37H257.76V306.37Z" fill="#4B0062"/>
<path d="M253.27 219.71C255.717 219.71 257.7 217.727 257.7 215.28C257.7 212.833 255.717 210.85 253.27 210.85C250.823 210.85 248.84 212.833 248.84 215.28C248.84 217.727 250.823 219.71 253.27 219.71Z" fill="#FFF0DC"/>
<path d="M253.27 220.22C252.296 220.218 251.344 219.927 250.535 219.385C249.726 218.842 249.095 218.072 248.723 217.172C248.351 216.272 248.255 215.281 248.445 214.326C248.636 213.37 249.105 212.493 249.794 211.804C250.483 211.115 251.36 210.646 252.316 210.455C253.271 210.265 254.262 210.361 255.162 210.733C256.062 211.105 256.832 211.736 257.375 212.545C257.917 213.354 258.208 214.306 258.21 215.28C258.21 216.59 257.69 217.847 256.763 218.773C255.837 219.7 254.58 220.22 253.27 220.22ZM253.27 211.35C252.493 211.352 251.734 211.584 251.089 212.017C250.444 212.45 249.942 213.065 249.646 213.783C249.35 214.501 249.274 215.291 249.427 216.053C249.58 216.814 249.955 217.514 250.505 218.062C251.055 218.611 251.755 218.984 252.517 219.135C253.279 219.286 254.069 219.208 254.786 218.91C255.504 218.612 256.117 218.108 256.548 217.462C256.98 216.816 257.21 216.057 257.21 215.28C257.207 214.237 256.791 213.237 256.052 212.5C255.314 211.764 254.313 211.35 253.27 211.35Z" fill="#4B0062"/>
<path d="M377.35 219.71C379.797 219.71 381.78 217.727 381.78 215.28C381.78 212.833 379.797 210.85 377.35 210.85C374.903 210.85 372.92 212.833 372.92 215.28C372.92 217.727 374.903 219.71 377.35 219.71Z" fill="#FFF0DC"/>
<path d="M377.35 220.22C376.375 220.22 375.423 219.931 374.612 219.39C373.802 218.849 373.17 218.079 372.796 217.179C372.423 216.279 372.325 215.288 372.514 214.332C372.703 213.376 373.172 212.497 373.86 211.807C374.549 211.118 375.426 210.647 376.382 210.456C377.338 210.265 378.329 210.361 379.23 210.732C380.131 211.104 380.901 211.734 381.444 212.544C381.987 213.353 382.278 214.305 382.28 215.28C382.28 216.588 381.761 217.843 380.837 218.77C379.912 219.696 378.658 220.217 377.35 220.22ZM377.35 211.35C376.573 211.35 375.813 211.58 375.167 212.012C374.52 212.444 374.017 213.058 373.719 213.776C373.422 214.494 373.344 215.284 373.496 216.047C373.647 216.809 374.021 217.509 374.571 218.059C375.121 218.609 375.821 218.983 376.583 219.134C377.346 219.286 378.136 219.208 378.854 218.911C379.572 218.613 380.186 218.11 380.618 217.463C381.05 216.817 381.28 216.057 381.28 215.28C381.277 214.239 380.862 213.24 380.126 212.504C379.39 211.768 378.392 211.353 377.35 211.35Z" fill="#4B0062"/>
<path d="M364.57 272.86C356.7 272.86 350.57 264.53 350.57 253.86C350.57 243.19 356.73 234.86 364.57 234.86C372.41 234.86 378.57 243.19 378.57 253.86C378.57 264.53 372.44 272.86 364.57 272.86Z" fill="#A26BB4"/>
<path d="M364.57 273.36C356.42 273.36 350.04 264.81 350.04 253.89C350.04 242.97 356.42 234.42 364.57 234.42C372.72 234.42 379.1 243 379.1 253.89C379.1 264.78 372.72 273.36 364.57 273.36ZM364.57 235.42C356.98 235.42 351.04 243.53 351.04 253.89C351.04 264.25 356.98 272.36 364.57 272.36C372.16 272.36 378.1 264.25 378.1 253.89C378.1 243.53 372.16 235.42 364.57 235.42Z" fill="#4B0062"/>
<path d="M368.21 210.85H262.41V219.72H368.21V210.85Z" fill="#FFF0DC"/>
<path d="M368.71 220.22H261.91V210.35H368.71V220.22ZM262.91 219.22H367.71V211.35H262.91V219.22Z" fill="#4B0062"/>
<path d="M301.75 210.85H262.41V219.72H301.75V210.85Z" fill="#FFF0DC"/>
<path d="M302.25 220.22H261.91V210.35H302.25V220.22ZM262.91 219.22H301.25V211.35H262.91V219.22Z" fill="#4B0062"/>
<path d="M336.3 232.85H302.43V252.04H336.3V232.85Z" fill="#FFF0DC"/>
<path d="M336.8 252.55H301.93V232.35H336.8V252.55ZM302.93 251.55H335.8V233.35H302.93V251.55Z" fill="#4B0062"/>
<path d="M331.22 239.19H307.51V245.71H331.22V239.19Z" fill="#4B0062"/>
<path d="M331.72 246.21H307V238.69H331.71L331.72 246.21ZM308.01 245.21H330.72V239.69H308L308.01 245.21Z" fill="#4B0062"/>
<path d="M312.16 244.69C313.397 244.69 314.4 243.687 314.4 242.45C314.4 241.213 313.397 240.21 312.16 240.21C310.923 240.21 309.92 241.213 309.92 242.45C309.92 243.687 310.923 244.69 312.16 244.69Z" fill="#FFF0DC"/>
<path d="M312.16 245.19C311.618 245.19 311.088 245.029 310.638 244.728C310.187 244.427 309.836 243.999 309.629 243.499C309.421 242.998 309.367 242.447 309.473 241.915C309.578 241.384 309.839 240.896 310.223 240.512C310.606 240.129 311.094 239.868 311.625 239.763C312.157 239.657 312.708 239.711 313.209 239.919C313.709 240.126 314.137 240.477 314.438 240.928C314.739 241.378 314.9 241.908 314.9 242.45C314.897 243.176 314.608 243.871 314.095 244.385C313.581 244.898 312.886 245.187 312.16 245.19ZM312.16 240.71C311.816 240.71 311.479 240.812 311.193 241.003C310.907 241.194 310.684 241.466 310.552 241.784C310.421 242.102 310.386 242.452 310.453 242.789C310.521 243.127 310.686 243.437 310.93 243.68C311.173 243.924 311.483 244.089 311.821 244.157C312.158 244.224 312.508 244.189 312.826 244.058C313.144 243.926 313.416 243.703 313.607 243.417C313.798 243.131 313.9 242.794 313.9 242.45C313.9 241.988 313.717 241.546 313.39 241.22C313.064 240.893 312.621 240.71 312.16 240.71Z" fill="#4B0062"/>
<path d="M326.56 244.69C327.797 244.69 328.8 243.687 328.8 242.45C328.8 241.213 327.797 240.21 326.56 240.21C325.323 240.21 324.32 241.213 324.32 242.45C324.32 243.687 325.323 244.69 326.56 244.69Z" fill="#FFF0DC"/>
<path d="M326.56 245.19C326.018 245.19 325.488 245.029 325.038 244.728C324.587 244.427 324.236 243.999 324.029 243.499C323.821 242.998 323.767 242.447 323.873 241.915C323.978 241.384 324.239 240.896 324.623 240.512C325.006 240.129 325.494 239.868 326.025 239.763C326.557 239.657 327.108 239.711 327.609 239.919C328.109 240.126 328.537 240.477 328.838 240.928C329.139 241.378 329.3 241.908 329.3 242.45C329.297 243.176 329.008 243.871 328.495 244.385C327.981 244.898 327.286 245.187 326.56 245.19ZM326.56 240.71C326.216 240.71 325.879 240.812 325.593 241.003C325.307 241.194 325.084 241.466 324.952 241.784C324.821 242.102 324.786 242.452 324.853 242.789C324.921 243.127 325.086 243.437 325.33 243.68C325.573 243.924 325.883 244.089 326.221 244.157C326.558 244.224 326.908 244.189 327.226 244.058C327.544 243.926 327.816 243.703 328.007 243.417C328.198 243.131 328.3 242.794 328.3 242.45C328.3 241.988 328.117 241.546 327.79 241.22C327.464 240.893 327.021 240.71 326.56 240.71Z" fill="#4B0062"/>
<path d="M306.5 260.24H305.5V275.02H306.5V260.24Z" fill="#4B0062"/>
<path d="M324.32 260.24H323.32V275.02H324.32V260.24Z" fill="#4B0062"/>
<path d="M315.41 260.24H314.41V275.02H315.41V260.24Z" fill="#4B0062"/>
<path d="M333.23 260.24H332.23V275.02H333.23V260.24Z" fill="#4B0062"/>
<path d="M307.7 267.02H304.29V271.96H307.7V267.02Z" fill="#4B0062"/>
<path d="M308.2 272.46H303.79V266.52H308.2V272.46ZM304.79 271.46H307.2V267.52H304.79V271.46Z" fill="#4B0062"/>
<path d="M316.61 260.04H313.2V264.98H316.61V260.04Z" fill="#4B0062"/>
<path d="M317.11 265.48H312.7V259.54H317.11V265.48ZM313.7 264.48H316.11V260.54H313.7V264.48Z" fill="#4B0062"/>
<path d="M334.43 260.04H331.02V264.98H334.43V260.04Z" fill="#4B0062"/>
<path d="M334.94 265.48H330.53V259.54H334.94V265.48ZM331.53 264.48H333.94V260.54H331.53V264.48Z" fill="#4B0062"/>
<path d="M325.52 263.07H322.11V268.01H325.52V263.07Z" fill="#4B0062"/>
<path d="M326 268.52H321.59V262.58H326V268.52ZM322.59 267.52H325V263.58H322.59V267.52Z" fill="#4B0062"/>
<path d="M405.761 238.759L393.948 244.258L394.37 245.164L406.183 239.666L405.761 238.759Z" fill="#4B0062"/>
<path d="M394.284 260.661L393.977 261.613L405.795 265.432L406.102 264.481L394.284 260.661Z" fill="#4B0062"/>
<path d="M409.303 251.571L394.118 252.253L394.163 253.252L409.347 252.57L409.303 251.571Z" fill="#4B0062"/>
<path d="M483.98 191.48L477.72 213.51H490.24L483.98 191.48Z" fill="#4B0062"/>
<path d="M497.64 194.82L494.38 205.54L505.07 203.22L497.64 194.82Z" fill="#4B0062"/>
<path d="M470.32 194.82L473.59 205.54L462.9 203.22L470.32 194.82Z" fill="#4B0062"/>
<path d="M451.62 207.1L457.86 227.34L464.7 225.16L470.74 233.88L479.64 228.47L488.02 234.91L497.63 227.03L504.07 230.82L509.08 221.72L513.89 224.17L516.34 203.42L510.72 214.15L506.63 212.88L500.8 221.31L492.93 218.65L486.9 224.38L478.51 218.24L470.23 223.35L464.92 214.97L460.52 216.81L451.62 207.1Z" fill="#4B0062"/>
<path d="M525.072 259.41L524.776 260.366L655.37 300.866L655.666 299.911L525.072 259.41Z" fill="#4B0062"/>
<path d="M401.69 170.32C403.524 170.32 405.01 168.834 405.01 167C405.01 165.166 403.524 163.68 401.69 163.68C399.856 163.68 398.37 165.166 398.37 167C398.37 168.834 399.856 170.32 401.69 170.32Z" fill="#4B0062"/>
<path d="M401.69 170.81C400.934 170.812 400.194 170.589 399.564 170.17C398.934 169.751 398.443 169.155 398.153 168.457C397.862 167.758 397.786 166.989 397.933 166.247C398.08 165.505 398.444 164.824 398.979 164.289C399.514 163.754 400.195 163.39 400.937 163.243C401.679 163.096 402.448 163.172 403.146 163.463C403.845 163.753 404.441 164.244 404.86 164.874C405.279 165.504 405.502 166.244 405.5 167C405.497 168.01 405.095 168.977 404.381 169.691C403.667 170.405 402.7 170.807 401.69 170.81ZM401.69 164.18C401.132 164.178 400.586 164.342 400.121 164.65C399.656 164.959 399.293 165.399 399.078 165.914C398.863 166.429 398.805 166.996 398.913 167.544C399.021 168.092 399.288 168.595 399.682 168.991C400.076 169.386 400.579 169.655 401.126 169.765C401.673 169.875 402.241 169.819 402.757 169.606C403.273 169.393 403.714 169.032 404.024 168.568C404.334 168.104 404.5 167.558 404.5 167C404.5 166.254 404.204 165.538 403.678 165.01C403.151 164.481 402.436 164.183 401.69 164.18Z" fill="#4B0062"/>
<path d="M411.22 170.32C413.054 170.32 414.54 168.834 414.54 167C414.54 165.166 413.054 163.68 411.22 163.68C409.386 163.68 407.9 165.166 407.9 167C407.9 168.834 409.386 170.32 411.22 170.32Z" fill="#4B0062"/>
<path d="M411.22 170.81C410.462 170.818 409.72 170.6 409.086 170.185C408.452 169.77 407.956 169.175 407.661 168.477C407.366 167.78 407.286 167.01 407.429 166.266C407.573 165.522 407.935 164.838 408.468 164.3C409.002 163.762 409.683 163.395 410.426 163.245C411.169 163.096 411.939 163.17 412.639 163.46C413.34 163.749 413.938 164.241 414.358 164.871C414.779 165.501 415.002 166.242 415 167C414.997 168.004 414.599 168.968 413.892 169.681C413.184 170.394 412.224 170.799 411.22 170.81ZM411.22 164.18C410.661 164.172 410.112 164.331 409.643 164.636C409.174 164.941 408.806 165.378 408.586 165.893C408.367 166.407 408.305 166.976 408.409 167.525C408.514 168.075 408.779 168.581 409.172 168.979C409.564 169.378 410.067 169.65 410.615 169.762C411.163 169.875 411.732 169.821 412.25 169.609C412.767 169.397 413.21 169.035 413.522 168.571C413.833 168.106 414 167.559 414 167C414 166.259 413.708 165.548 413.188 165.02C412.668 164.492 411.961 164.19 411.22 164.18Z" fill="#4B0062"/>
<path d="M415.04 167H414.04V155.88H405.5V167H404.5V154.88H415.04V167Z" fill="#4B0062"/>
<path d="M379.129 144.443C380.908 143.998 381.989 142.195 381.544 140.416C381.099 138.637 379.297 137.556 377.518 138.001C375.739 138.446 374.658 140.248 375.102 142.027C375.547 143.806 377.35 144.887 379.129 144.443Z" fill="#4B0062"/>
<path d="M378.32 145C377.391 144.995 376.496 144.652 375.802 144.036C375.108 143.419 374.663 142.57 374.549 141.649C374.435 140.727 374.66 139.796 375.183 139.029C375.706 138.261 376.491 137.711 377.39 137.48C377.916 137.345 378.464 137.324 378.999 137.417C379.534 137.511 380.043 137.718 380.491 138.023C380.94 138.329 381.318 138.727 381.601 139.191C381.884 139.654 382.064 140.172 382.131 140.711C382.197 141.25 382.149 141.797 381.987 142.315C381.826 142.834 381.556 143.312 381.195 143.717C380.835 144.123 380.392 144.448 379.896 144.669C379.4 144.89 378.863 145.003 378.32 145ZM378.32 138.37C378.088 138.368 377.856 138.395 377.63 138.45C376.938 138.619 376.336 139.046 375.948 139.643C375.559 140.24 375.413 140.963 375.539 141.665C375.665 142.366 376.053 142.993 376.625 143.418C377.197 143.842 377.91 144.033 378.617 143.951C379.325 143.869 379.975 143.52 380.435 142.976C380.894 142.432 381.129 141.732 381.091 141.021C381.053 140.309 380.745 139.639 380.231 139.147C379.716 138.654 379.032 138.376 378.32 138.37Z" fill="#4B0062"/>
<path d="M381.06 140.51L378.11 128.75L384.31 127.2L384.55 128.17L379.33 129.48L382.03 140.27L381.06 140.51Z" fill="#4B0062"/>
<path d="M384.691 131.133L379.551 132.427L379.795 133.397L384.935 132.103L384.691 131.133Z" fill="#4B0062"/>
<path d="M630.61 308.7C630.81 311.03 629.47 313.77 626.95 315.7C624.43 317.63 621.43 318.13 619.25 317.3L630.61 308.7Z" fill="#F44B1B"/>
<path d="M621.43 318.14C620.628 318.148 619.832 318.009 619.08 317.73L618.24 317.41L631.04 307.76L631.12 308.66C631.34 311.23 629.83 314.13 627.27 316.07C625.594 317.366 623.548 318.091 621.43 318.14ZM620.37 317C622.616 317.208 624.859 316.572 626.66 315.214C628.461 313.857 629.691 311.876 630.11 309.66L620.37 317Z" fill="#4B0062"/>
<path d="M619.26 317.92C621.48 317.2 624.45 317.92 626.86 319.92C629.27 321.92 630.47 324.75 630.14 327.07L619.26 317.92Z" fill="#F44B1B"/>
<path d="M630.51 328L618.24 317.69L619.1 317.41C621.55 316.62 624.72 317.41 627.18 319.51C629.64 321.61 630.99 324.51 630.63 327.11L630.51 328ZM620.35 318.15L629.68 326C629.381 323.765 628.258 321.722 626.533 320.271C624.808 318.819 622.603 318.063 620.35 318.15Z" fill="#4B0062"/>
<path d="M625.72 337.85C629.288 337.85 632.18 335.155 632.18 331.83C632.18 328.505 629.288 325.81 625.72 325.81C622.152 325.81 619.26 328.505 619.26 331.83C619.26 335.155 622.152 337.85 625.72 337.85Z" fill="#F48001"/>
<path d="M625.72 338.35C624.449 338.26 623.232 337.802 622.218 337.03C621.205 336.258 620.438 335.207 620.014 334.006C619.589 332.804 619.525 331.505 619.828 330.268C620.132 329.031 620.79 327.909 621.723 327.041C622.655 326.172 623.82 325.595 625.076 325.38C626.332 325.165 627.623 325.321 628.791 325.83C629.959 326.339 630.953 327.178 631.651 328.244C632.349 329.309 632.721 330.556 632.72 331.83C632.689 332.718 632.483 333.591 632.115 334.399C631.746 335.208 631.222 335.936 630.572 336.541C629.921 337.147 629.158 337.618 628.326 337.928C627.493 338.239 626.608 338.382 625.72 338.35ZM625.72 326.35C624.648 326.439 623.624 326.839 622.775 327.5C621.927 328.162 621.289 329.056 620.94 330.074C620.591 331.092 620.545 332.19 620.81 333.233C621.075 334.276 621.637 335.219 622.429 335.948C623.221 336.677 624.208 337.159 625.27 337.336C626.331 337.512 627.421 337.376 628.407 336.944C629.392 336.511 630.23 335.801 630.819 334.9C631.407 333.999 631.72 332.946 631.72 331.87C631.694 331.11 631.518 330.363 631.202 329.671C630.886 328.979 630.436 328.357 629.878 327.84C629.321 327.323 628.666 326.922 627.952 326.659C627.239 326.397 626.48 326.278 625.72 326.31V326.35Z" fill="#4B0062"/>
<path d="M638.64 337.85C642.208 337.85 645.1 335.155 645.1 331.83C645.1 328.505 642.208 325.81 638.64 325.81C635.072 325.81 632.18 328.505 632.18 331.83C632.18 335.155 635.072 337.85 638.64 337.85Z" fill="#F48001"/>
<path d="M638.64 338.35C637.369 338.26 636.152 337.802 635.138 337.03C634.125 336.258 633.358 335.207 632.934 334.006C632.509 332.804 632.445 331.505 632.748 330.268C633.052 329.031 633.71 327.909 634.643 327.041C635.575 326.172 636.74 325.595 637.996 325.38C639.252 325.165 640.543 325.321 641.711 325.83C642.879 326.339 643.873 327.178 644.571 328.244C645.269 329.309 645.641 330.556 645.64 331.83C645.609 332.718 645.403 333.591 645.035 334.399C644.666 335.208 644.142 335.936 643.492 336.541C642.841 337.147 642.078 337.618 641.246 337.928C640.413 338.239 639.528 338.382 638.64 338.35ZM638.64 326.35C637.568 326.439 636.544 326.839 635.695 327.5C634.846 328.162 634.209 329.056 633.859 330.074C633.51 331.092 633.465 332.19 633.73 333.233C633.995 334.276 634.557 335.219 635.349 335.948C636.141 336.677 637.128 337.159 638.19 337.336C639.251 337.512 640.341 337.376 641.327 336.944C642.312 336.511 643.15 335.801 643.738 334.9C644.327 333.999 644.64 332.946 644.64 331.87C644.614 331.11 644.438 330.363 644.122 329.671C643.806 328.979 643.356 328.357 642.798 327.84C642.241 327.323 641.586 326.922 640.872 326.659C640.158 326.397 639.4 326.278 638.64 326.31V326.35Z" fill="#4B0062"/>
<path d="M651.56 337.85C655.128 337.85 658.02 335.155 658.02 331.83C658.02 328.505 655.128 325.81 651.56 325.81C647.992 325.81 645.1 328.505 645.1 331.83C645.1 335.155 647.992 337.85 651.56 337.85Z" fill="#F48001"/>
<path d="M651.56 338.35C650.289 338.26 649.072 337.802 648.058 337.03C647.045 336.258 646.278 335.207 645.854 334.006C645.429 332.804 645.365 331.505 645.668 330.268C645.972 329.031 646.63 327.909 647.563 327.041C648.495 326.172 649.66 325.595 650.916 325.38C652.172 325.165 653.463 325.321 654.631 325.83C655.799 326.339 656.793 327.178 657.491 328.244C658.189 329.309 658.561 330.556 658.56 331.83C658.529 332.718 658.323 333.591 657.955 334.399C657.586 335.208 657.062 335.936 656.412 336.541C655.761 337.147 654.998 337.618 654.166 337.928C653.333 338.239 652.448 338.382 651.56 338.35ZM651.56 326.35C650.488 326.439 649.464 326.839 648.615 327.5C647.766 328.162 647.129 329.056 646.78 330.074C646.43 331.092 646.385 332.19 646.65 333.233C646.915 334.276 647.477 335.219 648.269 335.948C649.061 336.677 650.048 337.159 651.11 337.336C652.171 337.512 653.261 337.376 654.247 336.944C655.232 336.511 656.07 335.801 656.659 334.9C657.247 333.999 657.56 332.946 657.56 331.87C657.534 331.11 657.358 330.363 657.042 329.671C656.726 328.979 656.276 328.357 655.718 327.84C655.161 327.323 654.506 326.922 653.792 326.659C653.078 326.397 652.32 326.278 651.56 326.31V326.35Z" fill="#4B0062"/>
<path d="M664.48 337.85C668.048 337.85 670.94 335.155 670.94 331.83C670.94 328.505 668.048 325.81 664.48 325.81C660.912 325.81 658.02 328.505 658.02 331.83C658.02 335.155 660.912 337.85 664.48 337.85Z" fill="#F48001"/>
<path d="M664.48 338.35C663.209 338.26 661.992 337.802 660.978 337.03C659.965 336.258 659.198 335.207 658.774 334.006C658.349 332.804 658.285 331.505 658.588 330.268C658.892 329.031 659.55 327.909 660.483 327.041C661.415 326.172 662.58 325.595 663.836 325.38C665.092 325.165 666.383 325.321 667.551 325.83C668.719 326.339 669.713 327.178 670.411 328.244C671.109 329.309 671.481 330.556 671.48 331.83C671.449 332.718 671.243 333.591 670.875 334.399C670.506 335.208 669.982 335.936 669.332 336.541C668.681 337.147 667.918 337.618 667.086 337.928C666.253 338.239 665.368 338.382 664.48 338.35ZM664.48 326.35C663.408 326.439 662.384 326.839 661.535 327.5C660.687 328.162 660.049 329.056 659.699 330.074C659.35 331.092 659.306 332.19 659.57 333.233C659.835 334.276 660.397 335.219 661.189 335.948C661.981 336.677 662.968 337.159 664.03 337.336C665.091 337.512 666.181 337.376 667.167 336.944C668.152 336.511 668.99 335.801 669.579 334.9C670.167 333.999 670.48 332.946 670.48 331.87C670.454 331.11 670.278 330.363 669.962 329.671C669.646 328.979 669.196 328.357 668.638 327.84C668.081 327.323 667.426 326.922 666.712 326.659C665.998 326.397 665.24 326.278 664.48 326.31V326.35Z" fill="#4B0062"/>
<path d="M670.94 331.83L683.58 344.79L683.08 337.04L689.05 335.71L683.01 331.07L689.05 326.24L682.3 325.81L684.29 319.28L670.94 331.83Z" fill="#F48001"/>
<path d="M684.16 346.1L670.22 331.81L685.31 317.62L683 325.35L690.41 325.83L683.86 331.07L690.24 335.97L683.65 337.44L684.16 346.1ZM671.65 331.84L683 343.47L682.56 336.65L687.9 335.46L682.2 331.08L687.73 326.66L681.64 326.27L683.27 320.93L671.65 331.84Z" fill="#4B0062"/>
<path d="M555.64 328.18V327.18L560 327C562.324 326.901 564.528 325.94 566.181 324.303C567.834 322.667 568.818 320.473 568.94 318.15L569.07 315.77L570.07 315.83L569.94 318.21C569.802 320.787 568.706 323.22 566.867 325.032C565.028 326.843 562.579 327.901 560 328L555.64 328.18Z" fill="#4B0062"/>
<path d="M659.82 236.9C661.554 236.9 662.96 235.494 662.96 233.76C662.96 232.026 661.554 230.62 659.82 230.62C658.086 230.62 656.68 232.026 656.68 233.76C656.68 235.494 658.086 236.9 659.82 236.9Z" fill="#A26BB4"/>
<path d="M672.1 247.41C673.47 247.41 674.58 246.3 674.58 244.93C674.58 243.56 673.47 242.45 672.1 242.45C670.73 242.45 669.62 243.56 669.62 244.93C669.62 246.3 670.73 247.41 672.1 247.41Z" fill="#A26BB4"/>
<path d="M323.69 350.33C325.17 350.33 326.37 349.13 326.37 347.65C326.37 346.17 325.17 344.97 323.69 344.97C322.21 344.97 321.01 346.17 321.01 347.65C321.01 349.13 322.21 350.33 323.69 350.33Z" fill="#A26BB4"/>
<path d="M358.64 373.76C361.247 373.76 363.36 371.647 363.36 369.04C363.36 366.433 361.247 364.32 358.64 364.32C356.033 364.32 353.92 366.433 353.92 369.04C353.92 371.647 356.033 373.76 358.64 373.76Z" fill="#A26BB4"/>
<path d="M366.13 356.96C367.66 356.96 368.9 355.72 368.9 354.19C368.9 352.66 367.66 351.42 366.13 351.42C364.6 351.42 363.36 352.66 363.36 354.19C363.36 355.72 364.6 356.96 366.13 356.96Z" fill="#A26BB4"/>
<path d="M199.11 182.15C202.38 182.15 205.03 179.5 205.03 176.23C205.03 172.96 202.38 170.31 199.11 170.31C195.84 170.31 193.19 172.96 193.19 176.23C193.19 179.5 195.84 182.15 199.11 182.15Z" fill="#A26BB4"/>
<path d="M181.65 171.54C183.39 171.54 184.8 170.13 184.8 168.39C184.8 166.65 183.39 165.24 181.65 165.24C179.91 165.24 178.5 166.65 178.5 168.39C178.5 170.13 179.91 171.54 181.65 171.54Z" fill="#A26BB4"/>
<path d="M414.17 490.27L414.6 487.39L417.38 486.43L409.5 476.74L409.27 489.23L412.05 488.27L414.17 490.27Z" fill="#F48001"/>
<path d="M414.52 491.29L411.92 488.84L408.75 489.93L409.01 475.36L418.21 486.67L415.04 487.76L414.52 491.29ZM412.17 487.69L413.81 489.24L414.15 487L416.54 486.18L410 478.11L409.81 488.52L412.17 487.69Z" fill="#4B0062"/>
<path d="M405.25 460.3L403.13 458.3L402.7 461.18L399.92 462.14L407.81 471.83L408.03 459.34L405.25 460.3Z" fill="#F48001"/>
<path d="M408.28 473.21L399.08 461.9L402.25 460.81L402.78 457.28L405.38 459.73L408.55 458.64L408.28 473.21ZM400.76 462.38L407.33 470.46L407.52 460.05L405.13 460.88L403.49 459.33L403.15 461.57L400.76 462.38Z" fill="#4B0062"/>
<path d="M410.522 479.812C413.555 478.765 415.166 475.457 414.119 472.424C413.072 469.391 409.765 467.781 406.731 468.827C403.698 469.874 402.088 473.182 403.135 476.215C404.181 479.248 407.489 480.858 410.522 479.812Z" fill="#F48001"/>
<path d="M408.66 480.6C407.075 480.604 405.546 480.011 404.377 478.94C403.208 477.869 402.484 476.398 402.349 474.818C402.214 473.239 402.678 471.666 403.648 470.412C404.618 469.158 406.024 468.315 407.587 468.049C409.15 467.784 410.756 468.115 412.086 468.978C413.416 469.841 414.373 471.173 414.767 472.708C415.162 474.244 414.964 475.872 414.215 477.269C413.465 478.666 412.218 479.73 410.72 480.25C410.058 480.48 409.361 480.598 408.66 480.6ZM408.66 468.97C408.068 468.969 407.48 469.067 406.92 469.26C405.669 469.693 404.626 470.579 403.998 471.745C403.37 472.91 403.202 474.269 403.529 475.551C403.855 476.834 404.651 477.948 405.76 478.671C406.868 479.395 408.208 479.676 409.514 479.458C410.82 479.24 411.996 478.54 412.81 477.496C413.624 476.452 414.016 475.141 413.908 473.822C413.801 472.502 413.202 471.271 412.23 470.373C411.258 469.474 409.984 468.974 408.66 468.97Z" fill="#4B0062"/>
<path d="M412.72 337.84L415.27 336.43L417.72 338.05L420.63 325.9L410.57 333.31L413.02 334.94L412.72 337.84Z" fill="#A26BB4"/>
<path d="M418 338.86L415.25 337L412.12 338.73L412.49 335.18L409.7 333.33L421.43 324.68L418 338.86ZM415.25 335.86L417.36 337.26L419.78 327.14L411.4 333.32L413.51 334.71L413.28 336.96L415.25 335.86Z" fill="#4B0062"/>
<path d="M431.1 312.54L431.4 309.63L428.84 311.04L426.39 309.42L423.49 321.57L433.55 314.16L431.1 312.54Z" fill="#A26BB4"/>
<path d="M422.69 322.79L426.07 308.61L428.86 310.46L431.99 308.73L431.62 312.28L434.41 314.13L422.69 322.79ZM426.69 310.24L424.27 320.37L432.65 314.19L430.54 312.8L430.77 310.55L428.77 311.64L426.69 310.24Z" fill="#4B0062"/>
<path d="M426.897 326.91C428.669 324.234 427.936 320.629 425.261 318.858C422.585 317.086 418.98 317.819 417.209 320.494C415.437 323.17 416.17 326.775 418.845 328.546C421.521 330.318 425.126 329.585 426.897 326.91Z" fill="#A26BB4"/>
<path d="M422 330C421.018 329.995 420.05 329.761 419.174 329.317C418.298 328.872 417.538 328.23 416.955 327.44C416.371 326.649 415.98 325.734 415.812 324.766C415.645 323.798 415.705 322.805 415.99 321.864C416.274 320.924 416.774 320.063 417.449 319.35C418.125 318.637 418.957 318.092 419.881 317.757C420.805 317.423 421.793 317.308 422.769 317.424C423.744 317.539 424.68 317.88 425.5 318.42C426.636 319.168 427.5 320.263 427.963 321.541C428.426 322.82 428.463 324.214 428.07 325.516C427.676 326.817 426.873 327.957 425.779 328.765C424.685 329.573 423.36 330.006 422 330ZM422 318.37C420.726 318.371 419.494 318.829 418.53 319.663C417.566 320.496 416.934 321.648 416.749 322.909C416.564 324.17 416.838 325.455 417.522 326.531C418.206 327.606 419.254 328.399 420.475 328.766C421.695 329.132 423.007 329.048 424.17 328.527C425.334 328.007 426.271 327.086 426.811 325.932C427.352 324.777 427.459 323.467 427.114 322.241C426.768 321.014 425.993 319.953 424.93 319.25C424.076 318.705 423.083 318.417 422.07 318.42L422 318.37Z" fill="#4B0062"/>
<path d="M455.15 381.4L450.75 382.24L453.01 386.1L450.88 389.24L459.25 386.1L456.12 377.73L455.15 381.4Z" fill="#FFF0DC"/>
<path d="M449.58 390.26L452.43 386.08L449.97 381.88L454.75 380.97L456.03 376.08L459.89 386.4L449.58 390.26ZM451.58 382.6L453.64 386.12L452.21 388.22L458.64 385.81L456.23 379.38L455.59 381.83L451.58 382.6Z" fill="#4B0062"/>
<path d="M492.49 401.24L490.23 397.37L492.37 394.23L483.99 397.37L487.13 405.74L488.09 402.07L492.49 401.24Z" fill="#FFF0DC"/>
<path d="M487.21 407.39L483.35 397.07L493.67 393.21L490.82 397.39L493.28 401.59L488.5 402.5L487.21 407.39ZM484.64 397.66L487.05 404.09L487.69 401.64L491.69 400.88L489.63 397.36L491.06 395.26L484.64 397.66Z" fill="#4B0062"/>
<path d="M486.28 396.63L484.94 399.57C484.798 399.883 484.595 400.165 484.343 400.4C484.092 400.635 483.796 400.818 483.474 400.939C483.152 401.059 482.809 401.116 482.465 401.104C482.121 401.092 481.783 401.013 481.47 400.87L458.26 390.3C457.629 390.01 457.139 389.483 456.895 388.833C456.652 388.183 456.675 387.463 456.96 386.83L458.3 383.89C458.442 383.577 458.645 383.295 458.897 383.06C459.148 382.825 459.444 382.642 459.766 382.521C460.088 382.401 460.431 382.344 460.775 382.356C461.119 382.368 461.457 382.447 461.77 382.59L485 393.16C485.631 393.45 486.121 393.977 486.365 394.627C486.608 395.277 486.585 395.997 486.3 396.63H486.28Z" fill="#FFF0DC"/>
<path d="M482.55 401.61C482.105 401.61 481.665 401.515 481.26 401.33L458.05 390.76C457.299 390.416 456.714 389.788 456.424 389.014C456.133 388.241 456.161 387.384 456.5 386.63L457.84 383.69C458.182 382.937 458.81 382.351 459.584 382.06C460.359 381.769 461.217 381.798 461.97 382.14L485.18 392.71C485.788 392.983 486.29 393.446 486.61 394.03C486.851 394.457 486.987 394.935 487.008 395.426C487.029 395.916 486.934 396.404 486.73 396.85L485.39 399.79C485.14 400.333 484.739 400.793 484.236 401.115C483.733 401.438 483.148 401.609 482.55 401.61ZM460.69 382.86C460.283 382.86 459.885 382.977 459.543 383.196C459.201 383.416 458.929 383.73 458.76 384.1L457.42 387C457.189 387.512 457.17 388.095 457.366 388.621C457.563 389.147 457.96 389.575 458.47 389.81L481.68 400.38C481.933 400.496 482.207 400.56 482.486 400.57C482.764 400.58 483.042 400.535 483.303 400.437C483.564 400.34 483.803 400.192 484.007 400.002C484.21 399.812 484.375 399.584 484.49 399.33L485.83 396.39C485.97 396.086 486.035 395.754 486.021 395.42C486.007 395.087 485.914 394.761 485.75 394.47C485.524 394.071 485.172 393.758 484.75 393.58L461.57 383C461.29 382.892 460.99 382.844 460.69 382.86Z" fill="#4B0062"/>
<path d="M463.11 383.2L456.94 389C456.789 388.665 456.711 388.302 456.711 387.935C456.711 387.568 456.789 387.205 456.94 386.87L458.28 383.93C458.422 383.617 458.625 383.335 458.877 383.1C459.128 382.865 459.424 382.682 459.746 382.561C460.068 382.441 460.411 382.384 460.755 382.396C461.099 382.408 461.437 382.488 461.75 382.63L463.11 383.2Z" fill="#F44B1B"/>
<path d="M456.77 389.81L456.49 389.16C456.311 388.76 456.219 388.328 456.219 387.89C456.219 387.452 456.311 387.02 456.49 386.62L457.83 383.68C458.172 382.927 458.8 382.341 459.574 382.05C460.349 381.759 461.207 381.788 461.96 382.13L463.96 383.05L456.77 389.81ZM460.69 382.81C460.284 382.811 459.886 382.928 459.544 383.148C459.202 383.368 458.93 383.681 458.76 384.05L457.42 387C457.276 387.313 457.211 387.656 457.23 388L462.23 383.33L461.57 383.03C461.292 382.911 460.992 382.853 460.69 382.86V382.81Z" fill="#4B0062"/>
<path d="M470.94 386.76L464.23 393.03L460.01 391.11L466.72 384.85L470.94 386.76Z" fill="#F44B1B"/>
<path d="M464.33 393.62L459.13 391.25L466.63 384.25L471.83 386.62L464.33 393.62ZM460.9 391L464.13 392.47L470.04 386.95L466.81 385.48L460.9 391Z" fill="#4B0062"/>
<path d="M478.76 390.32L472.05 396.59L467.84 394.67L474.55 388.41L478.76 390.32Z" fill="#F44B1B"/>
<path d="M472.15 397.18L466.95 394.81L474.45 387.81L479.64 390.18L472.15 397.18ZM468.73 394.52L472 396L477.91 390.48L474.64 389L468.73 394.52Z" fill="#4B0062"/>
<path d="M486.18 394.26L479.88 400.15L475.66 398.23L482.37 391.97L484.98 393.16C485.488 393.388 485.909 393.773 486.18 394.26Z" fill="#F44B1B"/>
<path d="M480 400.74L474.8 398.37L482.3 391.37L485.22 392.7C485.828 392.973 486.33 393.436 486.65 394.02L486.84 394.36L480 400.74ZM476.58 398.08L479.81 399.55L485.56 394.18C485.357 393.935 485.1 393.74 484.81 393.61L482.5 392.56L476.58 398.08Z" fill="#4B0062"/>
<path d="M669.22 458.08H536.93L560.33 344.78H638.64L621.38 364.28L669.22 458.08Z" fill="#A26BB4"/>
<path d="M670 458.58H536.32L536.45 457.98L559.93 344.28H639.76L622 364.36L670 458.58ZM537.51 457.58H668.41L620.79 364.2L621 364L637.52 345.33H560.74L537.51 457.58Z" fill="#4B0062"/>
<path d="M608.2 344.78L602.84 370.59H499.69V347.47C499.69 346.759 499.972 346.078 500.475 345.575C500.978 345.072 501.659 344.79 502.37 344.79L608.2 344.78Z" fill="#A26BB4"/>
<path d="M603.25 371.09H499.19V347.47C499.193 346.627 499.529 345.82 500.124 345.224C500.72 344.629 501.527 344.293 502.37 344.29H608.82L603.25 371.09ZM500.19 370.09H602.44L607.59 345.28H502.38C501.803 345.283 501.25 345.513 500.841 345.921C500.433 346.33 500.203 346.883 500.2 347.46L500.19 370.09Z" fill="#4B0062"/>
<path d="M576.26 497.4L572.58 511.13H568.38V503.96L560.58 511.13H541.04L557.24 497.4H576.26Z" fill="#4B0062"/>
<path d="M573 511.63H567.92V505.1L560.82 511.63H539.72L557.1 496.9H576.95L573 511.63ZM568.92 510.63H572.24L575.65 497.9H557.43L542.43 510.63H560.43L568.93 502.82L568.92 510.63Z" fill="#4B0062"/>
<path d="M578.45 489.24L576.26 497.4H557.24V489.24H578.45Z" fill="#F44B1B"/>
<path d="M576.65 497.9H556.75V488.74H579.11L576.65 497.9ZM557.75 496.9H575.89L577.81 489.74H557.74L557.75 496.9Z" fill="#4B0062"/>
<path d="M582.63 473.66L580.44 481.82H557.24V473.66H582.63Z" fill="#F44B1B"/>
<path d="M580.83 482.32H556.74V473.16H583.28L580.83 482.32ZM557.75 481.32H580.07L581.99 474.16H557.74L557.75 481.32Z" fill="#4B0062"/>
<path d="M586.81 458.08L584.62 466.24H557.24V458.08H586.81Z" fill="#F44B1B"/>
<path d="M585 466.74H556.74V457.58H587.46L585 466.74ZM557.74 465.74H584.24L586.16 458.58H557.74V465.74Z" fill="#4B0062"/>
<path d="M655.7 431.57L660.5 440.92L664.36 448.44L667.87 455.27L671.72 462.79L675.23 469.63L679.08 477.15L685.57 489.79L682.46 492.61L677.65 487.3L676.68 497.85L662.2 510.97L664.99 489.92L630.93 452.32L655.7 431.57Z" fill="#FFF0DC"/>
<path d="M661.52 512.25L664.46 490.08L630.21 452.28L655.85 430.79L686.18 489.91L682.41 493.32L678 488.48L677.12 498.09L661.52 512.25ZM631.65 452.37L665.51 489.75L662.87 509.68L676.2 497.61L677.25 486.12L682.49 491.91L684.95 489.68L655.54 432.35L631.65 452.37Z" fill="#4B0062"/>
<path d="M679.08 477.15L685.57 489.79L682.46 492.61L677.65 487.3L676.68 497.85L662.2 510.97L664.99 489.92L679.08 477.15Z" fill="#4B0062"/>
<path d="M661.52 512.25L664.52 489.67L679.23 476.34L686.23 489.91L682.46 493.32L678 488.48L677.12 498.09L661.52 512.25ZM665.46 490.16L662.87 509.68L676.2 497.61L677.25 486.12L682.49 491.91L684.95 489.68L678.95 477.95L665.46 490.16Z" fill="#4B0062"/>
<path d="M675.23 469.63L679.08 477.15L664.99 489.92L659.51 483.87L675.23 469.63Z" fill="#F44B1B"/>
<path d="M665 490.62L658.85 483.83L675.42 468.83L679.75 477.27L665 490.62ZM660.26 483.9L665.07 489.21L678.46 477L675.08 470.4L660.26 483.9Z" fill="#4B0062"/>
<path d="M667.87 455.27L671.72 462.79L654.53 478.37L649.05 472.32L667.87 455.27Z" fill="#F44B1B"/>
<path d="M654.49 479.07L648.34 472.28L668 454.47L672.33 462.91L654.49 479.07ZM649.75 472.35L654.56 477.66L671.1 462.66L667.72 456.06L649.75 472.35Z" fill="#4B0062"/>
<path d="M660.5 440.92L664.36 448.44L644.07 466.82L638.59 460.77L660.5 440.92Z" fill="#F44B1B"/>
<path d="M644 467.53L637.85 460.74L660.62 440.11L664.95 448.55L644 467.53ZM639.26 460.81L644.07 466.12L663.71 448.33L660.33 441.73L639.26 460.81Z" fill="#4B0062"/>
<path d="M669.22 458.08H630.19L590.61 344.78H638.64L621.38 364.28L669.22 458.08Z" fill="#4B0062"/>
<path d="M670 458.58H629.8L629.68 458.25L589.87 344.25H639.71L622 364.36L670 458.58ZM630.51 457.58H668.37L620.75 364.2L621 364L637.52 345.33H591.32L630.51 457.58Z" fill="#4B0062"/>
<path d="M571.13 382.45C573.582 382.45 575.57 380.462 575.57 378.01C575.57 375.558 573.582 373.57 571.13 373.57C568.678 373.57 566.69 375.558 566.69 378.01C566.69 380.462 568.678 382.45 571.13 382.45Z" fill="#4B0062"/>
<path d="M571.13 396.57C573.582 396.57 575.57 394.582 575.57 392.13C575.57 389.678 573.582 387.69 571.13 387.69C568.678 387.69 566.69 389.678 566.69 392.13C566.69 394.582 568.678 396.57 571.13 396.57Z" fill="#4B0062"/>
<path d="M518.44 344.78V370.59H499.69V347.47C499.69 346.759 499.972 346.078 500.475 345.575C500.978 345.072 501.659 344.79 502.37 344.79L518.44 344.78Z" fill="#FFF0DC"/>
<path d="M518.94 371.09H499.19V347.47C499.193 346.627 499.529 345.82 500.124 345.224C500.72 344.629 501.527 344.293 502.37 344.29H518.94V371.09ZM500.19 370.09H517.94V345.28H502.38C501.803 345.283 501.25 345.513 500.841 345.921C500.433 346.33 500.203 346.883 500.2 347.46L500.19 370.09Z" fill="#4B0062"/>
<path d="M511.57 352.89H499.69V353.89H511.57V352.89Z" fill="#4B0062"/>
<path d="M511.57 361.49H499.69V362.49H511.57V361.49Z" fill="#4B0062"/>
<path d="M500.27 346.23H488.39V347.23H500.27V346.23Z" fill="#4B0062"/>
<path d="M500.27 354.83H488.39V355.83H500.27V354.83Z" fill="#4B0062"/>
<path d="M364.57 240C359.73 240 355.65 246.35 355.65 253.86C355.65 261.37 359.74 267.72 364.57 267.72C369.4 267.72 373.49 261.37 373.49 253.86C373.49 246.35 369.41 240 364.57 240Z" fill="#A26BB4"/>
<path d="M364.57 268.26C359.46 268.26 355.15 261.68 355.15 253.9C355.15 246.12 359.47 239.54 364.57 239.54C369.67 239.54 373.99 246.12 373.99 253.9C373.99 261.68 369.68 268.26 364.57 268.26ZM364.57 240.54C360 240.54 356.15 246.66 356.15 253.9C356.15 261.14 360.01 267.26 364.57 267.26C369.13 267.26 372.99 261.14 372.99 253.9C372.99 246.66 369.13 240.53 364.57 240.53V240.54Z" fill="#4B0062"/>
<path d="M443.33 180.88L442.5 180.32C442.885 179.746 443.299 179.192 443.74 178.66C446.913 174.772 451.483 172.281 456.47 171.72L456.57 172.72C451.844 173.253 447.515 175.615 444.51 179.3C444.09 179.806 443.696 180.334 443.33 180.88Z" fill="#4B0062"/>
<path d="M531 237.8L530.38 237.02C533.239 234.691 535.33 231.555 536.38 228.02C536.847 226.517 537.125 224.962 537.21 223.39L538.21 223.44C538.123 225.096 537.831 226.736 537.34 228.32C536.228 232.045 534.018 235.349 531 237.8Z" fill="#4B0062"/>
</g>
<defs>
<clipPath id="clip0_20_716">
<rect width="800" height="600" fill="white"/>
</clipPath>
</defs>
</svg>
