<svg width="800" height="600" viewBox="0 0 800 600" fill="none" xmlns="http://www.w3.org/2000/svg">
<g clip-path="url(#clip0_20_288)">
<path d="M169.7 394.69L121.48 398.81L124.09 396.36L164.4 391.4L169.7 394.69Z" fill="#4B0062"/>
<path d="M120.09 399.44L123.86 395.89H124.02L164.51 390.89L171.24 395.06L120.09 399.44ZM124.31 396.84L122.87 398.2L168.16 394.32L164.29 391.92L124.31 396.84Z" fill="#4B0062"/>
<path d="M405.99 515.47C526.626 515.47 624.42 418.643 624.42 299.2C624.42 179.757 526.626 82.93 405.99 82.93C285.354 82.93 187.56 179.757 187.56 299.2C187.56 418.643 285.354 515.47 405.99 515.47Z" fill="#F44B1B"/>
<path d="M545.216 289.96L540.573 330.032L541.566 330.147L546.21 290.075L545.216 289.96Z" fill="#4B0062"/>
<path d="M262.136 255.701L261.144 255.833L264.002 277.334L264.993 277.202L262.136 255.701Z" fill="#4B0062"/>
<path d="M577.92 377.832L577.16 378.481L590.958 394.642L591.718 393.993L577.92 377.832Z" fill="#4B0062"/>
<path d="M195.176 306.452L194.206 306.698L200.808 332.785L201.777 332.54L195.176 306.452Z" fill="#4B0062"/>
<path d="M124.609 360.649L123.989 361.433L155.805 386.605L156.426 385.821L124.609 360.649Z" fill="#4B0062"/>
<path d="M172.944 358.301L171.986 358.589L185.174 402.491L186.132 402.203L172.944 358.301Z" fill="#4B0062"/>
<path d="M168.8 446.16L168.66 446.1L146.17 436.28L146.57 435.37L168.92 445.12L172.79 444.41L172.97 445.4L168.8 446.16Z" fill="#4B0062"/>
<path d="M223.36 321.28L247.06 297.62L230.57 321.28L215.8 380.58L223.36 410.8L254.45 384.94V397.93L224.63 419.78L237.68 466.22L264.49 444.91L263.27 452.68L240.14 474.94L250.73 517.07H187.56L213.81 503.45L226.02 473.61L223.36 466.79L206.42 465.37L223.36 457.59L220.91 444.91H204.71L177.71 458.83L196.75 444.91H172.88L194.76 440.46L218.68 438.65L214.18 402.76L179.13 405.73L156.12 386.2L180.27 397.93L212.67 396.59L205 360.03L187.56 351.55L172.6 332.93L201.02 352.36L201.3 332.65L213.24 372.58L223.36 321.28Z" fill="#4B0062"/>
<path d="M251.37 517.57H185.51L213.42 503.09L225.49 473.6L223 467.26L204.47 465.71L222.79 457.3L220.49 445.41H204.83L177.94 459.28L177.42 458.43L195.22 445.43H172.88L172.78 444.43L194.67 440L218.13 438.22L213.75 403.33L179 406.24L178.84 406.11L152.84 384.02L180.44 397.42L212.12 396.11L204.62 360.36L187.23 351.85L170.16 330.6L200.6 351.4L200.92 329.4L213.21 370.52L222.9 321L246.7 297.24L247.46 297.88L231 321.49L216.27 380.58L223.61 409.91L254.91 383.91V398.22L225.2 420L238 465.36L265.22 443.72L263.78 452.93L263.66 453.05L240.7 475.1L251.37 517.57ZM189.6 516.57H250.08L239.58 474.78L262.8 452.44L263.8 446.09L237.41 467.09L224.06 419.59L253.96 397.69V386L223.08 411.69L215.29 380.57L230.16 321L243.43 302L223.82 321.58L213.33 374.71L201.75 335.96L201.5 353.35L175.1 335.35L187.88 351.25L205.44 359.79V360.03L213.23 397.17L180.12 398.54L180.01 398.49L159.41 388.49L179.26 405.32L214.58 402.32L219.21 439.21L194.8 441L177.8 444.44H198.23L183.14 455.44L204.53 444.44H221.26L223.87 457.91L208.35 465L223.71 466.29L226.55 473.59L226.47 473.77L214.19 503.77L214.03 503.85L189.6 516.57Z" fill="#4B0062"/>
<path d="M316.65 517.07H262.42L260.06 497.19L255.68 460.21L244.27 363.86H298.49L316.65 517.07Z" fill="#4B0062"/>
<path d="M317.21 517.57H262L255.21 460.27L243.7 363.36H298.93L298.98 363.8L317.21 517.57ZM262.86 516.57H316.08L298 364.36H244.83L262.86 516.57Z" fill="#4B0062"/>
<path d="M269.59 497.19H260.06L255.68 460.19C260.59 460.83 266.34 473.09 268.68 488.11C269.147 491.118 269.45 494.149 269.59 497.19Z" fill="#F48001"/>
<path d="M270.11 497.69H259.61L255.1 459.63L255.74 459.71C260.9 460.38 266.8 472.83 269.16 488.05C269.63 491.068 269.937 494.109 270.08 497.16L270.11 497.69ZM260.5 496.69H269.06C268.906 493.85 268.609 491.02 268.17 488.21C266.01 474.32 260.79 462.45 256.25 460.87L260.5 496.69Z" fill="#4B0062"/>
<path d="M299.79 451.24H242.82L233.6 423.58H299.79V451.24Z" fill="#A26BB4"/>
<path d="M300.29 451.74H242.46L232.91 423.08H300.29V451.74ZM243.18 450.74H299.29V424.08H234.29L243.18 450.74Z" fill="#4B0062"/>
<path d="M285.07 400.24C285.07 402.372 284.916 404.5 284.61 406.61H268.51C268.204 404.5 268.05 402.372 268.05 400.24C268.05 389.38 271.86 380.58 276.56 380.58C281.26 380.58 285.07 389.39 285.07 400.24Z" fill="#F48001"/>
<path d="M285 407.11H268L267.94 406.68C267.632 404.547 267.478 402.395 267.48 400.24C267.48 388.93 271.48 380.07 276.48 380.07C281.48 380.07 285.48 388.93 285.48 400.24C285.482 402.395 285.328 404.547 285.02 406.68L285 407.11ZM268.89 406.11H284.13C284.391 404.164 284.521 402.203 284.52 400.24C284.52 389.85 280.85 381.07 276.52 381.07C272.19 381.07 268.52 389.85 268.52 400.24C268.529 402.204 268.669 404.165 268.94 406.11H268.89Z" fill="#4B0062"/>
<path d="M277.06 380.58H276.06V406.61H277.06V380.58Z" fill="#4B0062"/>
<path d="M284.73 394.18H268.4V395.18H284.73V394.18Z" fill="#4B0062"/>
<path d="M264.49 277.27C261.49 316.85 246.49 350.08 223.37 370.58H332.83C303.75 350.08 279.07 316.85 264.49 277.27Z" fill="#A26BB4"/>
<path d="M334.41 371.08H222L223 370.21C246.41 349.44 261 316.42 264 277.21L264.18 274.92L264.97 277.07C279.42 316.29 303.63 349.34 333.14 370.14L334.41 371.08ZM224.66 370.08H331.26C302.69 349.49 279.18 317.47 264.79 279.54C261.45 317.46 247.26 349.49 224.67 370.08H224.66Z" fill="#4B0062"/>
<path d="M359.9 137.13H380.18L382.81 145.06L403.93 150.87L376.29 152.39L375.63 146.3L359.9 146.59V137.13Z" fill="#FFF0DC"/>
<path d="M375.84 152.92L375.19 146.81L359.41 147.1V136.63H380.55L383.22 144.63L407 151.2L375.84 152.92ZM376.08 145.79L376.73 151.87L400.84 150.54L382.43 145.48L379.82 137.63H360.4V146.08L376.08 145.79Z" fill="#4B0062"/>
<path d="M360.4 137.03H359.4V183.02H360.4V137.03Z" fill="#4B0062"/>
<path d="M369.07 199.38H350.74V274.94H369.07V199.38Z" fill="#4B0062"/>
<path d="M369.57 275.45H350.24V198.88H369.57V275.45ZM351.24 274.45H368.57V199.88H351.24V274.45Z" fill="#4B0062"/>
<path d="M359.9 172C356.65 185.74 349.32 197.27 339.68 204.38H380.11C370.48 197.22 363.15 185.69 359.9 172Z" fill="#A26BB4"/>
<path d="M381.64 204.83H338.17L339.39 203.93C349.1 196.76 356.21 185.36 359.39 171.83L359.88 169.78L360.37 171.83C363.57 185.36 370.68 196.76 380.37 203.93L381.64 204.83ZM341.17 203.83H378.64C369.8 196.83 363.22 186.36 359.9 173.99C356.59 186.36 350 196.85 341.17 203.83Z" fill="#4B0062"/>
<path d="M405.3 249.75V265.68H386.97V249.75H369.07V265.68H350.74V249.75H332.83V265.68V313.52V351.55H423.2V313.52V265.68V249.75H405.3Z" fill="#4B0062"/>
<path d="M423.7 352H332.33V249.25H351.23V265.17H368.56V249.25H387.46V265.17H404.8V249.25H423.7V352ZM333.33 351H422.7V250.25H405.8V266.17H386.47V250.25H369.57V266.17H350.24V250.25H333.34L333.33 351Z" fill="#4B0062"/>
<path d="M337.42 216.17H336.42V255.77H337.42V216.17Z" fill="#4B0062"/>
<path d="M489.87 180.03H488.87V217.25H489.87V180.03Z" fill="#4B0062"/>
<path d="M511.87 270.68H466.87V442.03H511.87V270.68Z" fill="#4B0062"/>
<path d="M512.37 442.53H466.37V270.18H512.37V442.53ZM467.37 441.53H511.37V271.18H467.37V441.53Z" fill="#4B0062"/>
<path d="M569.01 409.73L556.29 517.07H502.06L514.78 409.73H569.01Z" fill="#4B0062"/>
<path d="M556.73 517.57H501.49L514.33 409.23H569.57L556.73 517.57ZM502.62 516.57H555.84L568.44 410.23H515.22L502.62 516.57Z" fill="#4B0062"/>
<path d="M541.1 330.1C527.23 370.83 501.92 405.03 471.1 426.1H591.33C564.84 405 546.58 370.84 541.1 330.1Z" fill="#A26BB4"/>
<path d="M592.76 426.64H469.47L470.8 425.73C502.09 404.32 526.88 370.31 540.63 329.95L541.32 327.95L541.6 330.06C547.02 370.39 564.8 404.38 591.6 425.77L592.76 426.64ZM472.68 425.64H589.92C563.92 404.41 546.6 371.37 540.92 332.23C527.15 371.36 503 404.42 472.68 425.64Z" fill="#4B0062"/>
<path d="M476.89 367.52H349.79V414.63H476.89V367.52Z" fill="#4B0062"/>
<path d="M477.39 415.13H349.29V367H477.39V415.13ZM350.29 414.13H476.39V368H350.29V414.13Z" fill="#A26BB4"/>
<path d="M389.34 393C389.341 394.641 389.163 396.277 388.81 397.88H370C369.647 396.277 369.469 394.641 369.47 393C369.47 384.68 373.9 377.93 379.38 377.93C384.86 377.93 389.34 384.73 389.34 393Z" fill="#F48001"/>
<path d="M389.21 398.43H369.64L369.55 398.04C369.188 396.398 369.007 394.721 369.01 393.04C369.01 384.46 373.68 377.47 379.42 377.47C385.16 377.47 389.84 384.47 389.84 393.04C389.843 394.721 389.662 396.398 389.3 398.04L389.21 398.43ZM370.45 397.43H388.45C388.742 395.988 388.889 394.521 388.89 393.05C388.89 385.05 384.66 378.48 379.47 378.48C374.28 378.48 370 385 370 393C370.001 394.488 370.152 395.972 370.45 397.43Z" fill="#4B0062"/>
<path d="M379.92 377.98H378.92V397.93H379.92V377.98Z" fill="#4B0062"/>
<path d="M421.87 393C421.871 394.641 421.693 396.277 421.34 397.88H402.58C402.21 396.279 402.016 394.643 402 393C402 384.68 406.43 377.93 411.91 377.93C417.39 377.93 421.87 384.73 421.87 393Z" fill="#F48001"/>
<path d="M421.74 398.43H402.17L402.08 398.04C401.719 396.398 401.538 394.721 401.54 393.04C401.54 384.46 406.21 377.47 411.95 377.47C417.69 377.47 422.37 384.47 422.37 393.04C422.372 394.721 422.191 396.398 421.83 398.04L421.74 398.43ZM402.98 397.43H420.98C421.272 395.988 421.419 394.521 421.42 393.05C421.42 385.05 417.19 378.48 412 378.48C406.81 378.48 402.54 385 402.54 393C402.544 394.488 402.698 395.973 403 397.43H402.98Z" fill="#4B0062"/>
<path d="M412.45 377.98H411.45V397.93H412.45V377.98Z" fill="#4B0062"/>
<path d="M454.4 393C454.401 394.641 454.223 396.277 453.87 397.88H435.11C434.757 396.277 434.579 394.641 434.58 393C434.58 384.68 439.01 377.93 444.49 377.93C449.97 377.93 454.4 384.73 454.4 393Z" fill="#F48001"/>
<path d="M454.27 398.43H434.71L434.62 398.04C434.259 396.398 434.077 394.721 434.08 393.04C434.08 384.46 438.75 377.47 444.49 377.47C450.23 377.47 454.91 384.47 454.91 393.04C454.912 394.721 454.731 396.398 454.37 398.04L454.27 398.43ZM435.51 397.43H453.51C453.802 395.988 453.949 394.521 453.95 393.05C453.95 385.05 449.72 378.48 444.53 378.48C439.34 378.48 435.08 385 435.08 393C435.074 394.487 435.218 395.972 435.51 397.43Z" fill="#4B0062"/>
<path d="M444.99 377.98H443.99V397.93H444.99V377.98Z" fill="#4B0062"/>
<path d="M491.47 391.08V406.61H466.23V391.08H438.79V406.61H413.56V391.08H386.12V406.61H360.88V391.08H333.44V406.61H308.2V391.08H280.77V406.61V517.07H308.2H333.44H360.88H386.12H413.56H438.79H466.23H491.47H518.91V406.61V391.08H491.47Z" fill="#4B0062"/>
<path d="M519.41 517.57H280.27V390.57H308.7V406.11H332.94V390.58H361.38V406.12H385.62V390.58H414.06V406.12H438.3V390.58H466.74V406.12H491V390.58H519.44L519.41 517.57ZM281.27 516.57H518.41V391.57H492V407.11H465.73V391.58H439.29V407.12H413.06V391.58H386.62V407.12H360.38V391.58H333.94V407.12H307.7V391.58H281.27V516.57Z" fill="#4B0062"/>
<path d="M499.66 370.58H332.84V334.13H479.31C479.5 334.86 479.7 335.6 479.92 336.34C484 350.34 491.47 362.77 499.66 370.58Z" fill="#A26BB4"/>
<path d="M500.91 371.08H332.34V333.63H479.69L479.79 334C479.98 334.72 480.18 335.46 480.4 336.19C484.34 349.69 491.49 362.09 500 370.19L500.91 371.08ZM333.34 370.08H498.43C490.18 361.84 483.29 349.67 479.43 336.48C479.25 335.86 479.08 335.24 478.91 334.63H333.34V370.08Z" fill="#4B0062"/>
<path d="M357.66 308.61H316.18V432.55H357.66V308.61Z" fill="#4B0062"/>
<path d="M358.16 433H315.68V308.11H358.16V433ZM316.68 432H357.16V309.11H316.68V432Z" fill="#4B0062"/>
<path d="M358.16 308.61H357.16V432.55H358.16V308.61Z" fill="#A26BB4"/>
<path d="M339.38 354.16H334.45H300.1L305.57 370.58H334.45H339.38H368.27L373.74 354.16H339.38Z" fill="#A26BB4"/>
<path d="M368.63 371.08H305.21L299.4 353.66H374.4L368.63 371.08ZM305.93 370.08H367.93L373 354.66H300.79L305.93 370.08Z" fill="#4B0062"/>
<path d="M518.91 517.07V406.61V391.08H491.47V406.61H466.23V391.08H438.79V406.61H413.56V391.08H386.12V406.61H360.88V391.08H333.44V406.61H308.2V391.08H280.77V406.61V517.07" fill="#4B0062"/>
<path d="M519.41 517.07H518.41V391.58H491.97V407.11H465.73V391.58H439.29V407.11H413.06V391.58H386.62V407.11H360.38V391.58H333.94V407.11H307.7V391.58H281.27V517.07H280.27V390.58H308.7V406.11H332.94V390.58H361.38V406.11H385.62V390.58H414.06V406.11H438.29V390.58H466.73V406.11H490.97V390.58H519.41V517.07Z" fill="#A26BB4"/>
<path d="M491.83 317.71H486.9H452.55L458.02 334.13H486.9H491.83H520.72L526.19 317.71H491.83Z" fill="#A26BB4"/>
<path d="M521.08 334.63H457.66L451.85 317.21H526.85L521.08 334.63ZM458.38 333.63H520.38L525.52 318.21H453.24L458.38 333.63Z" fill="#4B0062"/>
<path d="M489.37 203.37C482.7 235.53 467.66 262.53 447.89 279.19H530.89C511.07 262.53 496 235.53 489.37 203.37Z" fill="#A26BB4"/>
<path d="M532.22 279.69H446.52L447.52 278.81C467.52 261.93 482.23 235.1 488.83 203.27L489.32 200.91L489.81 203.27C496.42 235.1 511.09 261.93 531.12 278.81L532.22 279.69ZM449.22 278.69H529.5C510.3 262.04 496.12 236.26 489.37 205.76C482.62 236.26 468.44 262 449.24 278.69H449.22Z" fill="#4B0062"/>
<path d="M496.73 302.43C496.732 304.274 496.602 306.115 496.34 307.94H482.41C482.148 306.115 482.017 304.274 482.02 302.43C482.02 293.04 485.31 285.43 489.38 285.43C493.45 285.43 496.73 293 496.73 302.43Z" fill="#F48001"/>
<path d="M496.77 308.44H482L481.94 308.01C481.673 306.162 481.539 304.297 481.54 302.43C481.54 292.61 484.99 284.92 489.4 284.92C493.81 284.92 497.26 292.61 497.26 302.43C497.261 304.297 497.127 306.162 496.86 308.01L496.77 308.44ZM482.84 307.44H495.9C496.12 305.782 496.23 304.112 496.23 302.44C496.23 293.49 493.09 285.93 489.37 285.93C485.65 285.93 482.51 293.49 482.51 302.44C482.51 304.112 482.62 305.782 482.84 307.44Z" fill="#4B0062"/>
<path d="M489.87 285.42H488.87V307.94H489.87V285.42Z" fill="#4B0062"/>
<path d="M496.44 297.12H482.31V298.12H496.44V297.12Z" fill="#4B0062"/>
<path d="M511.87 347.83V370.34H504.87C504.372 366.924 504.339 363.455 504.77 360.03C505.7 353 508.52 347.83 511.87 347.83Z" fill="#F48001"/>
<path d="M512.37 370.84H504.48L504.42 370.41C503.917 366.947 503.883 363.432 504.32 359.96C505.32 352.4 508.32 347.33 511.88 347.33H512.38L512.37 370.84ZM505.37 369.84H511.37V348.38C508.58 348.88 506.13 353.56 505.31 360.1C505.107 361.672 505.007 363.255 505.01 364.84C505.007 366.512 505.117 368.183 505.34 369.84H505.37Z" fill="#4B0062"/>
<path d="M511.87 359.53H504.81V360.53H511.87V359.53Z" fill="#4B0062"/>
<path d="M364.43 222.63C364.431 223.761 364.351 224.891 364.19 226.01H355.63C355.469 224.891 355.389 223.761 355.39 222.63C355.39 216.86 357.39 212.18 359.91 212.18C362.43 212.18 364.43 216.86 364.43 222.63Z" fill="#F48001"/>
<path d="M364.62 226.51H355.2L355.14 226.08C354.974 224.934 354.89 223.778 354.89 222.62C354.89 216.48 357.1 211.67 359.89 211.67C362.68 211.67 364.89 216.48 364.89 222.62C364.89 223.778 364.807 224.934 364.64 226.08L364.62 226.51ZM356.07 225.51H363.75C363.87 224.555 363.93 223.593 363.93 222.63C363.93 216.68 361.85 212.68 359.93 212.68C358.01 212.68 355.93 216.68 355.93 222.63C355.913 223.592 355.957 224.554 356.06 225.51H356.07Z" fill="#4B0062"/>
<path d="M360.41 212.18H359.41V226.01H360.41V212.18Z" fill="#4B0062"/>
<path d="M364.25 219.18H355.57V220.18H364.25V219.18Z" fill="#4B0062"/>
<path d="M412 300.19C412 302.322 411.846 304.45 411.54 306.56H395.39C395.084 304.45 394.93 302.322 394.93 300.19C394.93 289.33 398.74 280.53 403.44 280.53C408.14 280.53 412 289.34 412 300.19Z" fill="#F48001"/>
<path d="M411.93 307.06H395L394.94 306.63C394.632 304.497 394.478 302.345 394.48 300.19C394.48 288.88 398.48 280.03 403.48 280.03C408.48 280.03 412.48 288.89 412.48 300.19C412.481 302.345 412.327 304.497 412.02 306.63L411.93 307.06ZM395.82 306.06H411.06C411.32 304.114 411.451 302.153 411.45 300.19C411.45 289.8 407.78 281.03 403.45 281.03C399.12 281.03 395.45 289.81 395.45 300.19C395.445 302.153 395.572 304.114 395.83 306.06H395.82Z" fill="#4B0062"/>
<path d="M403.94 280.53H402.94V306.56H403.94V280.53Z" fill="#4B0062"/>
<path d="M411.61 294.14H395.29V295.14H411.61V294.14Z" fill="#4B0062"/>
<path d="M552.36 475.14C551.691 479.433 550.8 483.689 549.69 487.89H525.56C525.765 483.62 526.199 479.364 526.86 475.14C530.24 453.41 538.68 435.78 545.72 435.78C552.76 435.78 555.74 453.41 552.36 475.14Z" fill="#F48001"/>
<path d="M550.08 488.4H525V487.88C525.204 483.593 525.638 479.32 526.3 475.08C529.77 452.77 538.3 435.3 545.65 435.3C546.424 435.313 547.185 435.5 547.877 435.846C548.569 436.192 549.175 436.689 549.65 437.3C554.22 442.64 555.49 457.87 552.8 475.19C552.129 479.5 551.235 483.773 550.12 487.99L550.08 488.4ZM526.08 487.4H549.3C550.36 483.336 551.215 479.22 551.86 475.07C554.47 458.28 553.27 443.07 548.94 437.98C548.562 437.475 548.075 437.062 547.516 436.769C546.958 436.477 546.34 436.313 545.71 436.29C539.04 436.29 530.63 454.12 527.35 475.23C526.722 479.262 526.302 483.324 526.09 487.4H526.08Z" fill="#4B0062"/>
<path d="M545.209 435.689L537.078 487.788L538.066 487.942L546.197 435.843L545.209 435.689Z" fill="#4B0062"/>
<path d="M553.58 463.52H529.11V464.52H553.58V463.52Z" fill="#4B0062"/>
<path d="M267.07 479.73H258.05V480.73H267.07V479.73Z" fill="#4B0062"/>
<path d="M421.6 499.41C421.6 500.49 421.6 501.57 421.6 502.64C421.478 507.47 421.067 512.289 420.37 517.07H375.68C374.983 512.289 374.572 507.47 374.45 502.64C374.45 501.57 374.45 500.49 374.45 499.41C374.45 495.57 374.62 491.83 374.95 488.21C375.374 483.35 376.132 478.525 377.22 473.77C378.302 468.806 379.904 463.969 382 459.34C383.158 456.819 384.565 454.421 386.2 452.18C389.67 447.56 393.7 444.91 397.98 444.91C402.28 444.91 406.31 447.57 409.77 452.21C411.409 454.436 412.813 456.825 413.96 459.34C416.081 463.965 417.703 468.802 418.8 473.77C419.888 478.525 420.647 483.35 421.07 488.21C421.43 491.83 421.6 495.57 421.6 499.41Z" fill="#FFF0DC"/>
<path d="M420.76 517.57H375.25L375.19 517.14C374.489 512.339 374.075 507.5 373.95 502.65C373.95 501.58 373.95 500.49 373.95 499.41C373.95 495.6 374.12 491.82 374.45 488.16C374.875 483.277 375.637 478.428 376.73 473.65C377.837 468.649 379.469 463.778 381.6 459.12C382.771 456.568 384.195 454.139 385.85 451.87C389.52 446.98 393.73 444.4 398.03 444.4C402.33 444.4 406.59 447 410.24 451.9C411.898 454.154 413.319 456.574 414.48 459.12C416.615 463.776 418.248 468.647 419.35 473.65C420.443 478.428 421.205 483.277 421.63 488.16C421.96 491.81 422.13 495.6 422.13 499.41C422.13 500.49 422.13 501.58 422.13 502.65C422.005 507.5 421.591 512.339 420.89 517.14L420.76 517.57ZM376.11 516.57H419.89C420.546 511.95 420.933 507.295 421.05 502.63C421.05 501.56 421.05 500.49 421.05 499.41C421.05 495.63 420.88 491.88 420.55 488.25C420.129 483.414 419.374 478.612 418.29 473.88C417.204 468.946 415.595 464.142 413.49 459.55C412.354 457.081 410.967 454.735 409.35 452.55C405.89 447.91 401.95 445.46 397.96 445.45C393.97 445.44 390.03 447.89 386.56 452.52C384.945 454.732 383.554 457.101 382.41 459.59C380.31 464.184 378.701 468.988 377.61 473.92C376.526 478.652 375.771 483.454 375.35 488.29C375.02 491.91 374.85 495.67 374.85 499.45C374.85 500.52 374.85 501.6 374.85 502.67C375.002 507.324 375.423 511.965 376.11 516.57Z" fill="#4B0062"/>
<path d="M345.44 341.91C345.44 344.042 345.286 346.17 344.98 348.28H328.87C328.564 346.17 328.41 344.042 328.41 341.91C328.41 331.05 332.22 322.25 336.92 322.25C341.62 322.25 345.44 331 345.44 341.91Z" fill="#F48001"/>
<path d="M345.41 348.78H328.41L328.35 348.35C328.043 346.217 327.889 344.065 327.89 341.91C327.89 330.6 331.89 321.75 336.89 321.75C341.89 321.75 345.89 330.61 345.89 341.91C345.891 344.065 345.738 346.217 345.43 348.35L345.41 348.78ZM329.3 347.78H344.54C344.801 345.834 344.931 343.873 344.93 341.91C344.93 331.52 341.26 322.75 336.93 322.75C332.6 322.75 328.93 331.53 328.93 341.91C328.923 343.873 329.046 345.834 329.3 347.78Z" fill="#4B0062"/>
<path d="M337.42 322.24H336.42V348.28H337.42V322.24Z" fill="#4B0062"/>
<path d="M345.09 335.85H328.77V336.85H345.09V335.85Z" fill="#4B0062"/>
<path d="M326.13 472.49H314.19V477.39H326.13V472.49Z" fill="#A26BB4"/>
<path d="M326.63 477.89H313.69V472H326.63V477.89ZM314.69 476.89H325.63V473H314.69V476.89Z" fill="#4B0062"/>
<path d="M452.52 444.91H440.58V449.81H452.52V444.91Z" fill="#A26BB4"/>
<path d="M453 450.31H440.08V444.41H453V450.31ZM441.06 449.31H452V445.41H441.08L441.06 449.31Z" fill="#4B0062"/>
<path d="M460.37 452.68H448.43V457.58H460.37V452.68Z" fill="#A26BB4"/>
<path d="M460.87 458.09H447.93V452.19H460.87V458.09ZM448.93 457.09H459.87V453.19H448.93V457.09Z" fill="#4B0062"/>
<path d="M501.31 484.25H489.37V489.15H501.31V484.25Z" fill="#A26BB4"/>
<path d="M501.8 489.65H488.87V483.75H501.8V489.65ZM489.86 488.65H500.8V484.75H489.87L489.86 488.65Z" fill="#4B0062"/>
<path d="M509.17 492.03H497.23V496.93H509.17V492.03Z" fill="#A26BB4"/>
<path d="M509.67 497.43H496.73V491.53H509.67V497.43ZM497.73 496.43H508.67V492.53H497.73V496.43Z" fill="#4B0062"/>
<path d="M468.89 444.91H456.95V449.81H468.89V444.91Z" fill="#A26BB4"/>
<path d="M469.39 450.31H456.45V444.41H469.39V450.31ZM457.45 449.31H468.39V445.41H457.45V449.31Z" fill="#4B0062"/>
<path d="M316.65 480.99H304.71V485.89H316.65V480.99Z" fill="#A26BB4"/>
<path d="M317.14 486.39H304.21V480.49H317.15L317.14 486.39ZM305.2 485.39H316.14V481.49H305.21L305.2 485.39Z" fill="#4B0062"/>
<path d="M611.58 378.12L624.42 428L635.85 419.75L638.57 401.6L640.12 418.3L659.12 406.59L627.67 439.27L625.92 466.06L646.5 460.43L662.22 437.13L657.88 454.8L650.18 464L625.91 483.14L632.33 517.05H603.33L607.63 505.21L603.33 487L606.92 489L610.33 498.86L620.19 456.02L593.79 452.26L588.64 446.34L599.93 449.75L617.68 449.57L612.12 437.57L604.77 429.86L602.26 414.98C602.26 414.98 606.2 420.18 606.2 420.72C606.2 421.26 610.14 430.04 610.14 430.04L617.14 432.91L613.38 413.73L591.38 394.37L590.47 370.43L596 392.83L606.76 402.88L614.47 408.44L611.78 391.08L611.58 378.12Z" fill="#4B0062"/>
<path d="M633 517.57H602.61L607.11 505.2L602.58 486L607.32 488.61L610.22 497L619.57 456.39L593.57 452.68L587.16 445.32L600 449.17L616.9 449L611.7 437.77L604.3 430.01L601.43 413.01L602.66 414.63C606.66 419.96 606.66 420.49 606.66 420.63C606.76 421.15 609.02 426.31 610.48 429.56L616.43 432L612.88 413.9L590.81 394.51V394.3L589.72 365.49L596.41 392.57L607.06 402.57L613.75 407.39L611.24 391.21L611 374L624.69 427.24L635.36 419.54L638.66 397.54L640.52 417.54L662.21 404.18L628.16 439.56L626.47 465.47L646.19 460.07L663.38 434.6L658.38 455.1L658.31 455.19L650.54 464.46L626.54 483.46L633 517.57ZM604.07 516.57H631.79L625.4 483L649.86 463.7L657.45 454.63L661.09 439.8L646.83 460.93L625.4 466.79L627.2 439.12L656.05 409.12L639.7 419.17L638.45 405.78L636.31 420.06L624.12 428.87L612.12 382.29L612.24 391.07L615.11 409.54L606.43 403.28L595.52 393.08L591.1 375.18L591.82 394.03L613.82 413.36V413.53L617.76 433.62L609.76 430.32L609.68 430.14C607.86 426.09 605.68 421.14 605.68 420.61C604.882 419.302 604.01 418.04 603.07 416.83L605.21 429.52L612.55 437.25L618.45 450L599.85 450.19L590.14 447.26L594.03 451.73L620.79 455.54L610.42 500.61L606.51 489.29L604.08 487.95L608.16 505.28L604.07 516.57Z" fill="#4B0062"/>
<path d="M565.94 269.1C565.646 268.867 565.305 268.7 564.94 268.61C565.72 266.61 565.02 265.21 560.94 263.67L563.69 268.61C563.338 268.702 563.015 268.881 562.75 269.13L560 264.2C559.17 268.46 559.95 269.77 562.1 270.2C561.985 270.555 561.948 270.93 561.99 271.3C552.32 268.69 549.69 271.94 554.69 279.58C554.2 276.68 554.98 276.01 557.69 276.76C556.59 274.37 557.44 273.67 560.36 274.3C559.93 272.86 560.72 272.36 562.23 272.1C562.23 272.18 562.29 272.25 562.33 272.33C562.471 272.638 562.675 272.913 562.928 273.138C563.181 273.364 563.477 273.535 563.799 273.64C564.121 273.746 564.461 273.783 564.798 273.751C565.135 273.719 565.462 273.618 565.758 273.454C566.055 273.289 566.314 273.066 566.519 272.796C566.725 272.527 566.873 272.219 566.954 271.89C567.035 271.561 567.047 271.219 566.989 270.885C566.932 270.551 566.806 270.233 566.62 269.95C566.62 269.88 566.53 269.81 566.48 269.74C567.48 268.6 568.34 268.18 569.34 269.31C570.34 266.5 571.39 266.15 572.84 268.31C573.62 265.62 574.6 265.31 576.84 267.26C573 259 568.82 259.51 565.94 269.1Z" fill="#4B0062"/>
<path d="M300.32 265.32C300.096 264.926 299.789 264.584 299.42 264.32C301.18 262.38 300.99 260.56 297.13 257.07L298.05 263.79C297.619 263.74 297.183 263.798 296.78 263.96L295.86 257.24C293.08 261.63 293.38 263.44 295.6 264.84C295.318 265.186 295.114 265.588 295 266.02C285.34 258.9 281 261.39 283.25 272.1C283.96 268.65 285.13 268.24 287.81 270.26C287.62 267.11 288.88 266.7 291.86 268.67C292 266.88 293.11 266.67 294.86 267.03C294.86 267.13 294.86 267.23 294.86 267.33C294.886 267.734 294.995 268.129 295.18 268.49C295.366 268.85 295.623 269.169 295.937 269.425C296.251 269.682 296.614 269.871 297.005 269.98C297.395 270.09 297.803 270.119 298.205 270.063C298.607 270.008 298.992 269.871 299.339 269.66C299.685 269.449 299.984 269.169 300.217 268.838C300.45 268.506 300.612 268.13 300.694 267.733C300.775 267.336 300.774 266.927 300.69 266.53C300.69 266.43 300.69 266.34 300.62 266.24C302.26 265.41 303.38 265.31 304 267C306.34 264.3 307.66 264.36 308.33 267.44C310.33 264.78 311.61 264.86 313.22 267.99C312.57 257.09 307.7 255.86 300.32 265.32Z" fill="#4B0062"/>
<path d="M461.83 221.71C460.58 219.47 457.42 217.71 456.2 218.16C456.088 218.208 455.987 218.277 455.903 218.365C455.819 218.453 455.753 218.556 455.71 218.67C455.499 218.427 455.236 218.236 454.94 218.11C455.82 216.59 455.42 215.42 452.4 213.7L454 218C453.709 218.03 453.43 218.134 453.19 218.3L451.59 214C450.4 217.27 450.86 218.41 452.51 219C452.363 219.288 452.284 219.606 452.28 219.93C452.174 219.872 452.057 219.836 451.937 219.824C451.817 219.812 451.695 219.824 451.58 219.86C450.35 220.31 449.09 223.69 449.58 226.21C449.756 227.552 450.397 228.79 451.39 229.71C450.83 226.07 453.62 225.71 453.62 225.71C452.44 224.19 451.8 222.39 452.57 221.05C452.783 221.483 453.148 221.821 453.596 222C454.043 222.179 454.541 222.186 454.994 222.019C455.446 221.853 455.821 221.525 456.045 221.098C456.27 220.672 456.329 220.177 456.21 219.71C457.67 220.24 458.35 222.02 458.43 223.94C458.43 223.94 460.8 222.42 462.73 225.56C462.89 224.211 462.572 222.848 461.83 221.71Z" fill="#4B0062"/>
<path d="M172.54 293.85C172.41 293.782 172.268 293.74 172.122 293.728C171.976 293.716 171.829 293.734 171.69 293.78C171.755 293.396 171.731 293.003 171.62 292.63C173.71 292.28 174.49 291.02 173.77 286.88L171 291.62C170.748 291.374 170.439 291.195 170.1 291.1L172.86 286.37C168.86 287.78 168.19 289.08 168.91 291.07C168.544 291.16 168.202 291.331 167.91 291.57C167.882 291.425 167.825 291.288 167.743 291.166C167.66 291.044 167.554 290.94 167.43 290.86C166.07 290.06 161.95 291.48 159.99 293.86C158.876 295.054 158.215 296.6 158.12 298.23C161.12 294.91 163.57 297.23 163.57 297.23C164.07 294.96 165.26 292.99 167.1 292.67C166.898 293.19 166.888 293.765 167.071 294.292C167.255 294.819 167.619 295.264 168.1 295.546C168.581 295.829 169.147 295.931 169.697 295.835C170.247 295.738 170.744 295.45 171.1 295.02C171.73 296.78 170.59 298.79 168.86 300.34C168.86 300.34 172.09 301.34 170.66 305.58C172.033 304.699 173.056 303.365 173.55 301.81C174.69 298.93 173.9 294.65 172.54 293.85Z" fill="#4B0062"/>
<path d="M277.32 227C277.299 226.686 277.213 226.38 277.07 226.1C278.56 225.98 279.17 225.17 278.87 222.28L276.65 225.54C276.485 225.365 276.283 225.229 276.06 225.14L278.28 221.88C275.48 222.66 274.95 223.53 275.38 224.95C275.067 224.917 274.751 224.947 274.45 225.04C276.77 218.85 276.62 215.64 269.28 210.47C269.28 210.47 271.86 214.47 269.21 217.47C269.21 217.47 272.45 220.1 271.01 222.8C271.665 223.005 272.233 223.422 272.626 223.984C273.019 224.547 273.214 225.225 273.18 225.91L273.07 226.04C272.891 226.289 272.764 226.572 272.696 226.871C272.628 227.17 272.621 227.479 272.675 227.781C272.728 228.083 272.841 228.371 273.008 228.629C273.174 228.886 273.391 229.108 273.644 229.281C273.897 229.453 274.183 229.574 274.483 229.634C274.784 229.695 275.093 229.695 275.394 229.635C275.695 229.574 275.98 229.454 276.233 229.281C276.487 229.109 276.703 228.887 276.87 228.63C276.87 228.63 276.92 228.53 276.95 228.48C277.577 228.198 278.279 228.133 278.947 228.294C279.615 228.455 280.211 228.834 280.64 229.37C282.64 227.05 286.26 229.1 286.26 229.1C288.08 225.54 292.75 226.48 292.75 226.48C285.28 221.57 282.24 222.6 277.32 227Z" fill="#4B0062"/>
<path d="M617.45 338.71C617.423 338.34 617.321 337.979 617.15 337.65C618.9 337.5 619.62 336.56 619.27 333.15L616.65 337C616.457 336.795 616.221 336.635 615.96 336.53L618.58 332.7C615.28 333.62 614.67 334.63 615.17 336.32C614.803 336.283 614.432 336.32 614.08 336.43C616.81 329.15 616.63 325.37 608 319.29C608 319.29 611 324.01 607.92 327.52C607.92 327.52 611.73 330.62 610.04 333.79C611.79 334.58 612.69 335.79 612.59 337.45L612.46 337.6C612.212 337.891 612.027 338.231 611.92 338.598C611.812 338.965 611.783 339.35 611.835 339.729C611.887 340.108 612.018 340.471 612.221 340.796C612.423 341.12 612.692 341.398 613.01 341.611C613.327 341.824 613.686 341.968 614.063 342.032C614.44 342.097 614.826 342.081 615.197 341.985C615.567 341.89 615.913 341.717 616.212 341.478C616.51 341.239 616.755 340.94 616.93 340.6C616.93 340.54 616.99 340.48 617.03 340.43C618.56 339.73 620.03 340.13 621.37 341.43C623.71 338.7 627.98 341.12 627.98 341.12C630.12 336.94 635.62 338.04 635.62 338.04C626.81 332.3 623.23 333.51 617.45 338.71Z" fill="#4B0062"/>
<path d="M369.56 266.18H350.24V249.75H351.24V265.18H368.56V249.75H369.56V266.18Z" fill="#A26BB4"/>
<path d="M336.92 241.28C330.25 272.23 315.21 298.21 295.44 314.28H378.44C358.62 298.21 343.59 272.23 336.92 241.28Z" fill="#A26BB4"/>
<path d="M379.81 314.74H294L295.1 313.85C315.1 297.61 329.8 271.8 336.41 241.17L336.9 238.9L337.39 241.17C344 271.8 358.67 297.61 378.7 313.85L379.81 314.74ZM296.81 313.74H377C357.82 297.74 343.66 272.92 336.91 243.58C330.17 272.92 316 297.71 296.83 313.74H296.81Z" fill="#4B0062"/>
<path d="M247.921 390.72L246.928 390.837L248.267 402.148L249.26 402.031L247.921 390.72Z" fill="#A26BB4"/>
<path d="M255.245 452.595L254.252 452.712L255.15 460.3L256.143 460.182L255.245 452.595Z" fill="#A26BB4"/>
<path d="M635.62 516.57H179.72V517.57H635.62V516.57Z" fill="#4B0062"/>
<path d="M386.71 517.57H375.25L375.19 517.14C374.489 512.339 374.075 507.5 373.95 502.65C373.95 501.58 373.95 500.49 373.95 499.41C373.95 495.6 374.12 491.82 374.45 488.16C374.875 483.277 375.637 478.428 376.73 473.65C377.837 468.649 379.469 463.778 381.6 459.12C382.771 456.568 384.195 454.139 385.85 451.87L386.75 450.66L386.71 517.57ZM376.11 516.57H385.71V453.75C384.479 455.597 383.393 457.536 382.46 459.55C380.36 464.144 378.751 468.948 377.66 473.88C376.577 478.612 375.821 483.414 375.4 488.25C375.07 491.87 374.9 495.63 374.9 499.41C374.9 500.48 374.9 501.56 374.9 502.63C375.034 507.296 375.438 511.951 376.11 516.57Z" fill="#4B0062"/>
<path d="M398.51 517.57H385.71V452L385.81 451.87C389.48 446.98 393.69 444.4 397.99 444.4H398.49V444.9L398.51 517.57ZM386.71 516.57H397.51V445.42C393.74 445.61 390.02 447.99 386.71 452.35V516.57Z" fill="#4B0062"/>
<path d="M410.3 517.57H397.51V444.41H398.01C402.33 444.41 406.55 447.01 410.2 451.91L410.3 452.04V517.57ZM398.51 516.57H409.3V452.38C406.01 448.02 402.3 445.63 398.51 445.38V516.57Z" fill="#4B0062"/>
<path d="M420.76 517.57H409.3V450.71L410.2 451.91C411.858 454.164 413.279 456.584 414.44 459.13C416.575 463.786 418.208 468.657 419.31 473.66C420.403 478.438 421.165 483.287 421.59 488.17C421.92 491.82 422.09 495.61 422.09 499.42C422.09 500.5 422.09 501.59 422.09 502.66C421.965 507.51 421.551 512.349 420.85 517.15L420.76 517.57ZM410.3 516.57H419.9C420.556 511.95 420.943 507.295 421.06 502.63C421.06 501.56 421.06 500.49 421.06 499.41C421.06 495.63 420.89 491.88 420.56 488.25C420.139 483.414 419.384 478.612 418.3 473.88C417.214 468.946 415.605 464.142 413.5 459.55C412.574 457.541 411.491 455.608 410.26 453.77L410.3 516.57Z" fill="#4B0062"/>
<path d="M402 482H394V492.03H402V482Z" fill="#4B0062"/>
<path d="M402.5 492.53H393.5V481.53H402.5V492.53ZM394.5 491.53H401.5V482.53H394.5V491.53Z" fill="#4B0062"/>
<path d="M398.51 482H397.51V492.03H398.51V482Z" fill="#A26BB4"/>
<path d="M662.75 369.03H661.75V387.22H662.75V369.03Z" fill="#4B0062"/>
<path d="M671.34 377.62H653.15V378.62H671.34V377.62Z" fill="#4B0062"/>
<path d="M657.908 373.038L657.201 373.745L666.584 383.128L667.291 382.421L657.908 373.038Z" fill="#4B0062"/>
<path d="M666.594 373.071L657.211 382.454L657.918 383.161L667.301 373.778L666.594 373.071Z" fill="#4B0062"/>
<path d="M662.25 367.49C662.835 367.49 663.31 366.827 663.31 366.01C663.31 365.193 662.835 364.53 662.25 364.53C661.665 364.53 661.19 365.193 661.19 366.01C661.19 366.827 661.665 367.49 662.25 367.49Z" fill="#4B0062"/>
<path d="M662.25 391.72C662.835 391.72 663.31 391.057 663.31 390.24C663.31 389.423 662.835 388.76 662.25 388.76C661.665 388.76 661.19 389.423 661.19 390.24C661.19 391.057 661.665 391.72 662.25 391.72Z" fill="#4B0062"/>
<path d="M674.36 379.18C675.177 379.18 675.84 378.705 675.84 378.12C675.84 377.535 675.177 377.06 674.36 377.06C673.543 377.06 672.88 377.535 672.88 378.12C672.88 378.705 673.543 379.18 674.36 379.18Z" fill="#4B0062"/>
<path d="M650.14 379.18C650.957 379.18 651.62 378.705 651.62 378.12C651.62 377.535 650.957 377.06 650.14 377.06C649.323 377.06 648.66 377.535 648.66 378.12C648.66 378.705 649.323 379.18 650.14 379.18Z" fill="#4B0062"/>
<path d="M150.73 478.8H149.73V496.99H150.73V478.8Z" fill="#4B0062"/>
<path d="M159.32 487.4H141.13V488.4H159.32V487.4Z" fill="#4B0062"/>
<path d="M145.894 482.85L145.187 483.557L154.571 492.94L155.278 492.233L145.894 482.85Z" fill="#4B0062"/>
<path d="M154.578 482.85L145.194 492.233L145.902 492.94L155.285 483.557L154.578 482.85Z" fill="#4B0062"/>
<path d="M162.35 488.96C163.167 488.96 163.83 488.485 163.83 487.9C163.83 487.315 163.167 486.84 162.35 486.84C161.533 486.84 160.87 487.315 160.87 487.9C160.87 488.485 161.533 488.96 162.35 488.96Z" fill="#4B0062"/>
<path d="M138.12 488.96C138.937 488.96 139.6 488.485 139.6 487.9C139.6 487.315 138.937 486.84 138.12 486.84C137.303 486.84 136.64 487.315 136.64 487.9C136.64 488.485 137.303 488.96 138.12 488.96Z" fill="#4B0062"/>
<path d="M692.5 428.24H691.5V443.33H692.5V428.24Z" fill="#4B0062"/>
<path d="M696.68 435.29H687.33V436.29H696.68V435.29Z" fill="#4B0062"/>
<path d="M107.4 403.96H106.4V415.5H107.4V403.96Z" fill="#4B0062"/>
<path d="M110.47 409.23H103.33V410.23H110.47V409.23Z" fill="#4B0062"/>
<path d="M655.89 503.51C658.303 503.51 660.26 501.553 660.26 499.14C660.26 496.727 658.303 494.77 655.89 494.77C653.477 494.77 651.52 496.727 651.52 499.14C651.52 501.553 653.477 503.51 655.89 503.51Z" fill="#A26BB4"/>
<path d="M673.04 484.69C674.183 484.69 675.11 483.763 675.11 482.62C675.11 481.477 674.183 480.55 673.04 480.55C671.897 480.55 670.97 481.477 670.97 482.62C670.97 483.763 671.897 484.69 673.04 484.69Z" fill="#A26BB4"/>
<path d="M197.92 426.14C199.698 426.14 201.14 424.698 201.14 422.92C201.14 421.142 199.698 419.7 197.92 419.7C196.142 419.7 194.7 421.142 194.7 422.92C194.7 424.698 196.142 426.14 197.92 426.14Z" fill="#A26BB4"/>
<path d="M142.6 362.37C144.262 362.37 145.61 361.022 145.61 359.36C145.61 357.698 144.262 356.35 142.6 356.35C140.938 356.35 139.59 357.698 139.59 359.36C139.59 361.022 140.938 362.37 142.6 362.37Z" fill="#A26BB4"/>
<path d="M577.54 470.58C579.953 470.58 581.91 468.623 581.91 466.21C581.91 463.797 579.953 461.84 577.54 461.84C575.126 461.84 573.17 463.797 573.17 466.21C573.17 468.623 575.126 470.58 577.54 470.58Z" fill="#A26BB4"/>
</g>
<defs>
<clipPath id="clip0_20_288">
<rect width="800" height="600" fill="white"/>
</clipPath>
</defs>
</svg>
