<svg width="800" height="600" viewBox="0 0 800 600" fill="none" xmlns="http://www.w3.org/2000/svg">
<g clip-path="url(#clip0_20_975)">
<path d="M623.39 344.83H622.39V354.42H623.39V344.83Z" fill="#4B0062"/>
<path d="M628.54 374.12L617.58 372.75V352.08L628.54 353.45V374.12Z" fill="#FFF0DC"/>
<path d="M629 374.69L617 373.2V351.52L629 353V374.69ZM618 372.32L628 373.56V353.89L618 352.65V372.32Z" fill="#4B0062"/>
<path d="M651.9 388.92C651.9 374.19 639.14 362.26 623.4 362.26C607.66 362.26 594.9 374.2 594.9 388.92C594.939 393.167 596.013 397.34 598.029 401.078C600.045 404.816 602.942 408.005 606.47 410.37V418.47C606.47 418.876 606.55 419.278 606.705 419.652C606.86 420.027 607.088 420.368 607.375 420.655C607.662 420.942 608.003 421.17 608.378 421.325C608.752 421.48 609.154 421.56 609.56 421.56C610.38 421.56 611.165 421.234 611.745 420.655C612.324 420.075 612.65 419.29 612.65 418.47C612.65 419.29 612.976 420.075 613.555 420.655C614.135 421.234 614.92 421.56 615.74 421.56C616.56 421.56 617.346 421.234 617.925 420.655C618.504 420.075 618.83 419.29 618.83 418.47C618.83 419.29 619.156 420.075 619.735 420.655C620.315 421.234 621.1 421.56 621.92 421.56C622.74 421.56 623.525 421.234 624.105 420.655C624.684 420.075 625.01 419.29 625.01 418.47C625.01 418.876 625.09 419.278 625.245 419.652C625.401 420.027 625.628 420.368 625.915 420.655C626.202 420.942 626.543 421.17 626.917 421.325C627.292 421.48 627.694 421.56 628.1 421.56C628.506 421.56 628.908 421.48 629.282 421.325C629.657 421.17 629.998 420.942 630.285 420.655C630.572 420.368 630.799 420.027 630.955 419.652C631.11 419.278 631.19 418.876 631.19 418.47C631.19 419.29 631.516 420.075 632.095 420.655C632.675 421.234 633.461 421.56 634.28 421.56C635.1 421.56 635.885 421.234 636.465 420.655C637.044 420.075 637.37 419.29 637.37 418.47V412.07C646.12 407.48 651.9 398.84 651.9 388.92Z" fill="#FFF0DC"/>
<path d="M634.45 422.06C634.135 421.514 633.682 421.06 633.136 420.745C632.59 420.429 631.971 420.263 631.34 420.263C630.71 420.263 630.09 420.429 629.544 420.745C628.998 421.06 628.545 421.514 628.23 422.06C627.915 421.514 627.462 421.06 626.916 420.745C626.37 420.429 625.751 420.263 625.12 420.263C624.489 420.263 623.87 420.429 623.324 420.745C622.778 421.06 622.325 421.514 622.01 422.06C621.379 422.06 620.76 421.893 620.214 421.577C619.668 421.261 619.215 420.807 618.9 420.26C618.585 420.806 618.132 421.26 617.586 421.575C617.04 421.891 616.42 422.057 615.79 422.057C615.159 422.057 614.54 421.891 613.994 421.575C613.448 421.26 612.995 420.806 612.68 420.26C612.285 420.945 611.676 421.48 610.946 421.783C610.216 422.085 609.407 422.139 608.643 421.935C607.88 421.731 607.205 421.281 606.724 420.654C606.242 420.028 605.981 419.26 605.98 418.47V410.63C602.454 408.202 599.564 404.962 597.55 401.185C595.537 397.407 594.46 393.201 594.41 388.92C594.41 373.92 607.41 361.76 623.41 361.76C639.41 361.76 652.41 373.95 652.41 388.92C652.332 393.762 650.953 398.493 648.417 402.619C645.882 406.745 642.284 410.113 638 412.37V418.47C638 419.415 637.627 420.322 636.963 420.994C636.298 421.667 635.395 422.049 634.45 422.06ZM630.82 418H631.82V418.5C631.82 419.187 632.093 419.846 632.579 420.331C633.064 420.817 633.723 421.09 634.41 421.09C635.097 421.09 635.756 420.817 636.241 420.331C636.727 419.846 637 419.187 637 418.5V411.8L637.26 411.66C641.446 409.506 644.969 406.255 647.452 402.256C649.935 398.256 651.286 393.657 651.36 388.95C651.36 374.52 638.8 362.79 623.36 362.79C607.92 362.79 595.36 374.53 595.36 388.95C595.417 393.106 596.479 397.187 598.456 400.844C600.432 404.501 603.264 407.625 606.71 409.95L606.93 410.1V418.47C606.93 418.81 606.997 419.147 607.127 419.461C607.257 419.775 607.448 420.061 607.689 420.301C607.929 420.542 608.215 420.733 608.529 420.863C608.843 420.993 609.18 421.06 609.52 421.06C609.86 421.06 610.197 420.993 610.511 420.863C610.825 420.733 611.111 420.542 611.351 420.301C611.592 420.061 611.783 419.775 611.913 419.461C612.043 419.147 612.11 418.81 612.11 418.47V418H613.11V418.5C613.11 419.187 613.383 419.846 613.869 420.331C614.354 420.817 615.013 421.09 615.7 421.09C616.387 421.09 617.046 420.817 617.531 420.331C618.017 419.846 618.29 419.187 618.29 418.5V418H619.29V418.5C619.29 419.187 619.563 419.846 620.049 420.331C620.534 420.817 621.193 421.09 621.88 421.09C622.567 421.09 623.226 420.817 623.711 420.331C624.197 419.846 624.47 419.187 624.47 418.5V418H625.47V418.5C625.47 418.84 625.537 419.177 625.667 419.491C625.797 419.805 625.988 420.091 626.229 420.331C626.469 420.572 626.755 420.763 627.069 420.893C627.383 421.023 627.72 421.09 628.06 421.09C628.4 421.09 628.737 421.023 629.051 420.893C629.365 420.763 629.651 420.572 629.891 420.331C630.132 420.091 630.323 419.805 630.453 419.491C630.583 419.177 630.65 418.84 630.65 418.5L630.82 418Z" fill="#4B0062"/>
<path d="M609.58 422.06C609.107 422.061 608.639 421.969 608.202 421.79C607.764 421.61 607.367 421.346 607.031 421.013C606.696 420.679 606.43 420.283 606.248 419.847C606.066 419.411 605.971 418.943 605.97 418.47V410.37H606.97V418.47C607.011 419.133 607.303 419.755 607.787 420.21C608.271 420.665 608.911 420.919 609.575 420.919C610.239 420.919 610.879 420.665 611.363 420.21C611.847 419.755 612.139 419.133 612.18 418.47V415H613.18V418.44C613.183 418.914 613.091 419.385 612.912 419.824C612.732 420.263 612.467 420.662 612.133 420.999C611.798 421.335 611.4 421.602 610.962 421.784C610.524 421.966 610.054 422.06 609.58 422.06Z" fill="#4B0062"/>
<path d="M615.8 422.07C615.326 422.07 614.857 421.977 614.419 421.795C613.981 421.613 613.584 421.346 613.25 421.01C612.913 420.679 612.646 420.283 612.464 419.847C612.282 419.411 612.189 418.943 612.19 418.47H613.19C613.19 418.811 613.258 419.148 613.39 419.463C613.523 419.777 613.716 420.062 613.96 420.3C614.324 420.662 614.788 420.909 615.291 421.009C615.795 421.109 616.318 421.058 616.793 420.863C617.268 420.667 617.675 420.336 617.963 419.911C618.25 419.485 618.406 418.984 618.41 418.47V415H619.41V418.45C619.413 418.925 619.321 419.396 619.141 419.836C618.96 420.276 618.695 420.676 618.359 421.012C618.024 421.349 617.625 421.615 617.185 421.797C616.746 421.979 616.275 422.071 615.8 422.07Z" fill="#4B0062"/>
<path d="M622 422.07C621.047 422.07 620.133 421.692 619.458 421.019C618.783 420.346 618.403 419.433 618.4 418.48H619.4C619.4 419.171 619.674 419.833 620.163 420.322C620.651 420.811 621.314 421.085 622.005 421.085C622.696 421.085 623.358 420.811 623.847 420.322C624.336 419.833 624.61 419.171 624.61 418.48V415H625.61V418.45C625.613 418.925 625.521 419.396 625.341 419.836C625.16 420.276 624.895 420.676 624.559 421.012C624.224 421.349 623.825 421.615 623.385 421.797C622.946 421.979 622.475 422.071 622 422.07Z" fill="#4B0062"/>
<path d="M628.22 422.07C627.747 422.071 627.279 421.98 626.842 421.8C626.404 421.62 626.007 421.356 625.672 421.023C625.336 420.689 625.07 420.293 624.888 419.857C624.706 419.421 624.611 418.953 624.61 418.48H625.61C625.61 419.171 625.884 419.833 626.373 420.322C626.862 420.811 627.524 421.085 628.215 421.085C628.906 421.085 629.568 420.811 630.057 420.322C630.546 419.833 630.82 419.171 630.82 418.48V415H631.82V418.45C631.823 418.924 631.731 419.395 631.552 419.834C631.372 420.273 631.107 420.672 630.773 421.009C630.438 421.345 630.04 421.612 629.602 421.794C629.164 421.976 628.694 422.07 628.22 422.07Z" fill="#4B0062"/>
<path d="M634.43 422.07C633.957 422.071 633.489 421.98 633.052 421.8C632.614 421.62 632.217 421.356 631.881 421.023C631.546 420.689 631.28 420.293 631.098 419.857C630.916 419.421 630.821 418.953 630.82 418.48H631.82C631.82 419.172 632.095 419.836 632.584 420.326C633.074 420.815 633.738 421.09 634.43 421.09C635.122 421.09 635.786 420.815 636.276 420.326C636.765 419.836 637.04 419.172 637.04 418.48V415H638.04V418.45C638.043 418.925 637.951 419.396 637.771 419.836C637.59 420.276 637.325 420.676 636.989 421.012C636.654 421.349 636.255 421.615 635.815 421.797C635.376 421.979 634.905 422.071 634.43 422.07Z" fill="#4B0062"/>
<path d="M241.22 318.13H240.22V336.09H241.22V318.13Z" fill="#4B0062"/>
<path d="M219.88 302.71H218.88V320.67H219.88V302.71Z" fill="#4B0062"/>
<path d="M240.34 304.32L236.07 317.38C235.851 318.054 235.794 318.77 235.904 319.471C236.015 320.171 236.29 320.835 236.706 321.408C237.123 321.982 237.669 322.449 238.301 322.771C238.932 323.092 239.631 323.26 240.34 323.26C241.049 323.26 241.748 323.092 242.379 322.771C243.011 322.449 243.557 321.982 243.974 321.408C244.39 320.835 244.665 320.171 244.776 319.471C244.886 318.77 244.829 318.054 244.61 317.38L240.34 304.32Z" fill="#F44B1B"/>
<path d="M240.34 323.77C239.553 323.767 238.777 323.579 238.077 323.22C237.376 322.861 236.77 322.342 236.308 321.704C235.846 321.067 235.542 320.329 235.418 319.552C235.295 318.774 235.358 317.979 235.6 317.23L240.34 302.72L245.08 317.23C245.322 317.979 245.385 318.774 245.262 319.552C245.138 320.329 244.834 321.067 244.372 321.704C243.91 322.342 243.304 322.861 242.603 323.22C241.903 323.579 241.127 323.767 240.34 323.77ZM240.34 305.93L236.55 317.54C236.347 318.142 236.29 318.783 236.384 319.411C236.478 320.039 236.72 320.636 237.091 321.152C237.461 321.668 237.949 322.088 238.514 322.378C239.079 322.668 239.705 322.819 240.34 322.819C240.975 322.819 241.601 322.668 242.166 322.378C242.731 322.088 243.219 321.668 243.589 321.152C243.96 320.636 244.202 320.039 244.296 319.411C244.39 318.783 244.333 318.142 244.13 317.54L240.34 305.93Z" fill="#4B0062"/>
<path d="M219.38 283.44L214.25 299.15C213.985 299.961 213.915 300.823 214.047 301.665C214.179 302.508 214.509 303.308 215.009 303.998C215.51 304.689 216.167 305.252 216.926 305.639C217.686 306.027 218.527 306.23 219.38 306.23C220.233 306.23 221.074 306.027 221.834 305.639C222.593 305.252 223.25 304.689 223.751 303.998C224.251 303.308 224.581 302.508 224.713 301.665C224.845 300.823 224.775 299.961 224.51 299.15L219.38 283.44Z" fill="#F44B1B"/>
<path d="M219.38 306.73C218.448 306.73 217.53 306.51 216.7 306.086C215.869 305.663 215.151 305.05 214.604 304.295C214.057 303.541 213.696 302.668 213.551 301.748C213.406 300.827 213.481 299.886 213.77 299L219.38 281.84L225 299C225.289 299.886 225.364 300.827 225.219 301.748C225.074 302.668 224.713 303.541 224.166 304.295C223.619 305.05 222.901 305.663 222.07 306.086C221.24 306.51 220.322 306.73 219.39 306.73H219.38ZM219.38 285.05L214.72 299.31C214.481 300.045 214.419 300.827 214.54 301.591C214.661 302.355 214.961 303.079 215.416 303.705C215.87 304.33 216.466 304.839 217.155 305.191C217.844 305.542 218.607 305.725 219.38 305.725C220.153 305.725 220.916 305.542 221.605 305.191C222.294 304.839 222.89 304.33 223.344 303.705C223.799 303.079 224.099 302.355 224.22 301.591C224.341 300.827 224.279 300.045 224.04 299.31L219.38 285.05Z" fill="#4B0062"/>
<path d="M233.05 315.58H207.78V358.86H233.05V315.58Z" fill="#FFF0DC"/>
<path d="M233.56 359.37H207.28V315.08H233.55L233.56 359.37ZM208.29 358.37H232.56V316.08H208.28L208.29 358.37Z" fill="#4B0062"/>
<path d="M248.94 327.51H233.06V353.84H248.94V327.51Z" fill="#FFF0DC"/>
<path d="M249.43 354.34H232.56V327H249.44L249.43 354.34ZM233.55 353.34H248.43V328H233.56L233.55 353.34Z" fill="#4B0062"/>
<path d="M519.32 305.94L525.41 275L535.33 272.05L540.84 276.58L533.95 278.94L536.9 310.43L519.32 305.94Z" fill="#4B0062"/>
<path d="M537.46 311.09L518.73 306.31L524.97 274.61L535.43 271.5L541.84 276.76L534.48 279.28L537.46 311.09ZM519.9 305.57L536.34 309.77L533.42 278.59L539.83 276.39L535.22 272.6L525.85 275.39L519.9 305.57Z" fill="#4B0062"/>
<path d="M535.09 304.47L528.31 399C528.098 401.949 528.497 404.909 529.48 407.697C530.463 410.485 532.01 413.041 534.025 415.204C536.039 417.368 538.478 419.093 541.188 420.273C543.899 421.452 546.824 422.061 549.78 422.06H552.42C558.194 422.065 563.898 420.791 569.121 418.331C574.345 415.87 578.959 412.284 582.633 407.83C586.306 403.375 588.948 398.162 590.369 392.566C591.79 386.969 591.954 381.128 590.85 375.46C587.37 357.75 583.29 340.31 578.79 325.22C576.651 318 571.982 311.792 565.639 307.735C559.295 303.678 551.701 302.043 544.25 303.13L535.09 304.47Z" fill="#F48001"/>
<path d="M552.42 422.56H549.78C546.751 422.568 543.753 421.951 540.974 420.746C538.195 419.542 535.695 417.777 533.629 415.561C531.564 413.346 529.979 410.728 528.972 407.871C527.966 405.015 527.56 401.981 527.78 398.96L534.62 304L544.17 302.6C551.735 301.536 559.43 303.214 565.866 307.329C572.301 311.445 577.052 317.727 579.26 325.04C583.53 339.34 587.59 356.26 591.33 375.33C592.449 381.07 592.283 386.987 590.845 392.655C589.406 398.324 586.731 403.604 583.01 408.116C579.289 412.628 574.616 416.26 569.326 418.753C564.035 421.245 558.258 422.535 552.41 422.53L552.42 422.56ZM535.56 304.91L528.81 399C528.599 401.884 528.986 404.78 529.947 407.507C530.908 410.234 532.421 412.733 534.392 414.849C536.364 416.964 538.751 418.649 541.404 419.798C544.057 420.948 546.919 421.538 549.81 421.53H552.45C558.149 421.533 563.778 420.275 568.934 417.846C574.089 415.417 578.643 411.876 582.268 407.479C585.894 403.082 588.502 397.937 589.904 392.414C591.307 386.89 591.469 381.124 590.38 375.53C586.64 356.53 582.59 339.6 578.33 325.33C576.189 318.246 571.585 312.161 565.349 308.176C559.114 304.191 551.658 302.567 544.33 303.6L535.56 304.91Z" fill="#4B0062"/>
<path d="M335.68 329.57C328.57 380.1 356.5 421.51 398 422C439.5 422.49 479 382 486.1 331.47C493.2 280.94 465.32 239.58 423.77 239C382.22 238.42 342.78 279 335.68 329.57Z" fill="#F48001"/>
<path d="M398.86 422.55H398C389.408 422.451 380.938 420.496 373.171 416.82C365.404 413.144 358.523 407.833 353 401.25C337.72 383.44 331.19 357.25 335.1 329.5C342.23 278.8 381.99 238.02 423.7 238.5C432.292 238.599 440.762 240.553 448.529 244.23C456.296 247.906 463.176 253.217 468.7 259.8C483.98 277.61 490.51 303.8 486.6 331.55C479.56 382 440.29 422.55 398.86 422.55ZM422.95 239.55C382 239.55 343.18 279.76 336.16 329.65C332.29 357.15 338.73 383.02 353.83 400.65C359.252 407.127 366.01 412.357 373.64 415.981C381.27 419.606 389.593 421.539 398.04 421.65H398.85C439.8 421.65 478.62 381.44 485.64 331.55C489.51 304.05 483.07 278.18 467.97 260.55C462.548 254.073 455.79 248.843 448.16 245.219C440.53 241.594 432.207 239.661 423.76 239.55H422.95Z" fill="#4B0062"/>
<path d="M523.22 304.47V397C523.219 399.967 522.566 402.898 521.306 405.584C520.047 408.271 518.211 410.647 515.931 412.545C513.65 414.443 510.98 415.816 508.109 416.567C505.239 417.318 502.238 417.428 499.32 416.89L495.38 416.16C490.726 415.295 486.29 413.512 482.332 410.917C478.373 408.321 474.97 404.963 472.322 401.04C469.673 397.116 467.831 392.705 466.904 388.063C465.977 383.42 465.982 378.64 466.92 374C470.122 357.62 474.225 341.428 479.21 325.5C481.524 318.161 486.375 311.885 492.894 307.797C499.414 303.709 507.176 302.076 514.79 303.19L523.22 304.47Z" fill="#F48001"/>
<path d="M503 417.74C501.729 417.739 500.46 417.622 499.21 417.39L495.27 416.66C490.554 415.783 486.059 413.976 482.047 411.346C478.035 408.716 474.586 405.314 471.9 401.339C469.215 397.364 467.347 392.895 466.404 388.191C465.461 383.487 465.463 378.643 466.41 373.94C469.618 357.54 473.724 341.329 478.71 325.38C481.039 317.915 485.961 311.528 492.587 307.374C499.213 303.221 507.106 301.573 514.84 302.73L523.69 304.03V397.03C523.685 402.518 521.504 407.779 517.625 411.661C513.747 415.543 508.488 417.729 503 417.74ZM510 303.38C503.228 303.382 496.634 305.547 491.18 309.561C485.726 313.574 481.696 319.225 479.68 325.69C474.703 341.603 470.603 357.777 467.4 374.14C466.481 378.713 466.48 383.423 467.397 387.996C468.314 392.569 470.13 396.914 472.741 400.779C475.352 404.644 478.705 407.952 482.605 410.51C486.505 413.068 490.875 414.825 495.46 415.68L499.4 416.41C502.248 416.937 505.176 416.831 507.978 416.098C510.78 415.366 513.386 414.026 515.612 412.174C517.838 410.321 519.628 408.001 520.857 405.379C522.085 402.757 522.721 399.896 522.72 397V304.9L514.72 303.73C513.157 303.498 511.58 303.381 510 303.38Z" fill="#4B0062"/>
<path d="M561.46 358.28C560.69 391.95 543.46 419.28 522.98 419.28C502.5 419.28 486.51 391.98 487.27 358.28C488.03 324.58 505.27 297.28 525.75 297.28C546.23 297.28 562.22 324.61 561.46 358.28Z" fill="#F48001"/>
<path d="M523 419.75C516.06 419.75 509.35 416.64 503.6 410.75C492.6 399.49 486.31 379.86 486.8 358.26C487.57 324.37 505.06 296.8 525.8 296.8C532.74 296.8 539.45 299.91 545.2 305.8C556.2 317.06 562.49 336.69 562 358.29C561.19 392.18 543.7 419.75 523 419.75ZM525.77 297.81C505.59 297.81 488.55 324.94 487.77 358.29C487.28 379.63 493.46 398.98 504.29 410.06C509.85 415.75 516.29 418.75 522.98 418.75C543.16 418.75 560.2 391.62 560.98 358.27C561.46 336.93 555.29 317.58 544.46 306.5C538.88 300.82 532.42 297.81 525.75 297.81H525.77Z" fill="#4B0062"/>
<path d="M273 326.68C274.63 375.68 308.47 415.48 348.58 415.48C388.69 415.48 419.87 375.72 418.24 326.68C416.61 277.64 382.77 237.88 342.66 237.88C302.55 237.88 271.39 277.64 273 326.68Z" fill="#F48001"/>
<path d="M348.6 416C308.29 416 274.16 375.95 272.52 326.72C271.62 299.82 280.52 274.62 297.06 257.56C309.64 244.56 325.84 237.4 342.68 237.4C382.99 237.4 417.12 277.45 418.76 326.68C419.66 353.58 410.76 378.78 394.22 395.84C381.64 408.82 365.44 416 348.6 416ZM273.52 326.68C275.14 375.38 308.82 415 348.6 415C365.17 415 381.11 407.95 393.5 395.14C409.81 378.28 418.65 353.34 417.76 326.71C416.14 278.01 382.46 238.39 342.68 238.39C326.11 238.39 310.17 245.44 297.78 258.25C281.48 275.09 272.63 300 273.52 326.66V326.68Z" fill="#4B0062"/>
<path d="M286.94 370.2C286.948 377.039 285.607 383.812 282.993 390.132C280.38 396.452 276.545 402.194 271.71 407.03C266.874 411.865 261.132 415.7 254.812 418.313C248.492 420.927 241.719 422.268 234.88 422.26C234.37 422.26 233.88 422.26 233.36 422.26C224.147 421.991 215.171 419.282 207.349 414.408C199.526 409.535 193.138 402.672 188.836 394.521C184.534 386.37 182.473 377.223 182.864 368.015C183.255 358.807 186.083 349.867 191.06 342.11H278.7C284.087 350.488 286.948 360.24 286.94 370.2Z" fill="#F48001"/>
<path d="M234.88 422.76C234.36 422.76 233.88 422.76 233.34 422.76C224.039 422.488 214.978 419.751 207.081 414.831C199.184 409.91 192.735 402.981 188.393 394.752C184.05 386.523 181.97 377.288 182.365 367.992C182.76 358.696 185.616 349.671 190.64 341.84L190.79 341.61H279L279.15 341.84C284.267 349.781 287.149 358.954 287.491 368.395C287.834 377.835 285.625 387.194 281.096 395.484C276.568 403.775 269.889 410.692 261.76 415.506C253.632 420.32 244.357 422.854 234.91 422.84L234.88 422.76ZM191.33 342.58C186.443 350.264 183.679 359.106 183.321 368.205C182.963 377.304 185.023 386.336 189.291 394.38C193.56 402.424 199.884 409.193 207.62 413.998C215.356 418.802 224.227 421.47 233.33 421.73C237.872 421.891 242.415 421.427 246.83 420.35C254.812 418.438 262.222 414.648 268.444 409.297C274.667 403.945 279.523 397.185 282.608 389.58C285.694 381.975 286.92 373.743 286.184 365.568C285.449 357.394 282.773 349.513 278.38 342.58H191.33Z" fill="#4B0062"/>
<path d="M269.59 368.18C269.59 393.66 254.33 415.18 233.36 422.18C231.218 422.906 229.026 423.471 226.8 423.87C224.064 424.365 221.29 424.612 218.51 424.61C190.3 424.61 167.44 399.32 167.44 368.13C167.412 359.112 169.379 350.199 173.2 342.03H263.82C267.657 350.212 269.627 359.144 269.59 368.18Z" fill="#F48001"/>
<path d="M218.51 425.16C190.07 425.16 166.94 399.6 166.94 368.16C166.899 359.067 168.884 350.08 172.75 341.85L172.88 341.56H264.13L264.27 341.85C268.143 350.078 270.132 359.066 270.09 368.16C270.09 393.44 255.39 415.35 233.52 422.68C231.355 423.414 229.139 423.985 226.89 424.39C224.125 424.897 221.321 425.154 218.51 425.16ZM173.51 342.58C169.795 350.601 167.89 359.341 167.93 368.18C167.93 399.05 190.62 424.18 218.5 424.18C221.25 424.182 223.994 423.938 226.7 423.45C228.902 423.055 231.071 422.497 233.19 421.78C254.66 414.58 269.08 393.05 269.08 368.2C269.121 359.36 267.212 350.619 263.49 342.6L173.51 342.58Z" fill="#4B0062"/>
<path d="M271.56 368.18C271.56 392.18 261.37 412.65 246.99 420.84C242.76 423.317 237.952 424.634 233.05 424.66C230.945 424.662 228.847 424.413 226.8 423.92C222.782 422.925 219.009 421.121 215.71 418.62C203.16 409.32 194.55 390.22 194.55 368.18C194.505 359.296 195.976 350.469 198.9 342.08H267.21C270.134 350.469 271.605 359.296 271.56 368.18Z" fill="#F48001"/>
<path d="M233.05 425.16C230.905 425.162 228.766 424.911 226.68 424.41C222.598 423.389 218.767 421.549 215.42 419C202.24 409.24 194.06 389.75 194.06 368.16C194.005 359.217 195.487 350.331 198.44 341.89L198.56 341.56H267.56L267.68 341.89C270.633 350.331 272.115 359.217 272.06 368.16C272.06 391.83 262.32 412.67 247.24 421.25C242.937 423.781 238.042 425.13 233.05 425.16ZM199.25 342.58C196.416 350.815 194.996 359.471 195.05 368.18C195.05 389.47 203.05 408.64 216.05 418.18C219.295 420.639 223.007 422.412 226.96 423.39C228.967 423.875 231.025 424.12 233.09 424.12C237.904 424.097 242.626 422.803 246.78 420.37C261.32 412.08 271.1 391.1 271.1 368.14C271.154 359.431 269.734 350.775 266.9 342.54L199.25 342.58Z" fill="#4B0062"/>
<path d="M306.7 325.3C306.27 378.22 334.7 420.92 370.16 420.66C405.62 420.4 434.75 377.3 435.16 324.38C435.57 271.46 407.16 228.76 371.7 229.02C336.24 229.28 307.13 272.37 306.7 325.3Z" fill="#F48001"/>
<path d="M369.85 421.16C357.03 421.16 344.72 415.61 334.21 405.09C316.41 387.27 305.94 357.44 306.21 325.29C306.64 272.18 336.03 228.77 371.73 228.51H372C384.82 228.51 397.13 234.06 407.64 244.58C425.44 262.4 435.91 292.23 435.64 324.38C435.21 377.49 405.82 420.9 370.12 421.16H369.85ZM306.7 325.29H307.2C306.94 357.18 317.3 386.74 334.92 404.38C345.23 414.7 357.31 420.15 369.85 420.15H370.16C405.31 419.9 434.26 376.93 434.68 324.37C434.94 292.48 424.58 262.92 406.96 245.28C396.65 235 384.58 229.51 372 229.51H371.69C336.54 229.76 307.59 272.73 307.17 325.29H306.7Z" fill="#4B0062"/>
<path d="M453 316.48C452.11 346.59 431.71 372.17 403.16 382.65C395.372 385.519 387.198 387.204 378.91 387.65C377.39 387.74 375.85 387.78 374.31 387.78C365.188 387.795 356.125 386.319 347.48 383.41C340.293 380.992 333.486 377.568 327.26 373.24C309.35 360.8 297.32 341.41 295.76 319.37C300.326 324.477 305.501 329.004 311.17 332.85C316.242 336.304 321.629 339.271 327.26 341.71C334.898 345.032 342.89 347.474 351.08 348.99C358.368 350.344 365.767 351.013 373.18 350.99H374C383.205 350.955 392.374 349.841 401.32 347.67C407.207 346.251 412.965 344.338 418.53 341.95C432.63 335.89 444.54 327.09 453 316.48Z" fill="#4B0062"/>
<path d="M374.35 388.23C365.17 388.247 356.05 386.761 347.35 383.83C340.117 381.399 333.266 377.955 327 373.6C308.37 360.66 296.81 340.89 295.29 319.36L295.19 317.89L296.19 318.99C300.73 324.066 305.875 328.566 311.51 332.39C316.554 335.823 321.911 338.773 327.51 341.2C335.113 344.506 343.068 346.939 351.22 348.45C358.475 349.799 365.84 350.468 373.22 350.45C373.47 350.45 373.72 350.45 373.97 350.45C383.142 350.415 392.277 349.304 401.19 347.14C407.05 345.728 412.78 343.824 418.32 341.45C432.32 335.45 444.19 326.71 452.65 316.15L453.58 314.98V316.47C452.71 346.08 433.01 372.23 403.41 383.1C395.572 385.976 387.347 387.661 379.01 388.1C377.52 388.18 376 388.23 374.35 388.23ZM296.42 320.75C298.33 341.41 309.63 360.31 327.59 372.75C333.775 377.053 340.539 380.457 347.68 382.86C356.274 385.752 365.283 387.218 374.35 387.2C375.93 387.2 377.47 387.2 378.92 387.07C387.146 386.65 395.262 385.001 403 382.18C431.72 371.64 451 346.54 452.45 317.95C443.96 328.12 432.32 336.55 418.69 342.39C413.098 344.788 407.314 346.712 401.4 348.14C392.428 350.316 383.232 351.433 374 351.47H373.23C365.787 351.494 358.358 350.825 351.04 349.47C342.812 347.948 334.784 345.495 327.11 342.16C321.452 339.705 316.038 336.722 310.94 333.25C305.645 329.643 300.774 325.45 296.42 320.75Z" fill="#4B0062"/>
<path d="M389.12 322.26C394.229 322.26 398.37 318.119 398.37 313.01C398.37 307.901 394.229 303.76 389.12 303.76C384.011 303.76 379.87 307.901 379.87 313.01C379.87 318.119 384.011 322.26 389.12 322.26Z" fill="#4B0062"/>
<path d="M326.5 322.26C331.609 322.26 335.75 318.119 335.75 313.01C335.75 307.901 331.609 303.76 326.5 303.76C321.391 303.76 317.25 307.901 317.25 313.01C317.25 318.119 321.391 322.26 326.5 322.26Z" fill="#4B0062"/>
<path d="M317.756 200.442L317.318 201.34L507.821 294.337L508.259 293.439L317.756 200.442Z" fill="#4B0062"/>
<path d="M503.65 156.99L472.87 182.9L466.26 243.62L464.31 261.58L463.18 271.99L375.88 229.38L383.11 222.24L395.96 209.55L449.18 156.99H503.65Z" fill="#A26BB4"/>
<path d="M463.6 272.75L375 229.52L448.95 156.52H504.95L473.28 183.18L463.6 272.75ZM376.73 229.24L462.73 271.24L472.36 182.66L502.25 157.5H449.38L376.73 229.24Z" fill="#4B0062"/>
<path d="M466.26 243.62L464.31 261.58L383.11 222.24L395.96 209.55L466.26 243.62Z" fill="#4B0062"/>
<path d="M464.73 262.34L382.25 222.34L395.85 208.9L466.79 243.28L464.73 262.34ZM384 222.1L463.92 260.82L465.76 243.92L396.09 210.16L384 222.1Z" fill="#4B0062"/>
<path d="M504.15 156.99H503.15V225.37H504.15V156.99Z" fill="#4B0062"/>
<path d="M505.76 222.93C506.591 222.339 507.261 221.551 507.712 220.636C508.162 219.721 508.378 218.709 508.34 217.69C508.34 214.45 506.24 211.82 503.65 211.82C501.06 211.82 499 214.46 499 217.7C498.962 218.719 499.178 219.731 499.628 220.646C500.079 221.56 500.749 222.349 501.58 222.94C501.205 223.226 500.901 223.593 500.689 224.014C500.478 224.435 500.365 224.899 500.36 225.37C500.425 226.206 500.803 226.987 501.418 227.556C502.034 228.126 502.841 228.442 503.68 228.442C504.519 228.442 505.326 228.126 505.942 227.556C506.557 226.987 506.935 226.206 507 225.37C506.994 224.896 506.879 224.429 506.664 224.006C506.449 223.583 506.14 223.215 505.76 222.93Z" fill="#4B0062"/>
<path d="M503.65 215.63C499.52 215.63 495.95 213.05 495.36 209.63L496.36 209.46C496.87 212.41 500.02 214.63 503.67 214.63C507.32 214.63 510.47 212.41 510.99 209.46L511.99 209.63C511.36 213.05 507.79 215.63 503.65 215.63Z" fill="#4B0062"/>
<path d="M511.66 229.48C511.25 226.48 507.73 224.07 503.66 224.07C499.59 224.07 496.05 226.44 495.66 229.48L494.66 229.35C495.14 225.77 499.01 223.08 503.66 223.08C508.31 223.08 512.19 225.78 512.66 229.35L511.66 229.48Z" fill="#4B0062"/>
<path d="M491.76 225.26L490.89 224.77C492.56 221.77 497.69 219.77 503.66 219.77C509.63 219.77 514.77 221.77 516.43 224.77L515.56 225.26C514.1 222.62 509.21 220.78 503.67 220.78C498.13 220.78 493.23 222.62 491.76 225.26Z" fill="#4B0062"/>
<path d="M503.65 218.48C498.57 218.48 494.01 217.01 491.76 214.66L492.48 213.97C494.48 216.11 498.9 217.49 503.65 217.49C508.4 217.49 512.78 216.11 514.82 213.97L515.54 214.66C513.29 217 508.73 218.48 503.65 218.48Z" fill="#4B0062"/>
<path d="M610.14 398.06C613.559 398.06 616.33 395.289 616.33 391.87C616.33 388.451 613.559 385.68 610.14 385.68C606.721 385.68 603.95 388.451 603.95 391.87C603.95 395.289 606.721 398.06 610.14 398.06Z" fill="#4B0062"/>
<path d="M629.6 398.06C633.019 398.06 635.79 395.289 635.79 391.87C635.79 388.451 633.019 385.68 629.6 385.68C626.181 385.68 623.41 388.451 623.41 391.87C623.41 395.289 626.181 398.06 629.6 398.06Z" fill="#4B0062"/>
<path d="M636.82 365.41C636.397 366.121 635.786 366.7 635.053 367.084C634.32 367.467 633.495 367.639 632.67 367.58C629.06 367.42 630.59 369.58 627.67 370.31C624.75 371.04 623.58 368.31 620.05 367.58C616.52 366.85 614.76 370.07 611.63 368.7C610.23 368.09 610.05 366.76 610.51 365.17C614.636 363.214 619.152 362.219 623.718 362.261C628.283 362.302 632.78 363.379 636.87 365.41H636.82Z" fill="#FFF0DC"/>
<path d="M626.66 370.93C625.438 370.843 624.271 370.39 623.31 369.63C622.287 368.89 621.129 368.36 619.9 368.07C618.566 367.863 617.201 368.106 616.02 368.76C614.64 369.35 613.22 369.96 611.38 369.15C610.33 368.69 609.23 367.6 609.98 365.02L610.04 364.81L610.24 364.71C614.342 362.723 618.842 361.697 623.4 361.71C628.128 361.734 632.784 362.861 637 365L637.48 365.24L637.2 365.7C636.734 366.491 636.057 367.135 635.244 367.561C634.431 367.987 633.515 368.177 632.6 368.11C630.91 368.05 630.6 368.49 630.14 369.11C629.876 369.55 629.522 369.93 629.102 370.225C628.682 370.519 628.204 370.722 627.7 370.82C627.359 370.897 627.01 370.934 626.66 370.93ZM618.96 366.93C619.343 366.931 619.725 366.972 620.1 367.05C621.45 367.364 622.724 367.942 623.85 368.75C625.07 369.53 626.03 370.15 627.5 369.75C627.887 369.68 628.253 369.527 628.575 369.3C628.896 369.074 629.164 368.781 629.36 368.44C629.98 367.54 630.59 366.9 632.69 367C633.332 367.044 633.976 366.933 634.566 366.675C635.157 366.418 635.676 366.021 636.08 365.52C632.118 363.641 627.785 362.671 623.4 362.68C619.073 362.657 614.796 363.6 610.88 365.44C610.4 367.31 611.16 367.89 611.78 368.16C613.22 368.79 614.34 368.31 615.63 367.76C616.687 367.272 617.836 367.013 619 367L618.96 366.93Z" fill="#4B0062"/>
<path d="M355.31 315.58L347.52 341.38H363.09L355.31 315.58Z" fill="#4B0062"/>
<path d="M238.12 366.85L232.32 376.55H243.92L238.12 366.85Z" fill="#4B0062"/>
<path d="M515.35 368.43L523.02 360.15L509.56 358.74L515.35 368.43Z" fill="#4B0062"/>
<path d="M502.33 338.97L488.52 350.89L506.87 356.63L502.33 338.97Z" fill="#4B0062"/>
<path d="M263.76 355.75L245.57 357.09L256.88 372.64L263.76 355.75Z" fill="#4B0062"/>
<path d="M210.05 355.64L228.24 356.99L216.93 372.54L210.05 355.64Z" fill="#4B0062"/>
<path d="M533.03 339.57L544.34 353.88L525.23 356.06L533.03 339.57Z" fill="#4B0062"/>
<path d="M619.73 400.52L617.06 409.36H622.4L619.73 400.52Z" fill="#4B0062"/>
<path d="M622.69 331.4L619.06 343.4C618.888 343.967 618.851 344.566 618.953 345.149C619.054 345.732 619.291 346.284 619.644 346.759C619.997 347.234 620.456 347.621 620.985 347.886C621.514 348.152 622.098 348.29 622.69 348.29C623.282 348.29 623.866 348.152 624.395 347.886C624.924 347.621 625.383 347.234 625.736 346.759C626.089 346.284 626.326 345.732 626.427 345.149C626.529 344.566 626.492 343.967 626.32 343.4L622.69 331.4Z" fill="#F44B1B"/>
<path d="M622.69 348.81C622.02 348.81 621.36 348.654 620.761 348.354C620.163 348.053 619.643 347.617 619.244 347.079C618.844 346.542 618.576 345.918 618.461 345.258C618.346 344.599 618.386 343.921 618.58 343.28L622.69 329.66L626.8 343.28C626.994 343.921 627.034 344.599 626.919 345.258C626.804 345.918 626.536 346.542 626.136 347.079C625.737 347.617 625.217 348.053 624.619 348.354C624.02 348.654 623.36 348.81 622.69 348.81ZM622.69 333.12L619.54 343.56C619.392 344.051 619.361 344.571 619.449 345.076C619.538 345.582 619.743 346.06 620.049 346.472C620.355 346.884 620.753 347.218 621.212 347.449C621.671 347.679 622.177 347.8 622.69 347.8C623.203 347.8 623.709 347.679 624.168 347.449C624.626 347.218 625.025 346.884 625.331 346.472C625.637 346.06 625.842 345.582 625.931 345.076C626.019 344.571 625.988 344.051 625.84 343.56L622.69 333.12Z" fill="#4B0062"/>
<path d="M579.8 262.95H578.8V281.14H579.8V262.95Z" fill="#4B0062"/>
<path d="M588.39 271.55H570.2V272.55H588.39V271.55Z" fill="#4B0062"/>
<path d="M574.961 267.01L574.254 267.717L583.637 277.1L584.344 276.393L574.961 267.01Z" fill="#4B0062"/>
<path d="M583.63 267.01L574.247 276.393L574.954 277.1L584.337 267.717L583.63 267.01Z" fill="#4B0062"/>
<path d="M579.3 261.42C579.885 261.42 580.36 260.757 580.36 259.94C580.36 259.123 579.885 258.46 579.3 258.46C578.715 258.46 578.24 259.123 578.24 259.94C578.24 260.757 578.715 261.42 579.3 261.42Z" fill="#4B0062"/>
<path d="M579.3 285.64C579.885 285.64 580.36 284.977 580.36 284.16C580.36 283.343 579.885 282.68 579.3 282.68C578.715 282.68 578.24 283.343 578.24 284.16C578.24 284.977 578.715 285.64 579.3 285.64Z" fill="#4B0062"/>
<path d="M591.41 273.11C592.227 273.11 592.89 272.635 592.89 272.05C592.89 271.465 592.227 270.99 591.41 270.99C590.593 270.99 589.93 271.465 589.93 272.05C589.93 272.635 590.593 273.11 591.41 273.11Z" fill="#4B0062"/>
<path d="M567.18 273.11C567.997 273.11 568.66 272.635 568.66 272.05C568.66 271.465 567.997 270.99 567.18 270.99C566.363 270.99 565.7 271.465 565.7 272.05C565.7 272.635 566.363 273.11 567.18 273.11Z" fill="#4B0062"/>
<path d="M201.71 206H200.71V224.19H201.71V206Z" fill="#4B0062"/>
<path d="M210.3 214.6H192.11V215.6H210.3V214.6Z" fill="#4B0062"/>
<path d="M196.874 210.043L196.167 210.75L205.55 220.133L206.257 219.426L196.874 210.043Z" fill="#4B0062"/>
<path d="M205.557 210.053L196.174 219.436L196.881 220.143L206.264 210.76L205.557 210.053Z" fill="#4B0062"/>
<path d="M213.32 216.16C214.137 216.16 214.8 215.685 214.8 215.1C214.8 214.515 214.137 214.04 213.32 214.04C212.503 214.04 211.84 214.515 211.84 215.1C211.84 215.685 212.503 216.16 213.32 216.16Z" fill="#4B0062"/>
<path d="M189.09 216.16C189.907 216.16 190.57 215.685 190.57 215.1C190.57 214.515 189.907 214.04 189.09 214.04C188.273 214.04 187.61 214.515 187.61 215.1C187.61 215.685 188.273 216.16 189.09 216.16Z" fill="#4B0062"/>
<path d="M257.23 222.37H256.23V237.47H257.23V222.37Z" fill="#4B0062"/>
<path d="M261.4 229.42H252.05V230.42H261.4V229.42Z" fill="#4B0062"/>
<path d="M240.84 242.24H239.84V253.78H240.84V242.24Z" fill="#4B0062"/>
<path d="M243.91 247.5H236.77V248.5H243.91V247.5Z" fill="#4B0062"/>
<path d="M309.7 176.89C312.113 176.89 314.07 174.934 314.07 172.52C314.07 170.107 312.113 168.15 309.7 168.15C307.287 168.15 305.33 170.107 305.33 172.52C305.33 174.934 307.287 176.89 309.7 176.89Z" fill="#A26BB4"/>
<path d="M656.28 321.34C658.694 321.34 660.65 319.383 660.65 316.97C660.65 314.557 658.694 312.6 656.28 312.6C653.867 312.6 651.91 314.557 651.91 316.97C651.91 319.383 653.867 321.34 656.28 321.34Z" fill="#A26BB4"/>
<path d="M164.79 277.48C167.203 277.48 169.16 275.523 169.16 273.11C169.16 270.697 167.203 268.74 164.79 268.74C162.376 268.74 160.42 270.697 160.42 273.11C160.42 275.523 162.376 277.48 164.79 277.48Z" fill="#A26BB4"/>
<path d="M324.07 189.96C325.407 189.96 326.49 188.877 326.49 187.54C326.49 186.203 325.407 185.12 324.07 185.12C322.733 185.12 321.65 186.203 321.65 187.54C321.65 188.877 322.733 189.96 324.07 189.96Z" fill="#A26BB4"/>
<path d="M628.91 300.64C630.247 300.64 631.33 299.557 631.33 298.22C631.33 296.883 630.247 295.8 628.91 295.8C627.573 295.8 626.49 296.883 626.49 298.22C626.49 299.557 627.573 300.64 628.91 300.64Z" fill="#A26BB4"/>
<path d="M285.37 215.75C286.513 215.75 287.44 214.823 287.44 213.68C287.44 212.537 286.513 211.61 285.37 211.61C284.227 211.61 283.3 212.537 283.3 213.68C283.3 214.823 284.227 215.75 285.37 215.75Z" fill="#A26BB4"/>
<path d="M181.95 258.67C183.093 258.67 184.02 257.743 184.02 256.6C184.02 255.457 183.093 254.53 181.95 254.53C180.807 254.53 179.88 255.457 179.88 256.6C179.88 257.743 180.807 258.67 181.95 258.67Z" fill="#A26BB4"/>
<path d="M189.6 375.11L211.63 391.08L223.68 386.12L230.91 393.42L238.77 386.4L248.13 392.18L256.12 382.68L260.39 385.44L271.56 371.7L260.53 393.42H255.41L248.93 402.52L240.34 399.21L232.32 405.68L220.42 398.79L207.78 399.9L189.6 375.11Z" fill="#4B0062"/>
<path d="M313.56 427.11L310.35 424.8L310.91 420.85L294.33 424.36L309.27 432.37L309.83 428.42L313.56 427.11Z" fill="#A26BB4"/>
<path d="M309.66 433.15L292.89 424.15L311.51 420.21L310.89 424.57L314.64 427.26L310.29 428.8L309.66 433.15ZM295.77 424.57L308.87 431.57L309.37 428.03L312.49 426.93L309.81 425L310.32 421.46L295.77 424.57Z" fill="#4B0062"/>
<path d="M271.86 419.3L268.13 420.62L271.34 422.93L270.78 426.88L287.36 423.37L272.42 415.35L271.86 419.3Z" fill="#A26BB4"/>
<path d="M270.18 427.51L270.8 423.15L267.05 420.46L271.4 418.92L272.02 414.56L288.79 423.56L270.18 427.51ZM269.18 420.77L271.86 422.7L271.35 426.24L285.89 423.16L272.79 416.16L272.29 419.7L269.18 420.77Z" fill="#4B0062"/>
<path d="M298.632 424.939C299.247 420.625 296.249 416.629 291.935 416.014C287.621 415.398 283.625 418.396 283.01 422.71C282.394 427.024 285.392 431.02 289.706 431.636C294.02 432.251 298.016 429.253 298.632 424.939Z" fill="#A26BB4"/>
<path d="M290.85 432.25C290.452 432.251 290.054 432.225 289.66 432.17C287.51 431.871 285.56 430.749 284.221 429.04C282.881 427.332 282.257 425.17 282.48 423.011C282.702 420.851 283.754 418.862 285.414 417.463C287.074 416.064 289.212 415.363 291.378 415.509C293.544 415.655 295.569 416.635 297.026 418.244C298.484 419.853 299.26 421.964 299.191 424.134C299.123 426.304 298.215 428.362 296.659 429.876C295.103 431.39 293.021 432.241 290.85 432.25ZM290.85 416.47C289.073 416.474 287.357 417.118 286.016 418.284C284.676 419.45 283.8 421.061 283.55 422.82C283.343 424.267 283.57 425.743 284.202 427.061C284.834 428.379 285.842 429.48 287.1 430.225C288.358 430.969 289.808 431.324 291.268 431.245C292.727 431.165 294.13 430.655 295.3 429.778C296.469 428.901 297.352 427.697 297.837 426.318C298.322 424.939 298.387 423.447 298.024 422.031C297.661 420.615 296.887 419.339 295.799 418.363C294.71 417.388 293.357 416.757 291.91 416.55C291.552 416.497 291.191 416.471 290.83 416.47H290.85Z" fill="#4B0062"/>
<path d="M422.46 427.74L416.92 433.06L423.79 436.5L423.66 443.01L432.76 430.65L420.39 421.56L422.46 427.74Z" fill="#FFF0DC"/>
<path d="M423.13 444.58L423.28 436.81L416.06 433.2L421.88 427.6L419.42 420.22L433.42 430.54L423.13 444.58ZM417.78 432.94L424.3 436.2L424.2 441.45L432.06 430.76L421.37 422.9L423.03 427.9L417.78 432.94Z" fill="#4B0062"/>
<path d="M494.72 421.22L487.85 417.78L487.98 411.27L478.88 423.63L491.25 432.72L489.18 426.54L494.72 421.22Z" fill="#FFF0DC"/>
<path d="M492.22 434.06L478.22 423.74L488.54 409.74L488.39 417.52L495.61 421.13L489.79 426.73L492.22 434.06ZM479.59 423.52L490.28 431.38L488.62 426.38L493.87 421.33L487.35 418.07L487.45 412.81L479.59 423.52Z" fill="#4B0062"/>
<path d="M481.49 420.42L482.33 425.91C482.421 426.495 482.395 427.091 482.255 427.666C482.114 428.241 481.862 428.782 481.511 429.259C481.161 429.735 480.72 430.138 480.213 430.444C479.707 430.75 479.145 430.952 478.56 431.04L435.29 437.63C434.11 437.808 432.908 437.511 431.946 436.805C430.985 436.098 430.342 435.039 430.16 433.86L429.32 428.37C429.229 427.785 429.255 427.189 429.395 426.614C429.536 426.039 429.788 425.498 430.139 425.021C430.489 424.545 430.93 424.142 431.437 423.836C431.943 423.53 432.505 423.328 433.09 423.24L476.36 416.65C477.54 416.472 478.742 416.769 479.704 417.475C480.665 418.182 481.308 419.241 481.49 420.42Z" fill="#FFF0DC"/>
<path d="M434.6 438.18C433.404 438.179 432.249 437.75 431.343 436.97C430.436 436.191 429.839 435.112 429.66 433.93L428.83 428.44C428.731 427.791 428.76 427.128 428.917 426.49C429.074 425.852 429.355 425.251 429.744 424.722C430.133 424.192 430.622 423.745 431.185 423.405C431.747 423.065 432.37 422.839 433.02 422.74L476.29 416.15C477.338 415.983 478.412 416.162 479.35 416.66C480.047 417.024 480.648 417.546 481.105 418.186C481.562 418.825 481.862 419.563 481.98 420.34L482.82 425.83C482.919 426.479 482.89 427.142 482.733 427.78C482.576 428.418 482.295 429.019 481.906 429.548C481.517 430.078 481.027 430.525 480.465 430.865C479.903 431.205 479.28 431.431 478.63 431.53L435.36 438.12C435.109 438.159 434.854 438.179 434.6 438.18ZM477 417.1C476.797 417.085 476.593 417.085 476.39 417.1L433.12 423.69C432.601 423.769 432.102 423.95 431.652 424.222C431.203 424.494 430.811 424.852 430.5 425.276C430.189 425.699 429.965 426.18 429.839 426.69C429.714 427.201 429.69 427.731 429.77 428.25L430.6 433.74C430.679 434.259 430.86 434.758 431.132 435.208C431.404 435.657 431.762 436.049 432.186 436.36C432.609 436.671 433.09 436.895 433.6 437.021C434.111 437.146 434.641 437.17 435.16 437.09L478.43 430.5C478.949 430.421 479.448 430.24 479.898 429.968C480.347 429.696 480.739 429.338 481.05 428.914C481.361 428.491 481.585 428.01 481.711 427.5C481.836 426.989 481.86 426.459 481.78 425.94L481 420.5C480.904 419.879 480.663 419.289 480.296 418.778C479.93 418.267 479.448 417.85 478.89 417.56C478.309 417.249 477.659 417.091 477 417.1Z" fill="#4B0062"/>
<path d="M435.59 422.86L432.13 436.93C431.597 436.588 431.142 436.137 430.797 435.606C430.453 435.075 430.225 434.476 430.13 433.85L429.29 428.36C429.199 427.775 429.225 427.179 429.365 426.604C429.506 426.029 429.758 425.488 430.109 425.011C430.459 424.535 430.9 424.132 431.407 423.826C431.913 423.52 432.475 423.318 433.06 423.23L435.59 422.86Z" fill="#F44B1B"/>
<path d="M432.45 437.73L431.86 437.35C431.274 436.966 430.776 436.463 430.397 435.874C430.018 435.285 429.767 434.622 429.66 433.93L428.83 428.44C428.731 427.791 428.76 427.128 428.917 426.49C429.074 425.852 429.355 425.251 429.744 424.722C430.133 424.192 430.622 423.745 431.185 423.405C431.747 423.065 432.37 422.839 433.02 422.74L436.26 422.25L432.45 437.73ZM434.93 423.46L433.17 423.73C432.651 423.809 432.152 423.99 431.702 424.262C431.253 424.534 430.861 424.892 430.55 425.316C430.239 425.739 430.015 426.22 429.889 426.73C429.764 427.241 429.74 427.771 429.82 428.29L430.65 433.78C430.782 434.649 431.197 435.45 431.83 436.06L434.93 423.46Z" fill="#4B0062"/>
<path d="M450.17 420.64L446.41 435.93L438.55 437.13L442.31 421.83L450.17 420.64Z" fill="#F44B1B"/>
<path d="M437.89 437.73L441.89 421.39L450.82 420.03L446.82 436.37L437.89 437.73ZM442.72 422.28L439.22 436.52L446.01 435.52L449.51 421.28L442.72 422.28Z" fill="#4B0062"/>
<path d="M464.75 418.42L460.99 433.71L453.13 434.9L456.9 419.61L464.75 418.42Z" fill="#F44B1B"/>
<path d="M452.47 435.51L456.47 419.17L465.39 417.81L461.39 434.15L452.47 435.51ZM457.31 420.05L453.8 434.3L460.59 433.3L464.09 419.06L457.31 420.05Z" fill="#4B0062"/>
<path d="M479.11 417.11L475.57 431.49L467.71 432.69L471.48 417.4L476.35 416.66C477.294 416.508 478.263 416.666 479.11 417.11Z" fill="#F44B1B"/>
<path d="M467 433.29L471 416.95L476.2 416.16C477.248 415.993 478.322 416.172 479.26 416.67L479.6 416.85L476 431.93L467 433.29ZM471.84 417.84L468.33 432.08L475.12 431.08L478.48 417.43C477.819 417.158 477.096 417.071 476.39 417.18L471.84 417.84Z" fill="#4B0062"/>
<path d="M568.36 358.21C566.71 378.36 548.36 394.21 525.88 394.21C503.4 394.21 485.06 378.33 483.4 358.21C488.165 363.39 493.991 367.483 500.48 370.21C504.62 371.996 508.947 373.315 513.38 374.14C517.382 374.905 521.446 375.297 525.52 375.31H525.88C530.627 375.31 535.36 374.804 540 373.8C551.69 371.27 561.68 365.66 568.36 358.21Z" fill="#4B0062"/>
<path d="M525.88 394.74C503.47 394.74 484.59 378.74 482.88 358.26L482.76 356.78L483.76 357.89C488.485 363 494.252 367.038 500.67 369.73C504.775 371.502 509.065 372.81 513.46 373.63C517.416 374.384 521.433 374.773 525.46 374.79H525.82C530.526 374.794 535.219 374.298 539.82 373.31C551.23 370.84 561.21 365.36 567.92 357.87L568.92 356.76L568.8 358.24C567.19 378.71 548.31 394.74 525.88 394.74ZM484.05 359.65C486.46 378.88 504.52 393.74 525.88 393.74C547.24 393.74 565.31 378.88 567.71 359.64C560.89 366.72 551.15 371.9 540.1 374.28C535.427 375.284 530.66 375.787 525.88 375.78H525.52C521.416 375.765 517.322 375.37 513.29 374.6C508.821 373.755 504.461 372.413 500.29 370.6C494.215 368.048 488.701 364.327 484.06 359.65H484.05Z" fill="#4B0062"/>
<path d="M513.38 374.12V381.59L500.48 376.87V370.19C504.62 371.976 508.947 373.294 513.38 374.12Z" fill="#F48001"/>
<path d="M513.88 382.3L500 377.22V369.43L500.7 369.73C504.805 371.502 509.095 372.811 513.49 373.63L513.9 373.71L513.88 382.3ZM501 376.52L512.9 380.87V374.53C508.822 373.741 504.834 372.538 501 370.94V376.52Z" fill="#4B0062"/>
<path d="M540 373.8V378.74L525.52 382V375.25H525.88C530.625 375.27 535.358 374.784 540 373.8Z" fill="#F48001"/>
<path d="M525 382.66V374.78H525.86C530.566 374.784 535.259 374.288 539.86 373.3L540.47 373.17V379.17L525 382.66ZM526 375.78V381.4L539.47 378.33V374.41C535.038 375.321 530.525 375.783 526 375.79V375.78Z" fill="#4B0062"/>
<path d="M327.3 341.66V352.95L311.21 345V332.8C316.282 336.254 321.669 339.221 327.3 341.66Z" fill="#F48001"/>
<path d="M327.8 353.75L310.71 345.32V331.85L311.49 332.38C316.534 335.817 321.891 338.77 327.49 341.2L327.79 341.33L327.8 353.75ZM311.71 344.69L326.8 352.14V342C321.539 339.696 316.489 336.936 311.71 333.75V344.69Z" fill="#4B0062"/>
<path d="M374 351V360H351.12V349C358.408 350.354 365.807 351.023 373.22 351H374Z" fill="#F48001"/>
<path d="M374.49 360.45H350.62V348.33L351.21 348.44C358.465 349.789 365.83 350.458 373.21 350.44C373.46 350.44 373.71 350.44 373.96 350.44H374.48L374.49 360.45ZM351.62 359.45H373.49V351.45H373.22C365.976 351.457 358.747 350.808 351.62 349.51V359.45Z" fill="#4B0062"/>
<path d="M419.48 350.57L402.33 356.77L401.33 347.65C407.217 346.231 412.975 344.318 418.54 341.93L419.48 350.57Z" fill="#F48001"/>
<path d="M401.91 357.45L400.77 347.26L401.2 347.16C407.06 345.748 412.79 343.845 418.33 341.47L418.95 341.2L420.03 350.9L401.91 357.45ZM401.91 348.03L402.81 356.08L418.99 350.23L418.15 342.65C412.87 344.86 407.423 346.649 401.86 348L401.91 348.03Z" fill="#4B0062"/>
<path d="M347.52 373.09V383.36C340.333 380.942 333.526 377.518 327.3 373.19V365.77L347.52 373.09Z" fill="#F48001"/>
<path d="M348 384.05L347.34 383.83C340.111 381.398 333.262 377.954 327 373.6L326.79 373.45V365.06L348 372.74V384.05ZM327.8 372.92C333.73 377.021 340.189 380.297 347 382.66V373.44L327.78 366.44L327.8 372.92Z" fill="#4B0062"/>
<path d="M403.2 373.66V382.66C395.412 385.529 387.238 387.214 378.95 387.66V377.08L403.2 373.66Z" fill="#F48001"/>
<path d="M378.45 388.12V376.64L403.7 373.08V383L403.37 383.12C395.532 385.996 387.307 387.681 378.97 388.12H378.45ZM379.45 377.51V387.07C387.389 386.607 395.22 385.001 402.7 382.3V374.24L379.45 377.51Z" fill="#4B0062"/>
<path d="M174 371.93C173.796 373.032 173.481 374.111 173.06 375.15L170.06 382.57L166.31 391.79L162.89 400.17L159.14 409.39L155.73 417.76L151.92 427L151.82 427.25L151.47 427.11L143.47 423.86L144.82 420.54L148.23 412.16L151.98 402.95L155.39 394.57L159.14 385.35L162 378.4L164.71 371.75C165.251 370.447 165.391 369.012 165.11 367.63C164.761 365.748 163.682 364.081 162.11 362.99C161.672 362.679 161.199 362.42 160.7 362.22C159.407 361.689 157.989 361.542 156.615 361.796C155.241 362.049 153.968 362.693 152.95 363.65C152.169 364.366 151.558 365.248 151.16 366.23L149.16 371.16L147.71 374.72L140 371.59L139.35 371.33L139.54 370.85L142.81 362.85C142.96 362.47 143.13 362.1 143.31 361.74C144.683 359 146.801 356.702 149.421 355.11C152.04 353.518 155.055 352.697 158.12 352.74C160.158 352.763 162.173 353.17 164.06 353.94C164.712 354.206 165.347 354.513 165.96 354.86C168.899 356.54 171.246 359.088 172.679 362.155C174.111 365.223 174.559 368.658 173.96 371.99L174 371.93Z" fill="#F44B1B"/>
<path d="M152.1 427.89L151.28 427.56L142.84 424.12L164.23 371.56C164.732 370.349 164.861 369.015 164.6 367.73C164.275 365.976 163.273 364.421 161.81 363.4C161.4 363.108 160.957 362.866 160.49 362.68C159.665 362.334 158.779 362.156 157.885 362.156C156.991 362.156 156.105 362.334 155.28 362.68C153.619 363.389 152.301 364.721 151.61 366.39L147.97 375.39L138.71 371.63L139.08 370.69L142.35 362.69C142.5 362.3 142.68 361.92 142.87 361.55C144.657 357.946 147.681 355.106 151.39 353.55C153.518 352.639 155.815 352.19 158.13 352.23C160.233 352.252 162.313 352.673 164.26 353.47C167.832 354.935 170.793 357.581 172.649 360.966C174.506 364.351 175.145 368.271 174.46 372.07C174.24 373.208 173.905 374.32 173.46 375.39L152.1 427.89ZM144.1 423.57L151.5 426.57L172.5 374.94C172.907 373.933 173.212 372.888 173.41 371.82C173.993 368.59 173.561 365.258 172.173 362.284C170.785 359.31 168.51 356.838 165.66 355.21C165.066 354.875 164.452 354.577 163.82 354.32C160.125 352.818 155.998 352.768 152.268 354.179C148.537 355.59 145.477 358.359 143.7 361.93C143.53 362.28 143.36 362.64 143.22 363L140 371L147.42 374L150.68 366C151.472 364.086 152.984 362.56 154.89 361.75C155.84 361.351 156.86 361.146 157.89 361.146C158.92 361.146 159.94 361.351 160.89 361.75C161.424 361.966 161.931 362.244 162.4 362.58C164.086 363.758 165.236 365.556 165.6 367.58C165.898 369.057 165.749 370.589 165.17 371.98L144.1 423.57Z" fill="#4B0062"/>
<path d="M143.49 423.85L151.47 427.1L151.92 426.99V426.98L155.68 417.77L144.84 420.53L143.49 423.85Z" fill="#FFF0DC"/>
<path d="M151.43 427.62L142.84 424.12L144.47 420.12L156.47 417.05L152.37 427.05V427.35L151.43 427.62ZM144.14 423.62L151.51 426.62L154.8 418.55L145.17 421L144.14 423.62Z" fill="#4B0062"/>
<path d="M148.25 412.15L159.09 409.39L162.84 400.17L152 402.94L148.25 412.15Z" fill="#FFF0DC"/>
<path d="M147.42 412.88L151.64 402.52L163.64 399.44L159.42 409.81L147.42 412.88ZM152.42 403.36L149.14 411.42L158.77 408.97L162 400.9L152.42 403.36Z" fill="#4B0062"/>
<path d="M155.41 394.56L166.26 391.79L170.01 382.57L159.16 385.34L155.41 394.56Z" fill="#FFF0DC"/>
<path d="M154.58 395.29L158.8 384.92L170.85 381.84L166.63 392.21L154.58 395.29ZM159.58 385.76L156.3 393.83L165.94 391.37L169.22 383.3L159.58 385.76Z" fill="#4B0062"/>
<path d="M173.18 363.26L165.09 367.63C165.371 369.012 165.231 370.447 164.69 371.75L162 378.4L174 371.93C174.517 369.019 174.234 366.022 173.18 363.26Z" fill="#FFF0DC"/>
<path d="M161 379.5L164.24 371.56C164.742 370.349 164.871 369.015 164.61 367.73L164.54 367.37L173.46 362.55L173.66 363.09C174.735 365.941 175.015 369.032 174.47 372.03V372.27L161 379.5ZM165.65 367.9C165.852 369.253 165.682 370.636 165.16 371.9L163 377.29L173.55 371.6C173.976 369.045 173.766 366.425 172.94 363.97L165.65 367.9Z" fill="#4B0062"/>
<path d="M160.68 362.22C161.179 362.42 161.652 362.679 162.09 362.99L166 354.8C165.387 354.453 164.752 354.146 164.1 353.88C162.213 353.11 160.198 352.703 158.16 352.68L152.97 363.68C153.988 362.723 155.261 362.079 156.635 361.826C158.009 361.572 159.427 361.719 160.72 362.25L160.68 362.22Z" fill="#FFF0DC"/>
<path d="M151.33 365.86L157.8 352.18H158.12C160.227 352.201 162.31 352.622 164.26 353.42C164.947 353.693 165.615 354.01 166.26 354.37L166.66 354.6L162.32 363.75L161.83 363.4C161.423 363.112 160.983 362.874 160.52 362.69C159.695 362.344 158.809 362.166 157.915 362.166C157.021 362.166 156.135 362.344 155.31 362.69C154.571 363 153.893 363.44 153.31 363.99L151.33 365.86ZM157.91 361.17C158.938 361.164 159.958 361.361 160.91 361.75C161.255 361.893 161.589 362.06 161.91 362.25L165.34 355C164.88 354.76 164.4 354.53 163.9 354.33C162.167 353.621 160.321 353.228 158.45 353.17L154.23 362.1C154.45 361.98 154.67 361.87 154.91 361.78C155.863 361.379 156.886 361.171 157.92 361.17H157.91Z" fill="#4B0062"/>
<path d="M149.14 371.16L143.31 361.73C143.13 362.09 142.96 362.46 142.81 362.84L139.54 370.84L140 371.58L147.69 374.71L149.14 371.16Z" fill="#FFF0DC"/>
<path d="M148 375.37L139.7 371.99L139.02 370.89L142.39 362.64C142.54 362.25 142.72 361.87 142.91 361.5L143.31 360.7L149.75 371.11L148 375.37ZM140.37 371.19L147.45 374.07L148.62 371.21L143.41 362.79L143.31 363.03L140.14 370.81L140.37 371.19Z" fill="#4B0062"/>
</g>
<defs>
<clipPath id="clip0_20_975">
<rect width="800" height="600" fill="white"/>
</clipPath>
</defs>
</svg>
